<svg width="15" height="64" viewBox="0 0 15 64" fill="none" xmlns="http://www.w3.org/2000/svg">
<g clip-path="url(#clip0_3223_22884)">
<path fill-rule="evenodd" clip-rule="evenodd" d="M12.2518 25.3086C11.785 25.3086 11.3374 25.494 11.0074 25.8241L11.0063 25.8251L8.5143 28.3463L3.2586 25.9168C3.04268 25.813 2.80783 25.7544 2.56845 25.7446C2.32835 25.7348 2.08878 25.7743 1.86453 25.8606C1.64027 25.947 1.43609 26.0783 1.26456 26.2466C1.09605 26.412 0.962571 26.6095 0.872041 26.8274C0.671361 27.2146 0.623428 27.6632 0.738063 28.0843C0.853806 28.5094 1.12665 28.8747 1.50143 29.1064L5.37852 31.4938L4.1686 32.7037H1.92223C1.91515 32.7037 1.90807 32.704 1.90102 32.7046C1.46638 32.7408 1.06122 32.939 0.765888 33.2599C0.47056 33.5809 0.306641 34.0011 0.306641 34.4372C0.306641 34.8734 0.47056 35.2936 0.765888 35.6145C1.06122 35.9355 1.46638 36.1337 1.90102 36.1699C1.90807 36.1705 1.91515 36.1708 1.92223 36.1708H3.1495V37.3981C3.1495 37.4051 3.1498 37.4122 3.15038 37.4192C3.18658 37.8539 3.38479 38.259 3.70573 38.5544C4.02667 38.8497 4.44688 39.0136 4.88302 39.0136C5.31917 39.0136 5.73938 38.8497 6.06032 38.5544C6.38126 38.259 6.57948 37.8539 6.61567 37.4192C6.61625 37.4122 6.61655 37.4051 6.61655 37.3981V35.1517L7.82646 33.9417L10.2136 37.8184C10.4452 38.1932 10.8109 38.4664 11.2359 38.5822C11.6573 38.6969 12.1063 38.6489 12.4937 38.4478C12.7057 38.358 12.8979 38.2272 13.0594 38.063C13.2235 37.8958 13.3524 37.6975 13.4384 37.4797C13.5244 37.2617 13.5658 37.0289 13.5601 36.7947C13.5545 36.5606 13.5017 36.3299 13.4051 36.1165L13.4047 36.1155L10.9735 30.8064L13.4951 28.314L13.4962 28.3129C13.8262 27.9829 14.0116 27.5352 14.0116 27.0685C14.0116 26.6017 13.8262 26.1541 13.4962 25.8241C13.1661 25.494 12.7185 25.3086 12.2518 25.3086Z" fill="#55FBAF"/>
</g>
<path opacity="0.2" d="M7.01503 14.16C7.23057 14.5333 7.76943 14.5333 7.98497 14.16L10.0461 10.59C10.2617 10.2167 9.99223 9.75 9.56114 9.75H5.43886C5.00777 9.75 4.73834 10.2167 4.95389 10.59L7.01503 14.16Z" fill="#55FBAF"/>
<path opacity="0.1" d="M7.01503 6.16C7.23057 6.53333 7.76943 6.53333 7.98497 6.16L10.0461 2.59C10.2617 2.21667 9.99223 1.75 9.56114 1.75H5.43886C5.00777 1.75 4.73834 2.21667 4.95389 2.59L7.01503 6.16Z" fill="#55FBAF"/>
<path opacity="0.4" d="M7.01503 22.16C7.23057 22.5333 7.76943 22.5333 7.98497 22.16L10.0461 18.59C10.2617 18.2167 9.99223 17.75 9.56114 17.75H5.43886C5.00777 17.75 4.73834 18.2167 4.95389 18.59L7.01503 22.16Z" fill="#55FBAF"/>
<path opacity="0.7" d="M7.01503 47.16C7.23057 47.5333 7.76943 47.5333 7.98497 47.16L10.0461 43.59C10.2617 43.2167 9.99223 42.75 9.56114 42.75H5.43886C5.00777 42.75 4.73834 43.2167 4.95389 43.59L7.01503 47.16Z" fill="#55FBAF"/>
<path d="M7.01503 55.16C7.23057 55.5333 7.76943 55.5333 7.98497 55.16L10.0461 51.59C10.2617 51.2167 9.99223 50.75 9.56114 50.75H5.43886C5.00777 50.75 4.73834 51.2167 4.95389 51.59L7.01503 55.16Z" fill="#55FBAF"/>
<path d="M7.01503 63.16C7.23057 63.5333 7.76943 63.5333 7.98497 63.16L10.0461 59.59C10.2617 59.2167 9.99223 58.75 9.56114 58.75H5.43886C5.00777 58.75 4.73834 59.2167 4.95389 59.59L7.01503 63.16Z" fill="#55FBAF"/>
<defs>
<clipPath id="clip0_3223_22884">
<rect width="14.3182" height="14.3182" fill="white" transform="translate(0 25)"/>
</clipPath>
</defs>
</svg>
