<svg width="15" height="64" viewBox="0 0 15 64" fill="none" xmlns="http://www.w3.org/2000/svg">
<path fill-rule="evenodd" clip-rule="evenodd" d="M2.67452 26.87C2.67452 26.7486 2.77299 26.6501 2.89445 26.6501H12.106C12.2275 26.6501 12.3259 26.7486 12.3259 26.87V31.4279H2.67452V26.87ZM13.9331 36.5933C13.9331 37.4524 13.3401 38.1729 12.5413 38.3681V38.9184C12.5413 39.5101 12.0616 39.9899 11.4698 39.9899C10.8781 39.9899 10.3984 39.5101 10.3984 38.9184V38.4204H4.60197V38.9184C4.60197 39.5101 4.12228 39.9899 3.53054 39.9899C2.93881 39.9899 2.45911 39.5101 2.45911 38.9184V38.3681C1.66023 38.1729 1.06738 37.4524 1.06738 36.5933V26.87C1.06738 25.861 1.88539 25.043 2.89445 25.043H12.106C13.115 25.043 13.9331 25.861 13.9331 26.87V36.5933ZM4.28592 35.7136C4.87765 35.7136 5.35735 35.2339 5.35735 34.6421C5.35735 34.0504 4.87765 33.5707 4.28592 33.5707C3.69419 33.5707 3.21449 34.0504 3.21449 34.6421C3.21449 35.2339 3.69419 35.7136 4.28592 35.7136ZM10.7145 35.7136C11.3062 35.7136 11.7859 35.2339 11.7859 34.6421C11.7859 34.0504 11.3062 33.5707 10.7145 33.5707C10.1228 33.5707 9.64306 34.0504 9.64306 34.6421C9.64306 35.2339 10.1228 35.7136 10.7145 35.7136Z" fill="#55FBAF"/>
<path opacity="0.2" d="M7.01503 14.16C7.23057 14.5333 7.76943 14.5333 7.98497 14.16L10.0461 10.59C10.2617 10.2167 9.99223 9.75 9.56114 9.75H5.43886C5.00777 9.75 4.73834 10.2167 4.95389 10.59L7.01503 14.16Z" fill="#55FBAF"/>
<path opacity="0.1" d="M7.01503 6.16C7.23057 6.53333 7.76943 6.53333 7.98497 6.16L10.0461 2.59C10.2617 2.21667 9.99223 1.75 9.56114 1.75H5.43886C5.00777 1.75 4.73834 2.21667 4.95389 2.59L7.01503 6.16Z" fill="#55FBAF"/>
<path opacity="0.4" d="M7.01503 22.16C7.23057 22.5333 7.76943 22.5333 7.98497 22.16L10.0461 18.59C10.2617 18.2167 9.99223 17.75 9.56114 17.75H5.43886C5.00777 17.75 4.73834 18.2167 4.95389 18.59L7.01503 22.16Z" fill="#55FBAF"/>
<path opacity="0.7" d="M7.01503 47.16C7.23057 47.5333 7.76943 47.5333 7.98497 47.16L10.0461 43.59C10.2617 43.2167 9.99223 42.75 9.56114 42.75H5.43886C5.00777 42.75 4.73834 43.2167 4.95389 43.59L7.01503 47.16Z" fill="#55FBAF"/>
<path d="M7.01503 55.16C7.23057 55.5333 7.76943 55.5333 7.98497 55.16L10.0461 51.59C10.2617 51.2167 9.99223 50.75 9.56114 50.75H5.43886C5.00777 50.75 4.73834 51.2167 4.95389 51.59L7.01503 55.16Z" fill="#55FBAF"/>
<path d="M7.01503 63.16C7.23057 63.5333 7.76943 63.5333 7.98497 63.16L10.0461 59.59C10.2617 59.2167 9.99223 58.75 9.56114 58.75H5.43886C5.00777 58.75 4.73834 59.2167 4.95389 59.59L7.01503 63.16Z" fill="#55FBAF"/>
</svg>
