<svg width="19" height="64" viewBox="0 0 19 64" fill="none" xmlns="http://www.w3.org/2000/svg">
<g clip-path="url(#clip0_3223_23325)">
<path fill-rule="evenodd" clip-rule="evenodd" d="M10.4997 25.9894C10.653 25.7662 10.9064 25.6328 11.1771 25.6328H14.4645C14.9184 25.6328 15.2863 26.0008 15.2863 26.4546C15.2863 26.9085 14.9184 27.2765 14.4645 27.2765H12.3737L13.9068 31.2626C14.0904 31.2353 14.2767 31.2213 14.4645 31.2213C15.4671 31.2213 16.4287 31.6196 17.1376 32.3286C17.8466 33.0375 18.2449 33.9991 18.2449 35.0017C18.2449 36.0044 17.8466 36.966 17.1376 37.6749C16.4287 38.3839 15.4671 38.7822 14.4645 38.7822C13.4618 38.7822 12.5003 38.3839 11.7913 37.6749C11.0823 36.966 10.684 36.0044 10.684 35.0017C10.684 34.4639 10.7986 33.9379 11.0143 33.4565L9.85064 34.8527C9.79056 34.9291 9.71582 34.9961 9.62756 35.0489C9.51992 35.1135 9.40344 35.1506 9.28631 35.1623L7.70846 35.3595C7.62566 36.2308 7.24231 37.0508 6.61816 37.6749C5.90919 38.3839 4.94763 38.7822 3.94499 38.7822C2.94235 38.7822 1.98078 38.3839 1.27181 37.6749C0.562846 36.966 0.164551 36.0044 0.164551 35.0017C0.164551 33.9991 0.562846 33.0375 1.27181 32.3286C1.98078 31.6196 2.94235 31.2213 3.94499 31.2213C4.25539 31.2213 4.56188 31.2595 4.85813 31.3332L5.57648 29.8945L4.79461 28.5914H3.94499C3.4911 28.5914 3.12315 28.2235 3.12315 27.7696C3.12315 27.3157 3.4911 26.9477 3.94499 26.9477H5.24487C5.25439 26.9476 5.26392 26.9476 5.27343 26.9477H7.23233C7.68622 26.9477 8.05416 27.3157 8.05416 27.7696C8.05416 28.2235 7.68622 28.5914 7.23233 28.5914H6.71144L7.21229 29.4262L7.2227 29.4435L9.31409 32.9292L11.6902 30.078L10.4101 26.7497C10.3129 26.4969 10.3464 26.2126 10.4997 25.9894ZM13.6973 35.2968L12.9894 33.4558C12.9773 33.4673 12.9654 33.479 12.9535 33.4908C12.5528 33.8915 12.3277 34.435 12.3277 35.0017C12.3277 35.5685 12.5528 36.1119 12.9535 36.5126C13.3543 36.9134 13.8977 37.1385 14.4645 37.1385C15.0312 37.1385 15.5747 36.9134 15.9753 36.5126C16.3761 36.1119 16.6012 35.5685 16.6012 35.0017C16.6012 34.435 16.3761 33.8915 15.9753 33.4908C15.5886 33.104 15.0688 32.8808 14.5235 32.8658L15.2315 34.7067C15.3944 35.1303 15.1831 35.6058 14.7595 35.7687C14.3359 35.9318 13.8604 35.7203 13.6973 35.2968ZM12.3658 31.8347L12.3728 31.8527C12.3559 31.8638 12.3392 31.8752 12.3225 31.8866L12.3658 31.8347ZM6.57921 31.5657L6.00194 32.7218L5.36582 33.9959L6.77836 33.8193L7.85088 33.6852L6.57921 31.5657ZM6.0041 35.5725L4.04694 35.8172C3.74626 35.8549 3.44931 35.7239 3.27423 35.4765C3.09914 35.2292 3.07436 34.9057 3.20972 34.6346L4.09083 32.8699C4.04244 32.8666 3.9938 32.865 3.94499 32.865C3.37828 32.865 2.83479 33.0901 2.43406 33.4908C2.03334 33.8915 1.80822 34.435 1.80822 35.0017C1.80822 35.5685 2.03334 36.1119 2.43406 36.5126C2.83479 36.9134 3.37828 37.1385 3.94499 37.1385C4.51169 37.1385 5.05519 36.9134 5.45591 36.5126C5.71901 36.2496 5.90641 35.9249 6.0041 35.5725Z" fill="#55FBAF"/>
</g>
<path opacity="0.2" d="M9.01503 14.16C9.23057 14.5333 9.76943 14.5333 9.98497 14.16L12.0461 10.59C12.2617 10.2167 11.9922 9.75 11.5611 9.75H7.43886C7.00777 9.75 6.73834 10.2167 6.95389 10.59L9.01503 14.16Z" fill="#55FBAF"/>
<path opacity="0.1" d="M9.01503 6.16C9.23057 6.53333 9.76943 6.53333 9.98497 6.16L12.0461 2.59C12.2617 2.21667 11.9922 1.75 11.5611 1.75H7.43886C7.00777 1.75 6.73834 2.21667 6.95389 2.59L9.01503 6.16Z" fill="#55FBAF"/>
<path opacity="0.4" d="M9.01503 22.16C9.23057 22.5333 9.76943 22.5333 9.98497 22.16L12.0461 18.59C12.2617 18.2167 11.9922 17.75 11.5611 17.75H7.43886C7.00777 17.75 6.73834 18.2167 6.95389 18.59L9.01503 22.16Z" fill="#55FBAF"/>
<path opacity="0.7" d="M9.01503 47.16C9.23057 47.5333 9.76943 47.5333 9.98497 47.16L12.0461 43.59C12.2617 43.2167 11.9922 42.75 11.5611 42.75H7.43886C7.00777 42.75 6.73834 43.2167 6.95389 43.59L9.01503 47.16Z" fill="#55FBAF"/>
<path d="M9.01503 55.16C9.23057 55.5333 9.76943 55.5333 9.98497 55.16L12.0461 51.59C12.2617 51.2167 11.9922 50.75 11.5611 50.75H7.43886C7.00777 50.75 6.73834 51.2167 6.95389 51.59L9.01503 55.16Z" fill="#55FBAF"/>
<path d="M9.01503 63.16C9.23057 63.5333 9.76943 63.5333 9.98497 63.16L12.0461 59.59C12.2617 59.2167 11.9922 58.75 11.5611 58.75H7.43886C7.00777 58.75 6.73834 59.2167 6.95389 59.59L9.01503 63.16Z" fill="#55FBAF"/>
<defs>
<clipPath id="clip0_3223_23325">
<rect width="18.4091" height="18.4091" fill="white" transform="translate(0 23)"/>
</clipPath>
</defs>
</svg>
