<svg width="17" height="64" viewBox="0 0 17 64" fill="none" xmlns="http://www.w3.org/2000/svg">
<g clip-path="url(#clip0_3223_23714)">
<path d="M12.2715 39.4933C11.3026 39.4933 10.5171 38.7078 10.5171 37.7388C10.5171 36.7698 11.3026 35.9844 12.2715 35.9844C13.2406 35.9844 14.026 36.7698 14.026 37.7388C14.026 38.7078 13.2406 39.4933 12.2715 39.4933Z" fill="#55FBAF"/>
<path d="M4.08945 39.4933C3.12047 39.4933 2.33496 38.7078 2.33496 37.7388C2.33496 36.7698 3.12047 35.9844 4.08945 35.9844C5.05842 35.9844 5.84393 36.7698 5.84393 37.7388C5.84393 38.7078 5.05842 39.4933 4.08945 39.4933Z" fill="#55FBAF"/>
<path fill-rule="evenodd" clip-rule="evenodd" d="M8.18182 25.4648C7.69768 25.4648 7.30519 25.8573 7.30519 26.3415V28.0947H5.58902C5.21241 28.0787 4.84049 28.1845 4.52853 28.3966C4.21194 28.6119 3.97453 28.9249 3.85254 29.2877L3.85182 29.2899L3.0847 31.6012H1.75325C1.28825 31.6012 0.842311 31.7859 0.513514 32.1147C0.184716 32.4435 0 32.8895 0 33.3545V35.6921C0 36.1571 0.184716 36.6031 0.513514 36.9319C0.705973 37.1243 0.938568 37.2675 1.19162 37.353C1.38064 35.9211 2.60608 34.8159 4.08965 34.8159C5.60498 34.8159 6.85101 35.9689 6.99839 37.4454H9.36275C9.51012 35.9689 10.7562 34.8159 12.2714 34.8159C13.7553 34.8159 14.9809 35.9214 15.1696 37.3538C15.4235 37.2683 15.6571 37.125 15.8502 36.9319C16.179 36.6031 16.3636 36.1571 16.3636 35.6921V33.3545C16.3636 32.8895 16.179 32.4435 15.8502 32.1147C15.5214 31.7859 15.0753 31.6012 14.6104 31.6012H12.7033L11.9893 29.3007L11.9853 29.2877C11.8634 28.9248 11.6257 28.6119 11.3091 28.3966C10.9972 28.1845 10.6252 28.0787 10.2486 28.0947H9.05844V26.3415C9.05844 25.8573 8.66596 25.4648 8.18182 25.4648Z" fill="#55FBAF"/>
</g>
<path opacity="0.2" d="M8.01503 14.16C8.23057 14.5333 8.76943 14.5333 8.98497 14.16L11.0461 10.59C11.2617 10.2167 10.9922 9.75 10.5611 9.75H6.43886C6.00777 9.75 5.73834 10.2167 5.95389 10.59L8.01503 14.16Z" fill="#55FBAF"/>
<path opacity="0.1" d="M8.01503 6.16C8.23057 6.53333 8.76943 6.53333 8.98497 6.16L11.0461 2.59C11.2617 2.21667 10.9922 1.75 10.5611 1.75H6.43886C6.00777 1.75 5.73834 2.21667 5.95389 2.59L8.01503 6.16Z" fill="#55FBAF"/>
<path opacity="0.4" d="M8.01503 22.16C8.23057 22.5333 8.76943 22.5333 8.98497 22.16L11.0461 18.59C11.2617 18.2167 10.9922 17.75 10.5611 17.75H6.43886C6.00777 17.75 5.73834 18.2167 5.95389 18.59L8.01503 22.16Z" fill="#55FBAF"/>
<path opacity="0.7" d="M8.01503 47.16C8.23057 47.5333 8.76943 47.5333 8.98497 47.16L11.0461 43.59C11.2617 43.2167 10.9922 42.75 10.5611 42.75H6.43886C6.00777 42.75 5.73834 43.2167 5.95389 43.59L8.01503 47.16Z" fill="#55FBAF"/>
<path d="M8.01503 55.16C8.23057 55.5333 8.76943 55.5333 8.98497 55.16L11.0461 51.59C11.2617 51.2167 10.9922 50.75 10.5611 50.75H6.43886C6.00777 50.75 5.73834 51.2167 5.95389 51.59L8.01503 55.16Z" fill="#55FBAF"/>
<path d="M8.01503 63.16C8.23057 63.5333 8.76943 63.5333 8.98497 63.16L11.0461 59.59C11.2617 59.2167 10.9922 58.75 10.5611 58.75H6.43886C6.00777 58.75 5.73834 59.2167 5.95389 59.59L8.01503 63.16Z" fill="#55FBAF"/>
<defs>
<clipPath id="clip0_3223_23714">
<rect width="16.3636" height="16.3636" fill="white" transform="translate(0 24)"/>
</clipPath>
</defs>
</svg>
