<svg width="15" height="64" viewBox="0 0 15 64" fill="none" xmlns="http://www.w3.org/2000/svg">
<g clip-path="url(#clip0_3223_23031)">
<path fill-rule="evenodd" clip-rule="evenodd" d="M2.51966 26.2282C3.70127 25.3676 5.29033 25.0078 6.97467 25.0078C8.65901 25.0078 10.2481 25.3676 11.4296 26.2282C12.6353 27.1063 13.3607 28.4662 13.3607 30.3212C13.3607 31.951 12.8029 33.7136 11.885 35.168C10.841 33.3306 8.99298 32.5393 6.97727 32.5393C4.95988 32.5393 3.11057 33.3319 2.0671 35.1723C1.14762 33.7171 0.588724 31.9526 0.588724 30.3212C0.588724 28.4662 1.31396 27.1063 2.51966 26.2282ZM2.92819 36.3214C3.99787 37.5243 5.39721 38.3785 6.97467 38.3785C8.55386 38.3785 9.95457 37.5224 11.0248 36.3174C10.3093 34.5807 8.81666 33.8177 6.97727 33.8177C5.13656 33.8177 3.64302 34.5817 2.92819 36.3214ZM3.29972 29.3428C3.29972 28.6248 3.88174 28.0428 4.59969 28.0428H9.3535C10.0715 28.0428 10.6535 28.6248 10.6535 29.3428C10.6535 30.0607 10.0715 30.6427 9.3535 30.6427H4.59969C3.88174 30.6427 3.29972 30.0607 3.29972 29.3428ZM2.51614 37.0143C2.79856 37.3301 2.77153 37.8149 2.45577 38.0974L1.30917 39.1229C0.993419 39.4053 0.508505 39.3783 0.226089 39.0626C-0.0563271 38.7468 -0.0293004 38.2619 0.286455 37.9795L1.43305 36.9539C1.74881 36.6715 2.23373 36.6985 2.51614 37.0143ZM11.8019 37.0143C11.5195 37.3301 11.5465 37.8149 11.8624 38.0974L13.0089 39.1229C13.3247 39.4053 13.8096 39.3783 14.092 39.0626C14.3744 38.7468 14.3474 38.2619 14.0317 37.9795L12.8851 36.9539C12.5693 36.6715 12.0844 36.6985 11.8019 37.0143Z" fill="#55FBAF"/>
</g>
<path opacity="0.2" d="M7.01503 14.16C7.23057 14.5333 7.76943 14.5333 7.98497 14.16L10.0461 10.59C10.2617 10.2167 9.99223 9.75 9.56114 9.75H5.43886C5.00777 9.75 4.73834 10.2167 4.95389 10.59L7.01503 14.16Z" fill="#55FBAF"/>
<path opacity="0.1" d="M7.01503 6.16C7.23057 6.53333 7.76943 6.53333 7.98497 6.16L10.0461 2.59C10.2617 2.21667 9.99223 1.75 9.56114 1.75H5.43886C5.00777 1.75 4.73834 2.21667 4.95389 2.59L7.01503 6.16Z" fill="#55FBAF"/>
<path opacity="0.4" d="M7.01503 22.16C7.23057 22.5333 7.76943 22.5333 7.98497 22.16L10.0461 18.59C10.2617 18.2167 9.99223 17.75 9.56114 17.75H5.43886C5.00777 17.75 4.73834 18.2167 4.95389 18.59L7.01503 22.16Z" fill="#55FBAF"/>
<path opacity="0.7" d="M7.01503 47.16C7.23057 47.5333 7.76943 47.5333 7.98497 47.16L10.0461 43.59C10.2617 43.2167 9.99223 42.75 9.56114 42.75H5.43886C5.00777 42.75 4.73834 43.2167 4.95389 43.59L7.01503 47.16Z" fill="#55FBAF"/>
<path d="M7.01503 55.16C7.23057 55.5333 7.76943 55.5333 7.98497 55.16L10.0461 51.59C10.2617 51.2167 9.99223 50.75 9.56114 50.75H5.43886C5.00777 50.75 4.73834 51.2167 4.95389 51.59L7.01503 55.16Z" fill="#55FBAF"/>
<path d="M7.01503 63.16C7.23057 63.5333 7.76943 63.5333 7.98497 63.16L10.0461 59.59C10.2617 59.2167 9.99223 58.75 9.56114 58.75H5.43886C5.00777 58.75 4.73834 59.2167 4.95389 59.59L7.01503 63.16Z" fill="#55FBAF"/>
<defs>
<clipPath id="clip0_3223_23031">
<rect width="14.3182" height="14.3182" fill="white" transform="translate(0 25)"/>
</clipPath>
</defs>
</svg>
