<svg width="71" height="15" viewBox="0 0 71 15" fill="none" xmlns="http://www.w3.org/2000/svg">
<g clip-path="url(#clip0_4728_22249)">
<path fill-rule="evenodd" clip-rule="evenodd" d="M40.2518 0.306641C39.785 0.306641 39.3374 0.492057 39.0074 0.822101L39.0063 0.823157L36.5143 3.34435L31.2586 0.91483C31.0427 0.81105 30.8078 0.752463 30.5684 0.74267C30.3284 0.732849 30.0888 0.772325 29.8645 0.858664C29.6403 0.945001 29.4361 1.07637 29.2646 1.24467C29.096 1.41001 28.9626 1.60755 28.872 1.82549C28.6714 2.21264 28.6234 2.66126 28.7381 3.08232C28.8538 3.50746 29.1266 3.87278 29.5014 4.10446L33.3785 6.49184L32.1686 7.70176H29.9222C29.9152 7.70176 29.9081 7.70205 29.901 7.70264C29.4664 7.73883 29.0612 7.93705 28.7659 8.25799C28.4706 8.57893 28.3066 8.99914 28.3066 9.43529C28.3066 9.87143 28.4706 10.2917 28.7659 10.6126C29.0612 10.9335 29.4664 11.1317 29.901 11.1679C29.9081 11.1685 29.9152 11.1688 29.9222 11.1688H31.1495V12.3961C31.1495 12.4032 31.1498 12.4102 31.1504 12.4173C31.1866 12.852 31.3848 13.2571 31.7057 13.5524C32.0267 13.8478 32.4469 14.0116 32.883 14.0116C33.3192 14.0116 33.7394 13.8478 34.0603 13.5524C34.3813 13.2571 34.5795 12.852 34.6157 12.4173C34.6163 12.4102 34.6165 12.4032 34.6165 12.3961V10.1497L35.8265 8.9398L38.2136 12.8165C38.4452 13.1913 38.8109 13.4645 39.2359 13.5802C39.6573 13.695 40.1063 13.6469 40.4937 13.4459C40.7057 13.3561 40.8979 13.2252 41.0594 13.061C41.2235 12.8939 41.3524 12.6956 41.4384 12.4777C41.5244 12.2598 41.5658 12.0269 41.5601 11.7927C41.5545 11.5586 41.5017 11.328 41.4051 11.1145L41.4047 11.1135L38.9735 5.80448L41.4951 3.31201L41.4962 3.31096C41.8262 2.98092 42.0116 2.53329 42.0116 2.06654C42.0116 1.59978 41.8262 1.15215 41.4962 0.822101C41.1661 0.492057 40.7185 0.306641 40.2518 0.306641Z" fill="#55FBAF"/>
</g>
<path opacity="0.2" d="M14.16 7.01503C14.5333 7.23057 14.5333 7.76943 14.16 7.98497L10.59 10.0461C10.2167 10.2617 9.75 9.99223 9.75 9.56114L9.75 5.43886C9.75 5.00777 10.2167 4.73834 10.59 4.95389L14.16 7.01503Z" fill="#55FBAF"/>
<path opacity="0.1" d="M6.16 7.01503C6.53333 7.23057 6.53333 7.76943 6.16 7.98497L2.59 10.0461C2.21667 10.2617 1.75 9.99223 1.75 9.56114L1.75 5.43886C1.75 5.00777 2.21667 4.73834 2.59 4.95389L6.16 7.01503Z" fill="#55FBAF"/>
<path opacity="0.4" d="M22.16 7.01503C22.5333 7.23057 22.5333 7.76943 22.16 7.98497L18.59 10.0461C18.2167 10.2617 17.75 9.99223 17.75 9.56114L17.75 5.43886C17.75 5.00777 18.2167 4.73834 18.59 4.95389L22.16 7.01503Z" fill="#55FBAF"/>
<path opacity="0.7" d="M54.16 7.01503C54.5333 7.23057 54.5333 7.76943 54.16 7.98497L50.59 10.0461C50.2167 10.2617 49.75 9.99223 49.75 9.56114L49.75 5.43886C49.75 5.00777 50.2167 4.73834 50.59 4.95389L54.16 7.01503Z" fill="#55FBAF"/>
<path d="M62.16 7.01503C62.5333 7.23057 62.5333 7.76943 62.16 7.98497L58.59 10.0461C58.2167 10.2617 57.75 9.99223 57.75 9.56114L57.75 5.43886C57.75 5.00777 58.2167 4.73834 58.59 4.95389L62.16 7.01503Z" fill="#55FBAF"/>
<path d="M70.16 7.01503C70.5333 7.23057 70.5333 7.76943 70.16 7.98497L66.59 10.0461C66.2167 10.2617 65.75 9.99223 65.75 9.56114L65.75 5.43886C65.75 5.00777 66.2167 4.73834 66.59 4.95389L70.16 7.01503Z" fill="#55FBAF"/>
<defs>
<clipPath id="clip0_4728_22249">
<rect width="14.3182" height="14.3182" fill="white" transform="translate(28)"/>
</clipPath>
</defs>
</svg>
