<svg width="71" height="15" viewBox="0 0 71 15" fill="none" xmlns="http://www.w3.org/2000/svg">
<path fill-rule="evenodd" clip-rule="evenodd" d="M30.6735 1.872C30.6735 1.75053 30.772 1.65206 30.8935 1.65206H40.105C40.2265 1.65206 40.3249 1.75053 40.3249 1.872V6.42982H30.6735V1.872ZM41.9321 11.5953C41.9321 12.4543 41.3392 13.1749 40.5403 13.3701V13.9204C40.5403 14.512 40.0606 14.9918 39.4689 14.9918C38.8771 14.9918 38.3975 14.512 38.3975 13.9204V13.4224H32.601V13.9204C32.601 14.512 32.1213 14.9918 31.5296 14.9918C30.9378 14.9918 30.4581 14.512 30.4581 13.9204V13.3701C29.6593 13.1749 29.0664 12.4543 29.0664 11.5953V1.872C29.0664 0.86293 29.8844 0.0449219 30.8935 0.0449219H40.105C41.1141 0.0449219 41.9321 0.86293 41.9321 1.872V11.5953ZM32.2849 10.7155C32.8767 10.7155 33.3564 10.2358 33.3564 9.6441C33.3564 9.05237 32.8767 8.57267 32.2849 8.57267C31.6932 8.57267 31.2135 9.05237 31.2135 9.6441C31.2135 10.2358 31.6932 10.7155 32.2849 10.7155ZM38.7135 10.7155C39.3053 10.7155 39.7849 10.2358 39.7849 9.6441C39.7849 9.05237 39.3053 8.57267 38.7135 8.57267C38.1218 8.57267 37.6421 9.05237 37.6421 9.6441C37.6421 10.2358 38.1218 10.7155 38.7135 10.7155Z" fill="#55FBAF"/>
<path opacity="0.2" d="M14.16 7.01503C14.5333 7.23057 14.5333 7.76943 14.16 7.98497L10.59 10.0461C10.2167 10.2617 9.75 9.99223 9.75 9.56114L9.75 5.43886C9.75 5.00777 10.2167 4.73834 10.59 4.95389L14.16 7.01503Z" fill="#55FBAF"/>
<path opacity="0.1" d="M6.16 7.01503C6.53333 7.23057 6.53333 7.76943 6.16 7.98497L2.59 10.0461C2.21667 10.2617 1.75 9.99223 1.75 9.56114L1.75 5.43886C1.75 5.00777 2.21667 4.73834 2.59 4.95389L6.16 7.01503Z" fill="#55FBAF"/>
<path opacity="0.4" d="M22.16 7.01503C22.5333 7.23057 22.5333 7.76943 22.16 7.98497L18.59 10.0461C18.2167 10.2617 17.75 9.99223 17.75 9.56114L17.75 5.43886C17.75 5.00777 18.2167 4.73834 18.59 4.95389L22.16 7.01503Z" fill="#55FBAF"/>
<path opacity="0.7" d="M54.16 7.01503C54.5333 7.23057 54.5333 7.76943 54.16 7.98497L50.59 10.0461C50.2167 10.2617 49.75 9.99223 49.75 9.56114L49.75 5.43886C49.75 5.00777 50.2167 4.73834 50.59 4.95389L54.16 7.01503Z" fill="#55FBAF"/>
<path d="M62.16 7.01503C62.5333 7.23057 62.5333 7.76943 62.16 7.98497L58.59 10.0461C58.2167 10.2617 57.75 9.99223 57.75 9.56114L57.75 5.43886C57.75 5.00777 58.2167 4.73834 58.59 4.95389L62.16 7.01503Z" fill="#55FBAF"/>
<path d="M70.16 7.01503C70.5333 7.23057 70.5333 7.76943 70.16 7.98497L66.59 10.0461C66.2167 10.2617 65.75 9.99223 65.75 9.56114L65.75 5.43886C65.75 5.00777 66.2167 4.73834 66.59 4.95389L70.16 7.01503Z" fill="#55FBAF"/>
</svg>
