<svg width="71" height="19" viewBox="0 0 71 19" fill="none" xmlns="http://www.w3.org/2000/svg">
<g clip-path="url(#clip0_4728_22361)">
<path fill-rule="evenodd" clip-rule="evenodd" d="M38.4992 2.98742C38.6525 2.76423 38.9059 2.63086 39.1766 2.63086H42.464C42.9179 2.63086 43.2858 2.9988 43.2858 3.45269C43.2858 3.90658 42.9179 4.27453 42.464 4.27453H40.3733L41.9063 8.26066C42.0899 8.2333 42.2762 8.21933 42.464 8.21933C43.4666 8.21933 44.4282 8.61763 45.1371 9.3266C45.8461 10.0356 46.2444 10.9971 46.2444 11.9998C46.2444 13.0024 45.8461 13.964 45.1371 14.6729C44.4282 15.3819 43.4666 15.7802 42.464 15.7802C41.4613 15.7802 40.4998 15.3819 39.7908 14.6729C39.0818 13.964 38.6835 13.0024 38.6835 11.9998C38.6835 11.462 38.7981 10.936 39.0138 10.4545L37.8501 11.8508C37.7901 11.9272 37.7153 11.9941 37.6271 12.047C37.5194 12.1115 37.403 12.1486 37.2858 12.1603L35.708 12.3576C35.6252 13.2288 35.2418 14.0488 34.6177 14.6729C33.9087 15.3819 32.9471 15.7802 31.9445 15.7802C30.9419 15.7802 29.9803 15.3819 29.2713 14.6729C28.5624 13.964 28.1641 13.0024 28.1641 11.9998C28.1641 10.9971 28.5624 10.0356 29.2713 9.3266C29.9803 8.61763 30.9419 8.21933 31.9445 8.21933C32.2549 8.21933 32.5614 8.25752 32.8576 8.33126L33.576 6.89259L32.7941 5.58946H31.9445C31.4906 5.58946 31.1227 5.22152 31.1227 4.76763C31.1227 4.31374 31.4906 3.94579 31.9445 3.94579H33.2444C33.2539 3.94562 33.2634 3.94562 33.2729 3.94579H35.2318C35.6857 3.94579 36.0537 4.31374 36.0537 4.76763C36.0537 5.22152 35.6857 5.58946 35.2318 5.58946H34.711L35.2118 6.42422L35.2222 6.44155L37.3136 9.92721L39.6897 7.07601L38.4096 3.74771C38.3124 3.495 38.3459 3.21061 38.4992 2.98742ZM41.6968 12.2948L40.9889 10.4539C40.9768 10.4654 40.9649 10.477 40.9531 10.4888C40.5523 10.8896 40.3272 11.433 40.3272 11.9998C40.3272 12.5665 40.5523 13.11 40.9531 13.5106C41.3538 13.9114 41.8972 14.1365 42.464 14.1365C43.0307 14.1365 43.5742 13.9114 43.9748 13.5106C44.3756 13.11 44.6007 12.5665 44.6007 11.9998C44.6007 11.433 44.3756 10.8896 43.9748 10.4888C43.5881 10.1021 43.0683 9.87886 42.523 9.86382L43.231 11.7047C43.3939 12.1284 43.1826 12.6039 42.7591 12.7668C42.3354 12.9298 41.8599 12.7184 41.6968 12.2948ZM40.3653 8.8327L40.3723 8.85071C40.3554 8.86189 40.3387 8.87321 40.322 8.88466L40.3653 8.8327ZM34.5787 8.56379L34.0015 9.7199L33.3653 10.994L34.7779 10.8174L35.8504 10.6833L34.5787 8.56379ZM34.0036 12.5706L32.0464 12.8153C31.7458 12.8529 31.4488 12.7219 31.2737 12.4746C31.0987 12.2273 31.0739 11.9038 31.2092 11.6326L32.0903 9.86799C32.042 9.86467 31.9933 9.863 31.9445 9.863C31.3778 9.863 30.8343 10.0881 30.4336 10.4888C30.0328 10.8896 29.8077 11.433 29.8077 11.9998C29.8077 12.5665 30.0328 13.11 30.4336 13.5106C30.8343 13.9114 31.3778 14.1365 31.9445 14.1365C32.5112 14.1365 33.0547 13.9114 33.4554 13.5106C33.7185 13.2476 33.9059 12.923 34.0036 12.5706Z" fill="#55FBAF"/>
</g>
<path opacity="0.2" d="M14.16 8.01503C14.5333 8.23057 14.5333 8.76943 14.16 8.98497L10.59 11.0461C10.2167 11.2617 9.75 10.9922 9.75 10.5611L9.75 6.43886C9.75 6.00777 10.2167 5.73834 10.59 5.95389L14.16 8.01503Z" fill="#55FBAF"/>
<path opacity="0.1" d="M6.16 8.01503C6.53333 8.23057 6.53333 8.76943 6.16 8.98497L2.59 11.0461C2.21667 11.2617 1.75 10.9922 1.75 10.5611L1.75 6.43886C1.75 6.00777 2.21667 5.73834 2.59 5.95389L6.16 8.01503Z" fill="#55FBAF"/>
<path opacity="0.4" d="M22.16 8.01503C22.5333 8.23057 22.5333 8.76943 22.16 8.98497L18.59 11.0461C18.2167 11.2617 17.75 10.9922 17.75 10.5611L17.75 6.43886C17.75 6.00777 18.2167 5.73834 18.59 5.95389L22.16 8.01503Z" fill="#55FBAF"/>
<path opacity="0.7" d="M54.16 8.01503C54.5333 8.23057 54.5333 8.76943 54.16 8.98497L50.59 11.0461C50.2167 11.2617 49.75 10.9922 49.75 10.5611L49.75 6.43886C49.75 6.00777 50.2167 5.73834 50.59 5.95389L54.16 8.01503Z" fill="#55FBAF"/>
<path d="M62.16 8.01503C62.5333 8.23057 62.5333 8.76943 62.16 8.98497L58.59 11.0461C58.2167 11.2617 57.75 10.9922 57.75 10.5611L57.75 6.43886C57.75 6.00777 58.2167 5.73834 58.59 5.95389L62.16 8.01503Z" fill="#55FBAF"/>
<path d="M70.16 8.01503C70.5333 8.23057 70.5333 8.76943 70.16 8.98497L66.59 11.0461C66.2167 11.2617 65.75 10.9922 65.75 10.5611L65.75 6.43886C65.75 6.00777 66.2167 5.73834 66.59 5.95389L70.16 8.01503Z" fill="#55FBAF"/>
<defs>
<clipPath id="clip0_4728_22361">
<rect width="18.4091" height="18.4091" fill="white" transform="translate(28)"/>
</clipPath>
</defs>
</svg>
