<svg width="71" height="17" viewBox="0 0 71 17" fill="none" xmlns="http://www.w3.org/2000/svg">
<g clip-path="url(#clip0_4728_22523)">
<path d="M40.272 15.4894C39.3031 15.4894 38.5176 14.7038 38.5176 13.7349C38.5176 12.7659 39.3031 11.9805 40.272 11.9805C41.2411 11.9805 42.0265 12.7659 42.0265 13.7349C42.0265 14.7038 41.2411 15.4894 40.272 15.4894Z" fill="#55FBAF"/>
<path d="M32.0904 15.4894C31.1215 15.4894 30.3359 14.7038 30.3359 13.7349C30.3359 12.7659 31.1215 11.9805 32.0904 11.9805C33.0594 11.9805 33.8449 12.7659 33.8449 13.7349C33.8449 14.7038 33.0594 15.4894 32.0904 15.4894Z" fill="#55FBAF"/>
<path fill-rule="evenodd" clip-rule="evenodd" d="M36.1818 1.46094C35.6977 1.46094 35.3052 1.85342 35.3052 2.33756V4.09083H33.589C33.2124 4.07478 32.8405 4.18055 32.5285 4.39268C32.2119 4.60796 31.9745 4.92095 31.8525 5.28383L31.8518 5.28596L31.0847 7.59732H29.7532C29.2883 7.59732 28.8423 7.78203 28.5135 8.11084C28.1847 8.43963 28 8.88557 28 9.35057V11.6882C28 12.1532 28.1847 12.5992 28.5135 12.928C28.706 13.1204 28.9386 13.2636 29.1916 13.3491C29.3806 11.9172 30.6061 10.812 32.0896 10.812C33.605 10.812 34.851 11.965 34.9984 13.4415H37.3627C37.5101 11.965 38.7562 10.812 40.2714 10.812C41.7553 10.812 42.9809 11.9175 43.1696 13.3499C43.4235 13.2644 43.6571 13.1211 43.8502 12.928C44.179 12.5992 44.3636 12.1532 44.3636 11.6882V9.35057C44.3636 8.88557 44.179 8.43963 43.8502 8.11084C43.5214 7.78203 43.0753 7.59732 42.6104 7.59732H40.7033L39.9893 5.29683L39.9853 5.28377C39.8634 4.92088 39.6257 4.60796 39.3091 4.39268C38.9972 4.18055 38.6252 4.07478 38.2486 4.09083H37.0584V2.33756C37.0584 1.85342 36.666 1.46094 36.1818 1.46094Z" fill="#55FBAF"/>
</g>
<path opacity="0.2" d="M14.16 8.01503C14.5333 8.23057 14.5333 8.76943 14.16 8.98497L10.59 11.0461C10.2167 11.2617 9.75 10.9922 9.75 10.5611L9.75 6.43886C9.75 6.00777 10.2167 5.73834 10.59 5.95389L14.16 8.01503Z" fill="#55FBAF"/>
<path opacity="0.1" d="M6.16 8.01503C6.53333 8.23057 6.53333 8.76943 6.16 8.98497L2.59 11.0461C2.21667 11.2617 1.75 10.9922 1.75 10.5611L1.75 6.43886C1.75 6.00777 2.21667 5.73834 2.59 5.95389L6.16 8.01503Z" fill="#55FBAF"/>
<path opacity="0.4" d="M22.16 8.01503C22.5333 8.23057 22.5333 8.76943 22.16 8.98497L18.59 11.0461C18.2167 11.2617 17.75 10.9922 17.75 10.5611L17.75 6.43886C17.75 6.00777 18.2167 5.73834 18.59 5.95389L22.16 8.01503Z" fill="#55FBAF"/>
<path opacity="0.7" d="M54.16 8.01503C54.5333 8.23057 54.5333 8.76943 54.16 8.98497L50.59 11.0461C50.2167 11.2617 49.75 10.9922 49.75 10.5611L49.75 6.43886C49.75 6.00777 50.2167 5.73834 50.59 5.95389L54.16 8.01503Z" fill="#55FBAF"/>
<path d="M62.16 8.01503C62.5333 8.23057 62.5333 8.76943 62.16 8.98497L58.59 11.0461C58.2167 11.2617 57.75 10.9922 57.75 10.5611L57.75 6.43886C57.75 6.00777 58.2167 5.73834 58.59 5.95389L62.16 8.01503Z" fill="#55FBAF"/>
<path d="M70.16 8.01503C70.5333 8.23057 70.5333 8.76943 70.16 8.98497L66.59 11.0461C66.2167 11.2617 65.75 10.9922 65.75 10.5611L65.75 6.43886C65.75 6.00777 66.2167 5.73834 66.59 5.95389L70.16 8.01503Z" fill="#55FBAF"/>
<defs>
<clipPath id="clip0_4728_22523">
<rect width="16.3636" height="16.3636" fill="white" transform="translate(28)"/>
</clipPath>
</defs>
</svg>
