<svg width="71" height="15" viewBox="0 0 71 15" fill="none" xmlns="http://www.w3.org/2000/svg">
<g clip-path="url(#clip0_4728_22131)">
<path fill-rule="evenodd" clip-rule="evenodd" d="M30.5182 1.22816C31.6998 0.367564 33.2889 0.0078125 34.9732 0.0078125C36.6575 0.0078125 38.2466 0.367564 39.4282 1.22816C40.6339 2.10631 41.3592 3.4662 41.3592 5.32118C41.3592 6.95102 40.8014 8.7136 39.8835 10.168C38.8395 8.33056 36.9915 7.53928 34.9758 7.53928C32.9584 7.53928 31.1091 8.33188 30.0656 10.1723C29.1462 8.71709 28.5873 6.95263 28.5873 5.32118C28.5873 3.4662 29.3125 2.10631 30.5182 1.22816ZM30.9267 11.3214C31.9964 12.5243 33.3958 13.3785 34.9732 13.3785C36.5524 13.3785 37.9531 12.5224 39.0233 11.3174C38.3078 9.58066 36.8152 8.81769 34.9758 8.81769C33.1351 8.81769 31.6416 9.58173 30.9267 11.3214ZM31.2983 4.34277C31.2983 3.62481 31.8803 3.0428 32.5982 3.0428H37.352C38.07 3.0428 38.652 3.62481 38.652 4.34277C38.652 5.06072 38.07 5.64273 37.352 5.64273H32.5982C31.8803 5.64273 31.2983 5.06072 31.2983 4.34277ZM30.5147 12.0143C30.7971 12.3301 30.7701 12.8149 30.4543 13.0974L29.3077 14.1229C28.992 14.4053 28.507 14.3783 28.2246 14.0626C27.9422 13.7468 27.9692 13.2619 28.285 12.9795L29.4316 11.9539C29.7473 11.6715 30.2323 11.6985 30.5147 12.0143ZM39.8005 12.0143C39.5181 12.3301 39.5451 12.8149 39.8609 13.0974L41.0075 14.1229C41.3232 14.4053 41.8082 14.3783 42.0905 14.0626C42.3729 13.7468 42.3459 13.2619 42.0302 12.9795L40.8836 11.9539C40.5678 11.6715 40.0829 11.6985 39.8005 12.0143Z" fill="#55FBAF"/>
</g>
<path opacity="0.2" d="M14.16 7.01503C14.5333 7.23057 14.5333 7.76943 14.16 7.98497L10.59 10.0461C10.2167 10.2617 9.75 9.99223 9.75 9.56114L9.75 5.43886C9.75 5.00777 10.2167 4.73834 10.59 4.95389L14.16 7.01503Z" fill="#55FBAF"/>
<path opacity="0.1" d="M6.16 7.01503C6.53333 7.23057 6.53333 7.76943 6.16 7.98497L2.59 10.0461C2.21667 10.2617 1.75 9.99223 1.75 9.56114L1.75 5.43886C1.75 5.00777 2.21667 4.73834 2.59 4.95389L6.16 7.01503Z" fill="#55FBAF"/>
<path opacity="0.4" d="M22.16 7.01503C22.5333 7.23057 22.5333 7.76943 22.16 7.98497L18.59 10.0461C18.2167 10.2617 17.75 9.99223 17.75 9.56114L17.75 5.43886C17.75 5.00777 18.2167 4.73834 18.59 4.95389L22.16 7.01503Z" fill="#55FBAF"/>
<path opacity="0.7" d="M54.16 7.01503C54.5333 7.23057 54.5333 7.76943 54.16 7.98497L50.59 10.0461C50.2167 10.2617 49.75 9.99223 49.75 9.56114L49.75 5.43886C49.75 5.00777 50.2167 4.73834 50.59 4.95389L54.16 7.01503Z" fill="#55FBAF"/>
<path d="M62.16 7.01503C62.5333 7.23057 62.5333 7.76943 62.16 7.98497L58.59 10.0461C58.2167 10.2617 57.75 9.99223 57.75 9.56114L57.75 5.43886C57.75 5.00777 58.2167 4.73834 58.59 4.95389L62.16 7.01503Z" fill="#55FBAF"/>
<path d="M70.16 7.01503C70.5333 7.23057 70.5333 7.76943 70.16 7.98497L66.59 10.0461C66.2167 10.2617 65.75 9.99223 65.75 9.56114L65.75 5.43886C65.75 5.00777 66.2167 4.73834 66.59 4.95389L70.16 7.01503Z" fill="#55FBAF"/>
<defs>
<clipPath id="clip0_4728_22131">
<rect width="14.3182" height="14.3182" fill="white" transform="translate(28)"/>
</clipPath>
</defs>
</svg>
