<svg width="75" height="75" viewBox="0 0 75 75" fill="none" xmlns="http://www.w3.org/2000/svg">
<g opacity="0.8" filter="url(#filter0_bd_3313_33420)">
<circle cx="37.1523" cy="33.1523" r="33.1523" fill="white"/>
</g>
<g clip-path="url(#clip0_3313_33420)">
<path d="M37.1523 43.9668C37.1523 44.631 36.6142 45.1679 35.9512 45.1679H28.7441C25.4325 45.1679 22.7383 42.4737 22.7383 39.1621V24.748C22.7383 21.4364 25.4325 18.7422 28.7441 18.7422H43.1582C46.4698 18.7422 49.164 21.4364 49.164 24.748V31.9551C49.164 32.6193 48.6259 33.1562 47.9629 33.1562C47.2998 33.1562 46.7617 32.6193 46.7617 31.9551V24.748C46.7617 22.7613 45.1449 21.1445 43.1582 21.1445H28.7441C26.7574 21.1445 25.1406 22.7613 25.1406 24.748V33.107L28.5135 29.7341C30.3537 27.8927 33.3482 27.8927 35.1896 29.7341L41.6051 36.1496C42.0747 36.6192 42.0747 37.3783 41.6051 37.848C41.3708 38.0822 41.0633 38.1999 40.7558 38.1999C40.4483 38.1999 40.1408 38.0822 39.9066 37.848L33.4912 31.4326C32.5879 30.5305 31.1176 30.5293 30.212 31.4326L25.1406 36.5039V39.1621C25.1406 41.1488 26.7574 42.7656 28.7441 42.7656H35.9512C36.6142 42.7656 37.1523 43.3025 37.1523 43.9668ZM40.7558 22.9463C42.7426 22.9463 44.3594 24.5631 44.3594 26.5498C44.3594 28.5365 42.7426 30.1533 40.7558 30.1533C38.7691 30.1533 37.1523 28.5365 37.1523 26.5498C37.1523 24.5631 38.7691 22.9463 40.7558 22.9463ZM40.7558 25.3486C40.094 25.3486 39.5547 25.8868 39.5547 26.5498C39.5547 27.2128 40.094 27.751 40.7558 27.751C41.4177 27.751 41.957 27.2128 41.957 26.5498C41.957 25.8868 41.4177 25.3486 40.7558 25.3486ZM50.3652 40.3633H46.7617V36.7597C46.7617 36.0955 46.2236 35.5586 45.5605 35.5586C44.8975 35.5586 44.3594 36.0955 44.3594 36.7597V40.3633H40.7558C40.0928 40.3633 39.5547 40.9002 39.5547 41.5644C39.5547 42.2287 40.0928 42.7656 40.7558 42.7656H44.3594V46.3691C44.3594 47.0334 44.8975 47.5703 45.5605 47.5703C46.2236 47.5703 46.7617 47.0334 46.7617 46.3691V42.7656H50.3652C51.0282 42.7656 51.5664 42.2287 51.5664 41.5644C51.5664 40.9002 51.0282 40.3633 50.3652 40.3633Z" fill="#FB3463"/>
</g>
<defs>
<filter id="filter0_bd_3313_33420" x="0" y="-4" width="74.3047" height="78.3047" filterUnits="userSpaceOnUse" color-interpolation-filters="sRGB">
<feFlood flood-opacity="0" result="BackgroundImageFix"/>
<feGaussianBlur in="BackgroundImageFix" stdDeviation="2"/>
<feComposite in2="SourceAlpha" operator="in" result="effect1_backgroundBlur_3313_33420"/>
<feColorMatrix in="SourceAlpha" type="matrix" values="0 0 0 0 0 0 0 0 0 0 0 0 0 0 0 0 0 0 127 0" result="hardAlpha"/>
<feOffset dy="4"/>
<feGaussianBlur stdDeviation="2"/>
<feComposite in2="hardAlpha" operator="out"/>
<feColorMatrix type="matrix" values="0 0 0 0 0 0 0 0 0 0 0 0 0 0 0 0 0 0 0.25 0"/>
<feBlend mode="normal" in2="effect1_backgroundBlur_3313_33420" result="effect2_dropShadow_3313_33420"/>
<feBlend mode="normal" in="SourceGraphic" in2="effect2_dropShadow_3313_33420" result="shape"/>
</filter>
<clipPath id="clip0_3313_33420">
<rect width="28.8281" height="28.8281" fill="white" transform="translate(22.7383 18.7422)"/>
</clipPath>
</defs>
</svg>
