<svg width="479" height="79" viewBox="0 0 479 79" fill="none" xmlns="http://www.w3.org/2000/svg">
<path d="M32.46 18.459L456.405 18.459" stroke="#FB3463" stroke-width="2" stroke-dasharray="4 4"/>
<circle cx="35.594" cy="18.4583" r="18.4583" fill="#FB3463"/>
<path d="M37.8008 11.3184V25.459H34.8516V14.1113H34.7734L31.5312 16.1426V13.5449L35.0273 11.3184H37.8008Z" fill="white"/>
<path d="M16.2578 58.0762V68.4863H14.4023V64.0527H11.1406V62.5293H14.4023V58.0762H16.2578ZM1.66797 66.9043C4.38281 65.957 6.05273 63.5938 6.04297 61.1816V60.791H2.25391V59.2871H11.6875V60.791H7.9375V61.1621C7.92773 63.3789 9.50977 65.5371 12.1562 66.4355L11.1992 67.9004C9.23633 67.2266 7.79102 65.8203 7.0293 64.0918C6.26758 66.0449 4.73438 67.6172 2.64453 68.3887L1.66797 66.9043ZM4.48047 72.2754C4.4707 70.1953 6.7168 68.9844 10.3984 68.9746C14.0605 68.9844 16.3066 70.1953 16.3164 72.2754C16.3066 74.3555 14.0605 75.5664 10.3984 75.5762C6.7168 75.5664 4.4707 74.3555 4.48047 72.2754ZM6.31641 72.2754C6.30664 73.457 7.83008 74.1309 10.3984 74.1113C12.9473 74.1309 14.4707 73.457 14.4805 72.2754C14.4707 71.084 12.9473 70.4102 10.3984 70.4199C7.83008 70.4102 6.30664 71.084 6.31641 72.2754ZM34.9688 71.8652V73.4082H18.9531V71.8652H26.0039V68.2715H20.7891V59.2676H22.6445V62.2754H31.2383V59.2676H33.0742V68.2715H27.8398V71.8652H34.9688ZM22.6445 66.7676H31.2383V63.7793H22.6445V66.7676ZM50.75 58.0762V67.4707H48.8945V58.0762H50.75ZM36.5898 62.9395C36.5996 60.5371 38.5723 58.8672 41.2578 58.877C43.9336 58.8672 45.9062 60.5371 45.9062 62.9395C45.9062 65.332 43.9336 67.002 41.2578 66.9824C38.5723 67.002 36.5996 65.332 36.5898 62.9395ZM38.4062 62.9395C38.3965 64.4531 39.5977 65.459 41.2578 65.459C42.8984 65.459 44.0898 64.4531 44.0898 62.9395C44.0898 61.4453 42.8984 60.4297 41.2578 60.4395C39.5977 60.4297 38.3965 61.4453 38.4062 62.9395ZM39.3047 75.3613V68.3105H41.1211V70.2832H48.9141V68.3105H50.75V75.3613H39.3047ZM41.1211 73.8379H48.9141V71.748H41.1211V73.8379ZM61.8633 59.1309V64.2285H56.082V66.6504C59.1289 66.6504 60.7891 66.582 62.7617 66.2207L62.9375 67.7246C60.7988 68.0859 59.002 68.1445 55.5156 68.1543H54.2461V62.8223H60.0078V60.6152H54.2266V59.1309H61.8633ZM56.2383 71.2402V69.7363H68.1133V75.5957H66.2578V71.2402H56.2383ZM62.9766 65.7715V64.2871H66.2578V62.1191H62.9766V60.6348H66.2578V58.0957H68.1133V68.8574H66.2578V65.7715H62.9766Z" fill="#FB3463"/>
<circle cx="239.5" cy="18.4583" r="17.4583" fill="white" stroke="#FB3463" stroke-width="2"/>
<path d="M234.113 25.459L234.094 23.3301L239.172 18.6621C240.49 17.4023 241.203 16.6211 241.203 15.498C241.203 14.2383 240.256 13.457 238.957 13.4668C237.629 13.457 236.76 14.2969 236.77 15.6543H233.977C233.967 12.8906 236.018 11.123 238.996 11.123C242.023 11.123 244.035 12.8516 244.035 15.3027C244.035 16.9141 243.254 18.2324 240.344 20.8691L238.195 22.959V23.0371H244.23V25.459H234.113Z" fill="#FB3463"/>
<path d="M198.035 59.4043V60.3809C198.016 61.5527 198.016 63.291 197.586 65.5566L195.75 65.3809C196.131 63.4375 196.189 62.0312 196.219 60.9277H189.207V59.4043H198.035ZM193.562 63.3301V66.9434C195.438 66.8848 197.371 66.748 199.129 66.4941L199.246 67.8418C195.594 68.4863 191.414 68.5449 188.328 68.5645L188.152 67.0605C189.227 67.0508 190.447 67.041 191.727 67.002V63.3301H193.562ZM202.137 58.0762V63.6426H204.539V65.2051H202.137V71.2207H200.242V58.0762H202.137ZM202.703 73.7012V75.2051H190.809V70.0293H192.664V73.7012H202.703ZM220.086 58.0957V67.998H218.23V58.0957H220.086ZM220.086 68.9355V75.3613H208.582V68.9355H220.086ZM210.418 70.4199V73.8574H218.27V70.4199H210.418ZM211.941 60.459C211.922 62.8223 213.621 64.9512 216.277 65.8496L215.359 67.2754C213.328 66.6016 211.805 65.2148 211.004 63.4082C210.223 65.332 208.67 66.8652 206.57 67.6074L205.652 66.1426C208.387 65.2246 210.047 62.9004 210.047 60.459V58.7598H211.941V60.459ZM238.855 67.2363V68.7207H231.902V71.9434H230.066V68.7207H222.84V67.2363H238.855ZM237.078 73.7012V75.2051H224.832V70.4199H226.668V73.7012H237.078ZM226.785 58.623V60.752H234.891V58.623H236.746V65.6934H224.949V58.623H226.785ZM226.785 64.209H234.891V62.1387H226.785V64.209ZM244.832 59.3848C247.449 59.3848 249.305 61.7676 249.324 65.5176C249.305 69.2871 247.449 71.6699 244.832 71.6699C242.215 71.6699 240.34 69.2871 240.359 65.5176C240.34 61.7676 242.215 59.3848 244.832 59.3848ZM244.832 61.0449C243.23 61.0449 242.137 62.7637 242.137 65.5176C242.137 68.291 243.23 70.0098 244.832 70.0098C246.453 70.0098 247.547 68.291 247.547 65.5176C247.547 62.7637 246.453 61.0449 244.832 61.0449ZM256.492 62.3535V63.9355H253.777V67.5684H256.492V69.0918H253.777V75.5762H251.922V58.0762H253.777V62.3535H256.492ZM263.602 61.2793C263.602 63.6426 265.184 65.9473 267.82 66.8652L266.805 68.3105C264.891 67.5781 263.465 66.1328 262.723 64.3066C261.961 66.3379 260.467 67.9395 258.406 68.7207L257.41 67.2559C260.125 66.2793 261.746 63.8574 261.766 61.2207V59.1504H263.602V61.2793ZM272.02 58.0957V71.1426H270.164V63.6035H266.473V62.0801H270.164V58.0957H272.02ZM272.41 73.7012V75.2051H260.594V69.6777H262.469V73.7012H272.41ZM282.273 59.3262V60.8301H277.215V62.7832H282.078V64.209H277.215V66.3379C279.559 66.3184 281.102 66.2305 282.898 65.8887L283.074 67.4121C281.023 67.8027 279.363 67.8809 276.57 67.8613H275.438V59.3262H282.273ZM289.637 58.0957V68.7207H287.879V64.0527H285.73V68.584H283.992V58.4082H285.73V62.5488H287.879V58.0957H289.637ZM289.637 69.5605V75.5762H287.801V71.0645H277.742V69.5605H289.637Z" fill="#CFCFCF"/>
<circle cx="443.406" cy="18.4583" r="17.4583" fill="white" stroke="#FB3463" stroke-width="2"/>
<path d="M443.254 25.6543C440.148 25.6543 437.922 23.9453 437.863 21.4746H440.832C440.881 22.5293 441.906 23.2227 443.273 23.2324C444.68 23.2227 445.686 22.4414 445.676 21.2988C445.686 20.1465 444.66 19.3359 443 19.3262H441.691V17.1582H443C444.396 17.1582 445.373 16.3965 445.363 15.2832C445.373 14.1992 444.543 13.457 443.293 13.4668C442.043 13.457 441.018 14.1602 440.969 15.2441H438.156C438.205 12.8125 440.393 11.123 443.293 11.123C446.242 11.123 448.205 12.8711 448.195 15.1074C448.205 16.6895 447.102 17.8125 445.52 18.0957V18.2129C447.6 18.4668 448.742 19.7266 448.723 21.4941C448.742 23.916 446.447 25.6543 443.254 25.6543Z" fill="#FB3463"/>
<path d="M423.113 58.0762V65.0488H425.828V66.5918H423.113V75.5566H421.258V58.0762H423.113ZM418.543 59.9121C418.523 64.9707 416.297 69.4824 410.535 72.334L409.5 70.8887C413.885 68.7012 416.268 65.5371 416.648 61.4551H410.379V59.9121H418.543ZM441.277 58.0762V67.4707H439.422V58.0762H441.277ZM431.648 68.3105V70.2832H439.441V68.3105H441.277V75.3613H429.832V68.3105H431.648ZM431.648 73.8379H439.441V71.748H431.648V73.8379ZM431.785 58.877C434.461 58.877 436.434 60.5371 436.434 62.9395C436.434 65.3418 434.461 67.002 431.785 66.9824C429.109 67.002 427.117 65.3418 427.117 62.9395C427.117 60.5371 429.109 58.877 431.785 58.877ZM431.785 60.4395C430.125 60.4199 428.934 61.4551 428.934 62.9395C428.934 64.4434 430.125 65.459 431.785 65.459C433.426 65.459 434.617 64.4434 434.617 62.9395C434.617 61.4551 433.426 60.4199 431.785 60.4395ZM449.363 58.8574C451.922 58.8574 453.719 60.2637 453.738 62.3535C453.719 64.1309 452.371 65.4395 450.34 65.752V67.2949C451.893 67.2168 453.445 67.0801 454.891 66.8652L455.027 68.2324C451.355 68.8965 447.234 68.9551 444.227 68.9551L444.031 67.4512C445.34 67.4609 446.873 67.4512 448.484 67.3926V65.7715C446.395 65.4785 444.988 64.1602 445.008 62.3535C444.988 60.2637 446.805 58.8574 449.363 58.8574ZM449.363 60.2832C447.82 60.2832 446.727 61.084 446.746 62.3535C446.727 63.584 447.82 64.4043 449.363 64.4043C450.926 64.4043 451.98 63.584 451.98 62.3535C451.98 61.084 450.926 60.2832 449.363 60.2832ZM457.82 58.0957V63.877H460.32V65.4395H457.82V71.4746H455.965V58.0957H457.82ZM458.445 73.6816V75.2051H446.512V70.3027H448.367V73.6816H458.445ZM477.352 71.9238V73.4863H461.336V71.9238H465.711V68.8379H463.289V63.2715H473.562V60.8301H463.25V59.3066H475.398V64.7754H465.125V67.3145H475.809V68.8379H473.152V71.9238H477.352ZM467.508 71.9238H471.336V68.8379H467.508V71.9238Z" fill="#CFCFCF"/>
</svg>
