<svg width="478" height="79" viewBox="0 0 478 79" fill="none" xmlns="http://www.w3.org/2000/svg">
<path d="M31.96 18.459L455.905 18.459" stroke="#FB3463" stroke-width="2" stroke-dasharray="4 4"/>
<circle cx="35.094" cy="18.4583" r="18.4583" fill="#FB3463"/>
<path d="M37.3008 11.3184V25.459H34.3516V14.1113H34.2734L31.0312 16.1426V13.5449L34.5273 11.3184H37.3008Z" fill="white"/>
<path d="M15.7578 58.0762V68.4863H13.9023V64.0527H10.6406V62.5293H13.9023V58.0762H15.7578ZM1.16797 66.9043C3.88281 65.957 5.55273 63.5938 5.54297 61.1816V60.791H1.75391V59.2871H11.1875V60.791H7.4375V61.1621C7.42773 63.3789 9.00977 65.5371 11.6562 66.4355L10.6992 67.9004C8.73633 67.2266 7.29102 65.8203 6.5293 64.0918C5.76758 66.0449 4.23438 67.6172 2.14453 68.3887L1.16797 66.9043ZM3.98047 72.2754C3.9707 70.1953 6.2168 68.9844 9.89844 68.9746C13.5605 68.9844 15.8066 70.1953 15.8164 72.2754C15.8066 74.3555 13.5605 75.5664 9.89844 75.5762C6.2168 75.5664 3.9707 74.3555 3.98047 72.2754ZM5.81641 72.2754C5.80664 73.457 7.33008 74.1309 9.89844 74.1113C12.4473 74.1309 13.9707 73.457 13.9805 72.2754C13.9707 71.084 12.4473 70.4102 9.89844 70.4199C7.33008 70.4102 5.80664 71.084 5.81641 72.2754ZM34.4688 71.8652V73.4082H18.4531V71.8652H25.5039V68.2715H20.2891V59.2676H22.1445V62.2754H30.7383V59.2676H32.5742V68.2715H27.3398V71.8652H34.4688ZM22.1445 66.7676H30.7383V63.7793H22.1445V66.7676ZM50.25 58.0762V67.4707H48.3945V58.0762H50.25ZM36.0898 62.9395C36.0996 60.5371 38.0723 58.8672 40.7578 58.877C43.4336 58.8672 45.4062 60.5371 45.4062 62.9395C45.4062 65.332 43.4336 67.002 40.7578 66.9824C38.0723 67.002 36.0996 65.332 36.0898 62.9395ZM37.9062 62.9395C37.8965 64.4531 39.0977 65.459 40.7578 65.459C42.3984 65.459 43.5898 64.4531 43.5898 62.9395C43.5898 61.4453 42.3984 60.4297 40.7578 60.4395C39.0977 60.4297 37.8965 61.4453 37.9062 62.9395ZM38.8047 75.3613V68.3105H40.6211V70.2832H48.4141V68.3105H50.25V75.3613H38.8047ZM40.6211 73.8379H48.4141V71.748H40.6211V73.8379ZM61.3633 59.1309V64.2285H55.582V66.6504C58.6289 66.6504 60.2891 66.582 62.2617 66.2207L62.4375 67.7246C60.2988 68.0859 58.502 68.1445 55.0156 68.1543H53.7461V62.8223H59.5078V60.6152H53.7266V59.1309H61.3633ZM55.7383 71.2402V69.7363H67.6133V75.5957H65.7578V71.2402H55.7383ZM62.4766 65.7715V64.2871H65.7578V62.1191H62.4766V60.6348H65.7578V58.0957H67.6133V68.8574H65.7578V65.7715H62.4766Z" fill="#FB3463"/>
<circle cx="239" cy="18.4583" r="18.4583" fill="#FB3463"/>
<path d="M233.613 25.459L233.594 23.3301L238.672 18.6621C240 17.3926 240.703 16.6113 240.703 15.498C240.703 14.248 239.746 13.4668 238.457 13.4668C237.129 13.4668 236.27 14.3066 236.27 15.6543H233.477C233.457 12.8809 235.508 11.123 238.496 11.123C241.523 11.123 243.535 12.8418 243.535 15.3027C243.535 16.9043 242.754 18.2324 239.844 20.8691L237.695 22.959V23.0371H243.73V25.459H233.613Z" fill="white"/>
<path d="M197.535 59.4043V60.3809C197.516 61.5527 197.516 63.291 197.086 65.5566L195.25 65.3809C195.631 63.4473 195.689 62.0312 195.709 60.9277H188.707V59.4043H197.535ZM187.652 67.0605C188.727 67.0605 189.947 67.0508 191.227 67.0215V63.3301H193.062V66.9629C194.938 66.8848 196.871 66.748 198.629 66.4941L198.746 67.8418C195.094 68.4863 190.914 68.5547 187.828 68.5645L187.652 67.0605ZM190.309 75.2051V70.0293H192.164V73.7012H202.203V75.2051H190.309ZM199.742 71.2207V58.0762H201.637V63.6426H204.039V65.2051H201.637V71.2207H199.742ZM219.586 58.0957V67.998H217.73V58.0957H219.586ZM205.152 66.1426C207.887 65.2246 209.537 62.9004 209.547 60.459V58.7598H211.441V60.459C211.432 62.8223 213.121 64.9512 215.777 65.8496L214.859 67.2754C212.828 66.6016 211.295 65.2246 210.504 63.4277C209.723 65.3516 208.17 66.875 206.07 67.6074L205.152 66.1426ZM208.082 75.3613V68.9355H219.586V75.3613H208.082ZM209.918 73.8574H217.77V70.4199H209.918V73.8574ZM238.355 67.2363V68.7207H231.402V71.9434H229.566V68.7207H222.34V67.2363H238.355ZM224.332 75.2051V70.4199H226.168V73.7012H236.578V75.2051H224.332ZM224.449 65.6934V58.623H226.285V60.752H234.391V58.623H236.246V65.6934H224.449ZM226.285 64.209H234.391V62.1387H226.285V64.209ZM244.332 59.3848C246.949 59.3945 248.814 61.7773 248.824 65.5176C248.814 69.2969 246.949 71.6797 244.332 71.6699C241.715 71.6797 239.85 69.2969 239.859 65.5176C239.85 61.7773 241.715 59.3945 244.332 59.3848ZM241.637 65.5176C241.627 68.3008 242.74 70.0098 244.332 70.0098C245.953 70.0098 247.047 68.3008 247.047 65.5176C247.047 62.7734 245.953 61.0547 244.332 61.0449C242.74 61.0547 241.627 62.7734 241.637 65.5176ZM251.422 75.5762V58.0762H253.277V62.3535H255.992V63.9355H253.277V67.5684H255.992V69.0918H253.277V75.5762H251.422ZM263.102 61.2793C263.111 63.6523 264.684 65.9375 267.32 66.8652L266.305 68.3105C264.4 67.5781 262.965 66.1328 262.213 64.3262C261.461 66.3379 259.967 67.9297 257.906 68.7207L256.91 67.2559C259.635 66.2891 261.256 63.8574 261.266 61.2207V59.1504H263.102V61.2793ZM260.094 75.2051V69.6777H261.969V73.7012H271.91V75.2051H260.094ZM265.973 63.6035V62.0801H269.664V58.0957H271.52V71.1426H269.664V63.6035H265.973ZM281.773 59.3262V60.8301H276.715V62.7832H281.578V64.209H276.715V66.3379C279.059 66.3184 280.592 66.2305 282.398 65.8887L282.574 67.4121C280.523 67.793 278.854 67.8711 276.07 67.8613H274.938V59.3262H281.773ZM277.242 71.0645V69.5605H289.137V75.5762H287.301V71.0645H277.242ZM283.492 68.584V58.4082H285.23V62.5488H287.379V58.0957H289.137V68.7207H287.379V64.0527H285.23V68.584H283.492Z" fill="#FB3463"/>
<circle cx="442.906" cy="18.4583" r="17.4583" fill="white" stroke="#FB3463" stroke-width="2"/>
<path d="M442.754 25.6543C439.648 25.6543 437.422 23.9453 437.363 21.4746H440.332C440.381 22.5293 441.406 23.2227 442.773 23.2324C444.18 23.2227 445.186 22.4414 445.176 21.2988C445.186 20.1465 444.16 19.3359 442.5 19.3262H441.191V17.1582H442.5C443.896 17.1582 444.873 16.3965 444.863 15.2832C444.873 14.1992 444.043 13.457 442.793 13.4668C441.543 13.457 440.518 14.1602 440.469 15.2441H437.656C437.705 12.8125 439.893 11.123 442.793 11.123C445.742 11.123 447.705 12.8711 447.695 15.1074C447.705 16.6895 446.602 17.8125 445.02 18.0957V18.2129C447.1 18.4668 448.242 19.7266 448.223 21.4941C448.242 23.916 445.947 25.6543 442.754 25.6543Z" fill="#FB3463"/>
<path d="M422.613 58.0762V65.0488H425.328V66.5918H422.613V75.5566H420.758V58.0762H422.613ZM418.043 59.9121C418.023 64.9707 415.797 69.4824 410.035 72.334L409 70.8887C413.385 68.7012 415.768 65.5371 416.148 61.4551H409.879V59.9121H418.043ZM440.777 58.0762V67.4707H438.922V58.0762H440.777ZM431.148 68.3105V70.2832H438.941V68.3105H440.777V75.3613H429.332V68.3105H431.148ZM431.148 73.8379H438.941V71.748H431.148V73.8379ZM431.285 58.877C433.961 58.877 435.934 60.5371 435.934 62.9395C435.934 65.3418 433.961 67.002 431.285 66.9824C428.609 67.002 426.617 65.3418 426.617 62.9395C426.617 60.5371 428.609 58.877 431.285 58.877ZM431.285 60.4395C429.625 60.4199 428.434 61.4551 428.434 62.9395C428.434 64.4434 429.625 65.459 431.285 65.459C432.926 65.459 434.117 64.4434 434.117 62.9395C434.117 61.4551 432.926 60.4199 431.285 60.4395ZM448.863 58.8574C451.422 58.8574 453.219 60.2637 453.238 62.3535C453.219 64.1309 451.871 65.4395 449.84 65.752V67.2949C451.393 67.2168 452.945 67.0801 454.391 66.8652L454.527 68.2324C450.855 68.8965 446.734 68.9551 443.727 68.9551L443.531 67.4512C444.84 67.4609 446.373 67.4512 447.984 67.3926V65.7715C445.895 65.4785 444.488 64.1602 444.508 62.3535C444.488 60.2637 446.305 58.8574 448.863 58.8574ZM448.863 60.2832C447.32 60.2832 446.227 61.084 446.246 62.3535C446.227 63.584 447.32 64.4043 448.863 64.4043C450.426 64.4043 451.48 63.584 451.48 62.3535C451.48 61.084 450.426 60.2832 448.863 60.2832ZM457.32 58.0957V63.877H459.82V65.4395H457.32V71.4746H455.465V58.0957H457.32ZM457.945 73.6816V75.2051H446.012V70.3027H447.867V73.6816H457.945ZM476.852 71.9238V73.4863H460.836V71.9238H465.211V68.8379H462.789V63.2715H473.062V60.8301H462.75V59.3066H474.898V64.7754H464.625V67.3145H475.309V68.8379H472.652V71.9238H476.852ZM467.008 71.9238H470.836V68.8379H467.008V71.9238Z" fill="#CFCFCF"/>
</svg>
