<svg width="4" height="21" viewBox="0 0 4 21" fill="none" xmlns="http://www.w3.org/2000/svg">
<path d="M2.06934 20.2109C2.95178 20.2109 3.66797 19.4829 3.66797 18.5859C3.66797 17.6889 2.95178 16.9609 2.06934 16.9609C1.18689 16.9609 0.470703 17.6889 0.470703 18.5859C0.470703 19.4829 1.18689 20.2109 2.06934 20.2109ZM2.06934 12.0859C2.95178 12.0859 3.66797 11.3579 3.66797 10.4609C3.66797 9.56394 2.95178 8.83594 2.06934 8.83594C1.18689 8.83594 0.470704 9.56394 0.470704 10.4609C0.470704 11.3579 1.18689 12.0859 2.06934 12.0859ZM2.06934 3.96094C2.95178 3.96094 3.66797 3.23294 3.66797 2.33594C3.66797 1.43894 2.95178 0.710939 2.06934 0.710939C1.18689 0.710939 0.470705 1.43894 0.470705 2.33594C0.470705 3.23294 1.18689 3.96094 2.06934 3.96094Z" fill="#6B6B6B"/>
</svg>
