<svg width="30" height="30" viewBox="0 0 30 30" fill="none" xmlns="http://www.w3.org/2000/svg">
<path d="M15.5967 24.5C16.4791 24.5 17.1953 23.772 17.1953 22.875C17.1953 21.978 16.4791 21.25 15.5967 21.25C14.7142 21.25 13.998 21.978 13.998 22.875C13.998 23.772 14.7142 24.5 15.5967 24.5ZM15.5967 16.375C16.4791 16.375 17.1953 15.647 17.1953 14.75C17.1953 13.853 16.4791 13.125 15.5967 13.125C14.7142 13.125 13.998 13.853 13.998 14.75C13.998 15.647 14.7142 16.375 15.5967 16.375ZM15.5967 8.25C16.4791 8.25 17.1953 7.522 17.1953 6.625C17.1953 5.728 16.4791 5 15.5967 5C14.7142 5 13.998 5.728 13.998 6.625C13.998 7.522 14.7142 8.25 15.5967 8.25Z" fill="#9D9D9D"/>
</svg>
