<svg width="40" height="39" viewBox="0 0 40 39" fill="none" xmlns="http://www.w3.org/2000/svg">
<path d="M20.0693 29.082C20.9518 29.082 21.668 28.354 21.668 27.457C21.668 26.56 20.9518 25.832 20.0693 25.832C19.1869 25.832 18.4707 26.56 18.4707 27.457C18.4707 28.354 19.1869 29.082 20.0693 29.082ZM20.0693 20.957C20.9518 20.957 21.668 20.229 21.668 19.332C21.668 18.435 20.9518 17.707 20.0693 17.707C19.1869 17.707 18.4707 18.435 18.4707 19.332C18.4707 20.229 19.1869 20.957 20.0693 20.957ZM20.0693 12.832C20.9518 12.832 21.668 12.104 21.668 11.207C21.668 10.31 20.9518 9.58203 20.0693 9.58203C19.1869 9.58203 18.4707 10.31 18.4707 11.207C18.4707 12.104 19.1869 12.832 20.0693 12.832Z" fill="#9D9D9D"/>
</svg>
