<svg width="20" height="18" viewBox="0 0 20 18" fill="none" xmlns="http://www.w3.org/2000/svg">
<path d="M5.5 0C2.4624 0 0 2.46201 0 5.50001C0 8.68402 1.8135 11.688 4.8125 14.438C5.8361 15.376 6.9382 16.199 8.0312 16.938C8.4143 17.196 8.7726 17.43 9.0938 17.625C9.2896 17.744 9.4187 17.83 9.5 17.875C9.802 18.043 10.198 18.043 10.5 17.875C10.5813 17.83 10.7104 17.744 10.9062 17.625C11.2274 17.43 11.5857 17.196 11.9688 16.938C13.0618 16.199 14.1639 15.376 15.1875 14.438C18.1865 11.688 20 8.68402 20 5.50001C20 2.46201 17.5376 0 14.5 0C12.7748 0 11.0904 0.940014 10.0312 2.31202C8.9984 0.916014 7.3199 0 5.5 0ZM5.5 2C6.7139 2 7.8475 2.61602 8.5 3.56202C8.5634 3.65402 9.0633 4.38902 9.1562 4.53102C9.5431 5.12402 10.4063 5.14202 10.8125 4.56202C10.9113 4.42102 11.4316 3.689 11.5 3.594C12.1811 2.642 13.3732 2 14.5 2C16.433 2 18 3.56701 18 5.50001C18 8.00302 16.4385 10.53 13.8125 12.938C12.8673 13.804 11.8601 14.594 10.8438 15.281C10.5365 15.489 10.2624 15.651 10 15.812C9.7376 15.651 9.4635 15.489 9.1562 15.281C8.1399 14.594 7.1327 13.804 6.1875 12.938C3.5615 10.53 2 8.00302 2 5.50001C2 3.56701 3.567 2 5.5 2Z" fill="#FB3463"/>
</svg>
