<svg width="24" height="25" viewBox="0 0 24 25" fill="none" xmlns="http://www.w3.org/2000/svg">
<g id="icon_heart">
<path id="Vector" d="M7.49805 3.30078C4.46045 3.30078 1.99805 5.76279 1.99805 8.80079C1.99805 11.9848 3.81155 14.9888 6.81055 17.7388C7.83415 18.6768 8.93625 19.4998 10.0292 20.2388C10.4123 20.4968 10.7706 20.7308 11.0918 20.9258C11.2876 21.0448 11.4167 21.1308 11.498 21.1758C11.8 21.3438 12.196 21.3438 12.498 21.1758C12.5793 21.1308 12.7084 21.0448 12.9043 20.9258C13.2254 20.7308 13.5837 20.4968 13.9668 20.2388C15.0598 19.4998 16.162 18.6768 17.1856 17.7388C20.1846 14.9888 21.9981 11.9848 21.9981 8.80079C21.9981 5.76279 19.5357 3.30078 16.4981 3.30078C14.7729 3.30078 13.0885 4.2408 12.0293 5.6128C10.9964 4.21679 9.31795 3.30078 7.49805 3.30078ZM7.49805 5.30079C8.71195 5.30079 9.84555 5.9168 10.498 6.8628C10.5614 6.9548 11.0613 7.6898 11.1542 7.8318C11.5411 8.4248 12.4043 8.4428 12.8105 7.8628C12.9093 7.7218 13.4296 6.98978 13.498 6.89478C14.1791 5.94278 15.3713 5.30079 16.4981 5.30079C18.4311 5.30079 19.9981 6.86779 19.9981 8.80079C19.9981 11.3038 18.4366 13.8308 15.8105 16.2388C14.8653 17.1048 13.8581 17.8948 12.8418 18.5818C12.5345 18.7898 12.2604 18.9518 11.998 19.1128C11.7356 18.9518 11.4615 18.7898 11.1542 18.5818C10.1379 17.8948 9.13075 17.1048 8.18555 16.2388C5.55955 13.8308 3.99805 11.3038 3.99805 8.80079C3.99805 6.86779 5.56505 5.30079 7.49805 5.30079Z" fill="#CFCFCF"/>
</g>
</svg>
