<svg fill="none" height="18" viewBox="0 0 20 18" width="20" xmlns="http://www.w3.org/2000/svg"><path d="m5.5 0c-3.0376 0-5.5 2.46201-5.5 5.50001 0 3.18401 1.8135 6.18799 4.8125 8.93799 1.0236.938 2.1257 1.761 3.2187 2.5.3831.258.7414.492 1.0626.687.1958.119.3249.205.4062.25.302.168.698.168 1 0 .0813-.045.2104-.131.4062-.25.3212-.195.6795-.429 1.0626-.687 1.093-.739 2.1951-1.562 3.2187-2.5 2.999-2.75 4.8125-5.75398 4.8125-8.93799 0-3.038-2.4624-5.50001-5.5-5.50001-1.7252 0-3.4096.940014-4.4688 2.31202-1.0328-1.396006-2.7113-2.31202-4.5312-2.31202zm0 2c1.2139 0 2.3475.61602 3 1.56202.0634.092.5633.827.6562.969.3869.593 1.2501.611 1.6563.031.0988-.141.6191-.87302.6875-.96802.6811-.952 1.8732-1.594 3-1.594 1.933 0 3.5 1.56701 3.5 3.50001 0 2.50301-1.5615 5.02999-4.1875 7.43799-.9452.866-1.9524 1.656-2.9687 2.343-.3073.208-.5814.37-.8438.531-.2624-.161-.5365-.323-.8438-.531-1.0163-.687-2.0235-1.477-2.9687-2.343-2.626-2.408-4.1875-4.93498-4.1875-7.43799 0-1.933 1.567-3.50001 3.5-3.50001z" fill="#fb3463"/></svg>