<svg width="20" height="20" viewBox="0 0 20 20" fill="none" xmlns="http://www.w3.org/2000/svg">
<path d="M10 0C4.477 0 0 4.477 0 10C0 11.272 0.261994 12.561 0.718994 13.719L1.5 15.312C1.995 16.341 1.82101 17.311 1.15601 18.5C0.789006 19.158 1.247 19.951 2 19.969C3.017 19.992 4.707 19.668 6 19.188C7.194 19.739 8.668 20 10 20C15.523 20 20 15.523 20 10C20 4.477 15.523 0 10 0ZM10 2C14.418 2 18 5.582 18 10C18 14.418 14.418 18 10 18C8.85 18 7.405 17.704 6.5 17.219C6.232 17.075 5.904 17.037 5.625 17.156C4.987 17.429 4.34299 17.634 3.59399 17.781C3.89399 16.73 3.80501 15.527 3.28101 14.438L2.53101 12.906C2.19801 12.054 2 11.02 2 10C2 5.582 5.582 2 10 2Z" fill="#CFCFCF"/>
</svg>
