<svg width="20" height="20" viewBox="0 0 20 20" fill="none" xmlns="http://www.w3.org/2000/svg">
<path d="M5.5 0C2.4624 0 0 2.7354 0 6.11077C0 9.64835 1.8135 12.9859 4.8125 16.0413C5.8361 17.0835 6.9382 17.9979 8.0312 18.8189C8.4143 19.1056 8.7726 19.3656 9.0938 19.5822C9.2896 19.7145 9.4187 19.81 9.5 19.86C9.802 20.0467 10.198 20.0467 10.5 19.86C10.5813 19.81 10.7104 19.7145 10.9062 19.5822C11.2274 19.3656 11.5857 19.1056 11.9688 18.8189C13.0618 17.9979 14.1639 17.0835 15.1875 16.0413C18.1865 12.9859 20 9.64835 20 6.11077C20 2.7354 17.5376 0 14.5 0C12.7748 0 11.0904 1.0444 10.0312 2.56876C8.9984 1.01773 7.3199 0 5.5 0ZM5.5 2.2221C6.7139 2.2221 7.8475 2.90652 8.5 3.95757C8.5634 4.05979 9.0633 4.8764 9.1562 5.03417C9.5431 5.69302 10.4063 5.71303 10.8125 5.06862C10.9113 4.91196 11.4316 4.09865 11.5 3.99311C12.1811 2.93539 13.3732 2.2221 14.5 2.2221C16.433 2.2221 18 3.96311 18 6.11077C18 8.89173 16.4385 11.6993 13.8125 14.3747C12.8673 15.3369 11.8601 16.2147 10.8438 16.978C10.5365 17.2091 10.2624 17.389 10 17.5679C9.7376 17.389 9.4635 17.2091 9.1562 16.978C8.1399 16.2147 7.1327 15.3369 6.1875 14.3747C3.5615 11.6993 2 8.89173 2 6.11077C2 3.96311 3.567 2.2221 5.5 2.2221Z" fill="#CFCFCF"/>
</svg>
