<svg width="20" height="20" viewBox="0 0 20 20" fill="none" xmlns="http://www.w3.org/2000/svg">
<path d="M5.5 0C2.4624 0 0 2.73541 0 6.11077C0 9.64835 1.8135 12.9859 4.8125 16.0413C5.8361 17.0835 6.9382 17.9979 8.0312 18.8189C8.4143 19.1056 8.7726 19.3656 9.0938 19.5822C9.2896 19.7145 9.4187 19.81 9.5 19.86C9.802 20.0467 10.198 20.0467 10.5 19.86C10.5813 19.81 10.7104 19.7145 10.9062 19.5822C11.2274 19.3656 11.5857 19.1056 11.9688 18.8189C13.0618 17.9979 14.1639 17.0835 15.1875 16.0413C18.1865 12.9859 20 9.64835 20 6.11077C20 2.73541 17.5376 0 14.5 0C12.7748 0 11.0904 1.0444 10.0312 2.56876C8.9984 1.01774 7.3199 0 5.5 0Z" fill="#FB3463"/>
</svg>
