<svg width="21" height="19" viewBox="0 0 21 19" fill="none" xmlns="http://www.w3.org/2000/svg">
<path d="M12.0301 15.8437C13.0663 15.1432 14.0929 14.338 15.0565 13.4551L15.0567 13.455C17.7204 11.0124 19.4063 8.36094 19.4063 5.64845C19.4063 3.4393 17.6154 1.64844 15.4063 1.64844C14.1072 1.64844 12.7684 2.37738 12 3.45096C11.9285 3.5503 11.4091 4.28106 11.3093 4.42353L11.3092 4.42363C11.1081 4.71074 10.6766 4.70578 10.4812 4.40624L10.4809 4.40572C10.3844 4.25823 9.88148 3.51891 9.81796 3.42674L9.81784 3.42657L9.78244 15.8437C10.0416 16.0191 10.2804 16.1645 10.4973 16.2966C10.5477 16.3273 10.5968 16.3572 10.6448 16.3867L10.9063 16.5471L11.1677 16.3867C11.2157 16.3572 11.2649 16.3273 11.3152 16.2966C11.5321 16.1645 11.7709 16.0191 12.0301 15.8437ZM12.0301 15.8437L11.7504 15.43L12.0303 15.8435C12.0302 15.8436 12.0302 15.8437 12.0301 15.8437ZM10.2597 17.3462L10.2595 17.3461C9.9482 17.1571 9.59752 16.9282 9.21751 16.6723C8.1373 15.9419 7.05639 15.134 6.05656 14.2178C3.10629 11.5125 1.40625 8.63226 1.40625 5.64845C1.40625 2.88661 3.64477 0.648438 6.40625 0.648438C8.05843 0.648438 9.59138 1.48169 10.5355 2.75783L10.929 3.28966L11.3332 2.766C12.3116 1.49876 13.8572 0.648438 15.4063 0.648438C18.1677 0.648438 20.4063 2.88661 20.4063 5.64845C20.4063 8.63226 18.7062 11.5125 15.7559 14.2178C14.7561 15.134 13.6752 15.9419 12.595 16.6723C12.215 16.9282 11.8643 17.1571 11.553 17.3461L11.5528 17.3462C11.4412 17.414 11.3628 17.4635 11.3034 17.501C11.2421 17.5397 11.2009 17.5657 11.1641 17.586L11.1632 17.5865C11.0123 17.6705 10.8002 17.6705 10.6493 17.5865L10.6484 17.586C10.6116 17.5657 10.5704 17.5397 10.5091 17.501C10.4497 17.4635 10.3714 17.414 10.2597 17.3462Z" fill="#FB3463" stroke="#FB3463"/>
</svg>
