<svg width="24" height="24" viewBox="0 0 24 24" fill="none" xmlns="http://www.w3.org/2000/svg">
<path d="M13.1219 18.6875C14.1581 17.987 15.1847 17.1818 16.1483 16.2989L16.1485 16.2987C18.8122 13.8562 20.4981 11.2047 20.4981 8.4922C20.4981 6.28305 18.7072 4.49219 16.4981 4.49219C15.199 4.49219 13.8602 5.22113 13.0918 6.29471C13.0203 6.39405 12.5009 7.12481 12.4011 7.26728L12.401 7.26738C12.1999 7.55449 11.7684 7.54953 11.573 7.24999L11.5727 7.24947C11.4762 7.10198 10.9733 6.36266 10.9098 6.27049L10.9096 6.27032L10.8742 18.6875C11.1334 18.8629 11.3722 19.0083 11.5891 19.1404C11.6394 19.171 11.6886 19.201 11.7366 19.2304L11.998 19.3908L12.2595 19.2304C12.3075 19.201 12.3567 19.171 12.407 19.1404C12.6239 19.0083 12.8627 18.8629 13.1219 18.6875ZM13.1219 18.6875L12.8422 18.2738L13.1221 18.6873C13.122 18.6873 13.1219 18.6874 13.1219 18.6875ZM11.3515 20.1899L11.3513 20.1898C11.04 20.0008 10.6893 19.7719 10.3093 19.516C9.2291 18.7857 8.14819 17.9778 7.14835 17.0616C4.19809 14.3562 2.49805 11.476 2.49805 8.4922C2.49805 5.73036 4.73657 3.49219 7.49805 3.49219C9.15022 3.49219 10.6832 4.32544 11.6273 5.60158L12.0208 6.13341L12.425 5.60975C13.4034 4.34251 14.949 3.49219 16.4981 3.49219C19.2595 3.49219 21.4981 5.73036 21.4981 8.4922C21.4981 11.476 19.798 14.3562 16.8477 17.0616C15.8479 17.9778 14.767 18.7857 13.6868 19.516C13.3068 19.7719 12.9561 20.0008 12.6448 20.1898L12.6446 20.1899C12.5329 20.2578 12.4546 20.3072 12.3952 20.3447C12.3339 20.3834 12.2927 20.4094 12.2559 20.4298L12.255 20.4303C12.1041 20.5142 11.892 20.5142 11.7411 20.4303L11.7402 20.4298C11.7034 20.4094 11.6622 20.3834 11.6009 20.3447C11.5415 20.3072 11.4631 20.2578 11.3515 20.1899Z" fill="#FB3463" stroke="#FB3463"/>
</svg>
