<svg width="39" height="40" viewBox="0 0 39 40" fill="none" xmlns="http://www.w3.org/2000/svg">
<path d="M19.999 29.2129C20.8815 29.2129 21.5977 28.4849 21.5977 27.5879C21.5977 26.6909 20.8815 25.9629 19.999 25.9629C19.1166 25.9629 18.4004 26.6909 18.4004 27.5879C18.4004 28.4849 19.1166 29.2129 19.999 29.2129ZM19.999 21.0879C20.8815 21.0879 21.5977 20.3599 21.5977 19.4629C21.5977 18.5659 20.8815 17.8379 19.999 17.8379C19.1166 17.8379 18.4004 18.5659 18.4004 19.4629C18.4004 20.3599 19.1166 21.0879 19.999 21.0879ZM19.999 12.9629C20.8815 12.9629 21.5977 12.2349 21.5977 11.3379C21.5977 10.4409 20.8815 9.71289 19.999 9.71289C19.1166 9.71289 18.4004 10.4409 18.4004 11.3379C18.4004 12.2349 19.1166 12.9629 19.999 12.9629Z" fill="#6B6B6B"/>
</svg>
