<svg width="25" height="25" viewBox="0 0 25 25" fill="none" xmlns="http://www.w3.org/2000/svg">
<path d="M12.4336 2.74023C6.91059 2.74023 2.43359 7.21723 2.43359 12.7402C2.43359 14.0122 2.69559 15.3012 3.15259 16.4592L3.93359 18.0522C4.42859 19.0812 4.2546 20.0512 3.5896 21.2402C3.2226 21.8982 3.68059 22.6912 4.43359 22.7092C5.45059 22.7322 7.14059 22.4082 8.43359 21.9282C9.62759 22.4792 11.1016 22.7402 12.4336 22.7402C17.9566 22.7402 22.4336 18.2632 22.4336 12.7402C22.4336 7.21723 17.9566 2.74023 12.4336 2.74023ZM12.4336 4.74023C16.8516 4.74023 20.4336 8.32223 20.4336 12.7402C20.4336 17.1582 16.8516 20.7402 12.4336 20.7402C11.2836 20.7402 9.83859 20.4442 8.93359 19.9592C8.66559 19.8152 8.33759 19.7772 8.05859 19.8962C7.42059 20.1692 6.77659 20.3742 6.02759 20.5212C6.32759 19.4702 6.2386 18.2672 5.7146 17.1782L4.9646 15.6462C4.6316 14.7942 4.43359 13.7602 4.43359 12.7402C4.43359 8.32223 8.01559 4.74023 12.4336 4.74023Z" fill="#FB3463"/>
</svg>
