<svg width="25" height="25" viewBox="0 0 25 25" fill="none" xmlns="http://www.w3.org/2000/svg">
<path d="M8.06641 2.64453C5.51441 2.64453 4.06641 4.09093 4.06641 6.64103V21.6278C4.06641 22.3451 4.78141 22.847 5.44141 22.5645L12.0664 19.7232L18.6604 22.5645C19.3204 22.847 20.0664 22.3451 20.0664 21.6278V6.64103C20.0664 4.01993 18.7614 2.64453 16.0664 2.64453H8.06641ZM8.06641 4.64273H16.0664C17.6324 4.64273 18.0664 5.10023 18.0664 6.64103V20.1291L12.4414 17.725C12.1894 17.6173 11.9114 17.6173 11.6604 17.725L6.06641 20.1291V6.64103C6.06641 5.19453 6.61841 4.64273 8.06641 4.64273Z" fill="#9D9D9D"/>
</svg>
