<svg width="24" height="24" viewBox="0 0 24 24" fill="none" xmlns="http://www.w3.org/2000/svg">
<path d="M11.9909 2C8.43863 2 5.99093 4.44801 5.99093 8.00002C5.99093 8.48502 5.99093 9.97002 5.99093 10C5.99093 10.322 5.82833 10.541 5.27213 11C5.20903 11.052 4.94453 11.279 4.86593 11.344C3.60053 12.39 2.97773 13.37 2.99093 15C3.00423 16.648 4.34763 17.981 5.99093 18H9.16693C9.16693 18 8.99093 18.6111 8.99093 19.0001C8.99093 20.6571 10.3339 22.0001 11.9909 22.0001C13.6479 22.0001 14.9909 20.6571 14.9909 19.0001C14.9909 18.6111 14.8229 18 14.8229 18H17.9909C19.6309 18.0061 20.9929 16.655 20.9909 15C20.9889 13.382 20.3649 12.385 19.1159 11.344C19.0339 11.275 18.7439 11.054 18.6779 11C18.1339 10.546 17.9909 10.318 17.9909 10C17.9909 8.75002 17.9909 8.00002 17.9909 8.00002C17.9909 4.44801 15.5429 2 11.9909 2ZM11.9909 4.00001C14.4389 4.00001 15.9909 5.55201 15.9909 8.00002C15.9909 8.00002 15.9909 8.75002 15.9909 10C15.9909 11.062 16.4389 11.732 17.3969 12.531C17.4729 12.594 17.7939 12.846 17.8659 12.906C18.7039 13.605 18.9899 14.078 18.9909 15C18.9919 15.544 18.5259 16.002 17.9909 16C17.8019 15.999 14.8909 15.999 11.9909 16C9.09123 16.001 6.20343 16.002 5.99093 16C5.43273 15.993 4.99543 15.555 4.99093 15C4.98353 14.08 5.26943 13.606 6.11593 12.906C6.18503 12.849 6.48073 12.591 6.55343 12.531C7.52663 11.727 7.99093 11.072 7.99093 10C7.99093 9.97002 7.99093 8.48502 7.99093 8.00002C7.99093 5.55201 9.54323 4.00001 11.9909 4.00001ZM11.9909 18C12.5429 18 12.9909 18.4481 12.9909 19.0001C12.9909 19.5521 12.5429 20.0001 11.9909 20.0001C11.4389 20.0001 10.9909 19.5521 10.9909 19.0001C10.9909 18.4481 11.4389 18 11.9909 18Z" fill="#6B6B6B"/>
</svg>
