<svg width="24" height="24" viewBox="0 0 24 24" fill="none" xmlns="http://www.w3.org/2000/svg">
<path d="M8.03882 2.01367C7.48682 2.01367 7.03882 2.46167 7.03882 3.01367C4.82782 3.01367 3.00781 4.80667 3.00781 7.01367V9.01367L3.03882 17.0137C3.03882 19.2197 4.82982 21.0137 7.03882 21.0137H17.0388C19.2478 21.0137 21.0388 19.2227 21.0388 17.0137L21.0078 9.01367V7.01367C21.0078 4.80267 19.2458 3.01367 17.0388 3.01367C17.0388 2.46167 16.5918 2.01367 16.0388 2.01367C15.4868 2.01367 15.0388 2.46167 15.0388 3.01367H9.03882C9.03882 2.46167 8.59182 2.01367 8.03882 2.01367ZM7.03882 5.01367C7.03882 5.56567 7.48682 6.01367 8.03882 6.01367C8.59182 6.01367 9.03882 5.56567 9.03882 5.01367H15.0388C15.0388 5.56567 15.4868 6.01367 16.0388 6.01367C16.5918 6.01367 17.0388 5.56567 17.0388 5.01367C18.1358 5.01367 19.0078 5.90167 19.0078 7.01367V8.01367C17.0838 8.01367 6.93181 8.01367 5.00781 8.01367V7.01367C5.00781 5.91667 5.92682 5.01367 7.03882 5.01367ZM5.00781 10.0137C6.93181 10.0137 17.0838 10.0137 19.0078 10.0137L19.0388 17.0137C19.0388 18.1147 18.1438 19.0137 17.0388 19.0137H7.03882C5.93482 19.0137 5.03882 18.1187 5.03882 17.0137L5.00781 10.0137Z" fill="#CFCFCF"/>
</svg>
