<svg width="24" height="24" viewBox="0 0 24 24" fill="none" xmlns="http://www.w3.org/2000/svg">
<path d="M9.99902 1.95312C5.58072 1.95312 1.99912 5.53513 1.99902 9.95313C1.99902 14.3711 5.58072 17.9531 9.99902 17.9531C11.8357 17.9531 13.5594 17.3041 14.9098 16.2631L19.2802 20.6721C19.6708 21.0621 20.3272 21.0621 20.7178 20.6721C21.1083 20.2811 21.1083 19.6251 20.7178 19.2341L16.3118 14.8581C17.3526 13.5081 17.999 11.7901 17.999 9.95313C17.999 5.53513 14.4173 1.95312 9.99902 1.95312ZM9.99902 3.95313C13.3127 3.95313 15.9989 6.63913 15.999 9.95313C15.999 13.2671 13.3127 15.9531 9.99902 15.9531C6.68532 15.9531 3.99912 13.2671 3.99902 9.95313C3.99902 6.63913 6.68532 3.95313 9.99902 3.95313Z" fill="#6B6B6B"/>
</svg>
