<svg width="25" height="25" viewBox="0 0 25 25" fill="none" xmlns="http://www.w3.org/2000/svg">
<path d="M7.91797 3.73242C4.88037 3.73242 2.41797 6.19443 2.41797 9.23243C2.41797 12.4164 4.23147 15.4204 7.23047 18.1704C8.25407 19.1084 9.35617 19.9314 10.4492 20.6704C10.8323 20.9284 11.1906 21.1625 11.5118 21.3575C11.7076 21.4765 11.8367 21.5625 11.918 21.6075C12.22 21.7755 12.616 21.7755 12.918 21.6075C12.9993 21.5625 13.1284 21.4765 13.3242 21.3575C13.6454 21.1625 14.0037 20.9284 14.3868 20.6704C15.4798 19.9314 16.5819 19.1084 17.6055 18.1704C20.6045 15.4204 22.418 12.4164 22.418 9.23243C22.418 6.19443 19.9556 3.73242 16.918 3.73242C15.1928 3.73242 13.5084 4.67244 12.4492 6.04444C11.4164 4.64844 9.73787 3.73242 7.91797 3.73242Z" fill="#FB3463"/>
</svg>
