<svg width="24" height="24" viewBox="0 0 24 24" fill="none" xmlns="http://www.w3.org/2000/svg">
<path d="M10 1.95312C5.5817 1.95312 2.0001 5.53513 2 9.95313C2 14.3711 5.5817 17.9531 10 17.9531C11.8367 17.9531 13.5604 17.3041 14.9108 16.2631L19.2812 20.6721C19.6718 21.0621 20.3282 21.0621 20.7188 20.6721C21.1093 20.2811 21.1093 19.6251 20.7188 19.2341L16.3128 14.8581C17.3536 13.5081 18 11.7901 18 9.95313C18 5.53513 14.4183 1.95312 10 1.95312ZM10 3.95313C13.3137 3.95313 15.9999 6.63913 16 9.95313C16 13.2671 13.3137 15.9531 10 15.9531C6.6863 15.9531 4.0001 13.2671 4 9.95313C4 6.63913 6.6863 3.95313 10 3.95313Z" fill="#CFCFCF"/>
</svg>
