<svg width="25" height="25" viewBox="0 0 25 25" fill="none" xmlns="http://www.w3.org/2000/svg">
<path d="M12.4453 2.70898C6.92231 2.70898 2.44531 7.18598 2.44531 12.709C2.44531 13.981 2.70731 15.27 3.16431 16.428L3.94531 18.021C4.44031 19.05 4.26632 20.02 3.60132 21.209C3.23432 21.867 3.69231 22.66 4.44531 22.678C5.46231 22.701 7.15231 22.377 8.44531 21.897C9.63931 22.448 11.1133 22.709 12.4453 22.709C17.9683 22.709 22.4453 18.232 22.4453 12.709C22.4453 7.18598 17.9683 2.70898 12.4453 2.70898ZM12.4453 4.70898C16.8633 4.70898 20.4453 8.29098 20.4453 12.709C20.4453 17.127 16.8633 20.709 12.4453 20.709C11.2953 20.709 9.85031 20.413 8.94531 19.928C8.67731 19.784 8.34931 19.746 8.07031 19.865C7.43231 20.138 6.78831 20.343 6.03931 20.49C6.33931 19.439 6.25032 18.236 5.72632 17.147L4.97632 15.615C4.64332 14.763 4.44531 13.729 4.44531 12.709C4.44531 8.29098 8.02731 4.70898 12.4453 4.70898Z" fill="#6B6B6B"/>
</svg>
