<svg width="12" height="12" viewBox="0 0 12 12" fill="none" xmlns="http://www.w3.org/2000/svg">
<g clip-path="url(#clip0_729_10998)">
<path d="M8.5 1H3.5C2.11929 1 1 2.11929 1 3.5V8.5C1 9.88071 2.11929 11 3.5 11H8.5C9.88071 11 11 9.88071 11 8.5V3.5C11 2.11929 9.88071 1 8.5 1Z" stroke="white" stroke-linecap="round" stroke-linejoin="round"/>
<path d="M7.99985 5.68515C8.06156 6.10127 7.99048 6.52626 7.79673 6.89966C7.60298 7.27306 7.29643 7.57586 6.92067 7.76499C6.54491 7.95412 6.11908 8.01995 5.70375 7.95312C5.28842 7.88628 4.90473 7.69019 4.60727 7.39273C4.30981 7.09527 4.11372 6.71159 4.04689 6.29626C3.98005 5.88093 4.04589 5.4551 4.23502 5.07934C4.42415 4.70358 4.72695 4.39702 5.10035 4.20327C5.47375 4.00952 5.89873 3.93844 6.31485 4.00015C6.73932 4.06309 7.13228 4.26088 7.4357 4.5643C7.73912 4.86773 7.93691 5.26069 7.99985 5.68515Z" stroke="white" stroke-linecap="round" stroke-linejoin="round"/>
<path d="M8.75 3.25H8.755" stroke="white" stroke-linecap="round" stroke-linejoin="round"/>
</g>
<defs>
<clipPath id="clip0_729_10998">
<rect width="12" height="12" fill="white"/>
</clipPath>
</defs>
</svg>
