<svg width="15" height="18" viewBox="0 0 15 18" fill="none" xmlns="http://www.w3.org/2000/svg">
<path fill-rule="evenodd" clip-rule="evenodd" d="M7.60513 17.758C9.24152 16.5349 14.0703 12.5127 14.0703 7.64062C14.0703 3.77463 10.9363 0.640625 7.07031 0.640625C3.20432 0.640625 0.0703125 3.77463 0.0703125 7.64062C0.0703125 12.5127 4.8991 16.5349 6.5355 17.758C6.85696 17.9983 7.28366 17.9983 7.60513 17.758ZM7.07031 10.6406C8.72717 10.6406 10.0703 9.29748 10.0703 7.64062C10.0703 5.98377 8.72717 4.64062 7.07031 4.64062C5.41346 4.64062 4.07031 5.98377 4.07031 7.64062C4.07031 9.29748 5.41346 10.6406 7.07031 10.6406Z" fill="#9D9D9D"/>
</svg>
