<svg width="25" height="25" viewBox="0 0 25 25" fill="none" xmlns="http://www.w3.org/2000/svg">
<path fill-rule="evenodd" clip-rule="evenodd" d="M12.6051 21.758C14.2415 20.5349 19.0703 16.5127 19.0703 11.6406C19.0703 7.77463 15.9363 4.64062 12.0703 4.64062C8.20432 4.64062 5.07031 7.77463 5.07031 11.6406C5.07031 16.5127 9.8991 20.5349 11.5355 21.758C11.857 21.9983 12.2837 21.9983 12.6051 21.758ZM12.0703 14.6406C13.7272 14.6406 15.0703 13.2975 15.0703 11.6406C15.0703 9.98377 13.7272 8.64062 12.0703 8.64062C10.4135 8.64062 9.07031 9.98377 9.07031 11.6406C9.07031 13.2975 10.4135 14.6406 12.0703 14.6406Z" fill="#9D9D9D"/>
</svg>
