<svg width="115" height="38" viewBox="0 0 115 38" fill="none" xmlns="http://www.w3.org/2000/svg">
<path d="M98.9222 37.3783V29.5405C97.5296 29.1801 96.3304 28.5881 95.3247 27.7644C94.3189 26.9407 93.5453 25.9626 93.0037 24.83C92.4622 23.6717 92.1914 22.4233 92.1914 21.0849V9.65625H98.8835V20.7374C98.8835 21.3294 99.0253 21.8828 99.309 22.3976C99.5927 22.8867 99.9924 23.2985 100.508 23.6331C101.024 23.942 101.617 24.0964 102.288 24.0964C102.958 24.0964 103.538 23.942 104.028 23.6331C104.544 23.2985 104.931 22.8867 105.189 22.3976C105.472 21.8828 105.614 21.3294 105.614 20.7374V9.65625H112.345V21.0849C112.345 22.4233 112.074 23.6717 111.533 24.83C111.017 25.9883 110.256 26.9793 109.25 27.803C108.27 28.6267 107.071 29.2187 105.653 29.5791V37.3783H98.9222Z" fill="#FB3463"/>
<path d="M79.4948 9.15234C81.1711 9.15234 82.6797 9.40975 84.0207 9.92455C85.3617 10.4393 86.4964 11.1858 87.4247 12.1639C88.3789 13.1163 89.101 14.2489 89.591 15.5616C90.1067 16.8744 90.3646 18.3158 90.3646 19.886C90.3646 21.8937 89.952 23.6569 89.1268 25.1756C88.3273 26.6942 87.2056 27.8783 85.7614 28.7277C84.3173 29.5771 82.6797 30.0018 80.8487 30.0018C80.1266 30.0018 79.4303 29.9117 78.7598 29.7315C78.0894 29.5514 77.4833 29.294 76.9418 28.9593C76.4002 28.599 75.9231 28.1743 75.5105 27.6852H75.3558V37.8397H68.625V19.9632C68.625 17.7753 69.0763 15.8705 69.9789 14.2489C70.8815 12.6273 72.1451 11.3789 73.7698 10.5037C75.4202 9.6028 77.3286 9.15234 79.4948 9.15234ZM79.4948 14.9825C78.7212 14.9825 78.0249 15.1884 77.406 15.6002C76.787 15.9863 76.31 16.5269 75.9747 17.2219C75.6395 17.8911 75.4718 18.6762 75.4718 19.5771C75.4718 20.4008 75.6395 21.1601 75.9747 21.8551C76.31 22.5243 76.787 23.0649 77.406 23.4767C78.0249 23.8628 78.7212 24.0559 79.4948 24.0559C80.32 24.0559 81.0292 23.8628 81.6224 23.4767C82.2413 23.0649 82.7055 22.5243 83.0149 21.8551C83.3502 21.1601 83.5178 20.4008 83.5178 19.5771C83.5178 18.6762 83.3502 17.8911 83.0149 17.2219C82.7055 16.5269 82.2413 15.9863 81.6224 15.6002C81.0292 15.1884 80.32 14.9825 79.4948 14.9825Z" fill="#FB3463"/>
<path d="M55.9289 9.15234C57.6051 9.15234 59.1138 9.40975 60.4548 9.92455C61.7958 10.4393 62.9304 11.1858 63.8588 12.1639C64.813 13.1163 65.5351 14.2489 66.0251 15.5616C66.5408 16.8744 66.7987 18.3158 66.7987 19.886C66.7987 21.8937 66.3861 23.6569 65.5609 25.1756C64.7614 26.6942 63.6396 27.8783 62.1955 28.7277C60.7513 29.5771 59.1138 30.0018 57.2828 30.0018C56.5607 30.0018 55.8644 29.9117 55.1939 29.7315C54.5234 29.5514 53.9174 29.294 53.3758 28.9593C52.8343 28.599 52.3572 28.1743 51.9446 27.6852H51.7899V37.8397H45.0591V19.9632C45.0591 17.7753 45.5104 15.8705 46.413 14.2489C47.3156 12.6273 48.5792 11.3789 50.2039 10.5037C51.8543 9.6028 53.7627 9.15234 55.9289 9.15234ZM55.9289 14.9825C55.1552 14.9825 54.459 15.1884 53.84 15.6002C53.2211 15.9863 52.744 16.5269 52.4088 17.2219C52.0735 17.8911 51.9059 18.6762 51.9059 19.5771C51.9059 20.4008 52.0735 21.1601 52.4088 21.8551C52.744 22.5243 53.2211 23.0649 53.84 23.4767C54.459 23.8628 55.1552 24.0559 55.9289 24.0559C56.7541 24.0559 57.4633 23.8628 58.0564 23.4767C58.6754 23.0649 59.1396 22.5243 59.449 21.8551C59.7843 21.1601 59.9519 20.4008 59.9519 19.5771C59.9519 18.6762 59.7843 17.8911 59.449 17.2219C59.1396 16.5269 58.6754 15.9863 58.0564 15.6002C57.4633 15.1884 56.7541 14.9825 55.9289 14.9825Z" fill="#FB3463"/>
<path d="M35.8906 29.5405V9.65625H42.6214V29.5405H35.8906Z" fill="#FB3463"/>
<path d="M21.269 29.5405V15.6408C21.269 13.7875 21.7977 12.3332 22.855 11.2779C23.9381 10.1968 25.4339 9.65625 27.3422 9.65625H33.4541V14.9072H29.3924C28.9798 14.9072 28.6445 15.0359 28.3866 15.2933C28.1288 15.5507 27.9998 15.8854 27.9998 16.2972V29.5405H21.269Z" fill="#FB3463"/>
<path d="M15.8212 29.5388C14.1449 29.5388 12.6492 29.1785 11.334 28.4577C10.0446 27.7113 9.02594 26.7074 8.27808 25.4461C7.556 24.1849 7.19496 22.7692 7.19496 21.199V8.49629H0V2.51172H21.6623V8.49629H14.5833V21.701C14.5833 22.2158 14.7639 22.6533 15.1249 23.0137C15.4859 23.3741 15.9114 23.5542 16.4014 23.5542H18.7997V29.5388H15.8212Z" fill="#FB3463"/>
<g clip-path="url(#clip0_922_9267)">
<path d="M35.8703 3.20317C35.9179 3.23308 35.9644 3.26299 36.0153 3.28625C36.0662 3.30952 36.1194 3.32059 36.1747 3.33167C36.2235 3.34164 36.2689 3.37266 36.3165 3.37266C36.3641 3.37266 36.4117 3.34496 36.4593 3.33721C36.5069 3.32946 36.5512 3.31506 36.5977 3.29955C36.6442 3.28404 36.6851 3.2641 36.7305 3.24416C36.7759 3.22422 36.8357 3.23973 36.8789 3.21647C36.9221 3.1932 36.9464 3.13893 36.9874 3.11345C37.0284 3.08797 37.0771 3.07357 37.1169 3.04698C37.1568 3.0204 37.2088 3.00821 37.2487 2.98163C37.2886 2.95504 37.314 2.90852 37.3539 2.88082C37.3937 2.85313 37.4402 2.83651 37.4801 2.80993C37.5199 2.78334 37.5476 2.73903 37.5886 2.71245C37.6296 2.68586 37.6694 2.66038 37.7104 2.6349C37.7513 2.60943 37.8023 2.60056 37.8432 2.57509C37.8842 2.54961 37.9174 2.51305 37.9584 2.48868C37.9993 2.46431 38.0436 2.44548 38.0846 2.42C38.1256 2.39453 38.1665 2.37126 38.2086 2.34689C38.2507 2.32252 38.2939 2.30258 38.3359 2.27932C38.378 2.25606 38.419 2.23169 38.461 2.20843C38.5031 2.18516 38.5419 2.15636 38.5839 2.13421C38.626 2.11205 38.6659 2.08325 38.7079 2.0611C38.75 2.03894 38.7854 2.00239 38.8286 1.98023C38.8718 1.95808 38.9205 1.94811 38.9626 1.92706C39.0047 1.90601 39.0512 1.89051 39.0943 1.87057C39.1375 1.85063 39.1785 1.82404 39.2228 1.80521C39.2671 1.78638 39.3213 1.79192 39.3656 1.77309C39.4099 1.75425 39.4531 1.73431 39.4973 1.71548C39.5416 1.69665 39.5771 1.65788 39.6225 1.64016C39.6678 1.62243 39.7155 1.61689 39.7608 1.60028C39.8062 1.58366 39.8483 1.55818 39.8937 1.54378C39.9391 1.52938 39.9922 1.53824 40.0376 1.52384C40.083 1.50944 40.1284 1.49504 40.1749 1.48175C40.2214 1.46846 40.258 1.42415 40.3045 1.41196C40.351 1.39978 40.4008 1.40199 40.4473 1.39092C40.4938 1.37984 40.5381 1.35547 40.5846 1.3455C40.6311 1.33553 40.6754 1.31005 40.723 1.30119C40.7706 1.29233 40.8237 1.3178 40.8713 1.31005C40.9189 1.3023 40.961 1.2602 41.0086 1.25356C41.0562 1.24691 41.1049 1.24469 41.1525 1.23916C41.2002 1.23362 41.2522 1.27239 41.2998 1.26796C41.3474 1.26353 41.3928 1.22476 41.4404 1.22143C41.488 1.21811 41.5367 1.22476 41.5843 1.22254C41.632 1.22032 41.6796 1.20703 41.7272 1.20703C41.7748 1.20703 41.8224 1.23694 41.8711 1.23805C41.9198 1.23916 41.9663 1.24137 42.015 1.24359C42.0615 1.24691 42.1069 1.25799 42.1534 1.26131C42.1999 1.26463 42.2475 1.25466 42.294 1.26131C42.3405 1.26796 42.3893 1.25799 42.4358 1.26574C42.4823 1.2735 42.5276 1.28347 42.573 1.29343C42.6184 1.3034 42.6671 1.30562 42.7125 1.3167C42.7579 1.32777 42.8 1.35325 42.8443 1.36655C42.8886 1.37984 42.9207 1.4319 42.9639 1.44741C43.007 1.46292 43.0524 1.474 43.0956 1.49172C43.1388 1.50944 43.1831 1.52274 43.2252 1.54378C43.2672 1.56483 43.3148 1.57369 43.3547 1.59695C43.3946 1.62022 43.4366 1.64348 43.4754 1.66896C43.5141 1.69444 43.5462 1.73099 43.5828 1.75868C43.6193 1.78638 43.6392 1.83401 43.6747 1.86503C43.7101 1.89604 43.7544 1.91377 43.7876 1.947C43.8208 1.98023 43.8773 1.99242 43.9072 2.02786C43.9371 2.06331 43.9393 2.12202 43.9659 2.15969C43.9924 2.19735 44.0168 2.23723 44.04 2.27711C44.0633 2.31698 44.1098 2.34579 44.1308 2.38788C44.1519 2.42997 44.1297 2.48979 44.1463 2.53299C44.1629 2.57619 44.2105 2.60943 44.2238 2.65374C44.2371 2.69805 44.2537 2.74346 44.2615 2.78999C44.2692 2.83651 44.277 2.88304 44.2814 2.92956C44.2858 2.97609 44.2548 3.02372 44.2537 3.07025C44.2526 3.11677 44.2581 3.1633 44.2526 3.20871C44.246 3.25524 44.2592 3.3073 44.2482 3.35272C44.2371 3.39814 44.2238 3.44577 44.2083 3.49008C44.1928 3.53439 44.1718 3.5787 44.1519 3.6219C44.1319 3.6651 44.0744 3.68726 44.0511 3.72824C44.0279 3.76923 44.0201 3.81797 43.9946 3.85785C43.9692 3.89773 43.9636 3.952 43.9349 3.98967C43.9061 4.02733 43.8374 4.03176 43.8064 4.06721C43.7754 4.10266 43.7555 4.14586 43.7223 4.1802C43.6891 4.21454 43.6658 4.25663 43.6315 4.28876C43.5972 4.32088 43.5628 4.35411 43.5274 4.38402C43.4909 4.41504 43.4709 4.46599 43.4333 4.4948C43.3957 4.5236 43.3481 4.54021 43.3093 4.56901C43.2706 4.59782 43.2274 4.61775 43.1875 4.64434C43.1477 4.67093 43.0934 4.67425 43.0535 4.70084C43.0137 4.72742 42.9993 4.79388 42.9583 4.81826C42.9174 4.84263 42.862 4.84263 42.8199 4.86589C42.7779 4.88915 42.7413 4.92017 42.6993 4.94232C42.6572 4.96448 42.6173 4.99217 42.5753 5.01322C42.5332 5.03426 42.4778 5.02873 42.4335 5.04866C42.3893 5.0686 42.3505 5.09519 42.3062 5.11402C42.2619 5.13285 42.2154 5.14282 42.1711 5.16055C42.1269 5.17827 42.0837 5.1971 42.0394 5.21372C41.9951 5.23033 41.9508 5.24584 41.9054 5.26246C41.86 5.27907 41.8279 5.33114 41.7836 5.34665C41.7393 5.36215 41.6807 5.33778 41.6353 5.35218C41.5899 5.36659 41.5478 5.38985 41.5024 5.40425C41.457 5.41865 41.4149 5.44523 41.3696 5.45853C41.3242 5.47182 41.2732 5.4696 41.2278 5.4829C41.1824 5.49619 41.1426 5.53164 41.0961 5.54493C41.0496 5.55822 40.9987 5.54825 40.9522 5.56044C40.9057 5.57262 40.8647 5.60253 40.8182 5.61361C40.7717 5.62469 40.723 5.6258 40.6765 5.63798C40.63 5.65017 40.5824 5.65349 40.5359 5.66457C40.4894 5.67564 40.4495 5.71552 40.403 5.72549C40.3565 5.73546 40.3045 5.72106 40.258 5.73103C40.2115 5.741 40.1605 5.72992 40.114 5.73878C40.0675 5.74765 40.0244 5.77645 39.9778 5.7842C39.9313 5.79196 39.8804 5.78088 39.8339 5.78974C39.7874 5.7986 39.7453 5.83516 39.6977 5.84291C39.6501 5.85067 39.6058 5.87061 39.5582 5.87725C39.5106 5.8839 39.4652 5.90162 39.4176 5.90827C39.37 5.91492 39.3224 5.91824 39.2748 5.92488C39.2272 5.93153 39.1796 5.93485 39.132 5.94039C39.0844 5.94593 39.0368 5.94482 38.9892 5.94926C38.9415 5.95369 38.895 5.9703 38.8474 5.97473C38.7998 5.97916 38.7511 5.9703 38.7035 5.97473C38.6559 5.97916 38.6061 5.95479 38.5585 5.95812C38.5109 5.96144 38.4633 5.95701 38.4156 5.95923C38.368 5.96144 38.3215 5.97252 38.2739 5.97473C38.2263 5.97695 38.1809 6.02237 38.1333 6.02458C38.0857 6.0268 38.0381 6.02126 37.9894 6.02237C37.9407 6.02347 37.8931 5.99024 37.8455 5.99024C37.7978 5.99024 37.7513 6.00021 37.7037 6.00021C37.6561 6.00021 37.6096 6.00021 37.562 5.9991C37.5144 5.998 37.4679 5.98027 37.4214 5.97806C37.3749 5.97584 37.3262 5.99135 37.2797 5.98913C37.2332 5.98692 37.1856 5.98138 37.138 5.97806C37.0904 5.97473 37.045 5.95812 36.9985 5.95369C36.952 5.94925 36.901 5.97806 36.8534 5.97141C36.8058 5.96476 36.7615 5.94261 36.715 5.93596C36.6685 5.92932 36.6187 5.93818 36.5722 5.92932C36.5257 5.92045 36.4759 5.92378 36.4305 5.91381C36.3851 5.90384 36.343 5.87061 36.2965 5.85953C36.25 5.84845 36.2035 5.8407 36.1581 5.82851C36.1127 5.81633 36.064 5.8119 36.0186 5.79639C35.9732 5.78088 35.9389 5.73768 35.8946 5.72106C35.8503 5.70445 35.7939 5.71774 35.7507 5.69891C35.7075 5.68007 35.6843 5.61693 35.6411 5.59699C35.5979 5.57706 35.5514 5.56598 35.5104 5.54382C35.4684 5.52167 35.4208 5.51059 35.3798 5.48622C35.3388 5.46185 35.3045 5.42751 35.2658 5.40203C35.227 5.37655 35.196 5.33778 35.1584 5.31009C35.1207 5.2824 35.0809 5.25692 35.0443 5.22701C35.0078 5.1971 34.9757 5.16276 34.9403 5.13174C34.9048 5.10073 34.8594 5.0819 34.8251 5.04866C34.7908 5.01543 34.7365 5.00325 34.7033 4.97002C34.6701 4.93678 34.669 4.87253 34.638 4.83709C34.607 4.80164 34.5583 4.7817 34.5284 4.74514C34.4985 4.70859 34.4775 4.66539 34.4487 4.62772C34.4199 4.59006 34.3856 4.55683 34.3579 4.51917C34.3302 4.4815 34.3247 4.42833 34.2981 4.38845C34.2715 4.34857 34.204 4.33639 34.1796 4.29651C34.1553 4.25663 34.1475 4.20568 34.1232 4.16469C34.0988 4.1237 34.0678 4.08715 34.0446 4.04616C34.0213 4.00518 34.0313 3.94647 34.0091 3.90437C33.987 3.86228 33.9405 3.83348 33.9206 3.79027C33.9006 3.74707 33.8885 3.70166 33.8685 3.65845C33.8486 3.61525 33.8132 3.5798 33.7943 3.5355C33.7755 3.49119 33.7667 3.44466 33.7501 3.40035C33.7335 3.35604 33.7235 3.30952 33.7069 3.26521C33.6903 3.2209 33.6881 3.17216 33.6737 3.12674C33.6593 3.08132 33.6526 3.0348 33.6393 2.98938C33.6261 2.94396 33.5962 2.90408 33.5829 2.85867C33.5696 2.81325 33.5319 2.77448 33.5198 2.72906C33.5054 2.67589 33.5032 2.61718 33.4921 2.5629C33.481 2.50862 33.4611 2.45213 33.4567 2.39674C33.4522 2.34135 33.4899 2.28486 33.4954 2.22947C33.5009 2.18295 33.4954 2.13532 33.5087 2.09322C33.522 2.05113 33.5231 1.99352 33.5463 1.95586C33.5718 1.91598 33.6183 1.8894 33.6548 1.8617C33.6914 1.83401 33.7323 1.8041 33.78 1.79302C33.8209 1.78416 33.8674 1.82072 33.9183 1.82736C33.966 1.83401 34.0102 1.84287 34.059 1.85727C34.1077 1.87167 34.152 1.88164 34.1974 1.90269C34.2427 1.92374 34.287 1.94035 34.3302 1.96472C34.3734 1.98909 34.4177 2.00903 34.4586 2.03673C34.4996 2.06442 34.535 2.09987 34.5749 2.12867C34.6148 2.15747 34.6557 2.18627 34.6945 2.21507C34.7354 2.24609 34.7731 2.27711 34.8096 2.30591C34.8495 2.33692 34.8794 2.38013 34.917 2.41336C34.9547 2.44659 35.0023 2.46874 35.041 2.50198C35.0798 2.53521 35.1041 2.58284 35.1418 2.61718C35.1794 2.65152 35.2503 2.6482 35.2868 2.68254C35.3233 2.71688 35.3433 2.77116 35.3798 2.8055C35.4163 2.83984 35.4584 2.86864 35.4961 2.90298C35.5337 2.93732 35.5525 2.9916 35.5913 3.02483C35.6322 3.06138 35.681 3.09129 35.7241 3.12452C35.7673 3.15776 35.826 3.17216 35.8725 3.20207L35.8703 3.20317Z" fill="#6096FF"/>
<mask id="mask0_922_9267" style="mask-type:luminance" maskUnits="userSpaceOnUse" x="33" y="1" width="12" height="6">
<path d="M35.8705 3.20317C35.9181 3.23308 35.9646 3.26299 36.0156 3.28625C36.0665 3.30952 36.1196 3.32059 36.175 3.33167C36.2237 3.34164 36.2691 3.37266 36.3167 3.37266C36.3643 3.37266 36.4119 3.34496 36.4595 3.33721C36.5071 3.32946 36.5514 3.31506 36.5979 3.29955C36.6444 3.28404 36.6854 3.2641 36.7308 3.24416C36.7762 3.22422 36.836 3.23973 36.8791 3.21647C36.9223 3.1932 36.9467 3.13893 36.9876 3.11345C37.0286 3.08797 37.0773 3.07357 37.1172 3.04698C37.157 3.0204 37.2091 3.00821 37.2489 2.98163C37.2888 2.95504 37.3143 2.90852 37.3541 2.88082C37.394 2.85313 37.4405 2.83651 37.4803 2.80993C37.5202 2.78334 37.5479 2.73903 37.5888 2.71245C37.6298 2.68586 37.6697 2.66038 37.7106 2.6349C37.7516 2.60943 37.8025 2.60056 37.8435 2.57509C37.8844 2.54961 37.9177 2.51305 37.9586 2.48868C37.9996 2.46431 38.0439 2.44548 38.0848 2.42C38.1258 2.39453 38.1668 2.37126 38.2088 2.34689C38.2509 2.32252 38.2941 2.30258 38.3362 2.27932C38.3782 2.25606 38.4192 2.23169 38.4613 2.20843C38.5034 2.18516 38.5421 2.15636 38.5842 2.13421C38.6262 2.11205 38.6661 2.08325 38.7082 2.0611C38.7503 2.03894 38.7857 2.00239 38.8289 1.98023C38.872 1.95808 38.9208 1.94811 38.9628 1.92706C39.0049 1.90601 39.0514 1.89051 39.0946 1.87057C39.1378 1.85063 39.1787 1.82404 39.223 1.80521C39.2673 1.78638 39.3215 1.79192 39.3658 1.77309C39.4101 1.75425 39.4533 1.73431 39.4976 1.71548C39.5419 1.69665 39.5773 1.65788 39.6227 1.64016C39.6681 1.62243 39.7157 1.61689 39.7611 1.60028C39.8065 1.58366 39.8486 1.55818 39.8939 1.54378C39.9393 1.52938 39.9925 1.53824 40.0379 1.52384C40.0833 1.50944 40.1287 1.49504 40.1752 1.48175C40.2217 1.46846 40.2582 1.42415 40.3047 1.41196C40.3512 1.39978 40.401 1.40199 40.4475 1.39092C40.494 1.37984 40.5383 1.35547 40.5848 1.3455C40.6313 1.33553 40.6756 1.31005 40.7232 1.30119C40.7708 1.29233 40.824 1.3178 40.8716 1.31005C40.9192 1.3023 40.9613 1.2602 41.0089 1.25356C41.0565 1.24691 41.1052 1.24469 41.1528 1.23916C41.2004 1.23362 41.2524 1.27239 41.3 1.26796C41.3477 1.26353 41.393 1.22476 41.4407 1.22143C41.4883 1.21811 41.537 1.22476 41.5846 1.22254C41.6322 1.22032 41.6798 1.20703 41.7274 1.20703C41.775 1.20703 41.8226 1.23694 41.8713 1.23805C41.9201 1.23916 41.9666 1.24137 42.0153 1.24359C42.0618 1.24691 42.1072 1.25799 42.1537 1.26131C42.2002 1.26463 42.2478 1.25466 42.2943 1.26131C42.3408 1.26796 42.3895 1.25799 42.436 1.26574C42.4825 1.2735 42.5279 1.28347 42.5733 1.29343C42.6187 1.3034 42.6674 1.30562 42.7128 1.3167C42.7582 1.32777 42.8003 1.35325 42.8445 1.36655C42.8888 1.37984 42.9209 1.4319 42.9641 1.44741C43.0073 1.46292 43.0527 1.474 43.0959 1.49172C43.139 1.50944 43.1833 1.52274 43.2254 1.54378C43.2675 1.56483 43.3151 1.57369 43.3549 1.59695C43.3948 1.62022 43.4369 1.64348 43.4756 1.66896C43.5144 1.69444 43.5465 1.73099 43.583 1.75868C43.6196 1.78638 43.6395 1.83401 43.6749 1.86503C43.7103 1.89604 43.7546 1.91377 43.7878 1.947C43.8211 1.98023 43.8775 1.99242 43.9074 2.02786C43.9373 2.06331 43.9395 2.12202 43.9661 2.15969C43.9927 2.19735 44.017 2.23723 44.0403 2.27711C44.0635 2.31698 44.11 2.34579 44.1311 2.38788C44.1521 2.42997 44.13 2.48979 44.1466 2.53299C44.1632 2.57619 44.2108 2.60943 44.2241 2.65374C44.2374 2.69805 44.254 2.74346 44.2617 2.78999C44.2695 2.83651 44.2772 2.88304 44.2816 2.92956C44.2861 2.97609 44.2551 3.02372 44.254 3.07025C44.2529 3.11677 44.2584 3.1633 44.2529 3.20871C44.2462 3.25524 44.2595 3.3073 44.2484 3.35272C44.2373 3.39814 44.2241 3.44577 44.2086 3.49008C44.1931 3.53439 44.172 3.5787 44.1521 3.6219C44.1322 3.6651 44.0746 3.68726 44.0513 3.72824C44.0281 3.76923 44.0203 3.81797 43.9949 3.85785C43.9694 3.89773 43.9639 3.952 43.9351 3.98967C43.9063 4.02733 43.8377 4.03176 43.8067 4.06721C43.7757 4.10266 43.7557 4.14586 43.7225 4.1802C43.6893 4.21454 43.6661 4.25663 43.6317 4.28876C43.5974 4.32088 43.5631 4.35411 43.5277 4.38402C43.4911 4.41504 43.4712 4.46599 43.4335 4.4948C43.3959 4.5236 43.3483 4.54021 43.3095 4.56901C43.2708 4.59782 43.2276 4.61775 43.1878 4.64434C43.1479 4.67093 43.0936 4.67425 43.0538 4.70084C43.0139 4.72742 42.9995 4.79388 42.9586 4.81826C42.9176 4.84263 42.8623 4.84263 42.8202 4.86589C42.7781 4.88915 42.7416 4.92017 42.6995 4.94232C42.6574 4.96448 42.6176 4.99217 42.5755 5.01322C42.5334 5.03426 42.4781 5.02873 42.4338 5.04866C42.3895 5.0686 42.3507 5.09519 42.3065 5.11402C42.2622 5.13285 42.2157 5.14282 42.1714 5.16055C42.1271 5.17827 42.0839 5.1971 42.0396 5.21372C41.9953 5.23033 41.9511 5.24584 41.9057 5.26246C41.8603 5.27907 41.8282 5.33114 41.7839 5.34665C41.7396 5.36215 41.6809 5.33778 41.6355 5.35218C41.5901 5.36659 41.5481 5.38985 41.5027 5.40425C41.4573 5.41865 41.4152 5.44523 41.3698 5.45853C41.3244 5.47182 41.2735 5.4696 41.2281 5.4829C41.1827 5.49619 41.1428 5.53164 41.0963 5.54493C41.0498 5.55822 40.9989 5.54825 40.9524 5.56044C40.9059 5.57262 40.8649 5.60253 40.8184 5.61361C40.7719 5.62469 40.7232 5.6258 40.6767 5.63798C40.6302 5.65017 40.5826 5.65349 40.5361 5.66457C40.4896 5.67564 40.4497 5.71552 40.4032 5.72549C40.3567 5.73546 40.3047 5.72106 40.2582 5.73103C40.2117 5.741 40.1608 5.72992 40.1143 5.73878C40.0678 5.74765 40.0246 5.77645 39.9781 5.7842C39.9316 5.79196 39.8807 5.78088 39.8342 5.78974C39.7877 5.7986 39.7456 5.83516 39.698 5.84291C39.6504 5.85067 39.6061 5.87061 39.5585 5.87725C39.5109 5.8839 39.4655 5.90162 39.4179 5.90827C39.3703 5.91492 39.3227 5.91824 39.275 5.92488C39.2274 5.93153 39.1798 5.93485 39.1322 5.94039C39.0846 5.94593 39.037 5.94482 38.9894 5.94926C38.9418 5.95369 38.8953 5.9703 38.8477 5.97473C38.8001 5.97916 38.7514 5.9703 38.7037 5.97473C38.6561 5.97916 38.6063 5.95479 38.5587 5.95812C38.5111 5.96144 38.4635 5.95701 38.4159 5.95923C38.3683 5.96144 38.3218 5.97252 38.2742 5.97473C38.2266 5.97695 38.1812 6.02237 38.1336 6.02458C38.086 6.0268 38.0383 6.02126 37.9896 6.02237C37.9409 6.02347 37.8933 5.99024 37.8457 5.99024C37.7981 5.99024 37.7516 6.00021 37.704 6.00021C37.6564 6.00021 37.6099 6.00021 37.5623 5.9991C37.5147 5.998 37.4682 5.98027 37.4217 5.97806C37.3752 5.97584 37.3264 5.99135 37.2799 5.98913C37.2334 5.98692 37.1858 5.98138 37.1382 5.97806C37.0906 5.97473 37.0452 5.95812 36.9987 5.95369C36.9522 5.94925 36.9013 5.97806 36.8537 5.97141C36.8061 5.96476 36.7618 5.94261 36.7153 5.93596C36.6688 5.92932 36.619 5.93818 36.5725 5.92932C36.526 5.92045 36.4761 5.92378 36.4307 5.91381C36.3854 5.90384 36.3433 5.87061 36.2968 5.85953C36.2503 5.84845 36.2038 5.8407 36.1584 5.82851C36.113 5.81633 36.0643 5.8119 36.0189 5.79639C35.9735 5.78088 35.9392 5.73768 35.8949 5.72106C35.8506 5.70445 35.7941 5.71774 35.7509 5.69891C35.7078 5.68007 35.6845 5.61693 35.6413 5.59699C35.5982 5.57706 35.5517 5.56598 35.5107 5.54382C35.4686 5.52167 35.421 5.51059 35.38 5.48622C35.3391 5.46185 35.3048 5.42751 35.266 5.40203C35.2273 5.37655 35.1963 5.33778 35.1586 5.31009C35.121 5.2824 35.0811 5.25692 35.0446 5.22701C35.008 5.1971 34.9759 5.16276 34.9405 5.13174C34.9051 5.10073 34.8597 5.0819 34.8254 5.04866C34.791 5.01543 34.7368 5.00325 34.7036 4.97002C34.6704 4.93678 34.6692 4.87253 34.6382 4.83709C34.6072 4.80164 34.5585 4.7817 34.5286 4.74514C34.4987 4.70859 34.4777 4.66539 34.4489 4.62772C34.4201 4.59006 34.3858 4.55683 34.3581 4.51917C34.3305 4.4815 34.3249 4.42833 34.2983 4.38845C34.2718 4.34857 34.2042 4.33639 34.1799 4.29651C34.1555 4.25663 34.1478 4.20568 34.1234 4.16469C34.0991 4.1237 34.0681 4.08715 34.0448 4.04616C34.0216 4.00518 34.0315 3.94647 34.0094 3.90437C33.9872 3.86228 33.9407 3.83348 33.9208 3.79027C33.9009 3.74707 33.8887 3.70166 33.8688 3.65845C33.8488 3.61525 33.8134 3.5798 33.7946 3.5355C33.7758 3.49119 33.7669 3.44466 33.7503 3.40035C33.7337 3.35604 33.7237 3.30952 33.7071 3.26521C33.6905 3.2209 33.6883 3.17216 33.6739 3.12674C33.6595 3.08132 33.6529 3.0348 33.6396 2.98938C33.6263 2.94396 33.5964 2.90408 33.5831 2.85867C33.5698 2.81325 33.5322 2.77448 33.52 2.72906C33.5056 2.67589 33.5034 2.61718 33.4923 2.5629C33.4813 2.50862 33.4613 2.45213 33.4569 2.39674C33.4525 2.34135 33.4901 2.28486 33.4957 2.22947C33.5012 2.18295 33.4957 2.13532 33.5089 2.09322C33.5222 2.05113 33.5233 1.99352 33.5466 1.95586C33.572 1.91598 33.6186 1.8894 33.6551 1.8617C33.6916 1.83401 33.7326 1.8041 33.7802 1.79302C33.8212 1.78416 33.8677 1.82072 33.9186 1.82736C33.9662 1.83401 34.0105 1.84287 34.0592 1.85727C34.1079 1.87167 34.1522 1.88164 34.1976 1.90269C34.243 1.92374 34.2873 1.94035 34.3305 1.96472C34.3736 1.98909 34.4179 2.00903 34.4589 2.03673C34.4999 2.06442 34.5353 2.09987 34.5751 2.12867C34.615 2.15747 34.656 2.18627 34.6947 2.21507C34.7357 2.24609 34.7733 2.27711 34.8099 2.30591C34.8497 2.33692 34.8796 2.38013 34.9173 2.41336C34.9549 2.44659 35.0025 2.46874 35.0413 2.50198C35.08 2.53521 35.1044 2.58284 35.142 2.61718C35.1796 2.65152 35.2505 2.6482 35.287 2.68254C35.3236 2.71688 35.3435 2.77116 35.38 2.8055C35.4166 2.83984 35.4587 2.86864 35.4963 2.90298C35.5339 2.93732 35.5528 2.9916 35.5915 3.02483C35.6325 3.06138 35.6812 3.09129 35.7244 3.12452C35.7676 3.15776 35.8262 3.17216 35.8727 3.20207L35.8705 3.20317Z" fill="white"/>
</mask>
<g mask="url(#mask0_922_9267)">
<path d="M41.9296 2.17777C41.923 2.1811 41.9252 2.20325 41.9185 2.20657C41.8654 2.23094 41.7812 2.22873 41.7491 2.27636C41.727 2.30849 41.7447 2.36276 41.7414 2.40154C41.7381 2.44031 41.7635 2.47465 41.7691 2.51231C41.7768 2.55773 41.7857 2.59982 41.7956 2.64413C41.8056 2.68844 41.8034 2.73496 41.8178 2.77927C41.8322 2.82358 41.8344 2.87011 41.851 2.9122C41.8676 2.9543 41.9019 2.98864 41.9218 3.03073C41.9418 3.07282 41.9274 3.13043 41.9484 3.17031C41.9872 3.24231 42.0547 3.24563 42.1344 3.24342C42.1831 3.2412 42.2307 3.22791 42.2795 3.22348C42.3282 3.21905 42.3791 3.23455 42.4278 3.22791C42.4765 3.22126 42.5219 3.19468 42.5695 3.18581C42.6171 3.17695 42.6725 3.19911 42.7201 3.18803C42.7677 3.17695 42.8098 3.14372 42.8574 3.13043C42.905 3.11713 42.9493 3.09609 42.9958 3.08169C43.0423 3.06729 43.0866 3.04624 43.132 3.02962C43.1774 3.01301 43.2228 2.99528 43.2682 2.97534C43.3136 2.9554 43.3722 2.96648 43.4165 2.94543C43.4608 2.92439 43.4996 2.89005 43.5416 2.86679C43.5837 2.84352 43.6324 2.82691 43.6745 2.80143C43.7166 2.77595 43.7509 2.73718 43.7907 2.70949C43.8306 2.68179 43.8627 2.64302 43.9026 2.61311C43.9424 2.5832 44 2.57877 44.0387 2.54776C44.0775 2.51674 44.1074 2.47575 44.1439 2.44363C44.1805 2.41151 44.2092 2.36941 44.2436 2.33507C44.2779 2.30073 44.289 2.26418 44.3222 2.22873C44.2879 2.19217 44.2934 2.13789 44.258 2.10134C44.2225 2.06478 44.1672 2.04817 44.1329 2.01272C44.0985 1.97727 44.072 1.93185 44.0376 1.8953C44.0033 1.85874 43.9679 1.8233 43.9325 1.78674C43.897 1.75019 43.8616 1.71585 43.8262 1.67929C43.7907 1.64274 43.7531 1.6095 43.7188 1.57295C43.6845 1.53639 43.659 1.49098 43.6247 1.45442C43.5903 1.41786 43.5283 1.40679 43.494 1.37023C43.473 1.34919 43.4519 1.29269 43.4187 1.29712C43.3855 1.30155 43.3855 1.36691 43.3645 1.39239C43.3368 1.42673 43.277 1.43227 43.2471 1.46439C43.2172 1.49651 43.1829 1.5231 43.1497 1.55079C43.1165 1.57849 43.0866 1.6095 43.0512 1.63498C43.0157 1.66046 42.9947 1.70698 42.9582 1.73025C42.9216 1.75351 42.8629 1.73911 42.8242 1.76016C42.7854 1.7812 42.7611 1.8244 42.7212 1.84434C42.678 1.86539 42.6293 1.87314 42.5861 1.89308C42.543 1.91302 42.5098 1.95623 42.4655 1.97506C42.4212 1.99389 42.3758 2.00829 42.3315 2.02601C42.2872 2.04374 42.2385 2.04928 42.1942 2.06811C42.1499 2.08694 42.1134 2.12239 42.0702 2.14122C42.027 2.16005 41.975 2.16005 41.9307 2.17999L41.9296 2.17777Z" fill="#B3D2FF"/>
</g>
<path d="M38.4413 4.70371C38.5044 4.66826 38.4889 4.68598 38.5764 4.65164C38.614 4.63724 38.655 4.60733 38.707 4.58961C38.748 4.57521 38.8011 4.58296 38.8521 4.56856C38.8952 4.55638 38.9462 4.56192 38.996 4.54862C39.0403 4.53755 39.0801 4.49988 39.13 4.48881C39.1754 4.47884 39.2174 4.4445 39.2661 4.43563C39.3115 4.42677 39.3636 4.4445 39.4123 4.43563C39.4588 4.42899 39.5086 4.44671 39.5584 4.44117C39.6049 4.43563 39.6492 4.40462 39.699 4.39908C39.7489 4.39354 39.7954 4.40573 39.8441 4.4024C39.8928 4.39908 39.9393 4.4024 39.988 4.40019C40.0367 4.39797 40.0832 4.39133 40.1319 4.39133C40.1807 4.39133 40.2272 4.39908 40.2759 4.39908C40.3246 4.39908 40.3711 4.40462 40.4198 4.40683C40.4685 4.40905 40.5172 4.37582 40.566 4.37914C40.6147 4.38246 40.6612 4.38911 40.7099 4.39354C40.7586 4.39797 40.804 4.41791 40.8527 4.42234C40.9014 4.42677 40.9512 4.41016 40.9989 4.4168C41.0465 4.42345 41.0952 4.42788 41.1428 4.43563C41.1904 4.44339 41.2314 4.48548 41.2801 4.49434C41.3343 4.50431 41.3819 4.50321 41.4218 4.52093C41.4727 4.54309 41.4993 4.57964 41.527 4.61398C41.5569 4.65275 41.5657 4.68931 41.569 4.74026C41.5713 4.78346 41.5746 4.82777 41.5591 4.87984C41.5469 4.92193 41.5524 4.97732 41.5292 5.02384C41.5093 5.06483 41.4838 5.10803 41.4561 5.15123C41.4318 5.19 41.3963 5.22656 41.3664 5.26755C41.3388 5.30521 41.3022 5.33844 41.2701 5.37721C41.2402 5.41377 41.2148 5.45586 41.1815 5.49352C41.1505 5.52897 41.1096 5.55666 41.0752 5.59322C41.0409 5.62978 41.0011 5.65525 40.9667 5.68959C40.9324 5.72393 40.897 5.75495 40.8616 5.78929C40.8261 5.82363 40.7985 5.8624 40.7619 5.89563C40.7254 5.92887 40.7143 5.98758 40.6778 6.0197C40.6412 6.05182 40.5737 6.04739 40.5361 6.07841C40.4984 6.10943 40.4763 6.15706 40.4386 6.18808C40.401 6.21909 40.3501 6.23128 40.3113 6.26229C40.2726 6.29331 40.2482 6.33762 40.2094 6.36753C40.1707 6.39744 40.1419 6.43842 40.1032 6.46833C40.0644 6.49824 40.0279 6.52926 39.9891 6.55917C39.9504 6.58908 39.916 6.62342 39.8762 6.65222C39.8363 6.68102 39.7998 6.71314 39.7599 6.74084C39.7201 6.76853 39.6636 6.77407 39.6238 6.80176C39.5839 6.82946 39.5451 6.85826 39.5042 6.88595C39.4632 6.91364 39.4256 6.94244 39.3846 6.97014C39.3436 6.99783 39.3071 7.02885 39.2661 7.05543C39.2252 7.08202 39.1709 7.08645 39.13 7.11193C39.089 7.13741 39.0569 7.17839 39.0159 7.20387C38.975 7.22935 38.9351 7.25815 38.893 7.28252C38.851 7.30689 38.8144 7.34123 38.7723 7.3656C38.7303 7.38997 38.6793 7.39994 38.6373 7.42431C38.5952 7.44868 38.5498 7.46862 38.5077 7.49077C38.4657 7.51293 38.4136 7.52068 38.3704 7.54284C38.3273 7.56499 38.3007 7.62149 38.2575 7.64253C38.2143 7.66358 38.1568 7.66026 38.1136 7.6802C38.0704 7.70014 38.0372 7.74888 37.9929 7.76771C37.9486 7.78654 37.9032 7.8098 37.86 7.82863C37.8169 7.84747 37.7704 7.87184 37.7261 7.88845C37.6796 7.90618 37.6286 7.91171 37.5844 7.92612C37.5368 7.94273 37.4869 7.94827 37.4415 7.96156C37.3928 7.97596 37.3474 7.9948 37.3009 8.00587C37.2511 8.01695 37.2046 8.03689 37.1581 8.04354C37.1072 8.05129 37.0574 8.06126 37.0109 8.06348C36.9588 8.06569 36.909 8.04243 36.8636 8.03689C36.8116 8.03024 36.7606 8.0236 36.7197 8.00587C36.6732 7.98593 36.6355 7.95049 36.6034 7.91615C36.5713 7.88181 36.5359 7.84304 36.5193 7.7943C36.506 7.7522 36.4949 7.70124 36.4927 7.64697C36.4905 7.59712 36.5027 7.54727 36.5038 7.49964C36.5049 7.452 36.5215 7.40216 36.527 7.35342C36.5326 7.30468 36.558 7.25926 36.5658 7.21162C36.5735 7.16399 36.5602 7.11193 36.5713 7.0643C36.5824 7.01666 36.5813 6.96571 36.5957 6.91918C36.6101 6.87266 36.6555 6.8361 36.6721 6.78958C36.6887 6.74305 36.702 6.69763 36.7208 6.65222C36.7396 6.6068 36.7628 6.56471 36.7839 6.5204C36.8049 6.47609 36.7905 6.41405 36.8127 6.37085C36.8348 6.32765 36.888 6.30106 36.9134 6.25897C36.9389 6.21688 36.94 6.16038 36.9666 6.1194C36.9931 6.07841 37.0319 6.04407 37.0596 6.0053C37.0872 5.96653 37.116 5.92443 37.1448 5.88566C37.1736 5.84689 37.188 5.79372 37.219 5.75717C37.25 5.72061 37.3142 5.70953 37.3463 5.67298C37.3784 5.63642 37.3751 5.56553 37.4083 5.53119C37.4415 5.49685 37.4858 5.46694 37.519 5.4326C37.5523 5.39826 37.6131 5.38718 37.6486 5.35395C37.684 5.32072 37.7139 5.27862 37.7493 5.2465C37.787 5.21216 37.8036 5.15677 37.8401 5.12576C37.8789 5.09252 37.9287 5.07591 37.9652 5.046C38.0051 5.01387 38.0416 4.97953 38.0782 4.95184C38.1202 4.91972 38.1734 4.90975 38.2099 4.88316C38.2553 4.84993 38.3007 4.82888 38.335 4.80562C38.4114 4.75356 38.376 4.73583 38.4402 4.70038L38.4413 4.70371Z" fill="#1D60CC"/>
<path d="M33.6483 2.94367C33.7148 2.90711 33.6871 2.89603 33.7801 2.86834C33.8211 2.85615 33.8731 2.85505 33.9307 2.84397C33.9761 2.83511 34.0259 2.82957 34.0801 2.82403C34.1266 2.8196 34.1765 2.79412 34.2296 2.79301C34.2772 2.79191 34.3281 2.81184 34.3813 2.81517C34.43 2.81738 34.4809 2.81184 34.533 2.81738C34.5817 2.82292 34.6348 2.81184 34.6869 2.82181C34.7511 2.834 34.8053 2.88052 34.8153 2.9193C34.8241 2.95585 34.8075 3.01788 34.7788 3.07106C34.7588 3.1065 34.7245 3.14638 34.6913 3.18737C34.6636 3.22171 34.6105 3.23832 34.575 3.27377C34.5429 3.3059 34.5341 3.36571 34.4975 3.39895C34.4632 3.42996 34.4023 3.43218 34.3647 3.4643C34.327 3.49643 34.2982 3.53077 34.2595 3.56068C34.2207 3.59058 34.1886 3.62492 34.1499 3.65262C34.1111 3.68031 34.0646 3.69582 34.0248 3.72351C33.9849 3.75121 33.9617 3.80105 33.9218 3.82653C33.882 3.85201 33.8388 3.87527 33.7978 3.89964C33.7568 3.92401 33.7126 3.94617 33.6716 3.96832C33.6284 3.99159 33.5808 4.00488 33.5398 4.02482C33.4956 4.04586 33.4535 4.07245 33.4114 4.08907C33.3638 4.1079 33.3195 4.12894 33.2774 4.14113C33.2265 4.15553 33.1745 4.14778 33.1335 4.15221C33.077 4.15664 33.0394 4.13227 33.0051 4.11233C32.9674 4.09017 32.9154 4.06913 32.9132 4.01042C32.911 3.95946 32.9132 3.90629 32.9198 3.85755C32.9265 3.80881 32.9652 3.76339 32.9807 3.71687C32.9962 3.67034 33.015 3.62382 33.0372 3.57951C33.0593 3.5352 33.1025 3.50307 33.1291 3.46209C33.1557 3.4211 33.1634 3.36461 33.1944 3.32694C33.2265 3.28706 33.2608 3.25051 33.2952 3.21617C33.3317 3.17851 33.3771 3.15303 33.4125 3.12312C33.4546 3.08656 33.4956 3.05776 33.5299 3.03228C33.6018 2.9769 33.5819 2.98133 33.6472 2.94477L33.6483 2.94367Z" fill="#1D60CC"/>
<path d="M38.625 4.23113C38.5542 4.25328 38.5586 4.26879 38.4878 4.28984C38.4169 4.31088 38.4169 4.31088 38.3449 4.33304C38.273 4.35519 38.273 4.35187 38.2021 4.37402C38.1312 4.39618 38.129 4.39064 38.0582 4.41169C38.0106 4.42609 37.9641 4.42609 37.9231 4.40393C37.8821 4.38178 37.8423 4.34744 37.8268 4.2998C37.8046 4.22559 37.788 4.23113 37.7659 4.15691C37.7437 4.08269 37.7781 4.07161 37.7559 3.9985C37.7338 3.92539 37.7072 3.93204 37.684 3.85782C37.6607 3.7836 37.6873 3.77585 37.664 3.70163C37.6496 3.65399 37.6485 3.60968 37.6707 3.5687C37.6928 3.52771 37.726 3.49337 37.7736 3.47897C37.8445 3.45682 37.8401 3.44242 37.9109 3.42137C37.9818 3.40032 37.9873 3.41694 38.0582 3.39589C38.129 3.37484 38.1213 3.34715 38.1921 3.325C38.263 3.30284 38.263 3.30284 38.335 3.28069C38.3826 3.26629 38.4368 3.30173 38.4778 3.32389C38.5188 3.34604 38.5808 3.37041 38.5951 3.41805C38.6173 3.49226 38.5752 3.50445 38.5985 3.57867C38.6217 3.65289 38.6383 3.64735 38.6605 3.72157C38.6826 3.79578 38.6981 3.79135 38.7203 3.86557C38.7424 3.93979 38.7003 3.95308 38.7236 4.0273C38.738 4.07493 38.749 4.1126 38.728 4.15358C38.707 4.19457 38.6726 4.21672 38.625 4.23113Z" fill="#B3D2FF"/>
<path d="M39.8797 3.85914C39.8088 3.88129 39.8099 3.88573 39.7391 3.90677C39.6682 3.92782 39.6627 3.91342 39.5918 3.93447C39.521 3.95551 39.5188 3.95108 39.4479 3.97324C39.377 3.99539 39.3881 4.03305 39.3173 4.0541C39.2696 4.0685 39.2021 4.06739 39.1611 4.04524C39.1202 4.02309 39.0881 3.96659 39.0737 3.91785C39.0515 3.84363 39.0715 3.83809 39.0493 3.76387C39.0272 3.68966 38.994 3.69963 38.9718 3.62541C38.9497 3.55119 38.9951 3.53679 38.9718 3.46257C38.9486 3.38835 38.9419 3.39057 38.9187 3.31635C38.9043 3.26872 38.9131 3.23216 38.9342 3.19117C38.9552 3.15019 38.9829 3.12582 39.0305 3.11142C39.1014 3.08926 39.0947 3.06932 39.1667 3.04717C39.2386 3.02501 39.2309 3.00397 39.3029 2.98181C39.3748 2.95966 39.387 3.00175 39.4579 2.9807C39.5287 2.95966 39.5309 2.9652 39.6018 2.94304C39.6494 2.92864 39.7003 2.89541 39.7413 2.91756C39.7823 2.93972 39.8022 2.994 39.8166 3.04274C39.8387 3.11696 39.8598 3.11031 39.883 3.18453C39.9063 3.25875 39.8852 3.26539 39.9074 3.3385C39.9295 3.41161 39.9184 3.41605 39.9406 3.49026C39.9627 3.56448 39.9638 3.56448 39.986 3.6387C40.0004 3.68633 40.0126 3.73397 39.9915 3.77495C39.9705 3.81594 39.9262 3.84363 39.8786 3.85803L39.8797 3.85914Z" fill="#B3D2FF"/>
<path d="M41.124 3.46212C41.0532 3.48427 41.0554 3.49314 40.9845 3.51418C40.9137 3.53523 40.9126 3.53191 40.8406 3.55295C40.7686 3.574 40.7764 3.59726 40.7044 3.61831C40.6325 3.63936 40.6336 3.64046 40.5616 3.66262C40.514 3.67702 40.4619 3.66373 40.421 3.64268C40.38 3.62163 40.3346 3.58729 40.3202 3.53966C40.2981 3.46544 40.2881 3.46877 40.266 3.39455C40.2438 3.32033 40.2815 3.30925 40.2593 3.23503C40.2372 3.16081 40.2029 3.17078 40.1807 3.09657C40.1586 3.02235 40.1918 3.01238 40.1697 2.93816C40.1553 2.89053 40.132 2.83846 40.1542 2.79748C40.1763 2.75649 40.2317 2.74541 40.2793 2.73101C40.3501 2.70886 40.3523 2.71661 40.4232 2.69446C40.4941 2.6723 40.4918 2.66233 40.5627 2.64129C40.6336 2.62024 40.6313 2.61027 40.7022 2.58922C40.7731 2.56817 40.7731 2.56596 40.8439 2.5438C40.8915 2.5294 40.9325 2.55045 40.9735 2.5715C41.0144 2.59255 41.0698 2.61027 41.0842 2.6579C41.1063 2.73212 41.0997 2.73434 41.1218 2.80745C41.144 2.88056 41.1185 2.88942 41.1406 2.96364C41.1628 3.03786 41.1639 3.03786 41.1871 3.11207C41.2104 3.18629 41.2547 3.173 41.2768 3.24722C41.2912 3.29485 41.237 3.34138 41.2148 3.38236C41.1927 3.42335 41.1705 3.44661 41.1229 3.46101L41.124 3.46212Z" fill="#B3D2FF"/>
</g>
<g clip-path="url(#clip1_922_9267)">
<path d="M88.3104 29.6836C88.2553 29.6646 88.2723 29.6466 88.1981 29.6536C88.1661 29.6566 88.123 29.6556 88.0799 29.6686C88.0458 29.6786 88.0148 29.7076 87.9747 29.7267C87.9376 29.7437 87.8925 29.7487 87.8434 29.7577C87.8013 29.7657 87.7573 29.7807 87.7102 29.7847C87.6631 29.7887 87.62 29.8077 87.5739 29.8087C87.5278 29.8097 87.4807 29.8147 87.4366 29.8147C87.3885 29.8147 87.3424 29.8007 87.3003 29.8017C87.2452 29.8037 87.2041 29.8187 87.1711 29.8267C87.123 29.8377 87.0819 29.8327 87.0638 29.8597C87.0428 29.8908 87.0248 29.9288 87.0137 29.9658C87.0037 30.0008 86.9947 30.0279 86.9646 30.0569C86.9376 30.0819 86.9005 30.1079 86.8694 30.1389C86.8384 30.17 86.8434 30.229 86.8264 30.261C86.8053 30.303 86.7803 30.3431 86.8203 30.3731C86.8694 30.4101 86.8825 30.4281 86.8735 30.4532C86.8644 30.4782 86.8394 30.5002 86.8815 30.5402C86.9095 30.5672 86.9516 30.5692 86.9937 30.5772C87.0328 30.5842 87.0709 30.5772 87.1109 30.5722C87.156 30.5682 87.2011 30.5832 87.2342 30.5722C87.2743 30.5582 87.3254 30.5662 87.3705 30.6063C87.4025 30.6343 87.4266 30.6813 87.4677 30.7103C87.5057 30.7363 87.5508 30.7353 87.5999 30.7433C87.643 30.7504 87.6901 30.7914 87.7122 30.8304C87.7302 30.8634 87.7372 30.9115 87.7502 30.9545C87.7623 30.9935 87.7813 31.0315 87.7943 31.0706C87.8074 31.1096 87.8104 31.1516 87.8314 31.1857C87.8544 31.2217 87.8755 31.2497 87.9136 31.2677C87.9366 31.2777 87.9426 31.3287 87.9567 31.3938C87.9647 31.4298 87.9677 31.4738 87.9747 31.5239C87.9797 31.5639 87.9767 31.6079 87.9817 31.655C87.9867 31.696 88.0198 31.737 88.0248 31.7831C88.0288 31.8251 88.0478 31.8671 88.0529 31.9121C88.0579 31.9542 88.0458 32.0002 88.0508 32.0442C88.0559 32.0883 88.0428 32.1323 88.0488 32.1773C88.0549 32.2224 88.0609 32.2634 88.0669 32.3074C88.0729 32.3514 88.0939 32.3915 88.1009 32.4355C88.108 32.4795 88.109 32.5226 88.117 32.5666C88.125 32.6106 88.1521 32.6486 88.1621 32.6917C88.1721 32.7347 88.1541 32.7837 88.1641 32.8268C88.1741 32.8698 88.2112 32.9048 88.2232 32.9479C88.2352 32.9909 88.2312 33.0369 88.2452 33.0789C88.2593 33.121 88.2733 33.163 88.2893 33.203C88.3054 33.2431 88.3314 33.2811 88.3495 33.3211C88.3675 33.3611 88.3685 33.4102 88.3895 33.4482C88.4106 33.4862 88.4296 33.5282 88.4527 33.5653C88.4757 33.6023 88.5188 33.6273 88.5459 33.6623C88.5729 33.6974 88.613 33.7194 88.643 33.7514C88.6731 33.7834 88.6972 33.8194 88.7312 33.8475C88.7653 33.8755 88.7994 33.9015 88.8364 33.9245C88.8735 33.9475 88.9156 33.9575 88.9567 33.9756C88.9978 33.9936 89.0318 34.0186 89.0749 34.0306C89.1371 34.0476 89.121 34.0706 89.1932 34.0866C89.2312 34.0946 89.2763 34.0976 89.3214 34.1046C89.3635 34.1116 89.4106 34.0896 89.4527 34.0916C89.4998 34.0946 89.5429 34.0976 89.5789 34.0906C89.6451 34.0776 89.6561 34.1006 89.6511 34.1437C89.6471 34.1707 89.617 34.2037 89.606 34.2497C89.598 34.2828 89.611 34.3268 89.608 34.3678C89.605 34.4038 89.623 34.4399 89.627 34.4809C89.6301 34.5119 89.614 34.5569 89.62 34.609C89.624 34.646 89.6381 34.688 89.6431 34.7331C89.6471 34.7721 89.6501 34.8141 89.6541 34.8582C89.6581 34.8982 89.6451 34.9422 89.6491 34.9852C89.6531 35.0263 89.6551 35.0683 89.6581 35.1113C89.6611 35.1544 89.6952 35.1934 89.6982 35.2354C89.7012 35.2774 89.6842 35.3205 89.6862 35.3625C89.6882 35.4045 89.7042 35.4476 89.7052 35.4886C89.7062 35.5296 89.6751 35.5736 89.6741 35.6157C89.6731 35.6577 89.6671 35.7007 89.6641 35.7418C89.6611 35.7858 89.6751 35.8288 89.6701 35.8688C89.6641 35.9129 89.6751 35.9589 89.6661 35.9969C89.6561 36.042 89.6411 36.084 89.626 36.119C89.609 36.158 89.599 36.2011 89.584 36.2461C89.5699 36.2871 89.5178 36.3191 89.5058 36.3632C89.4938 36.4052 89.4797 36.4492 89.4687 36.4943C89.4577 36.5393 89.4787 36.5903 89.4667 36.6344C89.4547 36.6784 89.4547 36.7264 89.4417 36.7695C89.4286 36.8125 89.4116 36.8575 89.3966 36.8985C89.3805 36.9426 89.3395 36.9756 89.3214 37.0156C89.3014 37.0587 89.2813 37.0987 89.2573 37.1337C89.2302 37.1737 89.2062 37.2128 89.1731 37.2398C89.1371 37.2688 89.094 37.2808 89.0489 37.2908C88.9958 37.3028 88.9507 37.3138 88.9116 37.3218C88.8535 37.3348 88.8114 37.3569 88.7773 37.3659C88.6801 37.3909 88.6641 37.3989 88.6881 37.4359C88.7272 37.4939 88.7833 37.4729 88.7893 37.572C88.7924 37.62 88.8545 37.6531 88.9216 37.6661C88.9617 37.6741 89.0148 37.6501 89.0739 37.6511C89.12 37.6511 89.1701 37.6511 89.2252 37.6491C89.2763 37.6471 89.3254 37.6851 89.3665 37.6801C89.4196 37.6741 89.4717 37.6591 89.5068 37.64C89.5469 37.618 89.5569 37.563 89.5709 37.513C89.581 37.4769 89.615 37.4329 89.611 37.3769C89.608 37.3348 89.5639 37.2878 89.5679 37.2378C89.5719 37.1937 89.5789 37.1457 89.587 37.0987C89.595 37.0516 89.6451 37.0146 89.6551 36.9696C89.6651 36.9246 89.6441 36.8695 89.6551 36.8265C89.6681 36.7775 89.6812 36.7314 89.6942 36.6924C89.7122 36.6344 89.7543 36.5983 89.7663 36.5713C89.7773 36.5483 89.7713 36.4913 89.7984 36.4332C89.8164 36.3962 89.8625 36.3662 89.8826 36.3201C89.9006 36.2801 89.9196 36.2381 89.9377 36.1931C89.9547 36.151 89.9467 36.099 89.9617 36.054C89.9768 36.0089 90.0028 35.9699 90.0148 35.9259C90.0269 35.8819 90.0188 35.8318 90.0279 35.7868C90.0369 35.7418 90.0699 35.6987 90.074 35.6537C90.078 35.6057 90.0499 35.5616 90.0449 35.5176C90.0399 35.4736 90.083 35.4295 90.087 35.3865C90.091 35.3435 90.098 35.3035 90.11 35.2604C90.122 35.2174 90.1391 35.1814 90.1551 35.1393C90.1711 35.0973 90.1792 35.0573 90.1972 35.0163C90.2152 34.9752 90.2233 34.9332 90.2423 34.8932C90.2613 34.8532 90.2673 34.8091 90.2854 34.7691C90.3034 34.7291 90.3475 34.701 90.3645 34.66C90.3816 34.619 90.3956 34.578 90.4106 34.5359C90.4257 34.4939 90.4407 34.4529 90.4527 34.4098C90.4647 34.3668 90.4317 34.3158 90.4407 34.2718C90.4507 34.2227 90.4918 34.1897 90.5008 34.1577C90.5199 34.0936 90.5279 34.0536 90.5459 34.0426C90.572 34.0266 90.6161 34.0546 90.6451 34.1156C90.6601 34.1477 90.6451 34.1997 90.6611 34.2437C90.6742 34.2798 90.6802 34.3228 90.6942 34.3638C90.7072 34.4018 90.7243 34.4409 90.7393 34.4809C90.7543 34.5209 90.7664 34.561 90.7824 34.599C90.7984 34.637 90.8265 34.675 90.8455 34.7151C90.8646 34.7551 90.8896 34.7911 90.9086 34.8301C90.9277 34.8692 90.9708 34.8972 90.9898 34.9352C91.0088 34.9732 91.0239 35.0173 91.0429 35.0543C91.064 35.0943 91.068 35.1413 91.087 35.1784C91.108 35.2184 91.1191 35.2624 91.1371 35.2985C91.1582 35.3405 91.1852 35.3755 91.2012 35.4115C91.2223 35.4586 91.2483 35.4956 91.2564 35.5296C91.2684 35.5836 91.2884 35.6177 91.2924 35.6537C91.2964 35.6897 91.2804 35.7267 91.2854 35.7818C91.2884 35.8148 91.2904 35.8558 91.2974 35.9079C91.3024 35.9439 91.3305 35.9819 91.3375 36.03C91.3435 36.068 91.3055 36.116 91.3135 36.163C91.3205 36.2061 91.3395 36.2481 91.3455 36.2951C91.3515 36.3392 91.3596 36.3832 91.3656 36.4292C91.3716 36.4753 91.4057 36.5153 91.4107 36.5613C91.4157 36.6073 91.3826 36.6554 91.3856 36.7004C91.3886 36.7454 91.4147 36.7905 91.4167 36.8345C91.4187 36.8785 91.4337 36.9266 91.4347 36.9706C91.4347 37.0176 91.4067 37.0637 91.4057 37.1067C91.4036 37.1557 91.4297 37.2038 91.4247 37.2448C91.4187 37.2958 91.3976 37.3408 91.3856 37.3779C91.3676 37.4339 91.3445 37.4889 91.3105 37.502C91.2734 37.516 91.2183 37.498 91.1842 37.521C91.1501 37.544 91.1431 37.603 91.1171 37.63C91.084 37.6641 91.06 37.6871 91.0509 37.7191C91.0389 37.7591 91.0349 37.7902 91.087 37.8092C91.1582 37.8352 91.1682 37.8752 91.1822 37.9082C91.1982 37.9463 91.2183 37.9943 91.3044 37.9943C91.3395 37.9943 91.3866 37.9663 91.4387 37.9513C91.4798 37.9393 91.5349 37.9473 91.578 37.9282C91.6211 37.9092 91.6562 37.8702 91.6922 37.8462C91.7343 37.8172 91.7654 37.7801 91.7874 37.7461C91.8135 37.7051 91.8385 37.6501 91.8155 37.605C91.8015 37.578 91.7834 37.542 91.7694 37.4869C91.7594 37.4489 91.7343 37.4099 91.7253 37.3619C91.7173 37.3218 91.6932 37.2808 91.6862 37.2348C91.6792 37.1927 91.7013 37.1457 91.6952 37.1007C91.6892 37.0577 91.6882 37.0136 91.6832 36.9696C91.6782 36.9256 91.6722 36.8825 91.6682 36.8385C91.6642 36.7945 91.6522 36.7514 91.6491 36.7074C91.6461 36.6634 91.6401 36.6194 91.6381 36.5753C91.6361 36.5313 91.6612 36.4863 91.6612 36.4432C91.6612 36.3972 91.6151 36.3522 91.6161 36.3101C91.6181 36.2631 91.6351 36.2191 91.6391 36.1781C91.6441 36.13 91.6391 36.082 91.6481 36.045C91.6592 35.9989 91.6962 35.9609 91.7013 35.9179C91.7073 35.8718 91.7243 35.8258 91.7253 35.7818C91.7253 35.7358 91.6762 35.6917 91.6732 35.6477C91.6702 35.6017 91.7103 35.5526 91.7043 35.5086C91.6982 35.4626 91.6612 35.4215 91.6562 35.3775C91.6501 35.3315 91.6311 35.2864 91.6291 35.2434C91.6271 35.1974 91.6652 35.1524 91.6692 35.1093C91.6732 35.0723 91.6772 35.0263 91.6792 34.9772C91.6802 34.9362 91.6642 34.8902 91.6652 34.8451C91.6652 34.8021 91.6732 34.7571 91.6742 34.7131C91.6752 34.669 91.6882 34.624 91.6912 34.581C91.6952 34.5339 91.6722 34.4859 91.6802 34.4459C91.6902 34.3958 91.7363 34.3668 91.7544 34.3348C91.7794 34.2918 91.7944 34.2647 91.8435 34.2748C91.8926 34.2848 91.9377 34.2748 91.9828 34.2657C92.0279 34.2567 92.066 34.2227 92.1081 34.2057C92.1542 34.1867 92.2123 34.2017 92.2504 34.1867C92.3065 34.1647 92.3606 34.1217 92.3907 34.1467C92.4047 34.1577 92.3997 34.2207 92.4077 34.2898C92.4117 34.3268 92.4428 34.3688 92.4458 34.4179C92.4478 34.4579 92.4317 34.5029 92.4327 34.5499C92.4337 34.591 92.4478 34.635 92.4488 34.68C92.4488 34.7221 92.4137 34.7661 92.4137 34.8111C92.4137 34.8562 92.4548 34.8982 92.4548 34.9422C92.4548 34.9862 92.4057 35.0283 92.4057 35.0723C92.4057 35.1163 92.4127 35.1594 92.4117 35.2034C92.4107 35.2474 92.4458 35.2924 92.4448 35.3355C92.4438 35.3785 92.4117 35.4225 92.4107 35.4656C92.4097 35.5086 92.4037 35.5536 92.4017 35.5967C92.3997 35.6417 92.4217 35.6867 92.4197 35.7287C92.4177 35.7748 92.3917 35.8168 92.3886 35.8578C92.3856 35.9049 92.4167 35.9509 92.4127 35.9909C92.4087 36.04 92.3796 36.082 92.3756 36.119C92.3706 36.163 92.3536 36.2051 92.3476 36.2501C92.3416 36.2951 92.3265 36.3362 92.3175 36.3802C92.3085 36.4242 92.2985 36.4673 92.2884 36.5103C92.2784 36.5533 92.2664 36.5963 92.2554 36.6394C92.2444 36.6824 92.2624 36.7344 92.2504 36.7765C92.2383 36.8185 92.1943 36.8535 92.1802 36.8945C92.1652 36.9386 92.1742 36.9896 92.1582 37.0286C92.1401 37.0727 92.1401 37.1237 92.1221 37.1607C92.0991 37.2048 92.046 37.2248 92.0219 37.2568C91.9888 37.3008 91.9568 37.3348 91.9468 37.3619C91.9267 37.4179 91.9638 37.4679 92.0029 37.4859C92.0349 37.5 92.079 37.514 92.1211 37.526C92.1963 37.547 92.1993 37.582 92.2403 37.595C92.2644 37.603 92.3085 37.59 92.3856 37.568C92.4327 37.554 92.4808 37.556 92.5109 37.539C92.553 37.515 92.582 37.4719 92.5951 37.4339C92.6061 37.4009 92.573 37.3599 92.564 37.3108C92.557 37.2758 92.564 37.2328 92.548 37.1877C92.5369 37.1557 92.553 37.1127 92.554 37.0617C92.554 37.0226 92.5239 36.9776 92.5309 36.9306C92.5369 36.8905 92.557 36.8495 92.566 36.8055C92.574 36.7645 92.581 36.7224 92.5921 36.6794C92.6031 36.6364 92.6121 36.5963 92.6241 36.5543C92.6362 36.5123 92.6542 36.4733 92.6672 36.4322C92.6802 36.3912 92.6903 36.3482 92.7033 36.3081C92.7163 36.2681 92.7143 36.2191 92.7283 36.1801C92.7434 36.138 92.7534 36.095 92.7674 36.056C92.7834 36.0129 92.8075 35.9749 92.8225 35.9379C92.8416 35.8909 92.8686 35.8548 92.8827 35.8238C92.8997 35.7878 92.9257 35.7528 92.9398 35.7107C92.9528 35.6717 92.9638 35.6307 92.9748 35.5887C92.9849 35.5486 92.9909 35.5066 92.9989 35.4646C93.0069 35.4225 92.9939 35.3785 93.0009 35.3365C93.0079 35.2945 93.0299 35.2554 93.035 35.2134C93.04 35.1714 93.033 35.1273 93.038 35.0863C93.043 35.0453 93.054 35.0023 93.058 34.9612C93.061 34.9172 93.0821 34.8762 93.0841 34.8361C93.0861 34.7991 93.1001 34.7591 93.1121 34.7111C93.1221 34.672 93.1191 34.626 93.1342 34.583C93.1472 34.5429 93.1752 34.5069 93.1913 34.4659C93.2073 34.4249 93.2163 34.3828 93.2344 34.3428C93.2524 34.3028 93.2855 34.2708 93.3045 34.2317C93.3235 34.1927 93.3476 34.1557 93.3676 34.1186C93.3897 34.0776 93.3666 34.0146 93.3867 33.9796C93.4117 33.9375 93.4698 33.9215 93.4919 33.8925C93.538 33.8305 93.5761 33.7834 93.5911 33.8064C93.6071 33.8325 93.5871 33.8905 93.5971 33.9515C93.6031 33.9916 93.6001 34.0396 93.6081 34.0906C93.6151 34.1337 93.6612 34.1717 93.6723 34.2197C93.6813 34.2627 93.6723 34.3138 93.6853 34.3598C93.6983 34.4028 93.7033 34.4519 93.7214 34.4959C93.7384 34.5379 93.7945 34.562 93.8175 34.604C93.8366 34.639 93.8175 34.693 93.8306 34.7361C93.8416 34.7741 93.8476 34.8131 93.8546 34.8572C93.8606 34.8972 93.9007 34.9342 93.9037 34.9782C93.9067 35.0183 93.8817 35.0623 93.8827 35.1053C93.8837 35.1463 93.9167 35.1884 93.9167 35.2314C93.9167 35.2744 93.8867 35.3145 93.8857 35.3575C93.8847 35.4005 93.8857 35.4416 93.8857 35.4836C93.8857 35.5256 93.8697 35.5666 93.8687 35.6097C93.8676 35.6527 93.8636 35.6937 93.8626 35.7358C93.8616 35.7778 93.8877 35.8198 93.8877 35.8628C93.8877 35.9059 93.9017 35.9469 93.9027 35.9889C93.9037 36.031 93.8907 36.073 93.8927 36.116C93.8947 36.159 93.8747 36.2021 93.8777 36.2441C93.8807 36.2861 93.8857 36.3292 93.8907 36.3712C93.8957 36.4132 93.9358 36.4502 93.9408 36.4893C93.9468 36.5323 93.9388 36.5743 93.9438 36.6133C93.9498 36.6564 93.9578 36.6974 93.9638 36.7354C93.9699 36.7795 93.9488 36.8235 93.9538 36.8615C93.9598 36.9055 93.9939 36.9436 93.9969 36.9806C94.0009 37.0256 93.9719 37.0687 93.9729 37.1057C93.9739 37.1527 93.9979 37.1937 93.9919 37.2288C93.9839 37.2748 93.9789 37.3208 93.9548 37.3509C93.9308 37.3809 93.8787 37.3769 93.8356 37.3959C93.7965 37.4129 93.7594 37.4339 93.7294 37.4529C93.6913 37.4769 93.6863 37.531 93.6642 37.556C93.6332 37.591 93.6161 37.613 93.6121 37.6461C93.6081 37.6841 93.6222 37.7001 93.6552 37.7301C93.7093 37.7811 93.6943 37.8292 93.7083 37.8542C93.7193 37.8732 93.7304 37.9162 93.8135 37.9212C93.8496 37.9232 93.8947 37.9072 93.9418 37.9092C93.9829 37.9102 94.026 37.8852 94.0681 37.8832C94.1101 37.8812 94.1582 37.9122 94.1973 37.9062C94.2444 37.8992 94.2765 37.8602 94.3085 37.8422C94.3496 37.8192 94.4037 37.7982 94.3977 37.7511C94.3917 37.7011 94.3446 37.6661 94.3346 37.629C94.3216 37.582 94.3126 37.542 94.3005 37.502C94.2885 37.4619 94.2715 37.4209 94.2675 37.3729C94.2655 37.3539 94.2534 37.3078 94.2494 37.2418C94.2474 37.2038 94.2735 37.1577 94.2705 37.1087C94.2685 37.0677 94.2685 37.0236 94.2655 36.9766C94.2635 36.9346 94.2474 36.8915 94.2454 36.8455C94.2434 36.8025 94.2584 36.7574 94.2564 36.7124C94.2544 36.6674 94.2194 36.6264 94.2174 36.5813C94.2154 36.5363 94.2194 36.4933 94.2174 36.4492C94.2154 36.4052 94.2384 36.3602 94.2374 36.3161C94.2364 36.2721 94.2224 36.2281 94.2204 36.1841C94.2184 36.14 94.2494 36.094 94.2474 36.05C94.2464 36.0039 94.2444 35.9599 94.2434 35.9169C94.2424 35.8698 94.1973 35.8268 94.1973 35.7858C94.1973 35.7368 94.1993 35.6927 94.1993 35.6527C94.1993 35.5977 94.2023 35.5516 94.2033 35.5206C94.2063 35.4706 94.2444 35.4275 94.2444 35.3885C94.2444 35.3395 94.2023 35.2975 94.1993 35.2574C94.1963 35.2124 94.2324 35.1674 94.2284 35.1223C94.2244 35.0823 94.2023 35.0413 94.2013 34.9922C94.2003 34.9532 94.1853 34.9092 94.1863 34.8602C94.1863 34.8271 94.2234 34.7831 94.2284 34.7281C94.2324 34.688 94.2154 34.641 94.2214 34.592C94.2264 34.5499 94.2304 34.5049 94.2374 34.4589C94.2434 34.4159 94.2254 34.3678 94.2324 34.3218C94.2394 34.2758 94.2645 34.2357 94.2715 34.1917C94.2785 34.1477 94.2925 34.1036 94.3005 34.0596C94.3085 34.0156 94.3396 33.9746 94.3486 33.9315C94.3576 33.8855 94.3356 33.8355 94.3446 33.7924C94.3546 33.7454 94.3677 33.7014 94.3777 33.6613C94.3897 33.6113 94.4037 33.5673 94.4158 33.5312C94.4418 33.4532 94.4508 33.4312 94.4699 33.4502C94.4929 33.4732 94.519 33.5082 94.552 33.5513C94.5771 33.5843 94.6112 33.6163 94.6422 33.6513C94.6713 33.6854 94.7274 33.6934 94.7605 33.7224C94.7945 33.7534 94.8256 33.7804 94.8637 33.8004C94.9048 33.8214 94.9408 33.8425 94.9849 33.8405C95.0571 33.8365 95.0571 33.8034 95.006 33.7504C94.9819 33.7244 94.9448 33.6964 94.9078 33.6563C94.8797 33.6263 94.8567 33.5873 94.8256 33.5493C94.7995 33.5152 94.7765 33.4792 94.7514 33.4392C94.7284 33.4022 94.7064 33.3651 94.6883 33.3221C94.6713 33.2821 94.6212 33.2511 94.6092 33.206C94.5981 33.164 94.6001 33.116 94.5951 33.0689C94.5901 33.0249 94.5961 32.9799 94.5951 32.9368C94.5941 32.8938 94.5731 32.8488 94.5751 32.8048C94.5771 32.7607 94.5921 32.7177 94.5941 32.6737C94.5961 32.6296 94.6242 32.5876 94.6252 32.5436C94.6262 32.4995 94.6132 32.4555 94.6112 32.4115C94.6092 32.3675 94.6182 32.3234 94.6122 32.2784C94.6061 32.2334 94.5981 32.1913 94.5881 32.1473C94.5791 32.1063 94.551 32.0673 94.536 32.0252C94.522 31.9852 94.509 31.9432 94.4899 31.9021C94.4719 31.8641 94.4518 31.8251 94.4288 31.7851C94.4077 31.749 94.3657 31.725 94.3396 31.687C94.3156 31.653 94.3196 31.5959 94.2915 31.5599C94.2655 31.5269 94.2294 31.4989 94.1993 31.4648C94.1713 31.4328 94.1482 31.3948 94.1172 31.3618C94.0881 31.3307 94.061 31.2937 94.029 31.2617C93.9779 31.2157 93.9979 31.2387 93.9558 31.1586C93.9388 31.1256 93.8847 31.0996 93.8676 31.0486C93.8546 31.0105 93.8476 30.9635 93.8366 30.9135C93.8296 30.8794 93.8085 30.8394 93.7935 30.7894C93.7815 30.7514 93.7865 30.7033 93.7695 30.6583C93.7544 30.6183 93.7604 30.5682 93.7424 30.5262C93.7244 30.4842 93.6743 30.4602 93.6542 30.4211C93.6342 30.3821 93.6151 30.3421 93.5921 30.3041C93.569 30.266 93.564 30.213 93.538 30.179C93.5099 30.1429 93.4678 30.1189 93.4368 30.0899C93.4027 30.0579 93.3626 30.0379 93.3255 30.0179C93.2855 29.9968 93.2474 29.9578 93.2043 29.9538C93.1612 29.9498 93.1241 29.9968 93.079 30.0119C93.041 30.0249 92.9819 30.0048 92.9418 30.0339C92.9057 30.0599 92.8796 30.0959 92.8516 30.1229C92.8195 30.1529 92.8155 30.204 92.7925 30.235C92.7664 30.27 92.7333 30.295 92.7153 30.3301C92.6953 30.3691 92.6953 30.4121 92.6822 30.4481C92.6682 30.4902 92.6331 30.5232 92.6241 30.5592C92.6131 30.6053 92.6211 30.6513 92.6101 30.6843C92.5941 30.7323 92.56 30.7454 92.5169 30.7484C92.4889 30.7504 92.4568 30.7433 92.4057 30.7193C92.3626 30.6993 92.3055 30.6953 92.2784 30.6583C92.2534 30.6233 92.2724 30.5612 92.2564 30.5162C92.2424 30.4752 92.1902 30.4421 92.1802 30.3951C92.1702 30.3481 92.1602 30.3061 92.1522 30.261C92.1442 30.216 92.1842 30.161 92.1752 30.1169C92.1652 30.0709 92.1462 30.0249 92.1311 29.9848C92.1141 29.9398 92.064 29.9158 92.0359 29.8818C92.0079 29.8477 91.9778 29.8287 91.9327 29.8117C91.8956 29.7977 91.8576 29.7457 91.8055 29.7477C91.7574 29.7497 91.7153 29.7997 91.6732 29.8037C91.6251 29.8097 91.577 29.7887 91.5359 29.7997C91.4888 29.8117 91.4417 29.8167 91.4026 29.8347C91.3606 29.8537 91.3315 29.8958 91.2964 29.9228C91.2614 29.9498 91.2193 29.9708 91.1882 30.0068C91.1602 30.0389 91.1411 30.0819 91.1141 30.1209C91.09 30.1559 91.073 30.198 91.0489 30.24C91.0279 30.277 91.0109 30.3191 90.9888 30.3611C90.9688 30.3991 90.9367 30.4331 90.9147 30.4752C90.8926 30.5172 90.8926 30.5672 90.8736 30.5993C90.8475 30.6423 90.8024 30.6633 90.7804 30.6903C90.7463 30.7313 90.7283 30.7744 90.7002 30.7944C90.6631 30.8204 90.613 30.8144 90.577 30.8384C90.5479 30.8574 90.5219 30.8884 90.4878 30.9285C90.4657 30.9555 90.4197 30.9755 90.3936 31.0185C90.3746 31.0506 90.3766 31.0996 90.3545 31.1426C90.3355 31.1796 90.3134 31.2167 90.2924 31.2547C90.2714 31.2927 90.2663 31.3388 90.2433 31.3748C90.2202 31.4108 90.1711 31.4298 90.1461 31.4638C90.121 31.4979 90.106 31.5409 90.08 31.5739C90.0539 31.6069 90.0249 31.64 89.9958 31.671C89.9667 31.702 89.9277 31.724 89.8966 31.751C89.8635 31.7801 89.8345 31.8111 89.8004 31.8341C89.7633 31.8591 89.7293 31.8831 89.6912 31.8991C89.6511 31.9161 89.609 31.9202 89.5679 31.9262C89.5268 31.9322 89.4868 31.9312 89.4447 31.9232C89.4046 31.9161 89.3545 31.9302 89.3144 31.9091C89.2793 31.8911 89.2673 31.8341 89.2322 31.8041C89.1972 31.7741 89.1521 31.762 89.126 31.73C89.098 31.696 89.0619 31.666 89.0419 31.629C89.0218 31.5919 89.0419 31.5359 89.0278 31.4949C89.0138 31.4538 88.9998 31.4158 88.9928 31.3738C88.9857 31.3318 88.9537 31.2907 88.9517 31.2487C88.9497 31.2067 88.9647 31.1616 88.9687 31.1196C88.9727 31.0776 88.9968 31.0365 89.0038 30.9945C89.0118 30.9505 88.9827 30.8995 88.9928 30.8604C89.0048 30.8154 89.0509 30.7834 89.0629 30.7464C89.0789 30.6973 89.0629 30.6443 89.0749 30.6133C89.091 30.5752 89.136 30.5442 89.1461 30.5002C89.1561 30.4592 89.1531 30.4131 89.1571 30.3691C89.1611 30.3251 89.1671 30.282 89.1631 30.238C89.1591 30.194 89.118 30.16 89.106 30.1179C89.094 30.0779 89.112 30.0239 89.091 29.9848C89.0719 29.9478 89.0358 29.9168 89.0088 29.8818C88.9737 29.8357 88.9276 29.8077 88.9046 29.7717C88.8705 29.7177 88.8735 29.6596 88.8565 29.6276C88.8234 29.5635 88.7974 29.5345 88.7443 29.5305C88.6982 29.5265 88.6511 29.5235 88.619 29.5395C88.5819 29.5575 88.5709 29.6156 88.5398 29.6386C88.5088 29.6616 88.4627 29.6556 88.4226 29.6636C88.3905 29.6696 88.3505 29.6966 88.3044 29.6786L88.3104 29.6836Z" fill="#CEA170"/>
</g>
<g clip-path="url(#clip2_922_9267)">
<path d="M109.512 2.72654C109.516 2.76455 109.559 2.81886 109.565 2.89271C109.57 2.94158 109.559 3.00023 109.563 3.06431C109.568 3.11644 109.594 3.17183 109.598 3.23265C109.602 3.28587 109.525 3.34886 109.528 3.4086C109.532 3.4629 109.584 3.51612 109.587 3.57585C109.59 3.63016 109.615 3.68663 109.619 3.74528C109.622 3.80067 109.575 3.85932 109.577 3.91797C109.579 3.97662 109.643 4.02766 109.645 4.08631C109.647 4.14496 109.596 4.20035 109.598 4.259C109.6 4.31765 109.641 4.37086 109.643 4.42843C109.644 4.48599 109.615 4.54246 109.616 4.60003C109.618 4.65759 109.608 4.71298 109.608 4.77054C109.608 4.8281 109.597 4.88349 109.597 4.94106C109.597 4.99862 109.62 5.05401 109.619 5.11157C109.618 5.16913 109.646 5.22561 109.645 5.28317C109.644 5.34073 109.631 5.39612 109.629 5.45369C109.628 5.51125 109.569 5.56555 109.568 5.62203C109.566 5.6785 109.548 5.73389 109.546 5.79146C109.544 5.84902 109.56 5.90549 109.557 5.96197C109.553 6.01845 109.59 6.07818 109.586 6.13466C109.582 6.19113 109.619 6.25087 109.614 6.30843C109.61 6.36599 109.544 6.41704 109.538 6.47351C109.533 6.52999 109.569 6.59081 109.562 6.64729C109.556 6.70376 109.477 6.75264 109.471 6.80911C109.464 6.86559 109.5 6.9275 109.493 6.98397C109.485 7.04045 109.529 7.10453 109.522 7.161C109.514 7.21748 109.501 7.27395 109.493 7.33043C109.484 7.38691 109.391 7.42926 109.383 7.48574C109.374 7.54222 109.446 7.61281 109.435 7.66929C109.424 7.72576 109.359 7.77138 109.347 7.82677C109.335 7.88216 109.332 7.94081 109.319 7.9962C109.306 8.05159 109.24 8.09503 109.226 8.14933C109.212 8.20364 109.257 8.27532 109.242 8.32962C109.226 8.38393 109.245 8.45018 109.228 8.50448C109.212 8.55879 109.143 8.59789 109.125 8.6511C109.108 8.70432 109.121 8.77057 109.101 8.82379C109.082 8.87701 109.05 8.92805 109.03 8.98019C109.009 9.03232 108.979 9.08336 108.956 9.13441C108.933 9.18545 108.852 9.21152 108.827 9.26148C108.802 9.31144 108.826 9.38855 108.799 9.43743C108.772 9.4863 108.729 9.52757 108.698 9.57536C108.655 9.64487 108.686 9.77411 108.763 9.80343C108.809 9.82081 108.861 9.85448 108.925 9.8762C108.976 9.89249 109.047 9.86534 109.108 9.88272C109.161 9.89792 109.209 9.95006 109.269 9.96417C109.323 9.97721 109.386 9.96852 109.446 9.97938C109.501 9.99024 109.558 10.0185 109.616 10.0261C109.675 10.0337 109.739 9.97178 109.799 9.97721C109.859 9.98264 109.911 10.0402 109.971 10.0424C110.03 10.0445 110.087 9.99567 110.147 9.99567C110.207 9.99567 110.261 9.99133 110.321 9.98698C110.38 9.98264 110.431 9.95874 110.49 9.95114C110.549 9.94354 110.613 9.99024 110.671 9.97938C110.728 9.96852 110.784 9.94897 110.84 9.93485C110.897 9.92073 110.953 9.9077 111.01 9.88924C111.066 9.87077 111.131 9.87729 111.186 9.85557C111.24 9.83384 111.267 9.75347 111.32 9.72741C111.365 9.7046 111.433 9.68397 111.432 9.63401C111.431 9.59165 111.374 9.53517 111.37 9.46241C111.368 9.41136 111.378 9.35271 111.375 9.28863C111.373 9.23541 111.411 9.17459 111.407 9.11269C111.404 9.05838 111.34 9.00408 111.336 8.94326C111.332 8.88787 111.402 8.82488 111.398 8.76514C111.393 8.70975 111.387 8.6511 111.382 8.59137C111.378 8.53489 111.315 8.48168 111.31 8.42303C111.304 8.36438 111.276 8.31116 111.272 8.25251C111.267 8.19386 111.286 8.1363 111.28 8.07765C111.275 8.01901 111.247 7.96579 111.241 7.90714C111.236 7.84849 111.274 7.78876 111.267 7.73011C111.261 7.67146 111.215 7.62041 111.208 7.56177C111.202 7.50312 111.275 7.43795 111.268 7.3793C111.262 7.32066 111.218 7.26961 111.211 7.21096C111.203 7.15231 111.195 7.09692 111.188 7.03828C111.18 6.97963 111.198 6.92098 111.19 6.86342C111.182 6.80585 111.185 6.74721 111.176 6.68964C111.167 6.63208 111.15 6.57669 111.14 6.51913C111.13 6.46157 111.074 6.41269 111.064 6.35513C111.054 6.29757 111.07 6.23675 111.061 6.17919C111.051 6.12162 111.001 6.07275 110.99 6.01519C110.979 5.95763 110.981 5.89898 110.97 5.8425C110.96 5.78603 111.022 5.71326 111.01 5.65678C110.998 5.60031 110.887 5.56447 110.875 5.5069C110.863 5.44934 110.88 5.38743 110.867 5.33096C110.854 5.27448 110.909 5.20171 110.894 5.14524C110.88 5.08876 110.847 5.03663 110.832 4.98015C110.818 4.92368 110.798 4.86829 110.782 4.8129C110.767 4.75751 110.705 4.71407 110.689 4.65868C110.673 4.60329 110.691 4.53703 110.674 4.48164C110.656 4.42625 110.633 4.37195 110.615 4.31765C110.598 4.26334 110.56 4.21338 110.541 4.15908C110.523 4.10477 110.534 4.03744 110.513 3.98422C110.492 3.931 110.484 3.87018 110.462 3.81588C110.44 3.76157 110.409 3.71053 110.386 3.6584C110.363 3.60626 110.296 3.57042 110.272 3.51938C110.248 3.46833 110.213 3.41837 110.187 3.36733C110.161 3.31628 110.115 3.27501 110.088 3.22505C110.061 3.17509 110.052 3.1121 110.023 3.06322C109.994 3.01435 110.001 2.93724 109.969 2.89054C109.936 2.84384 109.895 2.79822 109.859 2.75369C109.823 2.70916 109.796 2.6516 109.758 2.60924C109.706 2.55059 109.581 2.56146 109.528 2.6201L109.566 2.65377C109.543 2.68092 109.51 2.69179 109.514 2.72763L109.512 2.72654Z" fill="#C49841"/>
<mask id="mask1_922_9267" style="mask-type:luminance" maskUnits="userSpaceOnUse" x="108" y="2" width="4" height="9">
<path d="M109.513 2.72654C109.517 2.76455 109.559 2.81886 109.566 2.89271C109.57 2.94158 109.559 3.00023 109.564 3.06431C109.568 3.11644 109.594 3.17183 109.598 3.23265C109.603 3.28587 109.526 3.34886 109.529 3.4086C109.532 3.4629 109.584 3.51612 109.588 3.57585C109.591 3.63016 109.616 3.68663 109.619 3.74528C109.622 3.80067 109.576 3.85932 109.578 3.91797C109.58 3.97662 109.643 4.02766 109.645 4.08631C109.647 4.14496 109.596 4.20035 109.598 4.259C109.601 4.31765 109.642 4.37086 109.643 4.42843C109.644 4.48599 109.616 4.54246 109.617 4.60003C109.618 4.65759 109.608 4.71298 109.608 4.77054C109.608 4.8281 109.597 4.88349 109.597 4.94106C109.597 4.99862 109.62 5.05401 109.619 5.11157C109.618 5.16913 109.646 5.22561 109.645 5.28317C109.644 5.34073 109.631 5.39612 109.63 5.45369C109.629 5.51125 109.569 5.56555 109.568 5.62203C109.567 5.6785 109.548 5.73389 109.546 5.79146C109.544 5.84902 109.56 5.90549 109.557 5.96197C109.554 6.01845 109.591 6.07818 109.586 6.13466C109.582 6.19113 109.619 6.25087 109.615 6.30843C109.61 6.36599 109.544 6.41704 109.539 6.47351C109.533 6.52999 109.569 6.59081 109.563 6.64729C109.556 6.70376 109.478 6.75264 109.471 6.80911C109.465 6.86559 109.501 6.9275 109.493 6.98397C109.485 7.04045 109.53 7.10453 109.522 7.161C109.515 7.21748 109.502 7.27395 109.493 7.33043C109.484 7.38691 109.392 7.42926 109.383 7.48574C109.375 7.54222 109.446 7.61281 109.435 7.66929C109.425 7.72576 109.359 7.77138 109.347 7.82677C109.335 7.88216 109.332 7.94081 109.319 7.9962C109.306 8.05159 109.241 8.09503 109.227 8.14933C109.213 8.20364 109.257 8.27532 109.242 8.32962C109.227 8.38393 109.245 8.45018 109.229 8.50448C109.213 8.55879 109.143 8.59789 109.126 8.6511C109.108 8.70432 109.121 8.77057 109.102 8.82379C109.082 8.87701 109.051 8.92805 109.03 8.98019C109.009 9.03232 108.979 9.08336 108.956 9.13441C108.933 9.18545 108.853 9.21152 108.828 9.26148C108.803 9.31144 108.827 9.38855 108.8 9.43743C108.773 9.4863 108.729 9.52757 108.699 9.57536C108.655 9.64487 108.687 9.77411 108.764 9.80343C108.809 9.82081 108.862 9.85448 108.926 9.8762C108.977 9.89249 109.047 9.86534 109.108 9.88272C109.162 9.89792 109.209 9.95006 109.269 9.96417C109.324 9.97721 109.387 9.96852 109.446 9.97938C109.502 9.99024 109.558 10.0185 109.617 10.0261C109.676 10.0337 109.74 9.97178 109.799 9.97721C109.859 9.98264 109.911 10.0402 109.971 10.0424C110.031 10.0445 110.087 9.99567 110.147 9.99567C110.207 9.99567 110.261 9.99133 110.321 9.98698C110.381 9.98264 110.432 9.95874 110.491 9.95114C110.549 9.94354 110.613 9.99024 110.671 9.97938C110.729 9.96852 110.784 9.94897 110.841 9.93485C110.897 9.92073 110.954 9.9077 111.01 9.88924C111.067 9.87077 111.132 9.87729 111.186 9.85557C111.24 9.83384 111.268 9.75347 111.321 9.72741C111.365 9.7046 111.434 9.68397 111.433 9.63401C111.432 9.59165 111.374 9.53517 111.371 9.46241C111.369 9.41136 111.378 9.35271 111.375 9.28863C111.373 9.23541 111.411 9.17459 111.408 9.11269C111.405 9.05838 111.34 9.00408 111.336 8.94326C111.333 8.88787 111.402 8.82488 111.398 8.76514C111.394 8.70975 111.387 8.6511 111.383 8.59137C111.378 8.53489 111.315 8.48168 111.31 8.42303C111.305 8.36438 111.276 8.31116 111.272 8.25251C111.268 8.19386 111.286 8.1363 111.281 8.07765C111.275 8.01901 111.247 7.96579 111.242 7.90714C111.236 7.84849 111.274 7.78876 111.268 7.73011C111.261 7.67146 111.215 7.62041 111.209 7.56177C111.202 7.50312 111.275 7.43795 111.269 7.3793C111.262 7.32066 111.219 7.26961 111.211 7.21096C111.204 7.15231 111.196 7.09692 111.188 7.03828C111.181 6.97963 111.198 6.92098 111.19 6.86342C111.183 6.80585 111.185 6.74721 111.176 6.68964C111.168 6.63208 111.15 6.57669 111.141 6.51913C111.131 6.46157 111.074 6.41269 111.064 6.35513C111.055 6.29757 111.071 6.23675 111.061 6.17919C111.051 6.12162 111.001 6.07275 110.991 6.01519C110.98 5.95763 110.982 5.89898 110.971 5.8425C110.96 5.78603 111.022 5.71326 111.01 5.65678C110.998 5.60031 110.887 5.56447 110.875 5.5069C110.863 5.44934 110.881 5.38743 110.868 5.33096C110.855 5.27448 110.909 5.20171 110.895 5.14524C110.881 5.08876 110.847 5.03663 110.833 4.98015C110.819 4.92368 110.798 4.86829 110.783 4.8129C110.768 4.75751 110.706 4.71407 110.69 4.65868C110.673 4.60329 110.692 4.53703 110.674 4.48164C110.657 4.42625 110.633 4.37195 110.616 4.31765C110.598 4.26334 110.56 4.21338 110.542 4.15908C110.523 4.10477 110.534 4.03744 110.513 3.98422C110.493 3.931 110.484 3.87018 110.462 3.81588C110.441 3.76157 110.409 3.71053 110.386 3.6584C110.363 3.60626 110.296 3.57042 110.272 3.51938C110.248 3.46833 110.214 3.41837 110.187 3.36733C110.161 3.31628 110.116 3.27501 110.089 3.22505C110.061 3.17509 110.053 3.1121 110.023 3.06322C109.994 3.01435 110.002 2.93724 109.969 2.89054C109.936 2.84384 109.895 2.79822 109.859 2.75369C109.823 2.70916 109.796 2.6516 109.758 2.60924C109.706 2.55059 109.581 2.56146 109.529 2.6201L109.567 2.65377C109.543 2.68092 109.51 2.69179 109.515 2.72763L109.513 2.72654Z" fill="white"/>
</mask>
<g mask="url(#mask1_922_9267)">
<path d="M110.732 3.76557C110.67 3.82422 110.626 3.72321 110.542 3.72321C110.457 3.72321 110.457 3.75688 110.371 3.75688C110.285 3.75688 110.286 3.79489 110.201 3.79489C110.117 3.79489 110.117 3.77317 110.031 3.77317C109.945 3.77317 109.946 3.79055 109.86 3.79055C109.774 3.79055 109.775 3.6928 109.69 3.6928C109.604 3.6928 109.604 3.7319 109.519 3.7319C109.434 3.7319 109.433 3.79055 109.348 3.79055C109.264 3.79055 109.268 3.77208 109.206 3.71344C109.147 3.65913 109.147 3.66348 109.147 3.58419C109.147 3.50491 109.171 3.50491 109.171 3.42562C109.171 3.34634 109.134 3.34634 109.134 3.26597C109.134 3.1856 109.181 3.1856 109.181 3.10632C109.181 3.02703 109.119 3.00205 109.178 2.94775C109.24 2.8891 109.261 2.99879 109.346 2.99879C109.431 2.99879 109.431 2.89453 109.517 2.89453C109.603 2.89453 109.602 2.91951 109.686 2.91951C109.771 2.91951 109.771 2.96947 109.857 2.96947C109.943 2.96947 109.942 2.8967 110.028 2.8967C110.113 2.8967 110.112 2.93689 110.198 2.93689C110.284 2.93689 110.284 2.91299 110.369 2.91299C110.454 2.91299 110.455 2.99771 110.539 2.99771C110.624 2.99771 110.635 2.90213 110.697 2.9597C110.756 3.014 110.721 3.02595 110.721 3.10523C110.721 3.18451 110.676 3.18451 110.676 3.2638C110.676 3.34308 110.662 3.34308 110.662 3.42345C110.662 3.50382 110.729 3.49513 110.749 3.57225C110.775 3.66673 110.788 3.70909 110.731 3.76448L110.732 3.76557Z" fill="#876425"/>
<path d="M111.011 5.27422C110.95 5.33178 110.937 5.32092 110.854 5.32092C110.77 5.32092 110.77 5.27965 110.686 5.27965C110.603 5.27965 110.603 5.24924 110.519 5.24924C110.435 5.24924 110.435 5.30028 110.352 5.30028C110.268 5.30028 110.268 5.26662 110.184 5.26662C110.101 5.26662 110.101 5.33287 110.017 5.33287C109.933 5.33287 109.933 5.23621 109.85 5.23621C109.766 5.23621 109.766 5.27096 109.682 5.27096C109.599 5.27096 109.599 5.26987 109.515 5.26987C109.431 5.26987 109.431 5.33938 109.346 5.33938C109.262 5.33938 109.261 5.32092 109.2 5.26227C109.142 5.20797 109.17 5.20471 109.17 5.12543C109.17 5.04614 109.227 5.04614 109.227 4.96686C109.227 4.88757 109.135 4.88757 109.135 4.8072C109.135 4.72684 109.182 4.72683 109.182 4.64755C109.182 4.56827 109.126 4.5498 109.183 4.49441C109.241 4.43902 109.261 4.43359 109.344 4.43359C109.428 4.43359 109.428 4.45857 109.512 4.45857C109.595 4.45857 109.595 4.50853 109.679 4.50853C109.763 4.50853 109.763 4.47486 109.846 4.47486C109.93 4.47486 109.93 4.43685 110.014 4.43685C110.097 4.43685 110.097 4.45857 110.181 4.45857C110.265 4.45857 110.265 4.4412 110.348 4.4412C110.432 4.4412 110.432 4.53894 110.516 4.53894C110.599 4.53894 110.599 4.49984 110.683 4.49984C110.767 4.49984 110.767 4.4412 110.852 4.4412C110.936 4.4412 110.931 4.45966 110.992 4.51831C111.049 4.57261 111.05 4.56827 111.05 4.64755C111.05 4.72683 111.027 4.72683 111.027 4.80612C111.027 4.8854 111.063 4.8854 111.063 4.96577C111.063 5.04614 111.002 5.04723 111.017 5.12651C111.032 5.2058 111.069 5.21992 111.01 5.27531L111.011 5.27422Z" fill="#876425"/>
<path d="M111.322 6.91395C111.261 6.97151 111.275 7.00084 111.19 7.00084C111.106 7.00084 111.107 6.97043 111.023 6.97043C110.939 6.97043 110.939 6.90092 110.856 6.90092C110.772 6.90092 110.772 6.92155 110.688 6.92155C110.605 6.92155 110.605 6.92698 110.521 6.92698C110.437 6.92698 110.437 6.97477 110.354 6.97477C110.27 6.97477 110.27 6.93784 110.186 6.93784C110.103 6.93784 110.103 6.94436 110.019 6.94436C109.935 6.94436 109.935 6.96391 109.852 6.96391C109.768 6.96391 109.768 6.93024 109.684 6.93024C109.601 6.93024 109.601 6.91721 109.516 6.91721C109.431 6.91721 109.432 6.9259 109.347 6.9259C109.263 6.9259 109.227 7.02473 109.165 6.96717C109.107 6.91286 109.15 6.87268 109.15 6.79339C109.15 6.71411 109.129 6.71411 109.129 6.63483C109.129 6.55554 109.154 6.55554 109.154 6.47517C109.154 6.3948 109.203 6.3948 109.203 6.31552C109.203 6.23624 109.132 6.2232 109.19 6.16781C109.247 6.11242 109.261 6.18736 109.345 6.18736C109.429 6.18736 109.429 6.16999 109.513 6.16999C109.596 6.16999 109.596 6.12003 109.68 6.12003C109.764 6.12003 109.764 6.1613 109.847 6.1613C109.931 6.1613 109.931 6.19171 110.015 6.19171C110.098 6.19171 110.098 6.14066 110.182 6.14066C110.266 6.14066 110.266 6.17433 110.349 6.17433C110.433 6.17433 110.433 6.10808 110.517 6.10808C110.6 6.10808 110.6 6.20474 110.684 6.20474C110.768 6.20474 110.768 6.16999 110.851 6.16999C110.935 6.16999 110.935 6.17107 111.02 6.17107C111.105 6.17107 111.103 6.10156 111.188 6.10156C111.273 6.10156 111.274 6.12003 111.335 6.17867C111.393 6.23298 111.364 6.23624 111.364 6.31552C111.364 6.3948 111.308 6.3948 111.308 6.47409C111.308 6.55337 111.4 6.55337 111.4 6.63374C111.4 6.71411 111.345 6.71411 111.352 6.79339C111.359 6.85965 111.378 6.85965 111.321 6.91395H111.322Z" fill="#876425"/>
<path d="M111.34 8.63609C111.28 8.69366 111.274 8.6904 111.19 8.6904C111.107 8.6904 111.107 8.61654 111.023 8.61654C110.939 8.61654 110.939 8.6198 110.856 8.6198C110.772 8.6198 110.772 8.67845 110.688 8.67845C110.605 8.67845 110.605 8.70234 110.521 8.70234C110.437 8.70234 110.437 8.67736 110.354 8.67736C110.27 8.67736 110.27 8.70017 110.186 8.70017C110.103 8.70017 110.103 8.65673 110.019 8.65673C109.935 8.65673 109.935 8.69691 109.852 8.69691C109.768 8.69691 109.768 8.61654 109.684 8.61654C109.601 8.61654 109.601 8.65347 109.516 8.65347C109.431 8.65347 109.432 8.65347 109.347 8.65347C109.263 8.65347 109.258 8.69257 109.196 8.63501C109.139 8.5807 109.216 8.57419 109.216 8.4949C109.216 8.41562 109.207 8.41562 109.207 8.33634C109.207 8.25705 109.158 8.25705 109.158 8.17668C109.158 8.09631 109.184 8.09631 109.184 8.01703C109.184 7.93774 109.097 7.88778 109.155 7.83239C109.213 7.777 109.263 7.83565 109.346 7.83565C109.43 7.83565 109.43 7.91059 109.514 7.91059C109.597 7.91059 109.597 7.80959 109.681 7.80959C109.765 7.80959 109.765 7.84 109.848 7.84C109.932 7.84 109.932 7.90951 110.016 7.90951C110.099 7.90951 110.099 7.88887 110.183 7.88887C110.267 7.88887 110.267 7.88344 110.35 7.88344C110.434 7.88344 110.434 7.83565 110.518 7.83565C110.601 7.83565 110.601 7.87258 110.685 7.87258C110.769 7.87258 110.769 7.86606 110.852 7.86606C110.936 7.86606 110.936 7.84651 111.021 7.84651C111.106 7.84651 111.105 7.88018 111.189 7.88018C111.274 7.88018 111.272 7.82588 111.333 7.88344C111.39 7.93774 111.331 7.93666 111.331 8.01703C111.331 8.0974 111.377 8.09631 111.377 8.1756C111.377 8.25488 111.386 8.25488 111.386 8.33525C111.386 8.41562 111.393 8.40802 111.406 8.4873C111.419 8.56658 111.397 8.58179 111.339 8.63609H111.34Z" fill="#876425"/>
</g>
<path d="M110.042 2.48915C109.994 2.46526 109.943 2.43593 109.888 2.41096C109.838 2.38815 109.792 2.34905 109.736 2.32515C109.685 2.30343 109.618 2.31212 109.563 2.2904C109.511 2.26976 109.451 2.26651 109.396 2.24587C109.34 2.22524 109.304 2.16333 109.249 2.14487C109.193 2.1264 109.119 2.17745 109.063 2.16007C109.008 2.14269 108.979 2.0406 108.923 2.0254C108.866 2.01019 108.791 2.07427 108.735 2.06015C108.678 2.04603 108.638 1.97109 108.582 1.95806C108.525 1.94503 108.461 1.97218 108.405 1.96132C108.348 1.95046 108.3 1.87986 108.244 1.87117C108.187 1.86248 108.123 1.89833 108.065 1.8929C108.008 1.88746 107.95 1.88312 107.893 1.87878C107.835 1.87443 107.777 1.83316 107.72 1.83207C107.662 1.83099 107.603 1.85054 107.545 1.85271C107.487 1.85488 107.433 1.91244 107.375 1.91787C107.318 1.92331 107.259 1.91027 107.203 1.91787C107.146 1.92548 107.089 1.93308 107.032 1.94503C106.975 1.95697 106.93 2.00693 106.874 2.02214C106.819 2.03734 106.735 1.96023 106.68 1.9787C106.624 1.99716 106.572 2.02757 106.519 2.05038C106.466 2.07318 106.45 2.17419 106.398 2.20026C106.347 2.22632 106.271 2.2046 106.221 2.23501C106.171 2.26542 106.145 2.32733 106.097 2.361C106.05 2.39466 106.026 2.45005 105.98 2.48807C105.934 2.52608 105.828 2.48807 105.786 2.52825C105.743 2.56844 105.752 2.65641 105.712 2.69985C105.671 2.7433 105.598 2.75198 105.561 2.7976C105.524 2.84321 105.532 2.92033 105.499 2.96703C105.465 3.01373 105.394 3.03328 105.363 3.08324C105.331 3.1332 105.295 3.17773 105.267 3.22877C105.239 3.27982 105.223 3.33521 105.197 3.38843C105.17 3.44164 105.193 3.51333 105.169 3.56654C105.145 3.61976 105.122 3.66863 105.1 3.72403C105.078 3.77942 105.034 3.8272 105.052 3.87716C105.072 3.92929 105.098 4.01292 105.148 4.04007C105.194 4.06505 105.287 4.07917 105.345 4.06397C105.42 4.04442 105.417 4.03139 105.491 4.01184C105.565 3.99229 105.545 3.91517 105.62 3.89563C105.695 3.87608 105.708 3.92604 105.783 3.90757C105.804 3.90214 105.862 3.8902 105.868 3.86956C105.882 3.82069 105.868 3.74792 105.891 3.67841C105.911 3.62085 105.874 3.53613 105.899 3.4764C105.924 3.41666 105.981 3.36453 106.009 3.31349C106.049 3.24181 106.095 3.16361 106.134 3.14732C106.189 3.12451 106.192 3.22443 106.188 3.32869C106.185 3.38408 106.235 3.45576 106.228 3.52419C106.22 3.58827 106.155 3.648 106.15 3.70882C106.146 3.75118 106.216 3.80874 106.258 3.79788C106.343 3.77616 106.325 3.70556 106.409 3.68384C106.494 3.66212 106.502 3.68927 106.586 3.66755C106.671 3.64583 106.689 3.71099 106.773 3.68927C106.858 3.66755 106.849 3.63171 106.934 3.60999C106.956 3.60456 106.935 3.5698 106.942 3.54808C106.955 3.49921 106.975 3.44816 106.991 3.39168C107.005 3.34064 107.044 3.29394 107.059 3.24072C107.074 3.1875 107.056 3.12451 107.071 3.07238C107.086 3.02025 107.121 2.97029 107.137 2.92033C107.156 2.86385 107.156 2.80194 107.172 2.75741C107.199 2.68791 107.294 2.6727 107.313 2.64881C107.345 2.60862 107.331 2.65424 107.311 2.76828C107.304 2.81715 107.313 2.88014 107.302 2.94422C107.291 2.99852 107.23 3.04631 107.218 3.10496C107.206 3.16361 107.253 3.23203 107.242 3.28851C107.23 3.34824 107.167 3.39603 107.156 3.44925C107.147 3.49378 107.184 3.49812 107.229 3.48726C107.332 3.46011 107.338 3.48835 107.442 3.46228C107.462 3.45685 107.484 3.44925 107.491 3.4297C107.51 3.36779 107.543 3.30697 107.566 3.24506C107.591 3.17881 107.595 3.10713 107.62 3.05174C107.658 2.97137 107.683 2.88231 107.717 2.86168C107.757 2.83561 107.81 2.91815 107.806 3.00504C107.804 3.0474 107.741 3.09301 107.733 3.1484C107.726 3.19619 107.704 3.24398 107.696 3.29502C107.689 3.33955 107.784 3.41015 107.827 3.39929C107.911 3.37757 107.901 3.33847 107.986 3.31675C108.071 3.29502 108.06 3.25592 108.144 3.2342C108.227 3.21248 108.244 3.27222 108.327 3.25049C108.411 3.22877 108.401 3.18967 108.485 3.16795C108.569 3.14623 108.587 3.21683 108.671 3.1951C108.754 3.17338 108.745 3.13211 108.828 3.11039C108.912 3.08867 108.899 3.03871 108.984 3.01699C109.069 2.99527 109.069 2.99961 109.153 2.9768C109.238 2.95399 109.259 3.03654 109.342 3.01373C109.426 2.99092 109.405 2.91055 109.49 2.88883C109.575 2.86711 109.588 2.92033 109.673 2.8986C109.758 2.87688 109.755 2.86819 109.84 2.84647C109.925 2.82475 109.938 2.87688 110.023 2.85516C110.097 2.83561 110.116 2.72483 110.124 2.66184C110.131 2.59885 110.114 2.52499 110.045 2.49241L110.042 2.48915Z" fill="#00AA89"/>
<path d="M109.923 2.57899C109.87 2.58659 109.815 2.61808 109.754 2.62895C109.7 2.63872 109.642 2.64741 109.584 2.65827C109.529 2.66913 109.47 2.66913 109.412 2.68216C109.358 2.69411 109.306 2.72778 109.248 2.7419C109.19 2.75602 109.146 2.80163 109.089 2.81684C109.033 2.83204 108.977 2.83856 108.921 2.85594C108.864 2.87331 108.789 2.82335 108.734 2.84182C108.679 2.86028 108.643 2.92979 108.588 2.95042C108.534 2.97106 108.47 2.96237 108.416 2.98409C108.361 3.00581 108.337 3.09379 108.284 3.11659C108.231 3.1394 108.156 3.11334 108.104 3.13832C108.052 3.1633 108.025 3.23606 107.974 3.2643C107.923 3.29254 107.848 3.27408 107.798 3.3034C107.748 3.33272 107.684 3.34033 107.635 3.37182C107.586 3.40332 107.544 3.44676 107.497 3.48043C107.451 3.5141 107.421 3.57166 107.376 3.60859C107.33 3.64552 107.324 3.72371 107.281 3.76281C107.238 3.80191 107.129 3.77041 107.088 3.81169C107.046 3.85296 107.027 3.91595 106.99 3.95939C106.953 4.00284 106.901 4.03759 106.866 4.08321C106.831 4.12882 106.854 4.21571 106.822 4.26349C106.791 4.31128 106.778 4.36776 106.751 4.4188C106.724 4.46985 106.611 4.47637 106.587 4.52958C106.563 4.5828 106.581 4.6534 106.562 4.70879C106.542 4.76418 106.539 4.82174 106.522 4.87713C106.506 4.93252 106.431 4.9727 106.418 5.03027C106.405 5.08783 106.481 5.15842 106.472 5.21707C106.464 5.27572 106.381 5.32134 106.376 5.37998C106.37 5.43863 106.395 5.49728 106.394 5.55593C106.393 5.61458 106.374 5.67105 106.376 5.7297C106.378 5.78835 106.44 5.84048 106.444 5.89913C106.449 5.95778 106.463 6.00991 106.47 6.06856C106.478 6.12721 106.476 6.1826 106.486 6.24016C106.495 6.29772 106.486 6.35637 106.497 6.41393C106.509 6.47149 106.533 6.52688 106.577 6.55729C106.622 6.58988 106.685 6.61486 106.741 6.60943C106.794 6.60399 106.851 6.56815 106.89 6.52254C106.941 6.46498 106.94 6.46389 106.99 6.40524C107.04 6.34659 107.044 6.34985 107.095 6.29229C107.146 6.23473 107.135 6.22495 107.186 6.16631C107.201 6.15001 107.202 6.13155 107.195 6.11091C107.18 6.06313 107.188 5.99145 107.168 5.92194C107.152 5.86329 107.117 5.80573 107.103 5.74273C107.089 5.67974 107.119 5.60915 107.113 5.55158C107.105 5.47013 107.04 5.38976 107.063 5.35392C107.095 5.30396 107.144 5.38433 107.2 5.4723C107.229 5.52009 107.271 5.57113 107.304 5.63195C107.334 5.68952 107.371 5.74382 107.402 5.79812C107.422 5.83614 107.518 5.87089 107.546 5.83831C107.604 5.77206 107.533 5.71015 107.591 5.6439C107.648 5.57765 107.695 5.61892 107.753 5.55267C107.81 5.48642 107.81 5.48642 107.869 5.42017C107.928 5.35392 107.91 5.33871 107.968 5.27355C107.983 5.25726 108.004 5.23445 107.996 5.21381C107.98 5.16603 107.986 5.10629 107.968 5.0509C107.952 5.00094 107.906 4.9575 107.89 4.90428C107.873 4.85106 107.861 4.79785 107.846 4.74571C107.831 4.69358 107.831 4.63385 107.817 4.58389C107.8 4.52633 107.754 4.4818 107.743 4.43401C107.725 4.36124 107.697 4.30151 107.699 4.2711C107.703 4.22114 107.735 4.2863 107.784 4.39165C107.805 4.43727 107.895 4.46225 107.92 4.52198C107.942 4.57303 107.881 4.66209 107.904 4.71748C107.927 4.77287 108.023 4.79459 108.046 4.84781C108.07 4.90428 108.033 4.98357 108.055 5.03352C108.073 5.07588 108.143 5.06502 108.173 5.03135C108.244 4.95098 108.291 4.99334 108.361 4.91297C108.375 4.89668 108.349 4.8402 108.344 4.81957C108.325 4.75766 108.307 4.6925 108.291 4.62733C108.273 4.55891 108.298 4.48614 108.289 4.42641C108.275 4.33843 108.25 4.28522 108.267 4.24829C108.286 4.20376 108.32 4.21462 108.364 4.28956C108.386 4.32649 108.394 4.38188 108.419 4.43292C108.441 4.47637 108.46 4.52307 108.483 4.56977C108.502 4.60995 108.516 4.5904 108.545 4.55674C108.602 4.49157 108.676 4.55674 108.733 4.49049C108.789 4.42423 108.783 4.4188 108.839 4.35364C108.896 4.28847 108.833 4.232 108.889 4.16683C108.946 4.10167 108.988 4.1386 109.046 4.07343C109.103 4.00827 109.074 3.98329 109.132 3.91812C109.189 3.85296 109.166 3.83341 109.224 3.76824C109.282 3.70308 109.354 3.76824 109.412 3.70199C109.47 3.63574 109.419 3.59121 109.476 3.52605C109.534 3.46088 109.571 3.49346 109.628 3.4283C109.686 3.36313 109.646 3.32729 109.702 3.26213C109.759 3.19696 109.796 3.22846 109.853 3.16221C109.911 3.09596 109.916 3.10139 109.974 3.03514C110.032 2.96889 110.022 2.96129 110.079 2.89503C110.129 2.83747 110.087 2.77557 110.057 2.71909C110.026 2.66261 109.995 2.56812 109.918 2.57899H109.923Z" fill="#00DBB1"/>
<path d="M109.889 2.65081C109.942 2.65841 110.005 2.62474 110.066 2.63452C110.121 2.64429 110.185 2.61605 110.244 2.628C110.299 2.63886 110.356 2.64755 110.415 2.66058C110.469 2.67253 110.507 2.76376 110.565 2.77788C110.623 2.792 110.691 2.74747 110.748 2.76376C110.804 2.78005 110.858 2.79526 110.914 2.81263C110.969 2.83001 111.012 2.88432 111.067 2.90278C111.122 2.92124 111.169 2.95491 111.225 2.97555C111.28 2.99618 111.324 3.03419 111.378 3.05592C111.432 3.07764 111.504 3.05157 111.557 3.07438C111.61 3.09719 111.677 3.09176 111.729 3.11674C111.781 3.14172 111.8 3.23078 111.851 3.25793C111.902 3.28508 111.948 3.31549 111.998 3.34481C112.048 3.37414 112.126 3.35785 112.173 3.39043C112.221 3.42301 112.271 3.45234 112.318 3.48709C112.365 3.52184 112.428 3.53596 112.473 3.5718C112.519 3.60764 112.542 3.67281 112.584 3.71082C112.627 3.74884 112.642 3.81617 112.682 3.85744C112.722 3.89871 112.818 3.89003 112.856 3.93455C112.894 3.97908 112.92 4.03447 112.955 4.08009C112.989 4.1257 112.968 4.21151 112.999 4.26038C113.031 4.30925 113.093 4.33749 113.121 4.38854C113.149 4.43958 113.127 4.51235 113.152 4.56557C113.177 4.61879 113.232 4.65463 113.252 4.70893C113.273 4.76323 113.319 4.80776 113.335 4.86424C113.351 4.92072 113.315 4.98697 113.329 5.04453C113.342 5.10209 113.387 5.14988 113.396 5.20744C113.405 5.265 113.356 5.32582 113.361 5.38447C113.367 5.44312 113.426 5.49416 113.427 5.55281C113.429 5.61146 113.436 5.66794 113.435 5.72659C113.434 5.78523 113.407 5.83954 113.401 5.89819C113.396 5.95684 113.396 6.01222 113.388 6.07087C113.381 6.12952 113.361 6.18274 113.351 6.2403C113.342 6.29786 113.297 6.34565 113.285 6.40321C113.273 6.46078 113.285 6.52051 113.242 6.55092C113.196 6.5835 113.143 6.55201 113.087 6.54658C113.034 6.54115 113.005 6.5368 112.964 6.49119C112.913 6.43362 112.892 6.45209 112.841 6.39452C112.79 6.33696 112.823 6.30655 112.772 6.24899C112.721 6.19143 112.679 6.22835 112.628 6.16971C112.613 6.15341 112.613 6.12843 112.62 6.10671C112.635 6.05893 112.613 5.98399 112.633 5.91339C112.649 5.85474 112.726 5.80696 112.74 5.74396C112.753 5.68097 112.695 5.60494 112.7 5.54738C112.708 5.46593 112.749 5.40511 112.725 5.36927C112.693 5.31931 112.66 5.37252 112.606 5.4605C112.577 5.50828 112.54 5.56367 112.508 5.62449C112.478 5.68206 112.481 5.75917 112.452 5.81239C112.431 5.8504 112.298 5.86886 112.27 5.83737C112.212 5.77112 112.243 5.74396 112.185 5.6788C112.128 5.61363 112.151 5.59191 112.093 5.52675C112.035 5.46158 112.006 5.48548 111.948 5.41923C111.891 5.35297 111.939 5.31062 111.88 5.24437C111.865 5.22808 111.856 5.24437 111.863 5.22373C111.879 5.17594 111.849 5.10861 111.868 5.05322C111.884 5.00326 111.955 4.9685 111.972 4.91528C111.99 4.86207 111.984 4.80342 111.999 4.75129C112.015 4.69915 112.033 4.64485 112.047 4.5938C112.064 4.53624 112.09 4.48411 112.101 4.43741C112.118 4.36464 112.107 4.30056 112.105 4.27015C112.102 4.22019 112.084 4.28536 112.035 4.38962C112.015 4.43524 111.983 4.4852 111.957 4.54385C111.935 4.59489 111.848 4.62204 111.826 4.67743C111.803 4.73282 111.831 4.80668 111.809 4.85989C111.785 4.91637 111.735 4.95873 111.714 5.00869C111.695 5.05104 111.636 5.09775 111.606 5.06408C111.535 4.98371 111.578 4.94678 111.508 4.8675C111.494 4.85121 111.442 4.82948 111.447 4.80885C111.466 4.74694 111.533 4.69481 111.55 4.63073C111.567 4.56231 111.609 4.49823 111.618 4.43958C111.632 4.35161 111.622 4.26146 111.606 4.22454C111.587 4.18001 111.521 4.22671 111.477 4.30165C111.455 4.33858 111.481 4.40917 111.456 4.45913C111.434 4.50257 111.325 4.50583 111.302 4.55253C111.282 4.59272 111.282 4.60901 111.252 4.57534C111.194 4.51018 111.208 4.49823 111.151 4.43198C111.093 4.36573 111.042 4.41134 110.986 4.34726C110.929 4.28319 110.915 4.29405 110.857 4.22888C110.8 4.16372 110.873 4.09964 110.816 4.03447C110.76 3.96931 110.725 3.99972 110.667 3.93455C110.61 3.86939 110.598 3.88025 110.54 3.814C110.482 3.74775 110.53 3.70756 110.473 3.6424C110.415 3.57723 110.349 3.6348 110.292 3.56963C110.236 3.50447 110.292 3.45342 110.235 3.38826C110.177 3.32309 110.156 3.34156 110.099 3.27639C110.041 3.21123 110.055 3.19819 109.998 3.13303C109.94 3.06786 109.896 3.10588 109.838 3.04071C109.78 2.97555 109.775 2.97989 109.717 2.91473C109.667 2.85716 109.67 2.7453 109.7 2.68882C109.73 2.63235 109.812 2.64321 109.887 2.65407L109.889 2.65081Z" fill="#00AA89"/>
<path d="M109.949 2.36196C109.928 2.31309 109.964 2.23381 109.938 2.17733C109.915 2.12846 109.808 2.11542 109.782 2.06112C109.757 2.01116 109.811 1.91884 109.782 1.86671C109.756 1.81784 109.698 1.782 109.669 1.73095C109.639 1.67991 109.59 1.64406 109.559 1.59519C109.527 1.54632 109.53 1.47681 109.496 1.42902C109.462 1.38123 109.439 1.32693 109.403 1.28023C109.368 1.23353 109.287 1.22484 109.25 1.18031C109.213 1.13578 109.211 1.06084 109.172 1.01848C109.133 0.976126 109.096 0.928338 109.054 0.888153C109.011 0.847968 108.938 0.841452 108.894 0.804525C108.849 0.767599 108.795 0.744791 108.748 0.711122C108.701 0.677454 108.641 0.668765 108.592 0.638355C108.543 0.607945 108.495 0.584051 108.443 0.557985C108.391 0.531919 108.371 0.440689 108.317 0.418967C108.262 0.397245 108.203 0.393987 108.146 0.377696C108.09 0.361405 108.041 0.312531 107.983 0.30167C107.926 0.29081 107.857 0.383126 107.798 0.377696C107.74 0.372266 107.689 0.32665 107.63 0.32665C107.571 0.32665 107.517 0.334253 107.458 0.340769C107.4 0.347286 107.354 0.396159 107.296 0.40702C107.239 0.417881 107.17 0.359233 107.113 0.375524C107.055 0.391815 106.991 0.375524 106.934 0.395073C106.878 0.414623 106.828 0.442861 106.772 0.466755C106.717 0.490648 106.698 0.577535 106.644 0.603601C106.583 0.634011 106.541 0.669851 106.541 0.7285C106.541 0.787148 106.579 0.833849 106.64 0.86426C106.716 0.903358 106.721 0.891412 106.797 0.93051C106.874 0.969609 106.868 0.979384 106.944 1.01848C106.958 1.02609 106.995 1.08582 107.008 1.07713C107.049 1.05215 107.066 0.952232 107.129 0.918564C107.183 0.889239 107.233 0.831677 107.287 0.80887C107.361 0.777373 107.439 0.834935 107.476 0.846882C107.529 0.865346 107.454 0.876207 107.371 0.953318C107.322 0.998933 107.301 1.08691 107.252 1.13361C107.229 1.15533 107.228 1.17705 107.256 1.19226C107.332 1.23135 107.307 1.28131 107.383 1.3215C107.459 1.36168 107.482 1.31824 107.558 1.35734C107.634 1.39644 107.613 1.43988 107.69 1.47898C107.704 1.48658 107.744 1.44097 107.757 1.43228C107.802 1.40295 107.874 1.40187 107.928 1.36711C107.978 1.33562 108.007 1.26611 108.057 1.2357C108.111 1.20312 108.146 1.13687 108.194 1.1108C108.267 1.07061 108.34 1.03369 108.37 1.02934C108.411 1.02174 108.355 1.08908 108.273 1.15316C108.237 1.18139 108.23 1.26285 108.183 1.29652C108.142 1.32693 108.097 1.35951 108.055 1.39101C108.012 1.4225 107.943 1.42576 107.904 1.45509C107.878 1.47572 107.876 1.55066 107.906 1.56587C107.975 1.60171 107.967 1.61908 108.036 1.65493C108.05 1.66253 108.086 1.61583 108.099 1.60714C108.141 1.58324 108.168 1.52785 108.21 1.50505C108.256 1.48115 108.332 1.52242 108.372 1.50505C108.432 1.47898 108.463 1.46921 108.493 1.47464C108.536 1.48224 108.515 1.51048 108.443 1.57456C108.406 1.60714 108.363 1.64732 108.318 1.68425C108.293 1.70489 108.306 1.68534 108.335 1.70054C108.409 1.73855 108.393 1.76896 108.467 1.80698C108.541 1.84499 108.523 1.87866 108.596 1.91667C108.669 1.95468 108.705 1.88735 108.779 1.92536C108.852 1.96337 108.846 1.9764 108.92 2.01442C108.994 2.05243 108.963 2.11108 109.037 2.15018C109.111 2.18928 109.129 2.15452 109.203 2.19253C109.278 2.23055 109.253 2.27725 109.327 2.31526C109.401 2.35327 109.419 2.32069 109.493 2.3587C109.566 2.39672 109.581 2.37065 109.654 2.40975C109.728 2.44885 109.704 2.49446 109.779 2.53248C109.829 2.55854 109.889 2.5151 109.924 2.4836C109.959 2.45211 109.967 2.41301 109.946 2.36088L109.949 2.36196Z" fill="#00DBB1"/>
<path d="M110.071 2.51447C110.12 2.49166 110.167 2.46125 110.224 2.43627C110.274 2.41346 110.306 2.34178 110.361 2.31897C110.412 2.29725 110.475 2.29834 110.53 2.27661C110.583 2.25598 110.638 2.24077 110.693 2.22122C110.749 2.20167 110.78 2.12239 110.836 2.10393C110.891 2.08546 110.947 2.07352 111.003 2.05614C111.06 2.03876 111.137 2.10719 111.193 2.09198C111.25 2.07678 111.289 2.00727 111.345 1.99315C111.402 1.97903 111.453 1.94645 111.511 1.9345C111.568 1.92255 111.624 1.90626 111.68 1.89649C111.737 1.88671 111.8 1.91278 111.857 1.90517C111.915 1.89757 111.97 1.87694 112.028 1.87151C112.086 1.86608 112.146 1.92038 112.204 1.91712C112.262 1.91386 112.317 1.89974 112.375 1.89866C112.432 1.89757 112.491 1.84544 112.548 1.84761C112.606 1.84978 112.666 1.83567 112.723 1.8411C112.781 1.84653 112.84 1.85413 112.897 1.86282C112.955 1.87151 113.008 1.90517 113.065 1.91712C113.121 1.92907 113.171 1.96708 113.228 1.98229C113.284 1.99749 113.324 2.05288 113.379 2.07134C113.433 2.08981 113.498 2.07569 113.552 2.0985C113.605 2.1213 113.674 2.10827 113.725 2.13542C113.776 2.16258 113.792 2.25055 113.841 2.28096C113.89 2.31137 113.929 2.34938 113.975 2.38305C114.022 2.41672 114.079 2.43192 114.123 2.46994C114.168 2.50795 114.254 2.496 114.296 2.53619C114.338 2.57637 114.334 2.65891 114.374 2.70236C114.414 2.7458 114.442 2.7925 114.479 2.83812C114.515 2.88373 114.55 2.925 114.584 2.97279C114.618 3.02058 114.706 3.02927 114.737 3.07923C114.769 3.12919 114.786 3.18458 114.814 3.23671C114.843 3.28884 114.864 3.33989 114.89 3.3931C114.916 3.44632 114.877 3.52452 114.9 3.57882C114.923 3.63313 114.96 3.67657 114.982 3.73087C115.003 3.78518 115.004 3.81776 114.986 3.86772C114.965 3.91985 114.973 4.00239 114.923 4.02846C114.876 4.05344 114.811 4.01325 114.752 3.99696C114.677 3.97741 114.662 4.03606 114.587 4.01543C114.512 3.99479 114.511 3.99914 114.437 3.9785C114.363 3.95786 114.365 3.94592 114.292 3.92637C114.271 3.92094 114.262 3.87749 114.256 3.85686C114.242 3.80799 114.243 3.73739 114.22 3.66897C114.2 3.61141 114.142 3.56253 114.119 3.50388C114.096 3.44524 114.101 3.36595 114.074 3.31491C114.035 3.24214 113.968 3.21824 113.929 3.20087C113.874 3.17697 113.92 3.22259 113.924 3.32685C113.926 3.38224 113.859 3.45392 113.867 3.52235C113.873 3.58643 113.951 3.64616 113.957 3.70698C113.96 3.75042 113.876 3.77432 113.834 3.76346C113.749 3.74065 113.751 3.73522 113.667 3.71241C113.582 3.6896 113.58 3.69612 113.495 3.67331C113.41 3.6505 113.399 3.69069 113.315 3.66788C113.23 3.64507 113.235 3.62444 113.151 3.60163C113.129 3.5962 113.067 3.58643 113.061 3.56579C113.048 3.51692 113.065 3.4561 113.049 3.39962C113.035 3.34857 113.022 3.29536 113.007 3.24214C112.992 3.18892 113.039 3.11833 113.022 3.06619C113.006 3.01406 112.902 2.98691 112.886 2.93695C112.868 2.88047 112.935 2.79793 112.918 2.75232C112.892 2.68172 112.834 2.63611 112.816 2.61221C112.784 2.57203 112.78 2.64479 112.798 2.75883C112.806 2.80771 112.778 2.87396 112.791 2.93695C112.802 2.99125 112.801 3.05207 112.813 3.11072C112.825 3.16937 112.892 3.2139 112.903 3.27038C112.915 3.33011 112.879 3.39636 112.889 3.45067C112.896 3.4952 112.902 3.48542 112.858 3.47347C112.755 3.44632 112.744 3.48976 112.641 3.46153C112.62 3.4561 112.587 3.44524 112.581 3.4246C112.562 3.36269 112.515 3.30839 112.492 3.2454C112.468 3.17915 112.441 3.1205 112.416 3.06511C112.379 2.98365 112.4 2.88047 112.366 2.85875C112.326 2.83269 112.292 2.90437 112.296 2.99125C112.299 3.03361 112.268 3.09009 112.276 3.14656C112.282 3.19435 112.389 3.23128 112.396 3.28232C112.403 3.32685 112.306 3.38007 112.263 3.36921C112.179 3.3464 112.178 3.35075 112.093 3.32794C112.008 3.30513 111.999 3.3464 111.914 3.32359C111.829 3.30079 111.849 3.23128 111.765 3.20847C111.681 3.18566 111.69 3.15308 111.606 3.13027C111.523 3.10746 111.52 3.11507 111.437 3.09335C111.353 3.07162 111.335 3.13896 111.25 3.11724C111.165 3.09552 111.173 3.06945 111.089 3.04664C111.005 3.02384 111.001 3.03904 110.917 3.01623C110.834 2.99343 110.829 3.00646 110.746 2.98474C110.662 2.96302 110.664 2.95216 110.58 2.92935C110.497 2.90654 110.514 2.8392 110.43 2.8164C110.347 2.79359 110.326 2.86744 110.242 2.84572C110.159 2.824 110.15 2.85115 110.066 2.82943C109.993 2.80988 109.991 2.69584 109.985 2.63285C109.978 2.56986 110.002 2.54922 110.071 2.51664V2.51447Z" fill="#00DBB1"/>
<path d="M109.732 2.52515C109.75 2.4741 109.743 2.41002 109.765 2.35137C109.785 2.30033 109.807 2.24603 109.831 2.18955C109.853 2.13742 109.88 2.08637 109.905 2.03098C109.928 1.97994 109.913 1.90608 109.939 1.85286C109.965 1.79965 110.08 1.7953 110.107 1.74208C110.135 1.68887 110.127 1.62153 110.156 1.57048C110.186 1.51944 110.195 1.45862 110.226 1.40866C110.256 1.3587 110.323 1.33372 110.356 1.28484C110.39 1.23597 110.391 1.16755 110.426 1.11976C110.461 1.07197 110.467 1.00355 110.504 0.957935C110.541 0.91232 110.612 0.894942 110.651 0.851499C110.69 0.808056 110.709 0.745063 110.751 0.703792C110.792 0.662521 110.871 0.661435 110.915 0.622336C110.958 0.583238 111.001 0.544139 111.046 0.508298C111.092 0.472457 111.13 0.425756 111.179 0.393174C111.228 0.360591 111.257 0.295427 111.308 0.267189C111.359 0.23895 111.414 0.211798 111.467 0.186819C111.52 0.161839 111.603 0.210712 111.658 0.190077C111.714 0.169441 111.747 0.0901576 111.804 0.0738664C111.86 0.0575752 111.922 0.0673499 111.981 0.0564891C112.04 0.0456283 112.093 0.0163042 112.152 0.0108738C112.21 0.00544339 112.269 0.00109908 112.328 1.29965e-05C112.386 -0.00107308 112.441 0.0662638 112.5 0.0695221C112.56 0.0727803 112.62 0.014132 112.68 0.0217346C112.739 0.0293371 112.785 0.0901576 112.844 0.102104C112.902 0.114051 112.955 0.124912 113.013 0.140117C113.072 0.155322 113.12 0.179216 113.176 0.197679C113.233 0.216143 113.293 0.211798 113.348 0.23352C113.403 0.255242 113.46 0.26393 113.514 0.28891C113.562 0.309546 113.61 0.333439 113.629 0.37471C113.65 0.41924 113.601 0.461597 113.587 0.507212C113.573 0.552827 113.563 0.561516 113.516 0.587582C113.429 0.637542 113.479 0.725514 113.394 0.774388C113.308 0.823261 113.29 0.795023 113.203 0.844983C113.187 0.854757 113.145 0.859102 113.128 0.849327C113.089 0.827605 113.039 0.80154 112.983 0.772215C112.935 0.748322 112.904 0.683157 112.852 0.660349C112.801 0.637542 112.739 0.629939 112.691 0.614734C112.622 0.594098 112.558 0.582152 112.524 0.595184C112.476 0.613648 112.517 0.666866 112.584 0.728772C112.62 0.761355 112.696 0.760269 112.743 0.798281C112.786 0.833036 112.808 0.899287 112.849 0.934041C112.877 0.957935 112.84 0.97314 112.808 0.991603C112.743 1.02853 112.751 1.04482 112.685 1.08175C112.619 1.11867 112.661 1.19144 112.595 1.22945C112.529 1.26747 112.511 1.23489 112.445 1.2729C112.379 1.31091 112.366 1.28702 112.3 1.32503C112.284 1.3348 112.294 1.30114 112.276 1.29136C112.231 1.2653 112.178 1.2414 112.124 1.21208C112.075 1.18493 111.998 1.20339 111.948 1.17515C111.898 1.14691 111.857 1.09804 111.808 1.07197C111.753 1.04374 111.703 1.01224 111.656 0.990517C111.584 0.956849 111.513 0.995948 111.483 0.990517C111.434 0.984001 111.52 0.955763 111.621 1.02744C111.667 1.05894 111.671 1.16755 111.729 1.20556C111.78 1.24032 111.867 1.22728 111.919 1.26312C111.971 1.29896 112.041 1.3196 112.088 1.35218C112.121 1.37499 112.119 1.47925 112.085 1.4988C112.006 1.54442 111.987 1.51292 111.908 1.55854C111.892 1.56723 111.867 1.58026 111.85 1.57157C111.8 1.5455 111.772 1.46622 111.72 1.44124C111.665 1.41517 111.602 1.40106 111.553 1.38259C111.48 1.35544 111.411 1.39019 111.378 1.3978C111.327 1.40866 111.399 1.41409 111.489 1.48686C111.534 1.52378 111.587 1.56397 111.644 1.60524C111.676 1.62805 111.657 1.71819 111.624 1.73665C111.547 1.7801 111.535 1.75838 111.458 1.8029C111.381 1.84743 111.361 1.81159 111.284 1.85504C111.207 1.89848 111.226 1.92998 111.148 1.97451C111.071 2.01903 111.092 2.05379 111.015 2.09832C110.938 2.14285 110.903 2.08094 110.826 2.12438C110.749 2.16783 110.743 2.15914 110.666 2.20258C110.589 2.24603 110.6 2.26557 110.523 2.30902C110.445 2.35246 110.478 2.41002 110.401 2.45347C110.324 2.49691 110.294 2.44478 110.217 2.48931C110.14 2.53384 110.136 2.52515 110.058 2.56968C109.981 2.61421 109.982 2.61638 109.905 2.66091C109.849 2.69349 109.78 2.73802 109.737 2.70326C109.693 2.66851 109.71 2.58814 109.731 2.52623L109.732 2.52515Z" fill="#00AA89"/>
</g>
<defs>
<clipPath id="clip0_922_9267">
<rect width="11.4082" height="6.86022" fill="white" transform="translate(32.9131 1.20703)"/>
</clipPath>
<clipPath id="clip1_922_9267">
<rect width="8.24573" height="8.46377" fill="white" transform="translate(86.8003 29.5352)"/>
</clipPath>
<clipPath id="clip2_922_9267">
<rect width="9.95656" height="10.0451" fill="white" transform="translate(105.043)"/>
</clipPath>
</defs>
</svg>
