<svg width="170" height="57" viewBox="0 0 170 57" fill="none" xmlns="http://www.w3.org/2000/svg">
<path d="M145.754 55.7852V44.2894C143.712 43.7608 141.953 42.8925 140.478 41.6844C139.003 40.4763 137.868 39.0417 137.074 37.3805C136.279 35.6816 135.882 33.8506 135.882 31.8874V15.125H145.698V31.3778C145.698 32.2461 145.906 33.0578 146.322 33.8129C146.738 34.5302 147.324 35.1342 148.081 35.625C148.837 36.078 149.707 36.3046 150.69 36.3046C151.674 36.3046 152.525 36.078 153.244 35.625C154 35.1342 154.567 34.5302 154.946 33.8129C155.362 33.0578 155.57 32.2461 155.57 31.3778V15.125H165.442V31.8874C165.442 33.8506 165.045 35.6816 164.25 37.3805C163.494 39.0794 162.378 40.5329 160.903 41.741C159.466 42.9491 157.707 43.8175 155.627 44.346V55.7852H145.754Z" fill="#FB3463"/>
<path d="M117.26 14.3867C119.718 14.3867 121.931 14.7643 123.898 15.5193C125.865 16.2744 127.529 17.3692 128.891 18.8038C130.29 20.2007 131.349 21.8619 132.068 23.7873C132.824 25.7127 133.203 27.8269 133.203 30.1298C133.203 33.0746 132.597 35.6607 131.387 37.8881C130.215 40.1156 128.569 41.8522 126.451 43.0981C124.333 44.3439 121.931 44.9668 119.246 44.9668C118.186 44.9668 117.165 44.8347 116.182 44.5704C115.198 44.3062 114.309 43.9286 113.515 43.4378C112.721 42.9093 112.021 42.2864 111.416 41.5691H111.189V56.4627H101.317V30.2431C101.317 27.0341 101.979 24.2403 103.303 21.8619C104.627 19.4834 106.48 17.6524 108.863 16.3688C111.284 15.0474 114.083 14.3867 117.26 14.3867ZM117.26 22.9378C116.125 22.9378 115.104 23.2399 114.196 23.8439C113.288 24.4102 112.588 25.203 112.097 26.2224C111.605 27.2039 111.359 28.3554 111.359 29.6768C111.359 30.8849 111.605 31.9986 112.097 33.0179C112.588 33.9995 113.288 34.7923 114.196 35.3964C115.104 35.9627 116.125 36.2458 117.26 36.2458C118.47 36.2458 119.51 35.9627 120.38 35.3964C121.288 34.7923 121.969 33.9995 122.423 33.0179C122.914 31.9986 123.16 30.8849 123.16 29.6768C123.16 28.3554 122.914 27.2039 122.423 26.2224C121.969 25.203 121.288 24.4102 120.38 23.8439C119.51 23.2399 118.47 22.9378 117.26 22.9378Z" fill="#FB3463"/>
<path d="M82.6958 14.3867C85.1544 14.3867 87.3671 14.7643 89.3339 15.5193C91.3008 16.2744 92.965 17.3692 94.3267 18.8038C95.7262 20.2007 96.7853 21.8619 97.5039 23.7873C98.2604 25.7127 98.6386 27.8269 98.6386 30.1298C98.6386 33.0746 98.0335 35.6607 96.8231 37.8881C95.6505 40.1156 94.0052 41.8522 91.887 43.0981C89.7689 44.3439 87.3671 44.9668 84.6816 44.9668C83.6225 44.9668 82.6012 44.8347 81.6178 44.5704C80.6344 44.3062 79.7455 43.9286 78.9512 43.4378C78.1569 42.9093 77.4571 42.2864 76.852 41.5691H76.625V56.4627H66.7529V30.2431C66.7529 27.0341 67.4148 24.2403 68.7387 21.8619C70.0625 19.4834 71.9159 17.6524 74.2988 16.3688C76.7196 15.0474 79.5186 14.3867 82.6958 14.3867ZM82.6958 22.9378C81.5611 22.9378 80.5398 23.2399 79.632 23.8439C78.7243 24.4102 78.0245 25.203 77.5328 26.2224C77.0411 27.2039 76.7952 28.3554 76.7952 29.6768C76.7952 30.8849 77.0411 31.9986 77.5328 33.0179C78.0245 33.9995 78.7243 34.7923 79.632 35.3964C80.5398 35.9627 81.5611 36.2458 82.6958 36.2458C83.9062 36.2458 84.9463 35.9627 85.8163 35.3964C86.7241 34.7923 87.4049 33.9995 87.8588 33.0179C88.3505 31.9986 88.5963 30.8849 88.5963 29.6768C88.5963 28.3554 88.3505 27.2039 87.8588 26.2224C87.4049 25.203 86.7241 24.4102 85.8163 23.8439C84.9463 23.2399 83.9062 22.9378 82.6958 22.9378Z" fill="#FB3463"/>
<path d="M53.3052 44.2894V15.125H63.1773V44.2894H53.3052Z" fill="#FB3463"/>
<path d="M31.8599 44.2894V23.9026C31.8599 21.1844 32.6353 19.0513 34.186 17.5035C35.7747 15.9178 37.9685 15.125 40.7674 15.125H49.7317V22.8267H43.7745C43.1693 22.8267 42.6776 23.0154 42.2993 23.393C41.9211 23.7705 41.732 24.2613 41.732 24.8653V44.2894H31.8599Z" fill="#FB3463"/>
<path d="M23.8691 44.2874C21.4106 44.2874 19.2168 43.7588 17.2878 42.7018C15.3965 41.6069 13.9025 40.1345 12.8056 38.2846C11.7465 36.4347 11.217 34.3583 11.217 32.0553V13.4241H0.664062V4.64648H32.4363V13.4241H22.0536V32.7915C22.0536 33.5466 22.3184 34.1884 22.8479 34.7169C23.3774 35.2455 24.0015 35.5098 24.7202 35.5098H28.2378V44.2874H23.8691Z" fill="#FB3463"/>
<g clip-path="url(#clip0_919_10368)">
<path d="M53.2755 5.668C53.3453 5.71186 53.4135 5.75573 53.4882 5.78985C53.5629 5.82397 53.6408 5.84022 53.722 5.85646C53.7935 5.87109 53.8601 5.91658 53.9299 5.91658C53.9997 5.91658 54.0695 5.87596 54.1394 5.86459C54.2092 5.85322 54.2742 5.83209 54.3424 5.80935C54.4106 5.7866 54.4706 5.75736 54.5372 5.72811C54.6038 5.69887 54.6915 5.72161 54.7548 5.68749C54.8182 5.65337 54.8539 5.57376 54.914 5.53639C54.9741 5.49902 55.0455 5.4779 55.104 5.43891C55.1624 5.39992 55.2387 5.38204 55.2972 5.34305C55.3557 5.30406 55.393 5.23582 55.4515 5.1952C55.5099 5.15458 55.5781 5.13021 55.6366 5.09122C55.6951 5.05222 55.7357 4.98723 55.7957 4.94824C55.8558 4.90925 55.9143 4.87188 55.9744 4.83451C56.0344 4.79714 56.1091 4.78414 56.1692 4.74677C56.2293 4.70941 56.278 4.65579 56.3381 4.62005C56.3982 4.5843 56.4632 4.55668 56.5232 4.51931C56.5833 4.48194 56.6434 4.44782 56.7051 4.41208C56.7668 4.37634 56.8302 4.34709 56.8919 4.31297C56.9536 4.27885 57.0137 4.24311 57.0754 4.20899C57.1371 4.17487 57.1939 4.13263 57.2556 4.10013C57.3173 4.06764 57.3758 4.0254 57.4375 3.9929C57.4992 3.96041 57.5512 3.90679 57.6145 3.8743C57.6778 3.8418 57.7493 3.82718 57.811 3.79631C57.8727 3.76544 57.9409 3.74269 58.0042 3.71345C58.0676 3.6842 58.1276 3.64521 58.1926 3.61759C58.2575 3.58997 58.3371 3.59809 58.4021 3.57047C58.467 3.54285 58.5304 3.51361 58.5953 3.48599C58.6603 3.45836 58.7122 3.4015 58.7788 3.3755C58.8454 3.34951 58.9152 3.34138 58.9818 3.31701C59.0484 3.29264 59.1101 3.25527 59.1767 3.23415C59.2432 3.21303 59.3212 3.22603 59.3878 3.20491C59.4544 3.18379 59.5209 3.16266 59.5891 3.14317C59.6573 3.12367 59.7109 3.05868 59.7791 3.04081C59.8473 3.02294 59.9204 3.02619 59.9886 3.00994C60.0568 2.99369 60.1218 2.95795 60.19 2.94333C60.2582 2.9287 60.3231 2.89133 60.393 2.87834C60.4628 2.86534 60.5407 2.90271 60.6106 2.89133C60.6804 2.87996 60.7421 2.81822 60.8119 2.80847C60.8817 2.79872 60.9532 2.79548 61.023 2.78735C61.0929 2.77923 61.1692 2.83609 61.239 2.82959C61.3088 2.8231 61.3754 2.76623 61.4452 2.76136C61.5151 2.75648 61.5865 2.76623 61.6563 2.76298C61.7262 2.75973 61.796 2.74023 61.8658 2.74023C61.9356 2.74023 62.0055 2.7841 62.0769 2.78573C62.1484 2.78735 62.2166 2.7906 62.288 2.79385C62.3562 2.79872 62.4228 2.81497 62.491 2.81985C62.5592 2.82472 62.6291 2.8101 62.6973 2.81985C62.7655 2.82959 62.8369 2.81497 62.9051 2.82635C62.9733 2.83772 63.0399 2.85234 63.1065 2.86696C63.1731 2.88159 63.2445 2.88484 63.3111 2.90108C63.3777 2.91733 63.4394 2.9547 63.5043 2.9742C63.5693 2.99369 63.6164 3.07005 63.6797 3.0928C63.743 3.11555 63.8096 3.13179 63.8729 3.15779C63.9363 3.18379 64.0012 3.20328 64.0629 3.23415C64.1246 3.26502 64.1945 3.27802 64.2529 3.31214C64.3114 3.34626 64.3731 3.38038 64.4299 3.41775C64.4868 3.45512 64.5339 3.50873 64.5875 3.54935C64.641 3.58997 64.6703 3.65983 64.7222 3.70532C64.7742 3.75082 64.8392 3.77681 64.8879 3.82555C64.9366 3.8743 65.0194 3.89217 65.0633 3.94416C65.1071 3.99615 65.1103 4.08226 65.1493 4.1375C65.1883 4.19274 65.224 4.25123 65.2581 4.30972C65.2922 4.36821 65.3604 4.41046 65.3913 4.4722C65.4221 4.53394 65.3897 4.62167 65.414 4.68504C65.4384 4.7484 65.5082 4.79714 65.5277 4.86213C65.5472 4.92712 65.5715 4.99373 65.5829 5.06197C65.5943 5.13021 65.6056 5.19845 65.6121 5.26669C65.6186 5.33493 65.5732 5.40479 65.5715 5.47303C65.5699 5.54127 65.578 5.60951 65.5699 5.67612C65.5602 5.74436 65.5797 5.82072 65.5634 5.88733C65.5472 5.95395 65.5277 6.02381 65.505 6.0888C65.4822 6.15379 65.4514 6.21878 65.4221 6.28214C65.3929 6.34551 65.3085 6.378 65.2744 6.43812C65.2403 6.49823 65.2289 6.56972 65.1915 6.62821C65.1542 6.6867 65.1461 6.76631 65.1039 6.82155C65.0616 6.87679 64.9609 6.88329 64.9155 6.93528C64.87 6.98728 64.8408 7.05064 64.7921 7.10101C64.7433 7.15137 64.7092 7.21311 64.6589 7.26023C64.6086 7.30735 64.5582 7.35609 64.5063 7.39996C64.4527 7.44545 64.4234 7.52019 64.3682 7.56243C64.313 7.60467 64.2432 7.62904 64.1864 7.67129C64.1295 7.71353 64.0662 7.74277 64.0077 7.78177C63.9493 7.82076 63.8697 7.82564 63.8112 7.86463C63.7528 7.90362 63.7317 8.00111 63.6716 8.03685C63.6115 8.07259 63.5303 8.07259 63.4686 8.10671C63.4069 8.14083 63.3533 8.18633 63.2916 8.21882C63.2299 8.25132 63.1714 8.29193 63.1097 8.3228C63.048 8.35367 62.9668 8.34555 62.9019 8.37479C62.8369 8.40404 62.7801 8.44303 62.7151 8.47065C62.6502 8.49827 62.582 8.5129 62.517 8.53889C62.452 8.56489 62.3887 8.59251 62.3238 8.61688C62.2588 8.64125 62.1938 8.664 62.1273 8.68837C62.0607 8.71274 62.0136 8.7891 61.9486 8.81185C61.8837 8.83459 61.7976 8.79885 61.731 8.81997C61.6645 8.84109 61.6028 8.87521 61.5362 8.89633C61.4696 8.91745 61.4079 8.95645 61.3413 8.97594C61.2747 8.99544 61.2 8.99219 61.1335 9.01169C61.0669 9.03119 61.0084 9.08318 60.9402 9.10267C60.872 9.12217 60.7973 9.10755 60.7291 9.12542C60.6609 9.14329 60.6008 9.18716 60.5326 9.20341C60.4644 9.21965 60.393 9.22128 60.3248 9.23915C60.2566 9.25702 60.1867 9.2619 60.1185 9.27814C60.0503 9.29439 59.9919 9.35288 59.9237 9.3675C59.8555 9.38213 59.7791 9.36101 59.7109 9.37563C59.6427 9.39025 59.568 9.374 59.4998 9.387C59.4316 9.4 59.3683 9.44224 59.3001 9.45361C59.2319 9.46499 59.1572 9.44874 59.089 9.46174C59.0208 9.47474 58.9591 9.52835 58.8892 9.53973C58.8194 9.5511 58.7545 9.58034 58.6846 9.59009C58.6148 9.59984 58.5482 9.62584 58.4784 9.63558C58.4086 9.64533 58.3387 9.65021 58.2689 9.65996C58.1991 9.6697 58.1293 9.67458 58.0594 9.6827C57.9896 9.69082 57.9198 9.6892 57.85 9.6957C57.7801 9.7022 57.7119 9.72657 57.6421 9.73307C57.5723 9.73957 57.5008 9.72657 57.431 9.73307C57.3612 9.73957 57.2881 9.70382 57.2183 9.7087C57.1484 9.71357 57.0786 9.70707 57.0088 9.71032C56.939 9.71357 56.8707 9.72982 56.8009 9.73307C56.7311 9.73632 56.6645 9.80293 56.5947 9.80618C56.5249 9.80943 56.455 9.80131 56.3836 9.80293C56.3121 9.80456 56.2423 9.75581 56.1725 9.75581C56.1027 9.75581 56.0344 9.77044 55.9646 9.77044C55.8948 9.77044 55.8266 9.77044 55.7568 9.76881C55.6869 9.76719 55.6187 9.74119 55.5505 9.73794C55.4823 9.73469 55.4109 9.75744 55.3427 9.75419C55.2745 9.75094 55.2046 9.74282 55.1348 9.73794C55.065 9.73307 54.9984 9.7087 54.9302 9.7022C54.862 9.6957 54.7873 9.73794 54.7175 9.72819C54.6476 9.71845 54.5827 9.68595 54.5145 9.6762C54.4463 9.66645 54.3732 9.67945 54.305 9.66645C54.2368 9.65346 54.1637 9.65833 54.0972 9.64371C54.0306 9.62909 53.9689 9.58034 53.9007 9.5641C53.8325 9.54785 53.7643 9.53648 53.6977 9.5186C53.6311 9.50073 53.5596 9.49423 53.4931 9.47149C53.4265 9.44874 53.3761 9.38538 53.3112 9.36101C53.2462 9.33663 53.1634 9.35613 53.1001 9.32851C53.0368 9.30089 53.0027 9.20828 52.9393 9.17904C52.876 9.14979 52.8078 9.13354 52.7477 9.10105C52.686 9.06855 52.6162 9.05231 52.5561 9.01656C52.496 8.98082 52.4457 8.93045 52.3888 8.89308C52.332 8.85571 52.2865 8.79885 52.2313 8.75823C52.1761 8.71761 52.1176 8.68024 52.064 8.63638C52.0105 8.59251 51.9634 8.54214 51.9114 8.49665C51.8594 8.45116 51.7929 8.42354 51.7425 8.37479C51.6922 8.32605 51.6126 8.30818 51.5639 8.25944C51.5152 8.2107 51.5135 8.11646 51.4681 8.06447C51.4226 8.01248 51.3512 7.98323 51.3073 7.92962C51.2635 7.876 51.2326 7.81264 51.1904 7.7574C51.1482 7.70216 51.0978 7.65341 51.0572 7.59817C51.0166 7.54293 51.0085 7.46495 50.9695 7.40646C50.9306 7.34797 50.8315 7.33009 50.7958 7.2716C50.7601 7.21311 50.7487 7.13838 50.713 7.07826C50.6772 7.01815 50.6318 6.96453 50.5977 6.90441C50.5636 6.8443 50.5782 6.75819 50.5457 6.69645C50.5132 6.63471 50.445 6.59247 50.4158 6.5291C50.3866 6.46574 50.3687 6.39912 50.3395 6.33576C50.3102 6.2724 50.2583 6.2204 50.2307 6.15541C50.2031 6.09043 50.1901 6.02219 50.1657 5.9572C50.1414 5.89221 50.1267 5.82397 50.1024 5.75898C50.078 5.69399 50.0748 5.6225 50.0537 5.55589C50.0326 5.48928 50.0228 5.42104 50.0033 5.35442C49.9838 5.28781 49.94 5.22932 49.9205 5.16271C49.901 5.09609 49.8458 5.03923 49.828 4.97261C49.8068 4.89462 49.8036 4.80851 49.7874 4.7289C49.7711 4.64929 49.7419 4.56643 49.7354 4.48519C49.7289 4.40396 49.7841 4.3211 49.7922 4.23986C49.8003 4.17162 49.7922 4.10176 49.8117 4.04002C49.8312 3.97828 49.8328 3.89379 49.8669 3.83855C49.9043 3.78006 49.9725 3.74107 50.0261 3.70045C50.0797 3.65983 50.1397 3.61596 50.2096 3.59972C50.2697 3.58672 50.3379 3.64033 50.4126 3.65008C50.4824 3.65983 50.5473 3.67283 50.6188 3.69395C50.6902 3.71507 50.7552 3.72969 50.8218 3.76056C50.8884 3.79143 50.9533 3.81581 51.0166 3.85155C51.08 3.88729 51.1449 3.91654 51.205 3.95716C51.2651 3.99777 51.3171 4.04977 51.3755 4.09201C51.434 4.13425 51.4941 4.17649 51.5509 4.21874C51.611 4.26423 51.6662 4.30972 51.7198 4.35197C51.7782 4.39746 51.8221 4.46082 51.8773 4.50956C51.9325 4.55831 52.0023 4.5908 52.0592 4.63954C52.116 4.68828 52.1517 4.75815 52.2069 4.80851C52.2622 4.85888 52.3661 4.85401 52.4197 4.90437C52.4733 4.95474 52.5025 5.03435 52.5561 5.08472C52.6097 5.13509 52.6714 5.17733 52.7266 5.22769C52.7818 5.27806 52.8094 5.35767 52.8662 5.40641C52.9263 5.46003 52.9978 5.5039 53.0611 5.55264C53.1244 5.60138 53.2105 5.6225 53.2787 5.66637L53.2755 5.668Z" fill="#6096FF"/>
<mask id="mask0_919_10368" style="mask-type:luminance" maskUnits="userSpaceOnUse" x="49" y="2" width="17" height="8">
<path d="M53.2755 5.668C53.3453 5.71186 53.4135 5.75573 53.4882 5.78985C53.5629 5.82397 53.6408 5.84022 53.722 5.85646C53.7935 5.87109 53.8601 5.91658 53.9299 5.91658C53.9997 5.91658 54.0695 5.87596 54.1394 5.86459C54.2092 5.85322 54.2742 5.83209 54.3424 5.80935C54.4106 5.7866 54.4706 5.75736 54.5372 5.72811C54.6038 5.69887 54.6915 5.72161 54.7548 5.68749C54.8182 5.65337 54.8539 5.57376 54.914 5.53639C54.9741 5.49902 55.0455 5.4779 55.104 5.43891C55.1624 5.39992 55.2387 5.38204 55.2972 5.34305C55.3557 5.30406 55.393 5.23582 55.4515 5.1952C55.5099 5.15458 55.5781 5.13021 55.6366 5.09122C55.6951 5.05222 55.7357 4.98723 55.7957 4.94824C55.8558 4.90925 55.9143 4.87188 55.9744 4.83451C56.0344 4.79714 56.1091 4.78414 56.1692 4.74677C56.2293 4.70941 56.278 4.65579 56.3381 4.62005C56.3982 4.5843 56.4632 4.55668 56.5232 4.51931C56.5833 4.48194 56.6434 4.44782 56.7051 4.41208C56.7668 4.37634 56.8302 4.34709 56.8919 4.31297C56.9536 4.27885 57.0137 4.24311 57.0754 4.20899C57.1371 4.17487 57.1939 4.13263 57.2556 4.10013C57.3173 4.06764 57.3758 4.0254 57.4375 3.9929C57.4992 3.96041 57.5512 3.90679 57.6145 3.8743C57.6778 3.8418 57.7493 3.82718 57.811 3.79631C57.8727 3.76544 57.9409 3.74269 58.0042 3.71345C58.0676 3.6842 58.1276 3.64521 58.1926 3.61759C58.2575 3.58997 58.3371 3.59809 58.4021 3.57047C58.467 3.54285 58.5304 3.51361 58.5953 3.48599C58.6603 3.45836 58.7122 3.4015 58.7788 3.3755C58.8454 3.34951 58.9152 3.34138 58.9818 3.31701C59.0484 3.29264 59.1101 3.25527 59.1767 3.23415C59.2432 3.21303 59.3212 3.22603 59.3878 3.20491C59.4544 3.18379 59.5209 3.16266 59.5891 3.14317C59.6573 3.12367 59.7109 3.05868 59.7791 3.04081C59.8473 3.02294 59.9204 3.02619 59.9886 3.00994C60.0568 2.99369 60.1218 2.95795 60.19 2.94333C60.2582 2.9287 60.3231 2.89133 60.393 2.87834C60.4628 2.86534 60.5407 2.90271 60.6106 2.89133C60.6804 2.87996 60.7421 2.81822 60.8119 2.80847C60.8817 2.79872 60.9532 2.79548 61.023 2.78735C61.0929 2.77923 61.1692 2.83609 61.239 2.82959C61.3088 2.8231 61.3754 2.76623 61.4452 2.76136C61.5151 2.75648 61.5865 2.76623 61.6563 2.76298C61.7262 2.75973 61.796 2.74023 61.8658 2.74023C61.9356 2.74023 62.0055 2.7841 62.0769 2.78573C62.1484 2.78735 62.2166 2.7906 62.288 2.79385C62.3562 2.79872 62.4228 2.81497 62.491 2.81985C62.5592 2.82472 62.6291 2.8101 62.6973 2.81985C62.7655 2.82959 62.8369 2.81497 62.9051 2.82635C62.9733 2.83772 63.0399 2.85234 63.1065 2.86696C63.1731 2.88159 63.2445 2.88484 63.3111 2.90108C63.3777 2.91733 63.4394 2.9547 63.5043 2.9742C63.5693 2.99369 63.6164 3.07005 63.6797 3.0928C63.743 3.11555 63.8096 3.13179 63.8729 3.15779C63.9363 3.18379 64.0012 3.20328 64.0629 3.23415C64.1246 3.26502 64.1945 3.27802 64.2529 3.31214C64.3114 3.34626 64.3731 3.38038 64.4299 3.41775C64.4868 3.45512 64.5339 3.50873 64.5875 3.54935C64.641 3.58997 64.6703 3.65983 64.7222 3.70532C64.7742 3.75082 64.8392 3.77681 64.8879 3.82555C64.9366 3.8743 65.0194 3.89217 65.0633 3.94416C65.1071 3.99615 65.1103 4.08226 65.1493 4.1375C65.1883 4.19274 65.224 4.25123 65.2581 4.30972C65.2922 4.36821 65.3604 4.41046 65.3913 4.4722C65.4221 4.53394 65.3897 4.62167 65.414 4.68504C65.4384 4.7484 65.5082 4.79714 65.5277 4.86213C65.5472 4.92712 65.5715 4.99373 65.5829 5.06197C65.5943 5.13021 65.6056 5.19845 65.6121 5.26669C65.6186 5.33493 65.5732 5.40479 65.5715 5.47303C65.5699 5.54127 65.578 5.60951 65.5699 5.67612C65.5602 5.74436 65.5797 5.82072 65.5634 5.88733C65.5472 5.95395 65.5277 6.02381 65.505 6.0888C65.4822 6.15379 65.4514 6.21878 65.4221 6.28214C65.3929 6.34551 65.3085 6.378 65.2744 6.43812C65.2403 6.49823 65.2289 6.56972 65.1915 6.62821C65.1542 6.6867 65.1461 6.76631 65.1039 6.82155C65.0616 6.87679 64.9609 6.88329 64.9155 6.93528C64.87 6.98728 64.8408 7.05064 64.7921 7.10101C64.7433 7.15137 64.7092 7.21311 64.6589 7.26023C64.6086 7.30735 64.5582 7.35609 64.5063 7.39996C64.4527 7.44545 64.4234 7.52019 64.3682 7.56243C64.313 7.60467 64.2432 7.62904 64.1864 7.67129C64.1295 7.71353 64.0662 7.74277 64.0077 7.78177C63.9493 7.82076 63.8697 7.82564 63.8112 7.86463C63.7528 7.90362 63.7317 8.00111 63.6716 8.03685C63.6115 8.07259 63.5303 8.07259 63.4686 8.10671C63.4069 8.14083 63.3533 8.18633 63.2916 8.21882C63.2299 8.25132 63.1714 8.29193 63.1097 8.3228C63.048 8.35367 62.9668 8.34555 62.9019 8.37479C62.8369 8.40404 62.7801 8.44303 62.7151 8.47065C62.6502 8.49827 62.582 8.5129 62.517 8.53889C62.452 8.56489 62.3887 8.59251 62.3238 8.61688C62.2588 8.64125 62.1938 8.664 62.1273 8.68837C62.0607 8.71274 62.0136 8.7891 61.9486 8.81185C61.8837 8.83459 61.7976 8.79885 61.731 8.81997C61.6645 8.84109 61.6028 8.87521 61.5362 8.89633C61.4696 8.91745 61.4079 8.95645 61.3413 8.97594C61.2747 8.99544 61.2 8.99219 61.1335 9.01169C61.0669 9.03119 61.0084 9.08318 60.9402 9.10267C60.872 9.12217 60.7973 9.10755 60.7291 9.12542C60.6609 9.14329 60.6008 9.18716 60.5326 9.20341C60.4644 9.21965 60.393 9.22128 60.3248 9.23915C60.2566 9.25702 60.1867 9.2619 60.1185 9.27814C60.0503 9.29439 59.9919 9.35288 59.9237 9.3675C59.8555 9.38213 59.7791 9.36101 59.7109 9.37563C59.6427 9.39025 59.568 9.374 59.4998 9.387C59.4316 9.4 59.3683 9.44224 59.3001 9.45361C59.2319 9.46499 59.1572 9.44874 59.089 9.46174C59.0208 9.47474 58.9591 9.52835 58.8892 9.53973C58.8194 9.5511 58.7545 9.58034 58.6846 9.59009C58.6148 9.59984 58.5482 9.62584 58.4784 9.63558C58.4086 9.64533 58.3387 9.65021 58.2689 9.65996C58.1991 9.6697 58.1293 9.67458 58.0594 9.6827C57.9896 9.69082 57.9198 9.6892 57.85 9.6957C57.7801 9.7022 57.7119 9.72657 57.6421 9.73307C57.5723 9.73957 57.5008 9.72657 57.431 9.73307C57.3612 9.73957 57.2881 9.70382 57.2183 9.7087C57.1484 9.71357 57.0786 9.70707 57.0088 9.71032C56.939 9.71357 56.8707 9.72982 56.8009 9.73307C56.7311 9.73632 56.6645 9.80293 56.5947 9.80618C56.5249 9.80943 56.455 9.80131 56.3836 9.80293C56.3121 9.80456 56.2423 9.75581 56.1725 9.75581C56.1027 9.75581 56.0344 9.77044 55.9646 9.77044C55.8948 9.77044 55.8266 9.77044 55.7568 9.76881C55.6869 9.76719 55.6187 9.74119 55.5505 9.73794C55.4823 9.73469 55.4109 9.75744 55.3427 9.75419C55.2745 9.75094 55.2046 9.74282 55.1348 9.73794C55.065 9.73307 54.9984 9.7087 54.9302 9.7022C54.862 9.6957 54.7873 9.73794 54.7175 9.72819C54.6476 9.71845 54.5827 9.68595 54.5145 9.6762C54.4463 9.66645 54.3732 9.67945 54.305 9.66645C54.2368 9.65346 54.1637 9.65833 54.0972 9.64371C54.0306 9.62909 53.9689 9.58034 53.9007 9.5641C53.8325 9.54785 53.7643 9.53648 53.6977 9.5186C53.6311 9.50073 53.5596 9.49423 53.4931 9.47149C53.4265 9.44874 53.3761 9.38538 53.3112 9.36101C53.2462 9.33663 53.1634 9.35613 53.1001 9.32851C53.0368 9.30089 53.0027 9.20828 52.9393 9.17904C52.876 9.14979 52.8078 9.13354 52.7477 9.10105C52.686 9.06855 52.6162 9.05231 52.5561 9.01656C52.496 8.98082 52.4457 8.93045 52.3888 8.89308C52.332 8.85571 52.2865 8.79885 52.2313 8.75823C52.1761 8.71761 52.1176 8.68024 52.064 8.63638C52.0105 8.59251 51.9634 8.54214 51.9114 8.49665C51.8594 8.45116 51.7929 8.42354 51.7425 8.37479C51.6922 8.32605 51.6126 8.30818 51.5639 8.25944C51.5152 8.2107 51.5135 8.11646 51.4681 8.06447C51.4226 8.01248 51.3512 7.98323 51.3073 7.92962C51.2635 7.876 51.2326 7.81264 51.1904 7.7574C51.1482 7.70216 51.0978 7.65341 51.0572 7.59817C51.0166 7.54293 51.0085 7.46495 50.9695 7.40646C50.9306 7.34797 50.8315 7.33009 50.7958 7.2716C50.7601 7.21311 50.7487 7.13838 50.713 7.07826C50.6772 7.01815 50.6318 6.96453 50.5977 6.90441C50.5636 6.8443 50.5782 6.75819 50.5457 6.69645C50.5132 6.63471 50.445 6.59247 50.4158 6.5291C50.3866 6.46574 50.3687 6.39912 50.3395 6.33576C50.3102 6.2724 50.2583 6.2204 50.2307 6.15541C50.2031 6.09043 50.1901 6.02219 50.1657 5.9572C50.1414 5.89221 50.1267 5.82397 50.1024 5.75898C50.078 5.69399 50.0748 5.6225 50.0537 5.55589C50.0326 5.48928 50.0228 5.42104 50.0033 5.35442C49.9838 5.28781 49.94 5.22932 49.9205 5.16271C49.901 5.09609 49.8458 5.03923 49.828 4.97261C49.8068 4.89462 49.8036 4.80851 49.7874 4.7289C49.7711 4.64929 49.7419 4.56643 49.7354 4.48519C49.7289 4.40396 49.7841 4.3211 49.7922 4.23986C49.8003 4.17162 49.7922 4.10176 49.8117 4.04002C49.8312 3.97828 49.8328 3.89379 49.8669 3.83855C49.9043 3.78006 49.9725 3.74107 50.0261 3.70045C50.0797 3.65983 50.1397 3.61596 50.2096 3.59972C50.2697 3.58672 50.3379 3.64033 50.4126 3.65008C50.4824 3.65983 50.5473 3.67283 50.6188 3.69395C50.6902 3.71507 50.7552 3.72969 50.8218 3.76056C50.8884 3.79143 50.9533 3.81581 51.0166 3.85155C51.08 3.88729 51.1449 3.91654 51.205 3.95716C51.2651 3.99777 51.3171 4.04977 51.3755 4.09201C51.434 4.13425 51.4941 4.17649 51.5509 4.21874C51.611 4.26423 51.6662 4.30972 51.7198 4.35197C51.7782 4.39746 51.8221 4.46082 51.8773 4.50956C51.9325 4.55831 52.0023 4.5908 52.0592 4.63954C52.116 4.68828 52.1517 4.75815 52.2069 4.80851C52.2622 4.85888 52.3661 4.85401 52.4197 4.90437C52.4733 4.95474 52.5025 5.03435 52.5561 5.08472C52.6097 5.13509 52.6714 5.17733 52.7266 5.22769C52.7818 5.27806 52.8094 5.35767 52.8662 5.40641C52.9263 5.46003 52.9978 5.5039 53.0611 5.55264C53.1244 5.60138 53.2105 5.6225 53.2787 5.66637L53.2755 5.668Z" fill="white"/>
</mask>
<g mask="url(#mask0_919_10368)">
<path d="M62.1622 4.16311C62.1524 4.16799 62.1557 4.20048 62.1459 4.20536C62.068 4.2411 61.9446 4.23785 61.8975 4.30772C61.865 4.35483 61.891 4.43444 61.8861 4.49131C61.8812 4.54818 61.9186 4.59854 61.9267 4.65378C61.9381 4.7204 61.9511 4.78214 61.9657 4.84713C61.9803 4.91211 61.9771 4.98035 61.9982 5.04534C62.0193 5.11033 62.0225 5.17857 62.0469 5.24031C62.0712 5.30205 62.1216 5.35242 62.1508 5.41416C62.18 5.4759 62.1589 5.56038 62.1898 5.61887C62.2466 5.72448 62.3457 5.72935 62.4626 5.7261C62.5341 5.72285 62.6039 5.70336 62.6753 5.69686C62.7468 5.69036 62.8215 5.71311 62.8929 5.70336C62.9644 5.69361 63.031 5.65462 63.1008 5.64162C63.1706 5.62862 63.2518 5.66111 63.3216 5.64487C63.3915 5.62862 63.4532 5.57988 63.523 5.56038C63.5928 5.54088 63.6578 5.51001 63.726 5.48889C63.7942 5.46777 63.8591 5.4369 63.9257 5.41253C63.9923 5.38816 64.0589 5.36216 64.1255 5.33292C64.192 5.30367 64.2781 5.31992 64.3431 5.28905C64.408 5.25818 64.4649 5.20782 64.5266 5.1737C64.5883 5.13958 64.6597 5.11521 64.7214 5.07784C64.7831 5.04047 64.8335 4.9836 64.8919 4.94298C64.9504 4.90237 64.9975 4.8455 65.0559 4.80163C65.1144 4.75777 65.1988 4.75127 65.2557 4.70577C65.3125 4.66028 65.3564 4.60017 65.41 4.55305C65.4635 4.50593 65.5058 4.44419 65.5561 4.39383C65.6064 4.34346 65.6227 4.28984 65.6714 4.23785C65.6211 4.18424 65.6292 4.10462 65.5772 4.05101C65.5253 3.99739 65.4441 3.97302 65.3937 3.92103C65.3434 3.86904 65.3044 3.80242 65.2541 3.74881C65.2037 3.69519 65.1518 3.6432 65.0998 3.58959C65.0478 3.53597 64.9959 3.4856 64.9439 3.43199C64.8919 3.37837 64.8367 3.32963 64.7864 3.27601C64.736 3.2224 64.6987 3.15578 64.6484 3.10217C64.598 3.04855 64.5071 3.0323 64.4567 2.97869C64.4259 2.94782 64.395 2.86496 64.3463 2.87146C64.2976 2.87795 64.2976 2.97381 64.2667 3.01118C64.2261 3.06155 64.1385 3.06967 64.0946 3.11679C64.0508 3.16391 64.0004 3.2029 63.9517 3.24352C63.903 3.28414 63.8591 3.32963 63.8072 3.367C63.7552 3.40437 63.7244 3.4726 63.6708 3.50672C63.6172 3.54084 63.5311 3.51972 63.4743 3.55059C63.4174 3.58146 63.3817 3.64483 63.3233 3.67407C63.2599 3.70494 63.1885 3.71631 63.1251 3.74556C63.0618 3.7748 63.0131 3.83817 62.9481 3.86579C62.8832 3.89341 62.8166 3.91453 62.7517 3.94053C62.6867 3.96652 62.6152 3.97465 62.5503 4.00227C62.4853 4.02989 62.4317 4.08188 62.3684 4.1095C62.3051 4.13712 62.2288 4.13712 62.1638 4.16636L62.1622 4.16311Z" fill="#B3D2FF"/>
</g>
<path d="M57.0464 7.86897C57.139 7.81698 57.1162 7.84297 57.2445 7.7926C57.2997 7.77148 57.3598 7.72762 57.4362 7.70162C57.4962 7.6805 57.5742 7.69187 57.6489 7.67075C57.7122 7.65288 57.7869 7.661 57.86 7.6415C57.9249 7.62526 57.9834 7.57002 58.0565 7.55377C58.1231 7.53915 58.1848 7.48878 58.2562 7.47578C58.3228 7.46278 58.3991 7.48878 58.4706 7.47578C58.5388 7.46603 58.6118 7.49203 58.6849 7.48391C58.7531 7.47578 58.8181 7.43029 58.8912 7.42217C58.9642 7.41404 59.0324 7.43191 59.1039 7.42704C59.1753 7.42217 59.2435 7.42704 59.315 7.42379C59.3864 7.42054 59.4546 7.41079 59.5261 7.41079C59.5975 7.41079 59.6658 7.42217 59.7372 7.42217C59.8087 7.42217 59.8769 7.43029 59.9483 7.43354C60.0198 7.43679 60.0912 7.38805 60.1627 7.39292C60.2341 7.3978 60.3023 7.40754 60.3738 7.41404C60.4452 7.42054 60.5118 7.44979 60.5832 7.45629C60.6547 7.46278 60.7278 7.43841 60.7976 7.44816C60.8674 7.45791 60.9389 7.46441 61.0087 7.47578C61.0785 7.48716 61.1386 7.5489 61.2101 7.56189C61.2896 7.57652 61.3595 7.57489 61.4179 7.60089C61.4926 7.63338 61.5316 7.687 61.5722 7.73736C61.616 7.79423 61.629 7.84785 61.6339 7.92258C61.6371 7.98595 61.642 8.05094 61.6193 8.1273C61.6014 8.18904 61.6095 8.27027 61.5754 8.33851C61.5462 8.39863 61.5089 8.46199 61.4683 8.52536C61.4325 8.58222 61.3806 8.63584 61.3367 8.69595C61.2961 8.75119 61.2425 8.79994 61.1955 8.8568C61.1516 8.91042 61.1143 8.97216 61.0655 9.0274C61.0201 9.07939 60.96 9.12001 60.9096 9.17362C60.8593 9.22724 60.8008 9.26461 60.7505 9.31498C60.7002 9.36534 60.6482 9.41083 60.5962 9.4612C60.5443 9.51157 60.5037 9.56843 60.4501 9.61718C60.3965 9.66592 60.3803 9.75203 60.3267 9.79915C60.2731 9.84626 60.174 9.83976 60.1188 9.88526C60.0636 9.93075 60.0311 10.0006 59.9759 10.0461C59.9207 10.0916 59.846 10.1095 59.7892 10.155C59.7323 10.2005 59.6966 10.2654 59.6398 10.3093C59.5829 10.3532 59.5407 10.4133 59.4839 10.4572C59.427 10.501 59.3735 10.5465 59.3166 10.5904C59.2598 10.6343 59.2094 10.6846 59.151 10.7269C59.0925 10.7691 59.0389 10.8162 58.9805 10.8568C58.922 10.8975 58.8392 10.9056 58.7807 10.9462C58.7223 10.9868 58.6654 11.0291 58.6054 11.0697C58.5453 11.1103 58.4901 11.1525 58.43 11.1932C58.3699 11.2338 58.3163 11.2793 58.2562 11.3183C58.1961 11.3573 58.1166 11.3638 58.0565 11.4011C57.9964 11.4385 57.9493 11.4986 57.8892 11.536C57.8291 11.5733 57.7707 11.6156 57.709 11.6513C57.6473 11.6871 57.5937 11.7374 57.532 11.7732C57.4703 11.8089 57.3956 11.8236 57.3338 11.8593C57.2721 11.895 57.2056 11.9243 57.1439 11.9568C57.0821 11.9893 57.0058 12.0007 56.9425 12.0331C56.8792 12.0656 56.8402 12.1485 56.7769 12.1794C56.7135 12.2102 56.6291 12.2054 56.5658 12.2346C56.5024 12.2639 56.4537 12.3353 56.3887 12.363C56.3238 12.3906 56.2572 12.4247 56.1939 12.4523C56.1306 12.4799 56.0623 12.5157 55.9974 12.5401C55.9292 12.5661 55.8545 12.5742 55.7895 12.5953C55.7197 12.6197 55.6466 12.6278 55.5801 12.6473C55.5086 12.6684 55.442 12.696 55.3738 12.7123C55.3007 12.7285 55.2325 12.7578 55.1643 12.7675C55.0896 12.7789 55.0166 12.7935 54.9484 12.7968C54.872 12.8 54.799 12.7659 54.7324 12.7578C54.6561 12.748 54.5814 12.7383 54.5213 12.7123C54.4531 12.683 54.3979 12.631 54.3508 12.5807C54.3037 12.5303 54.2517 12.4734 54.2274 12.402C54.2079 12.3402 54.1916 12.2655 54.1884 12.1859C54.1851 12.1128 54.203 12.0396 54.2046 11.9698C54.2062 11.8999 54.2306 11.8268 54.2387 11.7553C54.2468 11.6838 54.2842 11.6172 54.2956 11.5474C54.3069 11.4775 54.2874 11.4011 54.3037 11.3313C54.3199 11.2614 54.3183 11.1867 54.3394 11.1184C54.3605 11.0502 54.4271 10.9966 54.4515 10.9283C54.4758 10.8601 54.4953 10.7935 54.5229 10.7269C54.5505 10.6603 54.5846 10.5985 54.6155 10.5335C54.6463 10.4685 54.6252 10.3775 54.6577 10.3142C54.6902 10.2508 54.7681 10.2118 54.8055 10.1501C54.8428 10.0883 54.8444 10.0055 54.8834 9.94537C54.9224 9.88526 54.9792 9.83489 55.0198 9.77802C55.0604 9.72116 55.1026 9.65942 55.1449 9.60255C55.1871 9.54569 55.2082 9.4677 55.2537 9.41408C55.2991 9.36047 55.3933 9.34422 55.4404 9.2906C55.4875 9.23699 55.4826 9.13301 55.5313 9.08264C55.5801 9.03227 55.645 8.98841 55.6937 8.93804C55.7424 8.88767 55.8318 8.87142 55.8837 8.82268C55.9357 8.77394 55.9795 8.7122 56.0315 8.66508C56.0867 8.61472 56.1111 8.53348 56.1647 8.48799C56.2215 8.43925 56.2946 8.41488 56.3482 8.37101C56.4066 8.32389 56.4602 8.27352 56.5138 8.23291C56.5755 8.18579 56.6534 8.17117 56.707 8.13217C56.7736 8.08343 56.8402 8.05256 56.8905 8.01844C57.0026 7.94208 56.9506 7.91608 57.0448 7.86409L57.0464 7.86897Z" fill="#1D60CC"/>
<path d="M50.0165 5.28548C50.1139 5.23187 50.0733 5.21562 50.2097 5.175C50.2698 5.15713 50.3461 5.1555 50.4306 5.13926C50.4972 5.12626 50.5702 5.11813 50.6498 5.11001C50.718 5.10351 50.7911 5.06614 50.869 5.06452C50.9389 5.06289 51.0136 5.09214 51.0915 5.09701C51.163 5.10026 51.2377 5.09214 51.314 5.10026C51.3854 5.10839 51.4634 5.09214 51.5397 5.10676C51.6339 5.12463 51.7135 5.19287 51.7281 5.24974C51.7411 5.30335 51.7167 5.39434 51.6745 5.47233C51.6452 5.52432 51.5949 5.58281 51.5462 5.64292C51.5056 5.69329 51.4276 5.71766 51.3757 5.76965C51.3286 5.81677 51.3156 5.9045 51.262 5.95325C51.2117 5.99874 51.1224 6.00199 51.0671 6.0491C51.0119 6.09622 50.9697 6.14659 50.9129 6.19046C50.856 6.23432 50.8089 6.28469 50.7521 6.32531C50.6953 6.36593 50.6271 6.38867 50.5686 6.42929C50.5102 6.46991 50.4761 6.54302 50.4176 6.58039C50.3591 6.61776 50.2958 6.65188 50.2357 6.68762C50.1756 6.72337 50.1107 6.75586 50.0506 6.78836C49.9873 6.82248 49.9174 6.84197 49.8573 6.87122C49.7924 6.90209 49.7307 6.94108 49.669 6.96545C49.5992 6.99307 49.5342 7.02394 49.4725 7.04181C49.3978 7.06294 49.3215 7.05156 49.2614 7.05806C49.1786 7.06456 49.1234 7.02882 49.073 6.99957C49.0178 6.96708 48.9415 6.93621 48.9382 6.8501C48.935 6.77536 48.9382 6.69737 48.948 6.62588C48.9577 6.55439 49.0146 6.48778 49.0373 6.41954C49.06 6.3513 49.0876 6.28307 49.1201 6.21808C49.1526 6.15309 49.2159 6.10597 49.2549 6.04585C49.2939 5.98574 49.3052 5.90288 49.3507 5.84764C49.3978 5.78915 49.4481 5.73553 49.4985 5.68516C49.5521 5.62992 49.6186 5.59256 49.6706 5.54869C49.7323 5.49507 49.7924 5.45283 49.8427 5.41546C49.9483 5.33422 49.9191 5.34072 50.0149 5.28711L50.0165 5.28548Z" fill="#1D60CC"/>
<path d="M57.3155 7.17236C57.2116 7.20485 57.2181 7.2276 57.1141 7.25847C57.0102 7.28934 57.0102 7.28934 56.9047 7.32183C56.7991 7.35433 56.7991 7.34945 56.6952 7.38195C56.5912 7.41444 56.588 7.40632 56.4841 7.43719C56.4142 7.45831 56.346 7.45831 56.286 7.42582C56.2259 7.39332 56.1674 7.34295 56.1447 7.27309C56.1122 7.16423 56.0878 7.17236 56.0554 7.0635C56.0229 6.95464 56.0732 6.9384 56.0407 6.83116C56.0083 6.72393 55.9693 6.73368 55.9352 6.62482C55.9011 6.51597 55.9401 6.50459 55.906 6.39574C55.8849 6.32587 55.8832 6.26088 55.9157 6.20077C55.9482 6.14065 55.9969 6.09029 56.0667 6.06917C56.1707 6.03667 56.1642 6.01555 56.2681 5.98468C56.372 5.95381 56.3801 5.97818 56.4841 5.94731C56.588 5.91644 56.5766 5.87582 56.6806 5.84333C56.7845 5.81084 56.7845 5.81083 56.89 5.77834C56.9599 5.75722 57.0394 5.80921 57.0995 5.8417C57.1596 5.8742 57.2505 5.90994 57.2717 5.97981C57.3041 6.08866 57.2424 6.10654 57.2765 6.21539C57.3106 6.32425 57.335 6.31613 57.3675 6.42498C57.3999 6.53384 57.4227 6.52734 57.4552 6.6362C57.4876 6.74505 57.4259 6.76455 57.46 6.87341C57.4811 6.94327 57.4974 6.99851 57.4665 7.05863C57.4357 7.11874 57.3853 7.15124 57.3155 7.17236Z" fill="#B3D2FF"/>
<path d="M59.1557 6.63016C59.0518 6.66266 59.0534 6.66916 58.9495 6.70003C58.8456 6.7309 58.8374 6.70978 58.7335 6.74065C58.6296 6.77152 58.6263 6.76502 58.5224 6.79751C58.4185 6.83001 58.4347 6.88525 58.3308 6.91612C58.261 6.93724 58.1619 6.93561 58.1018 6.90312C58.0417 6.87062 57.9946 6.78776 57.9735 6.71628C57.9411 6.60742 57.9703 6.5993 57.9378 6.49044C57.9053 6.38158 57.8566 6.3962 57.8241 6.28735C57.7917 6.17849 57.8582 6.15737 57.8241 6.04851C57.79 5.93966 57.7803 5.9429 57.7462 5.83405C57.7251 5.76418 57.7381 5.71057 57.7689 5.65045C57.7998 5.59034 57.8404 5.55459 57.9102 5.53347C58.0141 5.50098 58.0044 5.47173 58.1099 5.43924C58.2155 5.40674 58.2041 5.37587 58.3097 5.34338C58.4152 5.31089 58.4331 5.37262 58.537 5.34175C58.6409 5.31089 58.6442 5.31901 58.7481 5.28651C58.818 5.26539 58.8926 5.21665 58.9527 5.24915C59.0128 5.28164 59.042 5.36125 59.0632 5.43274C59.0956 5.5416 59.1265 5.53185 59.1606 5.64071C59.1947 5.74956 59.1638 5.75931 59.1963 5.86654C59.2288 5.97377 59.2126 5.98027 59.245 6.08913C59.2775 6.19799 59.2791 6.19799 59.3116 6.30684C59.3327 6.37671 59.3506 6.44657 59.3197 6.50669C59.2889 6.5668 59.2239 6.60742 59.1541 6.62854L59.1557 6.63016Z" fill="#B3D2FF"/>
<path d="M60.9804 6.04526C60.8764 6.07776 60.8797 6.09075 60.7758 6.12162C60.6718 6.15249 60.6702 6.14762 60.5646 6.17849C60.4591 6.20936 60.4705 6.24348 60.3649 6.27435C60.2594 6.30522 60.261 6.30684 60.1554 6.33934C60.0856 6.36046 60.0093 6.34096 59.9492 6.31009C59.8891 6.27922 59.8225 6.22886 59.8014 6.15899C59.7689 6.05014 59.7543 6.05501 59.7219 5.94615C59.6894 5.8373 59.7446 5.82105 59.7121 5.71219C59.6796 5.60334 59.6293 5.61796 59.5968 5.5091C59.5643 5.40024 59.613 5.38562 59.5806 5.27677C59.5595 5.2069 59.5254 5.13054 59.5578 5.07042C59.5903 5.01031 59.6715 4.99406 59.7413 4.97294C59.8453 4.94045 59.8485 4.95182 59.9524 4.91932C60.0564 4.88683 60.0531 4.87221 60.1571 4.84134C60.261 4.81047 60.2577 4.79585 60.3617 4.76498C60.4656 4.73411 60.4656 4.73086 60.5695 4.69836C60.6393 4.67724 60.6994 4.70811 60.7595 4.73898C60.8196 4.76985 60.9008 4.79585 60.9219 4.86571C60.9544 4.97457 60.9446 4.97781 60.9771 5.08505C61.0096 5.19228 60.9722 5.20528 61.0047 5.31413C61.0372 5.42299 61.0388 5.42299 61.0729 5.53185C61.107 5.6407 61.172 5.62121 61.2045 5.73006C61.2256 5.79993 61.146 5.86817 61.1135 5.92828C61.081 5.9884 61.0486 6.02252 60.9787 6.04364L60.9804 6.04526Z" fill="#B3D2FF"/>
</g>
<g clip-path="url(#clip1_919_10368)">
<path d="M130.19 44.5085C130.109 44.4806 130.134 44.4542 130.025 44.4645C129.978 44.4689 129.915 44.4674 129.852 44.4865C129.802 44.5012 129.756 44.5437 129.697 44.5716C129.643 44.5966 129.577 44.6039 129.505 44.6171C129.443 44.6289 129.379 44.6509 129.309 44.6568C129.24 44.6626 129.177 44.6905 129.11 44.692C129.042 44.6935 128.973 44.7008 128.908 44.7008C128.838 44.7008 128.77 44.6802 128.708 44.6817C128.628 44.6846 128.567 44.7067 128.519 44.7184C128.448 44.7345 128.388 44.7272 128.361 44.7668C128.331 44.8123 128.304 44.8681 128.288 44.9224C128.273 44.9738 128.26 45.0134 128.216 45.056C128.176 45.0927 128.122 45.1308 128.076 45.1763C128.031 45.2218 128.038 45.3084 128.013 45.3554C127.982 45.417 127.946 45.4757 128.004 45.5198C128.076 45.5741 128.095 45.6005 128.082 45.6372C128.069 45.6739 128.032 45.7062 128.094 45.7649C128.135 45.8045 128.197 45.8074 128.259 45.8192C128.316 45.8295 128.372 45.8192 128.431 45.8118C128.497 45.806 128.563 45.828 128.611 45.8118C128.67 45.7913 128.745 45.803 128.811 45.8617C128.858 45.9028 128.894 45.9718 128.954 46.0144C129.01 46.0525 129.076 46.0511 129.148 46.0628C129.211 46.0731 129.28 46.1333 129.312 46.1905C129.339 46.2389 129.349 46.3094 129.368 46.3725C129.386 46.4298 129.414 46.4855 129.433 46.5428C129.452 46.6 129.456 46.6616 129.487 46.7116C129.521 46.7644 129.552 46.8055 129.608 46.8319C129.642 46.8466 129.65 46.9214 129.671 47.0168C129.683 47.0697 129.687 47.1343 129.697 47.2076C129.705 47.2663 129.7 47.3309 129.708 47.3999C129.715 47.4601 129.764 47.5203 129.771 47.5878C129.777 47.6494 129.805 47.7111 129.812 47.7771C129.819 47.8388 129.802 47.9063 129.809 47.9708C129.816 48.0354 129.797 48.1 129.806 48.1661C129.815 48.2321 129.824 48.2923 129.833 48.3569C129.841 48.4214 129.872 48.4801 129.883 48.5447C129.893 48.6093 129.894 48.6724 129.906 48.737C129.918 48.8016 129.958 48.8573 129.972 48.9205C129.987 48.9836 129.961 49.0555 129.975 49.1186C129.99 49.1817 130.044 49.2331 130.062 49.2962C130.08 49.3593 130.074 49.4268 130.094 49.4885C130.115 49.5501 130.135 49.6117 130.159 49.6705C130.182 49.7292 130.221 49.7849 130.247 49.8436C130.274 49.9024 130.275 49.9743 130.306 50.03C130.337 50.0858 130.365 50.1475 130.398 50.2018C130.432 50.2561 130.495 50.2928 130.535 50.3441C130.575 50.3955 130.634 50.4278 130.678 50.4748C130.722 50.5217 130.757 50.5746 130.807 50.6157C130.857 50.6568 130.907 50.6949 130.961 50.7287C131.016 50.7624 131.077 50.7771 131.138 50.8035C131.198 50.8299 131.248 50.8666 131.311 50.8842C131.402 50.9092 131.379 50.943 131.485 50.9664C131.54 50.9782 131.607 50.9826 131.673 50.9929C131.734 51.0031 131.804 50.9708 131.865 50.9738C131.934 50.9782 131.998 50.9826 132.05 50.9723C132.147 50.9532 132.164 50.987 132.156 51.0501C132.15 51.0897 132.106 51.1382 132.09 51.2057C132.078 51.2541 132.097 51.3187 132.093 51.3789C132.089 51.4317 132.115 51.4845 132.121 51.5447C132.125 51.5902 132.102 51.6563 132.111 51.7326C132.117 51.7869 132.137 51.8485 132.144 51.9146C132.15 51.9718 132.155 52.0335 132.161 52.098C132.167 52.1568 132.147 52.2213 132.153 52.2844C132.159 52.3446 132.162 52.4063 132.167 52.4694C132.171 52.5325 132.221 52.5897 132.225 52.6514C132.23 52.713 132.205 52.7761 132.208 52.8378C132.211 52.8994 132.234 52.9625 132.236 53.0227C132.237 53.0829 132.192 53.1475 132.19 53.2091C132.189 53.2707 132.18 53.3339 132.175 53.394C132.171 53.4586 132.192 53.5217 132.184 53.5804C132.175 53.645 132.192 53.7125 132.178 53.7683C132.164 53.8343 132.142 53.896 132.119 53.9474C132.095 54.0046 132.08 54.0677 132.058 54.1338C132.037 54.1939 131.961 54.2409 131.943 54.3055C131.925 54.3671 131.905 54.4317 131.889 54.4978C131.873 54.5638 131.903 54.6386 131.886 54.7032C131.868 54.7678 131.868 54.8383 131.849 54.9014C131.83 54.9645 131.805 55.0305 131.783 55.0907C131.759 55.1553 131.699 55.2037 131.673 55.2624C131.643 55.3255 131.614 55.3842 131.579 55.4356C131.539 55.4943 131.504 55.5516 131.455 55.5912C131.402 55.6338 131.339 55.6514 131.273 55.666C131.195 55.6837 131.129 55.6998 131.072 55.7115C130.986 55.7306 130.925 55.7629 130.875 55.7761C130.732 55.8128 130.709 55.8246 130.744 55.8789C130.801 55.964 130.883 55.9332 130.892 56.0785C130.897 56.1489 130.988 56.1974 131.086 56.2164C131.145 56.2282 131.223 56.193 131.31 56.1944C131.377 56.1944 131.451 56.1944 131.532 56.1915C131.607 56.1886 131.679 56.2443 131.739 56.237C131.817 56.2282 131.893 56.2062 131.945 56.1783C132.003 56.146 132.018 56.0653 132.039 55.9919C132.053 55.939 132.103 55.8745 132.097 55.7923C132.093 55.7306 132.028 55.6616 132.034 55.5883C132.04 55.5237 132.05 55.4532 132.062 55.3842C132.074 55.3153 132.147 55.261 132.162 55.1949C132.177 55.1289 132.146 55.0481 132.162 54.985C132.181 54.9131 132.2 54.8456 132.219 54.7884C132.246 54.7032 132.308 54.6504 132.325 54.6108C132.341 54.577 132.333 54.4933 132.372 54.4082C132.399 54.3539 132.466 54.3099 132.496 54.2424C132.522 54.1837 132.55 54.122 132.577 54.056C132.602 53.9943 132.59 53.918 132.612 53.852C132.634 53.7859 132.672 53.7287 132.69 53.6641C132.707 53.5995 132.696 53.5261 132.709 53.4601C132.722 53.394 132.771 53.3309 132.776 53.2649C132.782 53.1944 132.741 53.1298 132.734 53.0653C132.726 53.0007 132.79 52.9361 132.796 52.873C132.801 52.8099 132.812 52.7512 132.829 52.6881C132.847 52.625 132.872 52.5721 132.895 52.5105C132.919 52.4488 132.931 52.3901 132.957 52.3299C132.984 52.2698 132.995 52.2081 133.023 52.1494C133.051 52.0907 133.06 52.0261 133.087 51.9674C133.113 51.9087 133.178 51.8676 133.203 51.8074C133.228 51.7473 133.248 51.6871 133.27 51.6254C133.292 51.5638 133.314 51.5036 133.332 51.4405C133.35 51.3774 133.301 51.3025 133.314 51.238C133.329 51.166 133.389 51.1176 133.403 51.0706C133.43 50.9767 133.442 50.918 133.469 50.9019C133.507 50.8784 133.572 50.9195 133.614 51.009C133.636 51.056 133.614 51.1323 133.638 51.1969C133.657 51.2497 133.666 51.3128 133.686 51.373C133.705 51.4288 133.73 51.486 133.752 51.5447C133.774 51.6034 133.792 51.6621 133.816 51.7179C133.839 51.7737 133.88 51.8295 133.908 51.8882C133.936 51.9469 133.973 51.9997 134.001 52.0569C134.029 52.1142 134.092 52.1553 134.12 52.2111C134.148 52.2668 134.17 52.3314 134.198 52.3857C134.228 52.4444 134.234 52.5134 134.262 52.5677C134.293 52.6264 134.309 52.691 134.336 52.7438C134.367 52.8055 134.406 52.8569 134.43 52.9097C134.461 52.9787 134.499 53.033 134.511 53.0829C134.528 53.1621 134.558 53.212 134.564 53.2649C134.569 53.3177 134.546 53.372 134.553 53.4527C134.558 53.5012 134.561 53.5614 134.571 53.6377C134.578 53.6905 134.619 53.7463 134.63 53.8167C134.639 53.8725 134.583 53.943 134.594 54.0119C134.605 54.0751 134.633 54.1367 134.641 54.2057C134.65 54.2703 134.662 54.3348 134.671 54.4023C134.68 54.4699 134.73 54.5286 134.737 54.5961C134.744 54.6636 134.696 54.7341 134.7 54.8001C134.705 54.8661 134.743 54.9322 134.746 54.9968C134.749 55.0614 134.771 55.1318 134.772 55.1964C134.772 55.2654 134.731 55.3329 134.73 55.396C134.727 55.4679 134.765 55.5384 134.758 55.5985C134.749 55.6734 134.718 55.7394 134.7 55.7937C134.674 55.8759 134.64 55.9567 134.59 55.9757C134.536 55.9963 134.455 55.9699 134.405 56.0036C134.355 56.0374 134.345 56.124 134.306 56.1636C134.258 56.2135 134.223 56.2473 134.209 56.2942C134.192 56.3529 134.186 56.3984 134.262 56.4263C134.367 56.4645 134.381 56.5232 134.402 56.5716C134.425 56.6274 134.455 56.6978 134.581 56.6978C134.633 56.6978 134.702 56.6567 134.778 56.6347C134.838 56.6171 134.919 56.6289 134.982 56.601C135.046 56.5731 135.097 56.5159 135.15 56.4806C135.212 56.4381 135.257 56.3838 135.29 56.3339C135.328 56.2737 135.365 56.193 135.331 56.1269C135.31 56.0873 135.284 56.0344 135.263 55.9537C135.248 55.8979 135.212 55.8407 135.198 55.7703C135.187 55.7115 135.151 55.6514 135.141 55.5839C135.131 55.5222 135.163 55.4532 135.154 55.3872C135.146 55.3241 135.144 55.2595 135.137 55.1949C135.129 55.1303 135.121 55.0672 135.115 55.0026C135.109 54.9381 135.091 54.875 135.087 54.8104C135.082 54.7458 135.074 54.6812 135.071 54.6166C135.068 54.5521 135.104 54.486 135.104 54.4229C135.104 54.3554 135.037 54.2893 135.038 54.2277C135.041 54.1587 135.066 54.0941 135.072 54.034C135.079 53.9635 135.072 53.8931 135.085 53.8387C135.101 53.7712 135.156 53.7155 135.163 53.6523C135.172 53.5848 135.197 53.5173 135.198 53.4527C135.198 53.3852 135.126 53.3206 135.122 53.2561C135.118 53.1886 135.176 53.1166 135.168 53.0521C135.159 52.9845 135.104 52.9244 135.097 52.8598C135.088 52.7923 135.06 52.7262 135.057 52.6631C135.054 52.5956 135.11 52.5296 135.116 52.4664C135.122 52.4121 135.128 52.3446 135.131 52.2727C135.132 52.2125 135.109 52.145 135.11 52.079C135.11 52.0159 135.122 51.9498 135.124 51.8852C135.125 51.8206 135.144 51.7546 135.149 51.6915C135.154 51.6225 135.121 51.5521 135.132 51.4933C135.147 51.42 135.215 51.3774 135.241 51.3304C135.278 51.2673 135.3 51.2277 135.372 51.2424C135.444 51.257 135.51 51.2424 135.576 51.2292C135.642 51.216 135.698 51.166 135.76 51.1411C135.828 51.1132 135.913 51.1352 135.969 51.1132C136.051 51.0809 136.13 51.0178 136.174 51.0545C136.195 51.0706 136.188 51.1631 136.199 51.2644C136.205 51.3187 136.251 51.3803 136.255 51.4523C136.258 51.511 136.235 51.577 136.236 51.646C136.238 51.7062 136.258 51.7707 136.26 51.8368C136.26 51.8984 136.208 51.963 136.208 52.0291C136.208 52.0951 136.268 52.1568 136.268 52.2213C136.268 52.2859 136.196 52.3476 136.196 52.4121C136.196 52.4767 136.207 52.5398 136.205 52.6044C136.204 52.669 136.255 52.735 136.254 52.7981C136.252 52.8613 136.205 52.9258 136.204 52.9889C136.202 53.0521 136.193 53.1181 136.191 53.1812C136.188 53.2473 136.22 53.3133 136.217 53.375C136.214 53.4425 136.176 53.5041 136.171 53.5643C136.167 53.6333 136.213 53.7008 136.207 53.7595C136.201 53.8314 136.158 53.8931 136.152 53.9474C136.145 54.0119 136.12 54.0736 136.111 54.1396C136.102 54.2057 136.08 54.2659 136.067 54.3304C136.054 54.395 136.039 54.4581 136.024 54.5212C136.01 54.5843 135.992 54.6475 135.976 54.7106C135.96 54.7737 135.986 54.85 135.969 54.9116C135.951 54.9733 135.886 55.0247 135.866 55.0848C135.844 55.1494 135.857 55.2243 135.833 55.2815C135.807 55.3461 135.807 55.4209 135.78 55.4752C135.747 55.5398 135.669 55.5692 135.634 55.6161C135.585 55.6807 135.538 55.7306 135.523 55.7703C135.494 55.8524 135.548 55.9258 135.606 55.9523C135.653 55.9728 135.717 55.9933 135.779 56.011C135.889 56.0418 135.894 56.0932 135.954 56.1122C135.989 56.124 136.054 56.1049 136.167 56.0726C136.236 56.0521 136.307 56.055 136.351 56.03C136.412 55.9948 136.455 55.9317 136.474 55.8759C136.49 55.8275 136.442 55.7673 136.429 55.6954C136.418 55.644 136.429 55.5809 136.405 55.5149C136.389 55.4679 136.412 55.4048 136.414 55.3299C136.414 55.2727 136.37 55.2067 136.38 55.1377C136.389 55.079 136.418 55.0188 136.432 54.9542C136.443 54.894 136.454 54.8324 136.47 54.7693C136.486 54.7062 136.499 54.6475 136.517 54.5858C136.534 54.5242 136.561 54.4669 136.58 54.4068C136.599 54.3466 136.614 54.2835 136.633 54.2248C136.652 54.166 136.649 54.0941 136.67 54.0369C136.692 53.9752 136.706 53.9121 136.727 53.8549C136.75 53.7918 136.786 53.736 136.808 53.6817C136.836 53.6127 136.875 53.5599 136.896 53.5144C136.921 53.4615 136.959 53.4102 136.98 53.3485C136.999 53.2913 137.015 53.2311 137.031 53.1695C137.046 53.1108 137.055 53.0491 137.066 52.9875C137.078 52.9258 137.059 52.8613 137.069 52.7996C137.08 52.738 137.112 52.6807 137.119 52.6191C137.127 52.5574 137.116 52.4929 137.124 52.4327C137.131 52.3725 137.147 52.3094 137.153 52.2492C137.158 52.1846 137.188 52.1245 137.191 52.0658C137.194 52.0115 137.215 51.9527 137.233 51.8823C137.247 51.8251 137.243 51.7575 137.265 51.6944C137.284 51.6357 137.325 51.5829 137.349 51.5227C137.372 51.4625 137.385 51.4009 137.412 51.3422C137.438 51.2835 137.487 51.2365 137.515 51.1793C137.543 51.122 137.578 51.0677 137.607 51.0134C137.64 50.9532 137.606 50.8608 137.635 50.8094C137.672 50.7478 137.757 50.7243 137.79 50.6817C137.857 50.5907 137.913 50.5217 137.935 50.5555C137.959 50.5936 137.929 50.6788 137.944 50.7683C137.953 50.827 137.948 50.8975 137.96 50.9723C137.97 51.0354 138.038 51.0912 138.054 51.1616C138.067 51.2248 138.054 51.2996 138.073 51.3671C138.092 51.4302 138.1 51.5022 138.126 51.5667C138.151 51.6284 138.233 51.6636 138.267 51.7252C138.295 51.7766 138.267 51.8559 138.286 51.919C138.302 51.9748 138.311 52.032 138.322 52.0966C138.33 52.1553 138.389 52.2096 138.394 52.2742C138.398 52.3329 138.361 52.3975 138.363 52.4606C138.364 52.5207 138.413 52.5824 138.413 52.6455C138.413 52.7086 138.369 52.7673 138.367 52.8304C138.366 52.8935 138.367 52.9537 138.367 53.0154C138.367 53.077 138.344 53.1372 138.342 53.2003C138.341 53.2634 138.335 53.3236 138.333 53.3852C138.332 53.4469 138.37 53.5085 138.37 53.5716C138.37 53.6347 138.391 53.6949 138.392 53.7566C138.394 53.8182 138.374 53.8798 138.377 53.943C138.38 54.0061 138.351 54.0692 138.355 54.1308C138.36 54.1925 138.367 54.2556 138.374 54.3172C138.382 54.3789 138.441 54.4332 138.448 54.4904C138.457 54.5535 138.445 54.6152 138.452 54.6724C138.461 54.7355 138.473 54.7957 138.482 54.8515C138.491 54.916 138.46 54.9806 138.467 55.0364C138.476 55.101 138.526 55.1568 138.53 55.2111C138.536 55.2771 138.494 55.3402 138.495 55.3945C138.496 55.4635 138.532 55.5237 138.523 55.575C138.511 55.6426 138.504 55.7101 138.469 55.7541C138.433 55.7981 138.357 55.7923 138.294 55.8202C138.236 55.8451 138.182 55.8759 138.138 55.9038C138.082 55.939 138.075 56.0183 138.042 56.055C137.997 56.1064 137.972 56.1386 137.966 56.1871C137.96 56.2429 137.981 56.2663 138.029 56.3104C138.108 56.3852 138.086 56.4557 138.107 56.4924C138.123 56.5203 138.139 56.5834 138.261 56.5907C138.314 56.5936 138.38 56.5702 138.449 56.5731C138.51 56.5746 138.573 56.5379 138.635 56.5349C138.696 56.532 138.767 56.5775 138.824 56.5687C138.893 56.5584 138.94 56.5012 138.987 56.4748C139.048 56.441 139.127 56.4102 139.118 56.3412C139.109 56.2678 139.04 56.2164 139.026 56.1621C139.006 56.0932 138.993 56.0344 138.976 55.9757C138.958 55.917 138.933 55.8568 138.927 55.7864C138.924 55.7585 138.907 55.691 138.901 55.5941C138.898 55.5384 138.936 55.4708 138.932 55.3989C138.929 55.3387 138.929 55.2742 138.924 55.2052C138.921 55.1435 138.898 55.0804 138.895 55.0129C138.892 54.9498 138.914 54.8838 138.911 54.8177C138.908 54.7517 138.857 54.6915 138.854 54.6254C138.851 54.5594 138.857 54.4963 138.854 54.4317C138.851 54.3671 138.884 54.3011 138.883 54.2365C138.882 54.1719 138.861 54.1073 138.858 54.0428C138.855 53.9782 138.901 53.9107 138.898 53.8461C138.896 53.7786 138.893 53.714 138.892 53.6509C138.89 53.5819 138.824 53.5188 138.824 53.4586C138.824 53.3867 138.827 53.3221 138.827 53.2634C138.827 53.1827 138.832 53.1152 138.833 53.0697C138.837 52.9963 138.893 52.9332 138.893 52.8759C138.893 52.804 138.832 52.7424 138.827 52.6837C138.823 52.6176 138.876 52.5516 138.87 52.4855C138.864 52.4268 138.832 52.3666 138.83 52.2947C138.829 52.2375 138.807 52.1729 138.808 52.101C138.808 52.0525 138.862 51.988 138.87 51.9072C138.876 51.8485 138.851 51.7796 138.859 51.7076C138.867 51.646 138.873 51.5799 138.883 51.5124C138.892 51.4493 138.865 51.3789 138.876 51.3114C138.886 51.2438 138.923 51.1851 138.933 51.1206C138.943 51.056 138.964 50.9914 138.976 50.9268C138.987 50.8622 139.033 50.8021 139.046 50.7389C139.059 50.6714 139.027 50.598 139.04 50.5349C139.055 50.466 139.074 50.4014 139.089 50.3427C139.106 50.2693 139.127 50.2047 139.145 50.1519C139.183 50.0374 139.196 50.0051 139.224 50.033C139.258 50.0667 139.296 50.1181 139.344 50.1812C139.381 50.2297 139.431 50.2766 139.477 50.328C139.519 50.3779 139.602 50.3896 139.65 50.4322C139.7 50.4777 139.746 50.5173 139.802 50.5467C139.862 50.5775 139.915 50.6083 139.979 50.6054C140.085 50.5995 140.085 50.5511 140.01 50.4733C139.975 50.4351 139.921 50.394 139.866 50.3353C139.825 50.2913 139.791 50.2341 139.746 50.1783C139.708 50.1284 139.674 50.0755 139.637 50.0168C139.603 49.9625 139.571 49.9082 139.544 49.8451C139.519 49.7864 139.446 49.7409 139.428 49.6749C139.412 49.6132 139.415 49.5428 139.408 49.4738C139.4 49.4092 139.409 49.3432 139.408 49.28C139.406 49.2169 139.375 49.1509 139.378 49.0863C139.381 49.0217 139.403 48.9586 139.406 48.894C139.409 48.8295 139.45 48.7678 139.452 48.7032C139.453 48.6387 139.434 48.5741 139.431 48.5095C139.428 48.4449 139.441 48.3803 139.433 48.3143C139.424 48.2482 139.412 48.1866 139.397 48.122C139.384 48.0618 139.343 48.0046 139.321 47.943C139.3 47.8843 139.281 47.8226 139.253 47.7624C139.227 47.7067 139.198 47.6494 139.164 47.5907C139.133 47.5379 139.071 47.5026 139.033 47.4469C138.998 47.397 139.004 47.3133 138.962 47.2605C138.924 47.212 138.871 47.1709 138.827 47.121C138.786 47.0741 138.752 47.0183 138.707 46.9699C138.664 46.9244 138.624 46.8701 138.577 46.8231C138.502 46.7556 138.532 46.7893 138.47 46.6719C138.445 46.6235 138.366 46.5853 138.341 46.5105C138.322 46.4547 138.311 46.3857 138.295 46.3123C138.285 46.2624 138.254 46.2037 138.232 46.1303C138.214 46.0746 138.222 46.0041 138.197 45.9381C138.175 45.8794 138.183 45.806 138.157 45.7443C138.131 45.6827 138.057 45.6475 138.028 45.5902C137.998 45.533 137.97 45.4743 137.937 45.4185C137.903 45.3627 137.895 45.2849 137.857 45.235C137.816 45.1822 137.754 45.147 137.709 45.1044C137.659 45.0574 137.6 45.0281 137.546 44.9987C137.487 44.9679 137.431 44.9107 137.368 44.9048C137.305 44.8989 137.25 44.9679 137.184 44.9899C137.128 45.009 137.041 44.9797 136.983 45.0222C136.93 45.0604 136.892 45.1132 136.85 45.1528C136.803 45.1969 136.798 45.2717 136.764 45.3172C136.726 45.3686 136.677 45.4053 136.651 45.4567C136.621 45.5139 136.621 45.577 136.602 45.6298C136.581 45.6915 136.53 45.7399 136.517 45.7928C136.501 45.8603 136.512 45.9278 136.496 45.9762C136.473 46.0467 136.423 46.0658 136.36 46.0702C136.318 46.0731 136.271 46.0628 136.196 46.0276C136.133 45.9982 136.049 45.9924 136.01 45.9381C135.973 45.8867 136.001 45.7957 135.977 45.7297C135.957 45.6695 135.88 45.621 135.866 45.5521C135.851 45.4831 135.836 45.4214 135.825 45.3554C135.813 45.2893 135.872 45.2086 135.858 45.144C135.844 45.0765 135.816 45.009 135.794 44.9503C135.769 44.8843 135.695 44.849 135.654 44.7991C135.613 44.7492 135.569 44.7213 135.503 44.6964C135.448 44.6758 135.392 44.5995 135.316 44.6025C135.246 44.6054 135.184 44.6788 135.122 44.6846C135.052 44.6935 134.981 44.6626 134.921 44.6788C134.852 44.6964 134.783 44.7037 134.725 44.7301C134.664 44.758 134.621 44.8197 134.569 44.8593C134.518 44.8989 134.456 44.9298 134.411 44.9826C134.37 45.0296 134.342 45.0927 134.302 45.1499C134.267 45.2013 134.242 45.2629 134.206 45.3246C134.176 45.3789 134.151 45.4405 134.118 45.5022C134.089 45.5579 134.042 45.6078 134.01 45.6695C133.977 45.7311 133.977 45.8045 133.949 45.8515C133.911 45.9146 133.845 45.9454 133.813 45.985C133.763 46.0452 133.736 46.1083 133.695 46.1377C133.641 46.1758 133.567 46.167 133.514 46.2023C133.472 46.2301 133.433 46.2756 133.383 46.3344C133.351 46.374 133.283 46.4033 133.245 46.4664C133.217 46.5134 133.22 46.5853 133.188 46.6484C133.16 46.7027 133.128 46.7571 133.097 46.8128C133.066 46.8686 133.059 46.9361 133.025 46.9889C132.991 47.0418 132.919 47.0697 132.882 47.1196C132.846 47.1695 132.823 47.2326 132.785 47.281C132.747 47.3295 132.704 47.3779 132.662 47.4234C132.619 47.4689 132.562 47.5012 132.516 47.5408C132.468 47.5834 132.425 47.6289 132.375 47.6626C132.321 47.6993 132.271 47.7345 132.215 47.758C132.156 47.783 132.095 47.7889 132.034 47.7977C131.974 47.8065 131.915 47.805 131.853 47.7933C131.795 47.783 131.721 47.8035 131.662 47.7727C131.611 47.7463 131.593 47.6626 131.542 47.6186C131.49 47.5746 131.424 47.557 131.386 47.51C131.345 47.4601 131.292 47.4161 131.263 47.3617C131.233 47.3074 131.263 47.2253 131.242 47.1651C131.222 47.1049 131.201 47.0491 131.191 46.9875C131.18 46.9258 131.133 46.8657 131.13 46.804C131.127 46.7424 131.149 46.6763 131.155 46.6147C131.161 46.553 131.197 46.4929 131.207 46.4312C131.219 46.3666 131.176 46.2918 131.191 46.2345C131.208 46.1685 131.276 46.1215 131.294 46.0672C131.317 45.9953 131.294 45.9175 131.311 45.872C131.335 45.8162 131.401 45.7707 131.416 45.7062C131.43 45.646 131.426 45.5785 131.432 45.5139C131.438 45.4493 131.446 45.3862 131.44 45.3216C131.435 45.2571 131.374 45.2071 131.357 45.1455C131.339 45.0868 131.366 45.0075 131.335 44.9503C131.307 44.896 131.254 44.8505 131.214 44.7991C131.163 44.7316 131.095 44.6905 131.061 44.6377C131.011 44.5584 131.016 44.4733 130.991 44.4263C130.942 44.3324 130.904 44.2898 130.826 44.284C130.759 44.2781 130.689 44.2737 130.642 44.2972C130.588 44.3236 130.572 44.4087 130.526 44.4425C130.481 44.4762 130.413 44.4674 130.354 44.4792C130.307 44.488 130.249 44.5276 130.181 44.5012L130.19 44.5085Z" fill="#CEA170"/>
</g>
<g clip-path="url(#clip2_919_10368)">
<path d="M161.287 4.96352C161.294 5.01927 161.356 5.09892 161.365 5.20724C161.372 5.27892 161.356 5.36494 161.362 5.45893C161.368 5.53539 161.407 5.61663 161.413 5.70584C161.419 5.78389 161.306 5.87628 161.311 5.9639C161.316 6.04354 161.392 6.1216 161.397 6.20921C161.402 6.28886 161.439 6.37169 161.443 6.45771C161.448 6.53896 161.38 6.62498 161.383 6.711C161.386 6.79702 161.478 6.87188 161.482 6.9579C161.485 7.04392 161.41 7.12517 161.413 7.21119C161.416 7.29721 161.477 7.37526 161.478 7.45969C161.48 7.54412 161.439 7.62695 161.44 7.71138C161.442 7.7958 161.427 7.87704 161.427 7.96147C161.427 8.0459 161.411 8.12714 161.411 8.21157C161.411 8.29599 161.445 8.37724 161.443 8.46166C161.442 8.54609 161.483 8.62892 161.482 8.71335C161.48 8.79778 161.461 8.87902 161.459 8.96345C161.458 9.04787 161.37 9.12752 161.368 9.21035C161.367 9.29319 161.34 9.37443 161.337 9.45886C161.333 9.54328 161.357 9.62612 161.353 9.70895C161.348 9.79179 161.402 9.8794 161.396 9.96223C161.389 10.0451 161.443 10.1327 161.437 10.2171C161.431 10.3015 161.333 10.3764 161.325 10.4592C161.317 10.5421 161.37 10.6313 161.36 10.7141C161.351 10.7969 161.236 10.8686 161.227 10.9515C161.217 11.0343 161.27 11.1251 161.258 11.2079C161.247 11.2908 161.313 11.3847 161.302 11.4676C161.29 11.5504 161.271 11.6333 161.258 11.7161C161.246 11.7989 161.11 11.861 161.097 11.9439C161.085 12.0267 161.19 12.1303 161.174 12.2131C161.158 12.2959 161.062 12.3628 161.045 12.4441C161.027 12.5253 161.023 12.6113 161.003 12.6926C160.984 12.7738 160.889 12.8375 160.868 12.9172C160.847 12.9968 160.913 13.102 160.89 13.1816C160.868 13.2613 160.895 13.3584 160.871 13.4381C160.847 13.5177 160.745 13.5751 160.72 13.6531C160.694 13.7312 160.713 13.8284 160.685 13.9064C160.656 13.9845 160.61 14.0593 160.579 14.1358C160.549 14.2123 160.505 14.2871 160.471 14.362C160.438 14.4369 160.32 14.4751 160.283 14.5484C160.246 14.6217 160.281 14.7348 160.242 14.8064C160.202 14.8781 160.138 14.9387 160.093 15.0087C160.03 15.1107 160.076 15.3003 160.189 15.3433C160.256 15.3688 160.332 15.4181 160.426 15.45C160.501 15.4739 160.605 15.4341 160.694 15.4595C160.772 15.4819 160.842 15.5583 160.93 15.579C161.01 15.5981 161.102 15.5854 161.19 15.6013C161.271 15.6173 161.354 15.6587 161.44 15.6698C161.526 15.681 161.62 15.5902 161.708 15.5981C161.796 15.6061 161.872 15.6905 161.96 15.6937C162.047 15.6969 162.13 15.6252 162.218 15.6252C162.306 15.6252 162.385 15.6188 162.473 15.6125C162.561 15.6061 162.636 15.5711 162.722 15.5599C162.808 15.5488 162.902 15.6173 162.986 15.6013C163.071 15.5854 163.152 15.5567 163.235 15.536C163.318 15.5153 163.401 15.4962 163.484 15.4691C163.566 15.442 163.662 15.4516 163.742 15.4197C163.821 15.3879 163.861 15.27 163.939 15.2318C164.005 15.1983 164.105 15.168 164.104 15.0948C164.102 15.0326 164.018 14.9498 164.013 14.8431C164.01 14.7682 164.024 14.6822 164.019 14.5882C164.016 14.5101 164.072 14.4209 164.067 14.3301C164.062 14.2505 163.968 14.1708 163.962 14.0816C163.957 14.0004 164.059 13.908 164.053 13.8204C164.046 13.7391 164.037 13.6531 164.03 13.5655C164.024 13.4827 163.931 13.4046 163.923 13.3186C163.916 13.2326 163.874 13.1545 163.868 13.0685C163.861 12.9825 163.888 12.8981 163.88 12.812C163.872 12.726 163.831 12.648 163.823 12.5619C163.815 12.4759 163.871 12.3883 163.861 12.3023C163.852 12.2163 163.785 12.1414 163.775 12.0554C163.766 11.9694 163.872 11.8738 163.863 11.7878C163.853 11.7017 163.79 11.6269 163.778 11.5409C163.767 11.4548 163.756 11.3736 163.745 11.2876C163.734 11.2016 163.759 11.1155 163.748 11.0311C163.737 10.9467 163.74 10.8607 163.727 10.7762C163.715 10.6918 163.689 10.6106 163.675 10.5261C163.66 10.4417 163.578 10.37 163.563 10.2856C163.549 10.2012 163.573 10.112 163.558 10.0275C163.544 9.94312 163.471 9.87143 163.455 9.78701C163.439 9.70258 163.442 9.61656 163.426 9.53373C163.41 9.45089 163.501 9.34416 163.484 9.26133C163.466 9.1785 163.303 9.12593 163.286 9.0415C163.268 8.95707 163.294 8.86628 163.275 8.78344C163.256 8.70061 163.335 8.59388 163.315 8.51104C163.294 8.42821 163.244 8.35175 163.224 8.26891C163.203 8.18608 163.173 8.10484 163.15 8.0236C163.128 7.94236 163.037 7.87864 163.013 7.7974C162.989 7.71616 163.017 7.61898 162.991 7.53774C162.966 7.4565 162.93 7.37685 162.905 7.29721C162.879 7.21756 162.824 7.14428 162.797 7.06463C162.769 6.98499 162.785 6.88622 162.755 6.80817C162.725 6.73011 162.712 6.64091 162.68 6.56126C162.648 6.48161 162.602 6.40674 162.569 6.33028C162.535 6.25382 162.436 6.20125 162.401 6.12638C162.366 6.05151 162.315 5.97823 162.277 5.90336C162.239 5.82849 162.172 5.76796 162.132 5.69469C162.092 5.62141 162.079 5.52902 162.036 5.45733C161.993 5.38565 162.004 5.27255 161.957 5.20405C161.909 5.13556 161.848 5.06865 161.796 5.00334C161.743 4.93803 161.703 4.8536 161.647 4.79148C161.571 4.70546 161.388 4.72138 161.311 4.8074L161.367 4.85679C161.332 4.89661 161.284 4.91254 161.29 4.96511L161.287 4.96352Z" fill="#C49841"/>
<mask id="mask1_919_10368" style="mask-type:luminance" maskUnits="userSpaceOnUse" x="160" y="4" width="5" height="12">
<path d="M161.288 4.96352C161.295 5.01927 161.357 5.09892 161.366 5.20724C161.373 5.27892 161.357 5.36494 161.363 5.45893C161.369 5.53539 161.408 5.61663 161.414 5.70584C161.42 5.78389 161.307 5.87628 161.312 5.9639C161.317 6.04354 161.393 6.1216 161.398 6.20921C161.403 6.28886 161.44 6.37169 161.444 6.45771C161.449 6.53896 161.381 6.62498 161.384 6.711C161.387 6.79702 161.479 6.87188 161.483 6.9579C161.486 7.04392 161.411 7.12517 161.414 7.21119C161.417 7.29721 161.478 7.37526 161.479 7.45969C161.481 7.54412 161.44 7.62695 161.441 7.71138C161.443 7.7958 161.428 7.87704 161.428 7.96147C161.428 8.0459 161.412 8.12714 161.412 8.21157C161.412 8.29599 161.446 8.37724 161.444 8.46166C161.443 8.54609 161.484 8.62892 161.483 8.71335C161.481 8.79778 161.462 8.87902 161.46 8.96345C161.459 9.04787 161.371 9.12752 161.369 9.21035C161.368 9.29319 161.341 9.37443 161.338 9.45886C161.334 9.54328 161.358 9.62612 161.353 9.70895C161.349 9.79179 161.403 9.8794 161.397 9.96223C161.39 10.0451 161.444 10.1327 161.438 10.2171C161.432 10.3015 161.334 10.3764 161.326 10.4592C161.318 10.5421 161.371 10.6313 161.361 10.7141C161.352 10.7969 161.237 10.8686 161.228 10.9515C161.218 11.0343 161.271 11.1251 161.259 11.2079C161.248 11.2908 161.314 11.3847 161.302 11.4676C161.291 11.5504 161.272 11.6333 161.259 11.7161C161.247 11.7989 161.111 11.861 161.098 11.9439C161.086 12.0267 161.191 12.1303 161.175 12.2131C161.159 12.2959 161.063 12.3628 161.046 12.4441C161.028 12.5253 161.024 12.6113 161.004 12.6926C160.985 12.7738 160.89 12.8375 160.869 12.9172C160.848 12.9968 160.914 13.102 160.891 13.1816C160.869 13.2613 160.896 13.3584 160.872 13.4381C160.848 13.5177 160.746 13.5751 160.721 13.6531C160.695 13.7312 160.714 13.8284 160.686 13.9064C160.657 13.9845 160.611 14.0593 160.58 14.1358C160.55 14.2123 160.506 14.2871 160.472 14.362C160.439 14.4369 160.321 14.4751 160.284 14.5484C160.247 14.6217 160.282 14.7348 160.243 14.8064C160.203 14.8781 160.139 14.9387 160.094 15.0087C160.031 15.1107 160.077 15.3003 160.19 15.3433C160.257 15.3688 160.333 15.4181 160.427 15.45C160.502 15.4739 160.606 15.4341 160.695 15.4595C160.773 15.4819 160.843 15.5583 160.931 15.579C161.011 15.5981 161.103 15.5854 161.191 15.6013C161.272 15.6173 161.355 15.6587 161.441 15.6698C161.527 15.681 161.621 15.5902 161.709 15.5981C161.797 15.6061 161.873 15.6905 161.961 15.6937C162.048 15.6969 162.131 15.6252 162.219 15.6252C162.307 15.6252 162.386 15.6188 162.474 15.6125C162.562 15.6061 162.637 15.5711 162.723 15.5599C162.809 15.5488 162.903 15.6173 162.987 15.6013C163.072 15.5854 163.153 15.5567 163.236 15.536C163.319 15.5153 163.402 15.4962 163.485 15.4691C163.567 15.442 163.663 15.4516 163.743 15.4197C163.822 15.3879 163.862 15.27 163.94 15.2318C164.006 15.1983 164.106 15.168 164.105 15.0948C164.103 15.0326 164.018 14.9498 164.014 14.8431C164.011 14.7682 164.025 14.6822 164.02 14.5882C164.017 14.5101 164.073 14.4209 164.068 14.3301C164.063 14.2505 163.969 14.1708 163.963 14.0816C163.958 14.0004 164.06 13.908 164.054 13.8204C164.047 13.7391 164.038 13.6531 164.031 13.5655C164.025 13.4827 163.932 13.4046 163.924 13.3186C163.916 13.2326 163.875 13.1545 163.869 13.0685C163.862 12.9825 163.889 12.8981 163.881 12.812C163.873 12.726 163.832 12.648 163.824 12.5619C163.816 12.4759 163.872 12.3883 163.862 12.3023C163.853 12.2163 163.786 12.1414 163.776 12.0554C163.767 11.9694 163.873 11.8738 163.864 11.7878C163.854 11.7017 163.791 11.6269 163.779 11.5409C163.768 11.4548 163.757 11.3736 163.746 11.2876C163.735 11.2016 163.76 11.1155 163.749 11.0311C163.738 10.9467 163.741 10.8607 163.728 10.7762C163.716 10.6918 163.69 10.6106 163.676 10.5261C163.661 10.4417 163.579 10.37 163.564 10.2856C163.55 10.2012 163.574 10.112 163.559 10.0275C163.545 9.94312 163.472 9.87143 163.456 9.78701C163.44 9.70258 163.443 9.61656 163.427 9.53373C163.411 9.45089 163.502 9.34416 163.485 9.26133C163.467 9.1785 163.304 9.12593 163.287 9.0415C163.269 8.95707 163.295 8.86628 163.276 8.78344C163.257 8.70061 163.336 8.59388 163.316 8.51104C163.295 8.42821 163.245 8.35175 163.225 8.26891C163.204 8.18608 163.174 8.10484 163.151 8.0236C163.129 7.94236 163.038 7.87864 163.014 7.7974C162.99 7.71616 163.018 7.61898 162.992 7.53774C162.967 7.4565 162.931 7.37685 162.906 7.29721C162.88 7.21756 162.825 7.14428 162.798 7.06463C162.77 6.98499 162.786 6.88622 162.756 6.80817C162.726 6.73011 162.713 6.64091 162.681 6.56126C162.649 6.48161 162.603 6.40674 162.57 6.33028C162.536 6.25382 162.437 6.20125 162.402 6.12638C162.367 6.05151 162.316 5.97823 162.278 5.90336C162.24 5.82849 162.173 5.76796 162.133 5.69469C162.093 5.62141 162.08 5.52902 162.037 5.45733C161.994 5.38565 162.005 5.27255 161.958 5.20405C161.91 5.13556 161.849 5.06865 161.797 5.00334C161.744 4.93803 161.704 4.8536 161.648 4.79148C161.572 4.70546 161.389 4.72138 161.312 4.8074L161.368 4.85679C161.333 4.89661 161.285 4.91254 161.291 4.96511L161.288 4.96352Z" fill="white"/>
</mask>
<g mask="url(#mask1_919_10368)">
<path d="M163.077 6.48654C162.986 6.57256 162.922 6.42442 162.798 6.42442C162.674 6.42442 162.674 6.4738 162.548 6.4738C162.422 6.4738 162.423 6.52955 162.299 6.52955C162.175 6.52955 162.175 6.49769 162.049 6.49769C161.923 6.49769 161.925 6.52318 161.799 6.52318C161.673 6.52318 161.674 6.37981 161.548 6.37981C161.422 6.37981 161.422 6.43716 161.298 6.43716C161.174 6.43716 161.172 6.52318 161.048 6.52318C160.924 6.52318 160.93 6.4961 160.839 6.41008C160.753 6.33043 160.753 6.3368 160.753 6.22052C160.753 6.10423 160.788 6.10423 160.788 5.98794C160.788 5.87166 160.734 5.87166 160.734 5.75378C160.734 5.6359 160.802 5.6359 160.802 5.51961C160.802 5.40333 160.712 5.36669 160.798 5.28704C160.888 5.20102 160.92 5.36191 161.045 5.36191C161.169 5.36191 161.169 5.20898 161.295 5.20898C161.421 5.20898 161.419 5.24562 161.544 5.24562C161.668 5.24562 161.668 5.3189 161.794 5.3189C161.92 5.3189 161.918 5.21217 162.044 5.21217C162.17 5.21217 162.168 5.27111 162.294 5.27111C162.42 5.27111 162.42 5.23606 162.545 5.23606C162.669 5.23606 162.67 5.36032 162.795 5.36032C162.919 5.36032 162.935 5.22014 163.026 5.30456C163.112 5.38421 163.061 5.40173 163.061 5.51802C163.061 5.63431 162.996 5.63431 162.996 5.75059C162.996 5.86688 162.975 5.86688 162.975 5.98476C162.975 6.10264 163.072 6.08989 163.102 6.20299C163.141 6.34158 163.16 6.40371 163.075 6.48495L163.077 6.48654Z" fill="#876425"/>
<path d="M163.487 8.7017C163.397 8.78613 163.378 8.7702 163.255 8.7702C163.133 8.7702 163.133 8.70967 163.01 8.70967C162.887 8.70967 162.887 8.66506 162.765 8.66506C162.642 8.66506 162.642 8.73993 162.519 8.73993C162.396 8.73993 162.396 8.69055 162.274 8.69055C162.151 8.69055 162.151 8.78772 162.028 8.78772C161.905 8.78772 161.905 8.64595 161.783 8.64595C161.66 8.64595 161.66 8.69692 161.537 8.69692C161.414 8.69692 161.414 8.69533 161.292 8.69533C161.169 8.69533 161.169 8.79728 161.045 8.79728C160.92 8.79728 160.919 8.7702 160.83 8.68418C160.745 8.60453 160.786 8.59975 160.786 8.48347C160.786 8.36718 160.869 8.36718 160.869 8.25089C160.869 8.13461 160.734 8.13461 160.734 8.01673C160.734 7.89885 160.804 7.89885 160.804 7.78256C160.804 7.66628 160.721 7.6392 160.806 7.55796C160.89 7.47671 160.919 7.46875 161.042 7.46875C161.164 7.46875 161.164 7.50539 161.287 7.50539C161.41 7.50539 161.41 7.57866 161.532 7.57866C161.655 7.57866 161.655 7.52928 161.778 7.52928C161.901 7.52928 161.901 7.47353 162.023 7.47353C162.146 7.47353 162.146 7.50539 162.269 7.50539C162.392 7.50539 162.392 7.4799 162.514 7.4799C162.637 7.4799 162.637 7.62327 162.76 7.62327C162.882 7.62327 162.882 7.56592 163.005 7.56592C163.128 7.56592 163.128 7.4799 163.252 7.4799C163.377 7.4799 163.369 7.50698 163.458 7.593C163.542 7.67265 163.544 7.66628 163.544 7.78256C163.544 7.89885 163.509 7.89885 163.509 8.01514C163.509 8.13142 163.563 8.13142 163.563 8.2493C163.563 8.36718 163.472 8.36877 163.495 8.48506C163.517 8.60135 163.571 8.62206 163.485 8.7033L163.487 8.7017Z" fill="#876425"/>
<path d="M163.942 11.1056C163.853 11.19 163.874 11.233 163.749 11.233C163.625 11.233 163.626 11.1884 163.504 11.1884C163.381 11.1884 163.381 11.0865 163.258 11.0865C163.136 11.0865 163.136 11.1167 163.013 11.1167C162.89 11.1167 162.89 11.1247 162.767 11.1247C162.645 11.1247 162.645 11.1948 162.522 11.1948C162.399 11.1948 162.399 11.1406 162.276 11.1406C162.154 11.1406 162.154 11.1502 162.031 11.1502C161.908 11.1502 161.908 11.1789 161.786 11.1789C161.663 11.1789 161.663 11.1295 161.54 11.1295C161.417 11.1295 161.417 11.1104 161.293 11.1104C161.169 11.1104 161.17 11.1231 161.046 11.1231C160.922 11.1231 160.869 11.2681 160.778 11.1837C160.694 11.104 160.756 11.0451 160.756 10.9288C160.756 10.8125 160.726 10.8125 160.726 10.6962C160.726 10.5799 160.762 10.5799 160.762 10.462C160.762 10.3442 160.834 10.3442 160.834 10.2279C160.834 10.1116 160.73 10.0925 160.815 10.0112C160.899 9.92999 160.92 10.0399 161.043 10.0399C161.166 10.0399 161.166 10.0144 161.288 10.0144C161.411 10.0144 161.411 9.94114 161.534 9.94114C161.656 9.94114 161.656 10.0017 161.779 10.0017C161.902 10.0017 161.902 10.0463 162.025 10.0463C162.147 10.0463 162.147 9.97141 162.27 9.97141C162.393 9.97141 162.393 10.0208 162.516 10.0208C162.638 10.0208 162.638 9.92362 162.761 9.92362C162.884 9.92362 162.884 10.0654 163.006 10.0654C163.129 10.0654 163.129 10.0144 163.252 10.0144C163.375 10.0144 163.375 10.016 163.499 10.016C163.623 10.016 163.622 9.91406 163.746 9.91406C163.87 9.91406 163.872 9.94114 163.961 10.0272C164.046 10.1068 164.004 10.1116 164.004 10.2279C164.004 10.3442 163.921 10.3442 163.921 10.4604C163.921 10.5767 164.057 10.5767 164.057 10.6946C164.057 10.8125 163.976 10.8125 163.987 10.9288C163.996 11.026 164.025 11.026 163.94 11.1056H163.942Z" fill="#876425"/>
<path d="M163.969 13.6297C163.88 13.7141 163.872 13.7094 163.749 13.7094C163.626 13.7094 163.626 13.601 163.504 13.601C163.381 13.601 163.381 13.6058 163.258 13.6058C163.136 13.6058 163.136 13.6918 163.013 13.6918C162.89 13.6918 162.89 13.7269 162.767 13.7269C162.645 13.7269 162.645 13.6903 162.522 13.6903C162.399 13.6903 162.399 13.7237 162.276 13.7237C162.154 13.7237 162.154 13.66 162.031 13.66C161.908 13.66 161.908 13.7189 161.785 13.7189C161.663 13.7189 161.663 13.601 161.54 13.601C161.417 13.601 161.417 13.6552 161.293 13.6552C161.169 13.6552 161.17 13.6552 161.046 13.6552C160.922 13.6552 160.915 13.7126 160.824 13.6281C160.74 13.5485 160.853 13.5389 160.853 13.4226C160.853 13.3063 160.84 13.3063 160.84 13.1901C160.84 13.0738 160.769 13.0738 160.769 12.9559C160.769 12.838 160.807 12.838 160.807 12.7217C160.807 12.6054 160.679 12.5322 160.764 12.4509C160.848 12.3697 160.922 12.4557 161.044 12.4557C161.167 12.4557 161.167 12.5656 161.29 12.5656C161.412 12.5656 161.412 12.4175 161.535 12.4175C161.658 12.4175 161.658 12.4621 161.781 12.4621C161.903 12.4621 161.903 12.564 162.026 12.564C162.149 12.564 162.149 12.5338 162.272 12.5338C162.394 12.5338 162.394 12.5258 162.517 12.5258C162.64 12.5258 162.64 12.4557 162.763 12.4557C162.885 12.4557 162.885 12.5099 163.008 12.5099C163.131 12.5099 163.131 12.5003 163.253 12.5003C163.376 12.5003 163.376 12.4716 163.501 12.4716C163.625 12.4716 163.623 12.521 163.748 12.521C163.872 12.521 163.869 12.4414 163.958 12.5258C164.042 12.6054 163.955 12.6038 163.955 12.7217C163.955 12.8396 164.023 12.838 164.023 12.9543C164.023 13.0706 164.036 13.0706 164.036 13.1885C164.036 13.3063 164.046 13.2952 164.065 13.4115C164.084 13.5278 164.052 13.5501 163.968 13.6297H163.969Z" fill="#876425"/>
</g>
<path d="M162.065 4.61224C161.995 4.5772 161.92 4.53419 161.839 4.49755C161.765 4.4641 161.698 4.40675 161.615 4.37171C161.541 4.33985 161.443 4.35259 161.362 4.32073C161.285 4.29047 161.198 4.28569 161.117 4.25542C161.035 4.22515 160.983 4.13435 160.901 4.10727C160.82 4.08019 160.71 4.15506 160.629 4.12958C160.548 4.10409 160.506 3.95435 160.423 3.93205C160.34 3.90975 160.23 4.00373 160.147 3.98302C160.065 3.96232 160.006 3.8524 159.923 3.83329C159.84 3.81417 159.746 3.85399 159.663 3.83806C159.58 3.82213 159.51 3.71859 159.427 3.70585C159.344 3.6931 159.25 3.74567 159.166 3.73771C159.081 3.72974 158.997 3.72337 158.912 3.717C158.828 3.71063 158.743 3.65009 158.659 3.6485C158.574 3.64691 158.487 3.67558 158.402 3.67877C158.318 3.68195 158.238 3.76638 158.153 3.77435C158.069 3.78231 157.983 3.76319 157.9 3.77435C157.817 3.7855 157.733 3.79665 157.65 3.81417C157.567 3.83169 157.5 3.90497 157.419 3.92727C157.337 3.94957 157.215 3.83647 157.133 3.86355C157.052 3.89063 156.976 3.93523 156.897 3.96869C156.819 4.00214 156.795 4.15028 156.721 4.18852C156.646 4.22675 156.534 4.19489 156.461 4.23949C156.387 4.28409 156.349 4.37489 156.279 4.42427C156.209 4.47366 156.174 4.5549 156.107 4.61065C156.04 4.6664 155.884 4.61065 155.822 4.66959C155.759 4.72853 155.772 4.85756 155.713 4.92128C155.654 4.985 155.546 4.99774 155.492 5.06465C155.437 5.13155 155.45 5.24465 155.401 5.31315C155.351 5.38164 155.248 5.41032 155.202 5.48359C155.155 5.55687 155.103 5.62218 155.061 5.69705C155.02 5.77192 154.996 5.85316 154.958 5.93122C154.919 6.00927 154.953 6.11441 154.918 6.19246C154.883 6.27052 154.848 6.3422 154.816 6.42344C154.784 6.50468 154.719 6.57477 154.746 6.64805C154.774 6.72451 154.813 6.84717 154.886 6.88699C154.954 6.92363 155.09 6.94434 155.176 6.92204C155.286 6.89337 155.281 6.87425 155.39 6.84558C155.498 6.8169 155.469 6.7038 155.579 6.67513C155.689 6.64646 155.708 6.71973 155.818 6.69265C155.849 6.68469 155.933 6.66717 155.943 6.6369C155.963 6.56522 155.943 6.45849 155.976 6.35654C156.005 6.27211 155.951 6.14786 155.987 6.06025C156.024 5.97263 156.108 5.89617 156.15 5.8213C156.207 5.71617 156.276 5.60147 156.333 5.57758C156.413 5.54413 156.418 5.69068 156.411 5.8436C156.408 5.92484 156.481 6.02998 156.47 6.13034C156.459 6.22432 156.364 6.31194 156.356 6.40114C156.351 6.46327 156.453 6.54769 156.515 6.53176C156.639 6.4999 156.612 6.39636 156.736 6.3645C156.861 6.33264 156.872 6.37247 156.996 6.34061C157.121 6.30875 157.146 6.40433 157.27 6.37247C157.395 6.34061 157.382 6.28804 157.506 6.25618C157.538 6.24822 157.508 6.19724 157.517 6.16538C157.537 6.0937 157.567 6.01883 157.589 5.936C157.61 5.86113 157.667 5.79263 157.69 5.71457C157.712 5.63652 157.685 5.54413 157.707 5.46766C157.729 5.3912 157.78 5.31793 157.804 5.24465C157.831 5.16182 157.831 5.07102 157.855 5.00571C157.895 4.90376 158.034 4.88145 158.063 4.84641C158.109 4.78747 158.088 4.85437 158.059 5.02164C158.048 5.09332 158.063 5.18571 158.045 5.2797C158.029 5.35934 157.94 5.42943 157.922 5.51545C157.905 5.60147 157.973 5.70183 157.957 5.78466C157.94 5.87228 157.847 5.94237 157.831 6.02042C157.819 6.08573 157.873 6.09211 157.938 6.07618C158.09 6.03635 158.099 6.07777 158.251 6.03954C158.281 6.03157 158.313 6.02042 158.322 5.99175C158.351 5.90095 158.399 5.81174 158.432 5.72095C158.469 5.62378 158.475 5.51864 158.512 5.4374C158.568 5.31952 158.605 5.1889 158.654 5.15863C158.713 5.1204 158.791 5.24146 158.785 5.3689C158.781 5.43103 158.689 5.49793 158.678 5.57917C158.668 5.64926 158.635 5.71935 158.624 5.79422C158.614 5.85953 158.753 5.96308 158.817 5.94715C158.939 5.91529 158.925 5.85794 159.049 5.82608C159.174 5.79422 159.158 5.73688 159.28 5.70502C159.403 5.67316 159.427 5.76077 159.55 5.72891C159.672 5.69705 159.658 5.6397 159.781 5.60785C159.904 5.57599 159.931 5.67953 160.053 5.64767C160.176 5.61581 160.162 5.55528 160.285 5.52342C160.407 5.49156 160.388 5.41828 160.512 5.38642C160.637 5.35456 160.637 5.36094 160.761 5.32748C160.885 5.29403 160.916 5.4151 161.038 5.38164C161.161 5.34819 161.131 5.23031 161.255 5.19845C161.38 5.16659 161.399 5.24465 161.523 5.21279C161.647 5.18093 161.644 5.16819 161.768 5.13633C161.893 5.10447 161.912 5.18093 162.036 5.14907C162.145 5.1204 162.173 4.95792 162.184 4.86552C162.196 4.77313 162.17 4.66481 162.07 4.61702L162.065 4.61224Z" fill="#00AA89"/>
<path d="M161.89 4.7454C161.812 4.75655 161.732 4.80275 161.643 4.81868C161.563 4.83302 161.479 4.84576 161.393 4.86169C161.313 4.87762 161.226 4.87762 161.141 4.89673C161.061 4.91426 160.985 4.96364 160.9 4.98435C160.816 5.00506 160.751 5.07196 160.668 5.09426C160.585 5.11656 160.503 5.12612 160.421 5.15161C160.338 5.1771 160.228 5.10382 160.146 5.1309C160.065 5.15798 160.013 5.25993 159.933 5.2902C159.853 5.32046 159.759 5.30772 159.679 5.33958C159.6 5.37144 159.565 5.50047 159.487 5.53392C159.408 5.56737 159.298 5.52914 159.222 5.56578C159.145 5.60242 159.107 5.70915 159.032 5.75056C158.957 5.79198 158.847 5.7649 158.774 5.80791C158.701 5.85092 158.607 5.86207 158.535 5.90827C158.463 5.95446 158.401 6.01818 158.333 6.06756C158.264 6.11694 158.221 6.20137 158.154 6.25553C158.087 6.30969 158.079 6.42439 158.015 6.48173C157.952 6.53908 157.792 6.49288 157.732 6.55342C157.671 6.61395 157.642 6.70634 157.588 6.77006C157.534 6.83378 157.458 6.88475 157.407 6.95166C157.356 7.01856 157.389 7.146 157.343 7.21609C157.297 7.28618 157.277 7.36901 157.238 7.44388C157.198 7.51875 157.032 7.52831 156.997 7.60636C156.962 7.68442 156.989 7.78796 156.96 7.8692C156.932 7.95044 156.927 8.03487 156.903 8.11611C156.879 8.19735 156.769 8.25629 156.75 8.34072C156.731 8.42515 156.842 8.52869 156.83 8.61471C156.817 8.70073 156.696 8.76763 156.688 8.85365C156.68 8.93967 156.716 9.02569 156.715 9.11171C156.713 9.19773 156.684 9.28057 156.688 9.36659C156.691 9.45261 156.782 9.52907 156.788 9.61509C156.794 9.70111 156.815 9.77757 156.826 9.86359C156.837 9.94961 156.834 10.0309 156.849 10.1153C156.863 10.1997 156.849 10.2857 156.866 10.3702C156.884 10.4546 156.919 10.5358 156.983 10.5804C157.049 10.6282 157.142 10.6649 157.223 10.6569C157.301 10.6489 157.384 10.5964 157.442 10.5294C157.516 10.445 157.515 10.4434 157.588 10.3574C157.662 10.2714 157.668 10.2762 157.743 10.1917C157.818 10.1073 157.802 10.093 157.877 10.007C157.897 9.98306 157.899 9.95598 157.889 9.92572C157.867 9.85563 157.878 9.75049 157.85 9.64854C157.826 9.56252 157.775 9.4781 157.754 9.3857C157.733 9.29331 157.778 9.18977 157.768 9.10534C157.757 8.98587 157.662 8.86799 157.695 8.81542C157.743 8.74215 157.815 8.86003 157.896 8.98906C157.939 9.05915 158.001 9.13402 158.049 9.22322C158.093 9.30765 158.148 9.3873 158.192 9.46694C158.223 9.5227 158.363 9.57367 158.404 9.52588C158.489 9.42871 158.385 9.33791 158.47 9.24074C158.554 9.14357 158.623 9.20411 158.707 9.10693C158.792 9.00976 158.792 9.00976 158.878 8.91259C158.964 8.81542 158.938 8.79312 159.023 8.69754C159.045 8.67365 159.075 8.6402 159.064 8.60993C159.04 8.53984 159.05 8.45223 159.023 8.37099C158.999 8.29771 158.932 8.23399 158.908 8.15594C158.884 8.07788 158.867 7.99983 158.844 7.92336C158.822 7.8469 158.822 7.75929 158.801 7.68601C158.777 7.60159 158.709 7.53627 158.693 7.46618C158.667 7.35945 158.626 7.27184 158.629 7.22724C158.634 7.15396 158.682 7.24954 158.753 7.40406C158.784 7.47096 158.916 7.5076 158.953 7.59521C158.984 7.67008 158.895 7.80071 158.929 7.88195C158.962 7.96319 159.104 7.99505 159.137 8.0731C159.173 8.15594 159.118 8.27222 159.15 8.3455C159.177 8.40762 159.279 8.39169 159.324 8.34231C159.428 8.22443 159.496 8.28656 159.6 8.16868C159.62 8.14479 159.582 8.06195 159.574 8.03168C159.547 7.94089 159.52 7.84531 159.496 7.74973C159.471 7.64937 159.507 7.54265 159.495 7.45503C159.474 7.326 159.437 7.24795 159.461 7.19379C159.49 7.12848 159.539 7.1444 159.605 7.25432C159.636 7.30848 159.648 7.38972 159.684 7.46459C159.716 7.52831 159.745 7.59681 159.778 7.6653C159.807 7.72424 159.826 7.69557 159.869 7.64619C159.954 7.55061 160.062 7.64619 160.145 7.54902C160.228 7.45185 160.218 7.44388 160.301 7.3483C160.384 7.25273 160.291 7.16989 160.374 7.07431C160.457 6.97874 160.519 7.0329 160.604 6.93732C160.688 6.84174 160.645 6.8051 160.73 6.70953C160.814 6.61395 160.781 6.58527 160.865 6.4897C160.95 6.39412 161.057 6.4897 161.141 6.39253C161.226 6.29536 161.151 6.23004 161.235 6.13447C161.32 6.03889 161.374 6.08668 161.458 5.9911C161.543 5.89552 161.484 5.84295 161.567 5.74738C161.649 5.6518 161.704 5.69799 161.788 5.60082C161.873 5.50365 161.881 5.51162 161.965 5.41445C162.05 5.31728 162.035 5.30613 162.12 5.20895C162.193 5.12453 162.131 5.03373 162.086 4.9509C162.042 4.86806 161.995 4.72947 161.884 4.7454H161.89Z" fill="#00DBB1"/>
<path d="M161.84 4.85231C161.918 4.86346 162.011 4.81408 162.1 4.82841C162.179 4.84275 162.274 4.80133 162.361 4.81886C162.441 4.83478 162.525 4.84753 162.611 4.86664C162.691 4.88417 162.747 5.01798 162.831 5.03868C162.916 5.05939 163.016 4.99408 163.099 5.01798C163.182 5.04187 163.262 5.06417 163.343 5.08966C163.424 5.11515 163.486 5.19479 163.568 5.22187C163.649 5.24896 163.718 5.29834 163.799 5.3286C163.88 5.35887 163.944 5.41462 164.024 5.44648C164.103 5.47834 164.209 5.44011 164.287 5.47356C164.365 5.50702 164.462 5.49905 164.538 5.53569C164.615 5.57233 164.642 5.70295 164.717 5.74277C164.792 5.7826 164.86 5.8272 164.934 5.87021C165.007 5.91322 165.12 5.88933 165.19 5.93711C165.261 5.9849 165.334 6.02791 165.402 6.07889C165.471 6.12986 165.563 6.15057 165.63 6.20314C165.697 6.25571 165.731 6.35129 165.793 6.40704C165.855 6.46279 165.877 6.56156 165.936 6.62209C165.995 6.68262 166.136 6.66988 166.191 6.73519C166.247 6.8005 166.285 6.88174 166.336 6.94865C166.387 7.01555 166.356 7.1414 166.402 7.21308C166.448 7.28476 166.539 7.32618 166.58 7.40105C166.622 7.47592 166.59 7.58265 166.626 7.6607C166.663 7.73876 166.743 7.79132 166.773 7.87097C166.803 7.95062 166.87 8.01593 166.894 8.09877C166.918 8.1816 166.866 8.27877 166.885 8.3632C166.904 8.44762 166.971 8.51771 166.984 8.60214C166.996 8.68657 166.925 8.77578 166.933 8.8618C166.94 8.94782 167.028 9.02268 167.03 9.1087C167.031 9.19472 167.042 9.27756 167.041 9.36358C167.039 9.4496 166.999 9.52925 166.991 9.61527C166.984 9.70129 166.984 9.78253 166.972 9.86855C166.961 9.95457 166.933 10.0326 166.918 10.117C166.904 10.2015 166.838 10.2716 166.821 10.356C166.803 10.4404 166.821 10.528 166.757 10.5726C166.69 10.6204 166.612 10.5742 166.531 10.5663C166.453 10.5583 166.41 10.5519 166.351 10.485C166.276 10.4006 166.244 10.4277 166.169 10.3433C166.094 10.2588 166.144 10.2142 166.069 10.1298C165.994 10.0454 165.932 10.0995 165.857 10.0135C165.836 9.98961 165.836 9.95297 165.845 9.92111C165.868 9.85102 165.836 9.74111 165.865 9.63757C165.889 9.55155 166.002 9.48146 166.021 9.38907C166.04 9.29667 165.955 9.18517 165.963 9.10074C165.975 8.98127 166.035 8.89206 166 8.83949C165.952 8.76622 165.904 8.84427 165.825 8.9733C165.782 9.04339 165.728 9.12463 165.681 9.21384C165.637 9.29827 165.641 9.41137 165.598 9.48942C165.568 9.54518 165.374 9.57226 165.332 9.52606C165.248 9.42889 165.292 9.38907 165.208 9.29349C165.123 9.19791 165.157 9.16605 165.072 9.07047C164.988 8.9749 164.945 9.00994 164.86 8.91277C164.776 8.8156 164.846 8.75347 164.76 8.6563C164.738 8.63241 164.725 8.6563 164.735 8.62604C164.758 8.55595 164.715 8.45718 164.742 8.37594C164.766 8.30266 164.87 8.25169 164.895 8.17364C164.921 8.09558 164.913 8.00956 164.935 7.9331C164.958 7.85664 164.985 7.77699 165.005 7.70212C165.029 7.61769 165.068 7.54123 165.084 7.47273C165.109 7.366 165.093 7.27202 165.09 7.22742C165.085 7.15414 165.06 7.24972 164.988 7.40264C164.958 7.46955 164.911 7.54282 164.873 7.62884C164.841 7.70371 164.714 7.74354 164.68 7.82478C164.647 7.90602 164.688 8.01434 164.656 8.09239C164.621 8.17523 164.548 8.23735 164.516 8.31063C164.489 8.37276 164.403 8.44125 164.358 8.39187C164.255 8.27399 164.317 8.21983 164.215 8.10354C164.194 8.07965 164.118 8.04779 164.126 8.01752C164.153 7.92673 164.252 7.85026 164.275 7.75628C164.301 7.65592 164.363 7.56194 164.376 7.47592C164.397 7.34689 164.382 7.21467 164.358 7.16051C164.33 7.0952 164.234 7.1637 164.169 7.27361C164.137 7.32777 164.175 7.43131 164.138 7.50459C164.107 7.56831 163.946 7.57309 163.912 7.64159C163.883 7.70053 163.883 7.72442 163.839 7.67504C163.754 7.57946 163.775 7.56194 163.691 7.46477C163.606 7.3676 163.531 7.4345 163.448 7.34052C163.365 7.24653 163.345 7.26246 163.26 7.16688C163.176 7.0713 163.282 6.97732 163.2 6.88174C163.117 6.78616 163.066 6.83077 162.981 6.73519C162.897 6.63961 162.879 6.65554 162.795 6.55837C162.71 6.4612 162.78 6.40226 162.696 6.30668C162.611 6.2111 162.514 6.29553 162.431 6.19995C162.348 6.10438 162.431 6.02951 162.347 5.93393C162.262 5.83835 162.232 5.86543 162.148 5.76985C162.063 5.67428 162.084 5.65516 161.999 5.55958C161.915 5.46401 161.85 5.51976 161.765 5.42418C161.681 5.3286 161.673 5.33498 161.588 5.2394C161.515 5.15497 161.518 4.9909 161.563 4.90806C161.607 4.82523 161.727 4.84116 161.837 4.85709L161.84 4.85231Z" fill="#00AA89"/>
<path d="M161.928 4.4294C161.897 4.35772 161.95 4.24144 161.912 4.1586C161.878 4.08692 161.72 4.0678 161.682 3.98815C161.646 3.91488 161.725 3.77948 161.682 3.70301C161.644 3.63133 161.559 3.57876 161.516 3.50389C161.473 3.42902 161.402 3.37646 161.355 3.30477C161.309 3.23309 161.312 3.13114 161.263 3.06105C161.214 2.99096 161.18 2.91131 161.128 2.84281C161.075 2.77432 160.957 2.76157 160.903 2.69626C160.849 2.63095 160.845 2.52104 160.788 2.45891C160.731 2.39678 160.676 2.32669 160.614 2.26775C160.552 2.20881 160.445 2.19926 160.38 2.1451C160.315 2.09094 160.235 2.05748 160.166 2.0081C160.098 1.95872 160.009 1.94598 159.937 1.90137C159.865 1.85677 159.795 1.82172 159.719 1.78349C159.642 1.74526 159.613 1.61145 159.534 1.57959C159.454 1.54773 159.366 1.54296 159.283 1.51906C159.201 1.49517 159.129 1.42348 159.044 1.40755C158.96 1.39162 158.859 1.52703 158.773 1.51906C158.687 1.5111 158.612 1.44419 158.526 1.44419C158.44 1.44419 158.361 1.45534 158.274 1.4649C158.188 1.47446 158.121 1.54614 158.037 1.56207C157.952 1.578 157.852 1.49198 157.768 1.51588C157.683 1.53977 157.589 1.51588 157.506 1.54455C157.423 1.57322 157.35 1.61464 157.269 1.64968C157.187 1.68473 157.159 1.81217 157.081 1.8504C156.991 1.895 156.929 1.94757 156.929 2.03359C156.929 2.11961 156.985 2.18811 157.074 2.23271C157.186 2.29006 157.194 2.27253 157.305 2.32988C157.417 2.38723 157.409 2.40156 157.521 2.45891C157.541 2.47006 157.595 2.55767 157.615 2.54493C157.674 2.50829 157.699 2.36174 157.792 2.31236C157.871 2.26935 157.945 2.18492 158.023 2.15147C158.133 2.10527 158.246 2.1897 158.3 2.20722C158.378 2.2343 158.268 2.25023 158.147 2.36333C158.075 2.43024 158.043 2.55927 157.972 2.62776C157.938 2.65962 157.937 2.69148 157.978 2.71378C158.09 2.77113 158.053 2.84441 158.164 2.90335C158.276 2.96229 158.31 2.89857 158.421 2.95591C158.533 3.01326 158.501 3.07698 158.614 3.13433C158.635 3.14548 158.694 3.07857 158.713 3.06583C158.778 3.02282 158.885 3.02123 158.963 2.97025C159.036 2.92405 159.079 2.82211 159.153 2.7775C159.232 2.72971 159.283 2.63254 159.354 2.59431C159.46 2.53537 159.567 2.48121 159.612 2.47484C159.672 2.46369 159.589 2.56245 159.47 2.65644C159.417 2.69785 159.406 2.81733 159.338 2.86671C159.277 2.91131 159.212 2.9591 159.15 3.0053C159.087 3.05149 158.985 3.05627 158.928 3.09928C158.89 3.12955 158.887 3.23946 158.931 3.26176C159.033 3.31433 159.02 3.33982 159.122 3.39239C159.143 3.40354 159.196 3.33504 159.215 3.3223C159.275 3.28725 159.315 3.20601 159.377 3.17256C159.444 3.13751 159.556 3.19804 159.615 3.17256C159.703 3.13433 159.749 3.11999 159.792 3.12795C159.856 3.1391 159.824 3.18052 159.719 3.27451C159.664 3.3223 159.602 3.38124 159.535 3.4354C159.499 3.46566 159.518 3.43699 159.561 3.45929C159.669 3.51504 159.645 3.55965 159.754 3.6154C159.862 3.67115 159.836 3.72054 159.943 3.77629C160.05 3.83204 160.103 3.73328 160.211 3.78903C160.319 3.84479 160.31 3.8639 160.418 3.91966C160.527 3.97541 160.482 4.06143 160.59 4.11878C160.699 4.17612 160.724 4.12515 160.834 4.1809C160.944 4.23666 160.908 4.30515 161.016 4.36091C161.124 4.41666 161.15 4.36887 161.258 4.42463C161.367 4.48038 161.387 4.44215 161.496 4.4995C161.604 4.55684 161.569 4.62375 161.679 4.6795C161.752 4.71773 161.84 4.65401 161.891 4.60782C161.942 4.56162 161.955 4.50427 161.923 4.42781L161.928 4.4294Z" fill="#00DBB1"/>
<path d="M162.106 4.64963C162.178 4.61618 162.248 4.57157 162.331 4.53494C162.404 4.50148 162.45 4.39635 162.532 4.3629C162.606 4.33104 162.699 4.33263 162.78 4.30077C162.857 4.27051 162.938 4.2482 163.019 4.21953C163.101 4.19086 163.147 4.07457 163.228 4.04749C163.309 4.02041 163.391 4.00289 163.474 3.9774C163.556 3.95191 163.67 4.05227 163.752 4.02997C163.835 4.00767 163.893 3.90572 163.976 3.88501C164.058 3.8643 164.133 3.81651 164.218 3.79899C164.302 3.78147 164.384 3.75757 164.467 3.74323C164.549 3.7289 164.642 3.76713 164.726 3.75598C164.811 3.74483 164.892 3.71456 164.977 3.7066C165.061 3.69863 165.15 3.77828 165.235 3.7735C165.319 3.76872 165.401 3.74801 165.485 3.74642C165.57 3.74483 165.656 3.66837 165.74 3.67155C165.825 3.67474 165.912 3.65403 165.997 3.66199C166.081 3.66996 166.167 3.68111 166.252 3.69385C166.336 3.7066 166.414 3.75598 166.497 3.7735C166.58 3.79102 166.653 3.84678 166.736 3.86908C166.819 3.89138 166.878 3.97262 166.958 3.9997C167.037 4.02678 167.133 4.00607 167.211 4.03953C167.289 4.07298 167.391 4.05386 167.466 4.09369C167.541 4.13351 167.563 4.26254 167.635 4.30714C167.707 4.35175 167.764 4.4075 167.833 4.45688C167.901 4.50626 167.984 4.52856 168.05 4.58432C168.115 4.64007 168.241 4.62255 168.303 4.68149C168.365 4.74043 168.359 4.86149 168.418 4.92521C168.477 4.98893 168.517 5.05743 168.571 5.12433C168.625 5.19124 168.676 5.25177 168.725 5.32186C168.775 5.39195 168.904 5.40469 168.95 5.47797C168.996 5.55125 169.022 5.63249 169.063 5.70895C169.105 5.78541 169.137 5.86028 169.175 5.93834C169.213 6.01639 169.156 6.13109 169.189 6.21073C169.223 6.29038 169.277 6.3541 169.309 6.43375C169.341 6.5134 169.342 6.56119 169.315 6.63446C169.285 6.71092 169.296 6.83199 169.223 6.87022C169.154 6.90686 169.059 6.84792 168.972 6.82402C168.863 6.79535 168.84 6.88137 168.73 6.8511C168.62 6.82084 168.619 6.82721 168.51 6.79694C168.402 6.76668 168.405 6.74915 168.297 6.72048C168.266 6.71252 168.254 6.6488 168.244 6.61853C168.223 6.54685 168.225 6.44331 168.191 6.34295C168.163 6.25852 168.077 6.18684 168.043 6.10082C168.01 6.0148 168.018 5.89851 167.978 5.82364C167.921 5.71692 167.822 5.68187 167.764 5.65638C167.685 5.62134 167.752 5.68824 167.758 5.84117C167.761 5.92241 167.662 6.02754 167.673 6.1279C167.683 6.22188 167.798 6.3095 167.806 6.3987C167.811 6.46242 167.688 6.49747 167.626 6.48154C167.501 6.44808 167.505 6.44012 167.38 6.40667C167.256 6.37322 167.253 6.38277 167.128 6.34932C167.004 6.31587 166.988 6.37481 166.864 6.34136C166.739 6.3079 166.747 6.27764 166.623 6.24419C166.591 6.23622 166.5 6.22188 166.492 6.19162C166.473 6.11993 166.497 6.03073 166.475 5.94789C166.454 5.87303 166.435 5.79497 166.413 5.71692C166.39 5.63886 166.459 5.53532 166.435 5.45886C166.411 5.38239 166.258 5.34257 166.236 5.26929C166.209 5.18646 166.307 5.06539 166.282 4.99849C166.244 4.89495 166.159 4.82804 166.132 4.793C166.086 4.73406 166.08 4.84079 166.107 5.00805C166.118 5.07973 166.076 5.1769 166.095 5.26929C166.111 5.34894 166.11 5.43815 166.127 5.52417C166.145 5.61019 166.244 5.6755 166.26 5.75833C166.277 5.84595 166.225 5.94312 166.239 6.02276C166.25 6.08808 166.258 6.07374 166.194 6.05622C166.043 6.01639 166.027 6.08011 165.876 6.03869C165.845 6.03073 165.796 6.0148 165.788 5.98453C165.759 5.89373 165.691 5.81409 165.657 5.72169C165.622 5.62452 165.582 5.5385 165.546 5.45726C165.491 5.33779 165.522 5.18646 165.472 5.1546C165.413 5.11637 165.364 5.2215 165.37 5.34894C165.373 5.41107 165.329 5.4939 165.34 5.57673C165.35 5.64682 165.506 5.70099 165.517 5.77585C165.526 5.84117 165.385 5.91922 165.321 5.90329C165.198 5.86984 165.197 5.87621 165.072 5.84276C164.948 5.80931 164.934 5.86984 164.809 5.83639C164.685 5.80294 164.714 5.70099 164.591 5.66753C164.468 5.63408 164.481 5.58629 164.358 5.55284C164.235 5.51939 164.232 5.53054 164.109 5.49868C163.987 5.46682 163.96 5.56558 163.835 5.53372C163.711 5.50187 163.722 5.46363 163.599 5.43018C163.477 5.39673 163.47 5.41903 163.348 5.38558C163.225 5.35213 163.218 5.37124 163.096 5.33938C162.973 5.30752 162.976 5.29159 162.853 5.25814C162.731 5.22469 162.756 5.12593 162.634 5.09247C162.511 5.05902 162.481 5.16734 162.358 5.13548C162.235 5.10362 162.222 5.14345 162.1 5.11159C161.991 5.08292 161.99 4.91565 161.98 4.82326C161.97 4.73087 162.006 4.7006 162.106 4.65282V4.64963Z" fill="#00DBB1"/>
<path d="M161.61 4.6685C161.636 4.59363 161.626 4.49965 161.658 4.41363C161.687 4.33876 161.72 4.25911 161.755 4.17628C161.787 4.09981 161.827 4.02494 161.864 3.9437C161.897 3.86883 161.875 3.76051 161.913 3.68246C161.951 3.6044 162.12 3.59803 162.16 3.51998C162.2 3.44192 162.189 3.34316 162.232 3.26829C162.275 3.19342 162.289 3.10421 162.334 3.03094C162.379 2.95766 162.476 2.92102 162.525 2.84934C162.575 2.77765 162.576 2.6773 162.627 2.60721C162.678 2.53712 162.688 2.43676 162.742 2.36986C162.796 2.30295 162.9 2.27746 162.957 2.21375C163.015 2.15003 163.043 2.05764 163.104 1.9971C163.164 1.93657 163.281 1.93498 163.345 1.87763C163.408 1.82028 163.47 1.76294 163.537 1.71037C163.604 1.6578 163.66 1.5893 163.732 1.54152C163.804 1.49373 163.847 1.39815 163.922 1.35673C163.996 1.31531 164.076 1.27549 164.154 1.23885C164.232 1.20221 164.353 1.2739 164.435 1.24363C164.516 1.21337 164.565 1.09708 164.648 1.07318C164.731 1.04929 164.822 1.06363 164.908 1.0477C164.994 1.03177 165.072 0.988757 165.158 0.980792C165.244 0.972828 165.331 0.966456 165.417 0.964863C165.503 0.96327 165.582 1.06203 165.67 1.06681C165.758 1.07159 165.845 0.985571 165.933 0.996722C166.021 1.00787 166.088 1.09708 166.174 1.1146C166.26 1.13212 166.336 1.14805 166.422 1.17036C166.508 1.19266 166.579 1.2277 166.661 1.25478C166.744 1.28186 166.832 1.27549 166.913 1.30735C166.995 1.33921 167.077 1.35195 167.157 1.38859C167.227 1.41886 167.297 1.4539 167.326 1.51443C167.356 1.57975 167.285 1.64187 167.264 1.70878C167.243 1.77568 167.229 1.78842 167.16 1.82666C167.033 1.89993 167.106 2.02896 166.98 2.10065C166.854 2.17233 166.829 2.13091 166.701 2.20419C166.677 2.21852 166.615 2.2249 166.591 2.21056C166.534 2.1787 166.461 2.14047 166.378 2.09746C166.308 2.06241 166.261 1.96684 166.186 1.93338C166.112 1.89993 166.021 1.88878 165.949 1.86648C165.849 1.83621 165.755 1.81869 165.705 1.83781C165.635 1.86489 165.694 1.94294 165.793 2.03374C165.845 2.08153 165.957 2.07994 166.025 2.13569C166.089 2.18667 166.121 2.28384 166.182 2.33481C166.223 2.36986 166.169 2.39216 166.121 2.41924C166.025 2.4734 166.038 2.49729 165.941 2.55145C165.844 2.60561 165.906 2.71234 165.809 2.7681C165.711 2.82385 165.686 2.77606 165.589 2.83182C165.492 2.88757 165.472 2.85252 165.377 2.90828C165.353 2.92261 165.367 2.87323 165.342 2.8589C165.275 2.82066 165.197 2.78562 165.119 2.74261C165.047 2.70279 164.934 2.72987 164.86 2.68845C164.787 2.64703 164.726 2.57535 164.655 2.53712C164.573 2.4957 164.5 2.4495 164.432 2.41764C164.326 2.36826 164.221 2.42561 164.178 2.41764C164.106 2.40809 164.232 2.36667 164.381 2.47181C164.448 2.518 164.454 2.6773 164.538 2.73305C164.613 2.78403 164.741 2.76491 164.817 2.81748C164.894 2.87005 164.996 2.90031 165.066 2.9481C165.114 2.98155 165.111 3.13448 165.061 3.16315C164.945 3.23006 164.918 3.18386 164.801 3.25076C164.777 3.26351 164.741 3.28262 164.717 3.26988C164.644 3.23165 164.602 3.11536 164.526 3.07872C164.444 3.04049 164.352 3.01978 164.28 2.9927C164.173 2.95288 164.073 3.00386 164.024 3.01501C163.949 3.03094 164.055 3.0389 164.186 3.14563C164.253 3.19979 164.331 3.25873 164.414 3.31926C164.46 3.35271 164.433 3.48493 164.385 3.51201C164.272 3.57573 164.255 3.54387 164.141 3.60918C164.028 3.67449 164 3.62192 163.886 3.68564C163.773 3.74936 163.8 3.79556 163.687 3.86087C163.574 3.92618 163.604 3.97716 163.491 4.04247C163.378 4.10778 163.327 4.01698 163.214 4.0807C163.101 4.14442 163.093 4.13167 162.98 4.19539C162.866 4.25911 162.882 4.28778 162.769 4.3515C162.656 4.41522 162.704 4.49965 162.591 4.56337C162.477 4.62708 162.434 4.55062 162.321 4.61593C162.208 4.68125 162.202 4.6685 162.089 4.73381C161.975 4.79912 161.977 4.80231 161.864 4.86762C161.781 4.91541 161.681 4.98072 161.617 4.92975C161.553 4.87877 161.577 4.76089 161.609 4.67009L161.61 4.6685Z" fill="#00AA89"/>
</g>
<defs>
<clipPath id="clip0_919_10368">
<rect width="16.7325" height="10.0619" fill="white" transform="translate(48.938 2.73828)"/>
</clipPath>
<clipPath id="clip1_919_10368">
<rect width="12.0941" height="12.4139" fill="white" transform="translate(127.975 44.2871)"/>
</clipPath>
<clipPath id="clip2_919_10368">
<rect width="14.6034" height="14.7333" fill="white" transform="translate(154.732 0.964844)"/>
</clipPath>
</defs>
</svg>
