<svg width="34" height="52" viewBox="0 0 34 52" fill="none" xmlns="http://www.w3.org/2000/svg">
<path d="M4.91667 15.9167C4.45546 15.4555 4.22486 15.2249 4.05995 14.9557C3.91374 14.7172 3.806 14.457 3.74067 14.1849C3.66699 13.878 3.66699 13.5519 3.66699 12.8997L3.66699 6.93366C3.66699 5.44019 3.66699 4.69345 3.95764 4.12302C4.2133 3.62125 4.62125 3.2133 5.12302 2.95764C5.69345 2.66699 6.44019 2.66699 7.93366 2.66699L13.8997 2.66699C14.5519 2.66699 14.878 2.66699 15.1849 2.74067C15.457 2.806 15.7172 2.91374 15.9557 3.05995C16.2249 3.22486 16.4555 3.45547 16.9167 3.91667L27.1415 14.1415C28.7256 15.7256 29.5176 16.5176 29.8144 17.4309C30.0754 18.2343 30.0754 19.0997 29.8144 19.9031C29.5176 20.8164 28.7256 21.6084 27.1415 23.1925L24.1925 26.1415C22.6084 27.7256 21.8164 28.5176 20.9031 28.8144C20.0997 29.0754 19.2343 29.0754 18.4309 28.8144C17.5176 28.5176 16.7256 27.7256 15.1415 26.1415L4.91667 15.9167Z" fill="#FB3463"/>
<path d="M12.3337 10.667C12.3337 11.0352 12.0352 11.3337 11.667 11.3337C11.2988 11.3337 11.0003 11.0352 11.0003 10.667C11.0003 10.2988 11.2988 10.0003 11.667 10.0003C12.0352 10.0003 12.3337 10.2988 12.3337 10.667Z" fill="#FB3463"/>
<path d="M11.667 10.667H11.6803M3.66699 6.93366L3.66699 12.8997C3.66699 13.5519 3.66699 13.878 3.74067 14.1849C3.806 14.457 3.91374 14.7172 4.05995 14.9557C4.22486 15.2249 4.45546 15.4555 4.91667 15.9167L15.1415 26.1415C16.7256 27.7256 17.5176 28.5176 18.4309 28.8144C19.2343 29.0754 20.0997 29.0754 20.9031 28.8144C21.8164 28.5176 22.6084 27.7256 24.1925 26.1415L27.1415 23.1925C28.7256 21.6084 29.5176 20.8164 29.8144 19.9031C30.0754 19.0997 30.0754 18.2343 29.8144 17.4309C29.5176 16.5176 28.7256 15.7256 27.1415 14.1415L16.9167 3.91667C16.4555 3.45547 16.2249 3.22486 15.9557 3.05995C15.7172 2.91374 15.457 2.806 15.1849 2.74067C14.878 2.66699 14.5519 2.66699 13.8997 2.66699L7.93366 2.66699C6.44019 2.66699 5.69345 2.66699 5.12302 2.95764C4.62125 3.2133 4.2133 3.62125 3.95764 4.12302C3.66699 4.69345 3.66699 5.44019 3.66699 6.93366ZM12.3337 10.667C12.3337 11.0352 12.0352 11.3337 11.667 11.3337C11.2988 11.3337 11.0003 11.0352 11.0003 10.667C11.0003 10.2988 11.2988 10.0003 11.667 10.0003C12.0352 10.0003 12.3337 10.2988 12.3337 10.667Z" stroke="#FB3463" stroke-width="2.66667" stroke-linecap="round" stroke-linejoin="round"/>
<path d="M9.2607 41.7578C9.2607 44.4648 7.6318 46.1172 5.44039 46.1172C3.22555 46.1172 1.60836 44.4648 1.60836 41.7578C1.60836 39.0391 3.22555 37.3984 5.44039 37.3984C7.6318 37.3984 9.2607 39.0391 9.2607 41.7578ZM7.98336 41.7578C7.98336 39.6953 6.89352 38.582 5.44039 38.582C3.97555 38.582 2.8857 39.6953 2.8857 41.7578C2.8857 43.8203 3.97555 44.9336 5.44039 44.9336C6.89352 44.9336 7.98336 43.8203 7.98336 41.7578ZM17.7249 41.7578C17.7249 44.4648 16.096 46.1172 13.9046 46.1172C11.6898 46.1172 10.0726 44.4648 10.0726 41.7578C10.0726 39.0391 11.6898 37.3984 13.9046 37.3984C16.096 37.3984 17.7249 39.0391 17.7249 41.7578ZM16.4476 41.7578C16.4476 39.6953 15.3577 38.582 13.9046 38.582C12.4398 38.582 11.3499 39.6953 11.3499 41.7578C11.3499 43.8203 12.4398 44.9336 13.9046 44.9336C15.3577 44.9336 16.4476 43.8203 16.4476 41.7578ZM18.0329 38.6289V37.5156H24.6071V38.6289H21.9704V46H20.6813V38.6289H18.0329ZM28.3135 46H25.5596V37.5156H28.3955C30.8916 37.5156 32.3916 39.1094 32.3916 41.7461C32.3916 44.3945 30.8916 46 28.3135 46ZM26.8487 44.875H28.2432C30.1651 44.875 31.1143 43.75 31.1143 41.7461C31.1143 39.7539 30.1651 38.6406 28.3135 38.6406H26.8487V44.875Z" fill="#FB3463"/>
<circle cx="11.6953" cy="10.2617" r="2.00684" fill="white"/>
</svg>
