<svg width="34" height="52" viewBox="0 0 34 52" fill="none" xmlns="http://www.w3.org/2000/svg">
<path d="M18.3097 3.68533C17.8413 3.32099 17.6071 3.13883 17.3485 3.0688C17.1203 3.00701 16.8797 3.00701 16.6515 3.0688C16.3929 3.13883 16.1587 3.32099 15.6903 3.68533L6.64719 10.7188C6.04269 11.189 5.74045 11.4241 5.5227 11.7185C5.32982 11.9793 5.18614 12.273 5.0987 12.5854C5 12.938 5 13.3209 5 14.0867V23.7333C5 25.2268 5 25.9735 5.29065 26.544C5.54631 27.0457 5.95426 27.4537 6.45603 27.7093C7.02646 28 7.77319 28 9.26667 28H11.9333C12.3067 28 12.4934 28 12.636 27.9273C12.7614 27.8634 12.8634 27.7614 12.9273 27.636C13 27.4934 13 27.3067 13 26.9333V18.1333C13 17.3866 13 17.0132 13.1453 16.728C13.2732 16.4771 13.4771 16.2731 13.728 16.1453C14.0132 16 14.3866 16 15.1333 16H18.8667C19.6134 16 19.9868 16 20.272 16.1453C20.5229 16.2731 20.7268 16.4771 20.8547 16.728C21 17.0132 21 17.3866 21 18.1333V26.9333C21 27.3067 21 27.4934 21.0727 27.636C21.1366 27.7614 21.2386 27.8634 21.364 27.9273C21.5066 28 21.6933 28 22.0667 28H24.7333C26.2268 28 26.9735 28 27.544 27.7093C28.0457 27.4537 28.4537 27.0457 28.7094 26.544C29 25.9735 29 25.2268 29 23.7333V14.0867C29 13.3209 29 12.938 28.9013 12.5854C28.8139 12.273 28.6702 11.9793 28.4773 11.7185C28.2596 11.4241 27.9573 11.189 27.3528 10.7188L18.3097 3.68533Z" stroke="#CFCFCF" stroke-width="2.66667" stroke-linecap="round" stroke-linejoin="round"/>
<path d="M1.10445 46V37.5156H2.39352V41.1953H6.61227V37.5156H7.90133V46H6.61227V42.2969H2.39352V46H1.10445ZM16.6468 41.7578C16.6468 44.4648 15.0179 46.1172 12.8265 46.1172C10.6116 46.1172 8.99445 44.4648 8.99445 41.7578C8.99445 39.0391 10.6116 37.3984 12.8265 37.3984C15.0179 37.3984 16.6468 39.0391 16.6468 41.7578ZM15.3695 41.7578C15.3695 39.6953 14.2796 38.582 12.8265 38.582C11.3616 38.582 10.2718 39.6953 10.2718 41.7578C10.2718 43.8203 11.3616 44.9336 12.8265 44.9336C14.2796 44.9336 15.3695 43.8203 15.3695 41.7578ZM17.7399 37.5156H19.3102L21.9938 44.0898H22.0993L24.7829 37.5156H26.3532V46H25.1227V39.8711H25.0407L22.5563 45.9883H21.5368L19.0407 39.8594H18.9704V46H17.7399V37.5156ZM27.7276 46V37.5156H33.0479V38.6289H29.0166V41.1953H32.7666V42.2969H29.0166V44.8867H33.0948V46H27.7276Z" fill="#CFCFCF"/>
</svg>
