<svg width="34" height="52" viewBox="0 0 34 52" fill="none" xmlns="http://www.w3.org/2000/svg">
<path d="M9.2607 41.0908C9.2607 43.7979 7.6318 45.4502 5.44039 45.4502C3.22555 45.4502 1.60836 43.7979 1.60836 41.0908C1.60836 38.3721 3.22555 36.7314 5.44039 36.7314C7.6318 36.7314 9.2607 38.3721 9.2607 41.0908ZM7.98336 41.0908C7.98336 39.0283 6.89352 37.915 5.44039 37.915C3.97555 37.915 2.8857 39.0283 2.8857 41.0908C2.8857 43.1533 3.97555 44.2666 5.44039 44.2666C6.89352 44.2666 7.98336 43.1533 7.98336 41.0908ZM17.7249 41.0908C17.7249 43.7979 16.096 45.4502 13.9046 45.4502C11.6898 45.4502 10.0726 43.7979 10.0726 41.0908C10.0726 38.3721 11.6898 36.7314 13.9046 36.7314C16.096 36.7314 17.7249 38.3721 17.7249 41.0908ZM16.4476 41.0908C16.4476 39.0283 15.3577 37.915 13.9046 37.915C12.4398 37.915 11.3499 39.0283 11.3499 41.0908C11.3499 43.1533 12.4398 44.2666 13.9046 44.2666C15.3577 44.2666 16.4476 43.1533 16.4476 41.0908ZM18.0329 37.9619V36.8486H24.6071V37.9619H21.9704V45.333H20.6813V37.9619H18.0329ZM28.3135 45.333H25.5596V36.8486H28.3955C30.8916 36.8486 32.3916 38.4424 32.3916 41.0791C32.3916 43.7275 30.8916 45.333 28.3135 45.333ZM26.8487 44.208H28.2432C30.1651 44.208 31.1143 43.083 31.1143 41.0791C31.1143 39.0869 30.1651 37.9736 28.3135 37.9736H26.8487V44.208Z" fill="#CFCFCF"/>
<path d="M11.6666 10H11.68M3.66663 6.26667L3.66663 12.2327C3.66663 12.8849 3.66663 13.211 3.74031 13.5179C3.80563 13.79 3.91338 14.0502 4.05959 14.2888C4.2245 14.5579 4.4551 14.7885 4.9163 15.2497L15.1411 25.4745C16.7252 27.0586 17.5172 27.8506 18.4306 28.1474C19.2339 28.4084 20.0993 28.4084 20.9027 28.1474C21.816 27.8506 22.608 27.0586 24.1921 25.4745L27.1411 22.5255C28.7252 20.9414 29.5172 20.1494 29.814 19.2361C30.075 18.4327 30.075 17.5673 29.814 16.7639C29.5172 15.8506 28.7252 15.0586 27.1411 13.4745L16.9163 3.24968C16.4551 2.78847 16.2245 2.55787 15.9554 2.39296C15.7168 2.24675 15.4567 2.139 15.1846 2.07368C14.8777 2 14.5516 2 13.8993 2L7.93329 2C6.43982 2 5.69308 2 5.12265 2.29065C4.62089 2.54631 4.21294 2.95426 3.95728 3.45603C3.66663 4.02646 3.66663 4.77319 3.66663 6.26667ZM12.3333 10C12.3333 10.3682 12.0348 10.6667 11.6666 10.6667C11.2984 10.6667 11 10.3682 11 10C11 9.63181 11.2984 9.33333 11.6666 9.33333C12.0348 9.33333 12.3333 9.63181 12.3333 10Z" stroke="#CFCFCF" stroke-width="2.66667" stroke-linecap="round" stroke-linejoin="round"/>
</svg>
