<svg width="32" height="52" viewBox="0 0 32 52" fill="none" xmlns="http://www.w3.org/2000/svg">
<path d="M15.9995 20C11.7727 20 8.01387 22.0408 5.6208 25.208C5.10575 25.8896 4.84822 26.2304 4.85665 26.691C4.86315 27.0469 5.08662 27.4959 5.36663 27.7156C5.72906 28 6.2313 28 7.23578 28H24.7632C25.7677 28 26.2699 28 26.6323 27.7156C26.9123 27.4959 27.1358 27.0469 27.1423 26.691C27.1507 26.2304 26.8932 25.8896 26.3782 25.208C23.9851 22.0408 20.2262 20 15.9995 20Z" stroke="#CFCFCF" stroke-width="2.66667" stroke-linecap="round" stroke-linejoin="round"/>
<path d="M15.9995 16C19.3132 16 21.9995 13.3137 21.9995 10C21.9995 6.68629 19.3132 4 15.9995 4C12.6858 4 9.99948 6.68629 9.99948 10C9.99948 13.3137 12.6858 16 15.9995 16Z" stroke="#CFCFCF" stroke-width="2.66667" stroke-linecap="round" stroke-linejoin="round"/>
<path d="M7.94758 37.5156H9.51789L12.2015 44.0898H12.307L14.9905 37.5156H16.5609V46H15.3304V39.8711H15.2484L12.764 45.9883H11.7445L9.24836 39.8594H9.17805V46H7.94758V37.5156ZM17.279 37.5156H18.7438L20.947 41.3594H21.0407L23.2555 37.5156H24.7204L21.6384 42.6719V46H20.3493V42.6719L17.279 37.5156Z" fill="#CFCFCF"/>
</svg>
