<svg width="40" height="52" viewBox="0 0 40 52" fill="none" xmlns="http://www.w3.org/2000/svg">
<path d="M27.9997 13.3334L22.6664 8.00008M7.33301 28.6667L11.8455 28.1654C12.3968 28.1041 12.6725 28.0735 12.9301 27.9901C13.1587 27.9161 13.3763 27.8115 13.5769 27.6792C13.8029 27.5301 13.9991 27.334 14.3913 26.9418L31.9997 9.33341C33.4725 7.86065 33.4725 5.47284 31.9997 4.00008C30.5269 2.52732 28.1391 2.52732 26.6664 4.00007L9.05798 21.6084C8.66574 22.0007 8.46961 22.1968 8.32052 22.4229C8.18825 22.6235 8.08369 22.841 8.00969 23.0696C7.92628 23.3273 7.89565 23.6029 7.8344 24.1543L7.33301 28.6667Z" stroke="#FB3463" stroke-width="2.66667" stroke-linecap="round" stroke-linejoin="round"/>
<path d="M1.00742 46V37.5156H6.32773V38.6289H2.29648V41.1953H6.04648V42.2969H2.29648V44.8867H6.37461V46H1.00742ZM10.3037 46H7.54977V37.5156H10.3857C12.8818 37.5156 14.3818 39.1094 14.3818 41.7461C14.3818 44.3945 12.8818 46 10.3037 46ZM8.83883 44.875H10.2334C12.1552 44.875 13.1045 43.75 13.1045 41.7461C13.1045 39.7539 12.1552 38.6406 10.3037 38.6406H8.83883V44.875ZM16.764 37.5156V46H15.4749V37.5156H16.764ZM17.7048 38.6289V37.5156H24.279V38.6289H21.6423V46H20.3532V38.6289H17.7048ZM32.2393 41.7578C32.2393 44.4648 30.6104 46.1172 28.419 46.1172C26.2041 46.1172 24.587 44.4648 24.587 41.7578C24.587 39.0391 26.2041 37.3984 28.419 37.3984C30.6104 37.3984 32.2393 39.0391 32.2393 41.7578ZM30.962 41.7578C30.962 39.6953 29.8721 38.582 28.419 38.582C26.9541 38.582 25.8643 39.6953 25.8643 41.7578C25.8643 43.8203 26.9541 44.9336 28.419 44.9336C29.8721 44.9336 30.962 43.8203 30.962 41.7578ZM33.3324 46V37.5156H36.3559C38.3246 37.5156 39.2973 38.6172 39.2973 40.1758C39.2973 41.3184 38.7816 42.1855 37.7504 42.5664L39.6254 46H38.1605L36.4379 42.8008H36.3559H34.6215V46H33.3324ZM34.6215 41.6875H36.227C37.4809 41.6875 37.9965 41.1367 37.9965 40.1758C37.9965 39.2148 37.4809 38.6172 36.227 38.6172H34.6215V41.6875Z" fill="#FB3463"/>
</svg>
