<svg width="501" height="501" viewBox="0 0 501 501" fill="none" xmlns="http://www.w3.org/2000/svg">
<g filter="url(#filter0_d_5222_24453)">
<circle cx="250.152" cy="217.152" r="33.1523" fill="white"/>
</g>
<g clip-path="url(#clip0_5222_24453)">
<path d="M250.152 227.965C250.152 228.629 249.614 229.166 248.951 229.166H241.744C238.433 229.166 235.738 226.472 235.738 223.16V208.746C235.738 205.434 238.433 202.74 241.744 202.74H256.158C259.47 202.74 262.164 205.434 262.164 208.746V215.953C262.164 216.617 261.626 217.154 260.963 217.154C260.3 217.154 259.762 216.617 259.762 215.953V208.746C259.762 206.759 258.145 205.143 256.158 205.143H241.744C239.757 205.143 238.141 206.759 238.141 208.746V217.105L241.514 213.732C243.354 211.891 246.348 211.891 248.19 213.732L254.605 220.148C255.075 220.617 255.075 221.376 254.605 221.846C254.371 222.08 254.063 222.198 253.756 222.198C253.448 222.198 253.141 222.08 252.907 221.846L246.491 215.431C245.588 214.529 244.118 214.527 243.212 215.431L238.141 220.502V223.16C238.141 225.147 239.757 226.764 241.744 226.764H248.951C249.614 226.764 250.152 227.301 250.152 227.965ZM253.756 206.944C255.743 206.944 257.359 208.561 257.359 210.548C257.359 212.535 255.743 214.151 253.756 214.151C251.769 214.151 250.152 212.535 250.152 210.548C250.152 208.561 251.769 206.944 253.756 206.944ZM253.756 209.347C253.094 209.347 252.555 209.885 252.555 210.548C252.555 211.211 253.094 211.749 253.756 211.749C254.418 211.749 254.957 211.211 254.957 210.548C254.957 209.885 254.418 209.347 253.756 209.347ZM263.365 224.361H259.762V220.758C259.762 220.094 259.224 219.557 258.561 219.557C257.897 219.557 257.359 220.094 257.359 220.758V224.361H253.756C253.093 224.361 252.555 224.898 252.555 225.562C252.555 226.227 253.093 226.764 253.756 226.764H257.359V230.367C257.359 231.031 257.897 231.568 258.561 231.568C259.224 231.568 259.762 231.031 259.762 230.367V226.764H263.365C264.028 226.764 264.566 226.227 264.566 225.562C264.566 224.898 264.028 224.361 263.365 224.361Z" fill="#FB3463"/>
</g>
<path d="M120.359 307.688C120.375 304.75 121.203 302.297 122.672 300.203H124.203C123.125 301.75 122.094 304.906 122.094 307.688C122.094 310.484 123.125 313.625 124.203 315.188H122.672C121.203 313.094 120.375 310.641 120.359 307.688ZM136.828 299.328V313.359H135.344V299.328H136.828ZM129.344 300.375C131.422 300.375 132.953 302.281 132.953 305.281C132.953 308.297 131.422 310.203 129.344 310.203C127.234 310.203 125.719 308.297 125.719 305.281C125.719 302.281 127.234 300.375 129.344 300.375ZM129.344 301.703C128.047 301.703 127.156 303.078 127.156 305.281C127.156 307.5 128.047 308.875 129.344 308.875C130.625 308.875 131.516 307.5 131.516 305.281C131.516 303.078 130.625 301.703 129.344 301.703ZM146.406 300.672V309.875H139.844V300.672H146.406ZM141.312 301.844V308.672H144.969V301.844H141.312ZM150.656 299.328V313.359H149.172V299.328H150.656ZM158.047 303.453C158.047 305.797 159.578 308.219 161.734 309.141L160.922 310.297C159.273 309.57 157.961 308.031 157.312 306.156C156.664 308.156 155.344 309.859 153.719 310.656L152.859 309.484C154.969 308.5 156.531 305.859 156.547 303.453V301.969H153.344V300.734H161.234V301.969H158.047V303.453ZM164.484 299.328V313.328H163V299.328H164.484ZM178.047 303.422V304.609H168.406V299.828H169.875V303.422H178.047ZM179.516 306.375V307.562H166.703V306.375H179.516ZM178.141 311.781V313H168.297V308.891H169.781V311.781H178.141ZM189.875 306.766V309.188C191.156 309.117 192.453 309.008 193.672 308.828L193.781 309.922C190.609 310.5 187.219 310.531 184.719 310.531L184.531 309.312C185.656 309.305 186.984 309.297 188.391 309.25V306.766H189.875ZM193.016 301.109V302.312H189.875C189.953 303.953 191.281 305.375 193.375 305.938L192.688 307.094C191.016 306.617 189.766 305.602 189.141 304.266C188.523 305.672 187.297 306.734 185.609 307.219L184.906 306.094C186.992 305.5 188.305 304.031 188.375 302.312H185.281V301.109H188.391V299.438H189.875V301.109H193.016ZM196.031 299.328V313.359H194.547V299.328H196.031ZM210.297 299.328V313.328H208.875V306.094H207.062V312.609H205.703V299.609H207.062V304.875H208.875V299.328H210.297ZM204 301.016V302.219H200.234V308.703C201.953 308.688 203.25 308.609 204.75 308.328L204.859 309.547C203.172 309.891 201.734 309.953 199.688 309.969H198.75V301.016H204ZM220.344 312.156C218.203 312.156 216.594 310.844 216.516 309.047H218.188C218.281 310.016 219.203 310.719 220.344 310.719C221.719 310.719 222.703 309.719 222.703 308.375C222.703 307 221.688 306 220.266 305.984C219.359 305.984 218.672 306.281 218.281 306.984H216.656L217.391 300.688H223.797V302.156H218.812L218.438 305.328H218.547C219.016 304.875 219.812 304.562 220.672 304.562C222.797 304.562 224.375 306.141 224.375 308.328C224.375 310.562 222.703 312.156 220.344 312.156ZM230.609 301.906C230.609 303.688 231.844 305.312 233.969 305.984L233.266 307.141C231.672 306.633 230.508 305.578 229.891 304.25C229.281 305.781 228.055 306.992 226.375 307.578L225.609 306.391C227.797 305.672 229.109 303.859 229.125 301.922V301.531H226.047V300.328H233.625V301.531H230.609V301.906ZM236.719 299.328V302.797H238.75V304.016H236.719V307.734H235.234V299.328H236.719ZM232.203 308.078C235.094 308.078 236.844 309.031 236.844 310.672C236.844 312.328 235.094 313.312 232.203 313.297C229.281 313.312 227.5 312.328 227.5 310.672C227.5 309.031 229.281 308.078 232.203 308.078ZM232.203 309.25C230.172 309.25 228.969 309.766 228.984 310.672C228.969 311.609 230.172 312.125 232.203 312.125C234.219 312.125 235.391 311.609 235.391 310.672C235.391 309.766 234.219 309.25 232.203 309.25ZM250.672 299.328V305.016H252.703V306.234H250.672V313.328H249.188V299.328H250.672ZM243.766 300.828C243.766 304.328 243.125 307.516 240.594 310.219L239.422 309.391C241.469 307.266 242.211 304.852 242.359 302.047H239.922V300.828H243.766ZM247.625 300.828C247.625 304.375 247.188 308.094 244.609 311.141L243.422 310.328C245.5 307.898 246.125 305.039 246.234 302.047H244.219V300.828H247.625ZM258.531 303.453C258.531 305.797 260.062 308.219 262.219 309.141L261.406 310.297C259.758 309.57 258.445 308.031 257.797 306.156C257.148 308.156 255.828 309.859 254.203 310.656L253.344 309.484C255.453 308.5 257.016 305.859 257.031 303.453V301.969H253.828V300.734H261.719V301.969H258.531V303.453ZM264.969 299.328V313.328H263.484V299.328H264.969ZM283.891 305.906V307.125H271.109V305.906H283.891ZM282.406 303.484V304.688H272.703V299.828H282.312V301.047H274.172V303.484H282.406ZM277.484 308.219C280.5 308.219 282.312 309.141 282.312 310.766C282.312 312.391 280.5 313.312 277.484 313.297C274.453 313.312 272.625 312.391 272.625 310.766C272.625 309.141 274.453 308.219 277.484 308.219ZM277.484 309.359C275.344 309.375 274.125 309.875 274.125 310.766C274.125 311.656 275.344 312.156 277.484 312.156C279.594 312.156 280.828 311.656 280.828 310.766C280.828 309.875 279.594 309.375 277.484 309.359ZM297.734 306.969V308.172H284.922V306.969H290.594V305.641H286.562V302.078H294.641V300.828H286.531V299.656H296.125V303.172H288.031V304.484H296.406V305.641H292.062V306.969H297.734ZM296.203 309.156V313.219H294.703V310.344H286.359V309.156H296.203ZM313.578 299.328V304.906H315.75V306.141H313.578V313.312H312.094V299.328H313.578ZM309.922 300.797C309.906 304.844 308.125 308.453 303.516 310.734L302.688 309.578C306.195 307.828 308.102 305.297 308.406 302.031H303.391V300.797H309.922ZM327.812 303.109V304.312H318.203V299.578H319.672V303.109H327.812ZM329.281 305.797V307.016H316.5V305.797H329.281ZM322.875 308.156C325.891 308.156 327.703 309.078 327.703 310.703C327.703 312.344 325.891 313.266 322.875 313.266C319.844 313.266 318.016 312.344 318.016 310.703C318.016 309.078 319.844 308.156 322.875 308.156ZM322.875 309.312C320.734 309.328 319.516 309.797 319.516 310.703C319.516 311.594 320.734 312.125 322.875 312.125C324.984 312.125 326.219 311.594 326.219 310.703C326.219 309.797 324.984 309.328 322.875 309.312ZM341.328 299.328V302.844H343.359V304.094H341.328V307.484H339.844V299.328H341.328ZM333.844 308.062V309.422H339.844V308.062H341.328V313.156H332.375V308.062H333.844ZM333.844 311.969H339.844V310.578H333.844V311.969ZM338.688 300.703V301.891H330.344V300.703H333.781V299.203H335.266V300.703H338.688ZM334.516 302.469C336.531 302.469 337.906 303.422 337.906 304.922C337.906 306.406 336.531 307.391 334.516 307.375C332.469 307.391 331.109 306.406 331.109 304.922C331.109 303.422 332.469 302.469 334.516 302.469ZM334.516 303.578C333.328 303.562 332.531 304.109 332.547 304.922C332.531 305.75 333.328 306.281 334.516 306.281C335.703 306.281 336.5 305.75 336.516 304.922C336.5 304.109 335.703 303.562 334.516 303.578ZM355.781 299.328V313.328H354.297V299.328H355.781ZM346.484 300.688V308.484C348.523 308.469 350.672 308.305 352.922 307.844L353.125 309.094C350.641 309.594 348.391 309.766 346.188 309.766H345.016V300.688H346.484ZM368.891 299.328V304.75H371.141V305.969H368.891V313.359H367.406V299.328H368.891ZM365.125 300.672V301.875H360.062V308.641C362.414 308.633 364.18 308.531 366.172 308.172L366.359 309.422C364.172 309.812 362.312 309.891 359.703 309.875H358.578V300.672H365.125ZM373.406 312.109C372.797 312.109 372.281 311.609 372.297 311C372.281 310.391 372.797 309.891 373.406 309.891C374 309.891 374.516 310.391 374.516 311C374.516 311.609 374 312.109 373.406 312.109ZM379.875 307.688C379.859 310.641 379.031 313.094 377.562 315.188H376.031C377.109 313.625 378.141 310.484 378.141 307.688C378.141 304.906 377.109 301.75 376.031 300.203H377.562C379.031 302.297 379.859 304.75 379.875 307.688Z" fill="#CFCFCF"/>
<path d="M189.109 275.328V289.359H187.625V275.328H189.109ZM181.625 276.375C183.703 276.375 185.234 278.281 185.234 281.281C185.234 284.297 183.703 286.203 181.625 286.203C179.516 286.203 178 284.297 178 281.281C178 278.281 179.516 276.375 181.625 276.375ZM181.625 277.703C180.328 277.703 179.438 279.078 179.438 281.281C179.438 283.5 180.328 284.875 181.625 284.875C182.906 284.875 183.797 283.5 183.797 281.281C183.797 279.078 182.906 277.703 181.625 277.703ZM198.688 276.672V285.875H192.125V276.672H198.688ZM193.594 277.844V284.672H197.25V277.844H193.594ZM202.938 275.328V289.359H201.453V275.328H202.938ZM210.328 279.453C210.328 281.797 211.859 284.219 214.016 285.141L213.203 286.297C211.555 285.57 210.242 284.031 209.594 282.156C208.945 284.156 207.625 285.859 206 286.656L205.141 285.484C207.25 284.5 208.812 281.859 208.828 279.453V277.969H205.625V276.734H213.516V277.969H210.328V279.453ZM216.766 275.328V289.328H215.281V275.328H216.766ZM231.797 281.75V282.891H218.984V281.75H231.797ZM230.219 283.875V286.953H222V288.109H230.656V289.156H220.516V285.969H228.75V284.938H220.5V283.875H230.219ZM230.188 275.688V278.719H222.094V279.781H230.422V280.828H220.625V277.734H228.703V276.734H220.594V275.688H230.188ZM249.516 281.906V283.125H236.734V281.906H249.516ZM248.031 279.484V280.688H238.328V275.828H247.938V277.047H239.797V279.484H248.031ZM243.109 284.219C246.125 284.219 247.938 285.141 247.938 286.766C247.938 288.391 246.125 289.312 243.109 289.297C240.078 289.312 238.25 288.391 238.25 286.766C238.25 285.141 240.078 284.219 243.109 284.219ZM243.109 285.359C240.969 285.375 239.75 285.875 239.75 286.766C239.75 287.656 240.969 288.156 243.109 288.156C245.219 288.156 246.453 287.656 246.453 286.766C246.453 285.875 245.219 285.375 243.109 285.359ZM263.359 282.969V284.172H250.547V282.969H256.219V281.641H252.188V278.078H260.266V276.828H252.156V275.656H261.75V279.172H253.656V280.484H262.031V281.641H257.688V282.969H263.359ZM261.828 285.156V289.219H260.328V286.344H251.984V285.156H261.828ZM271.312 277.641V278.844H264.359V277.641H267.109V275.734H268.578V277.641H271.312ZM267.844 279.688C269.625 279.688 270.875 281.016 270.891 282.906C270.875 284.812 269.625 286.156 267.844 286.156C266.094 286.156 264.797 284.812 264.812 282.906C264.797 281.016 266.094 279.688 267.844 279.688ZM267.844 280.922C266.828 280.922 266.125 281.75 266.125 282.906C266.125 284.094 266.828 284.891 267.844 284.891C268.844 284.891 269.578 284.094 269.578 282.906C269.578 281.75 268.844 280.922 267.844 280.922ZM276.375 275.328V289.328H274.969V282.375H273.359V288.672H271.953V275.641H273.359V281.156H274.969V275.328H276.375ZM290.984 283.219V284.422H285.297V289.312H283.844V284.422H278.219V283.219H290.984ZM289.781 276.156V277.344H285.453C285.477 279.078 287.633 280.625 290.281 280.984L289.734 282.156C287.438 281.797 285.453 280.664 284.609 279.062C283.742 280.664 281.766 281.797 279.5 282.156L278.938 280.984C281.555 280.625 283.711 279.078 283.766 277.344H279.406V276.156H289.781ZM296.312 279.156C296.312 281.391 297.25 283.781 299.125 284.922L298.297 286.062C296.984 285.273 296.094 283.875 295.625 282.25C295.102 284.031 294.141 285.547 292.781 286.375L291.859 285.266C293.844 284.078 294.875 281.609 294.875 279.219V276.609H296.312V279.156ZM304.094 275.328V289.328H302.672V275.328H304.094ZM301.188 275.594V288.641H299.781V281.484H297.609V280.25H299.781V275.594H301.188ZM318.688 286.344V287.578H305.875V286.344H308.938V282.688C307.789 282.055 307.094 281.047 307.094 279.797C307.094 277.594 309.25 276.141 312.25 276.141C315.266 276.141 317.422 277.594 317.422 279.797C317.422 281.031 316.75 282.023 315.625 282.656V286.344H318.688ZM312.25 277.328C310.047 277.328 308.531 278.281 308.531 279.797C308.531 281.297 310.047 282.281 312.25 282.281C314.438 282.281 315.984 281.297 315.984 279.797C315.984 278.281 314.438 277.328 312.25 277.328ZM310.406 286.344H314.125V283.219C313.555 283.367 312.922 283.438 312.25 283.438C311.594 283.438 310.969 283.367 310.406 283.234V286.344ZM321.297 288.109C320.688 288.109 320.172 287.609 320.188 287C320.172 286.391 320.688 285.891 321.297 285.891C321.891 285.891 322.406 286.391 322.406 287C322.406 287.609 321.891 288.109 321.297 288.109Z" fill="#CFCFCF"/>
<defs>
<filter id="filter0_d_5222_24453" x="206.293" y="173.293" width="87.7189" height="87.7189" filterUnits="userSpaceOnUse" color-interpolation-filters="sRGB">
<feFlood flood-opacity="0" result="BackgroundImageFix"/>
<feColorMatrix in="SourceAlpha" type="matrix" values="0 0 0 0 0 0 0 0 0 0 0 0 0 0 0 0 0 0 127 0" result="hardAlpha"/>
<feOffset/>
<feGaussianBlur stdDeviation="5.35356"/>
<feComposite in2="hardAlpha" operator="out"/>
<feColorMatrix type="matrix" values="0 0 0 0 0 0 0 0 0 0 0 0 0 0 0 0 0 0 0.08 0"/>
<feBlend mode="normal" in2="BackgroundImageFix" result="effect1_dropShadow_5222_24453"/>
<feBlend mode="normal" in="SourceGraphic" in2="effect1_dropShadow_5222_24453" result="shape"/>
</filter>
<clipPath id="clip0_5222_24453">
<rect width="28.8281" height="28.8281" fill="white" transform="translate(235.738 202.74)"/>
</clipPath>
</defs>
</svg>
