<svg width="92" height="91" viewBox="0 0 92 91" fill="none" xmlns="http://www.w3.org/2000/svg">
<rect x="0.5" y="0.5" width="91" height="90" rx="7.5" stroke="#CFCFCF" stroke-dasharray="2 2"/>
<g clip-path="url(#clip0_2781_21442)">
<path d="M46.414 57.2246C46.414 57.8888 45.8759 58.4258 45.2129 58.4258H38.0059C34.6942 58.4258 32 55.7315 32 52.4199V38.0059C32 34.6942 34.6942 32 38.0059 32H52.4199C55.7315 32 58.4258 34.6942 58.4258 38.0059V45.2129C58.4258 45.8771 57.8876 46.414 57.2246 46.414C56.5615 46.414 56.0234 45.8771 56.0234 45.2129V38.0059C56.0234 36.0191 54.4066 34.4023 52.4199 34.4023H38.0059C36.0191 34.4023 34.4023 36.0191 34.4023 38.0059V46.3648L37.7752 42.9919C39.6154 41.1505 42.6099 41.1505 44.4513 42.9919L50.8668 49.4074C51.3364 49.877 51.3364 50.6362 50.8668 51.1058C50.6326 51.34 50.3251 51.4578 50.0176 51.4578C49.7101 51.4578 49.4026 51.34 49.1683 51.1058L42.7529 44.6904C41.8496 43.7883 40.3794 43.7871 39.4737 44.6904L34.4023 49.7617V52.4199C34.4023 54.4066 36.0191 56.0234 38.0059 56.0234H45.2129C45.8759 56.0234 46.414 56.5603 46.414 57.2246ZM50.0176 36.2041C52.0043 36.2041 53.6211 37.8209 53.6211 39.8076C53.6211 41.7943 52.0043 43.4111 50.0176 43.4111C48.0308 43.4111 46.414 41.7943 46.414 39.8076C46.414 37.8209 48.0308 36.2041 50.0176 36.2041ZM50.0176 38.6064C49.3557 38.6064 48.8164 39.1446 48.8164 39.8076C48.8164 40.4707 49.3557 41.0088 50.0176 41.0088C50.6794 41.0088 51.2187 40.4707 51.2187 39.8076C51.2187 39.1446 50.6794 38.6064 50.0176 38.6064ZM59.6269 53.6211H56.0234V50.0176C56.0234 49.3533 55.4853 48.8164 54.8222 48.8164C54.1592 48.8164 53.6211 49.3533 53.6211 50.0176V53.6211H50.0176C49.3545 53.6211 48.8164 54.158 48.8164 54.8222C48.8164 55.4865 49.3545 56.0234 50.0176 56.0234H53.6211V59.6269C53.6211 60.2912 54.1592 60.8281 54.8222 60.8281C55.4853 60.8281 56.0234 60.2912 56.0234 59.6269V56.0234H59.6269C60.29 56.0234 60.8281 55.4865 60.8281 54.8222C60.8281 54.158 60.29 53.6211 59.6269 53.6211Z" fill="#9D9D9D"/>
</g>
<defs>
<clipPath id="clip0_2781_21442">
<rect width="28.8281" height="28.8281" fill="white" transform="translate(32 32)"/>
</clipPath>
</defs>
</svg>
