<svg width="201" height="100" viewBox="0 0 201 100" fill="none" xmlns="http://www.w3.org/2000/svg">
<path d="M0.5 8C0.5 3.58172 4.08172 0 8.5 0H192.5C196.918 0 200.5 3.58172 200.5 8V92C200.5 96.4183 196.918 100 192.5 100H8.5C4.08173 100 0.5 96.4183 0.5 92V8Z" fill="#F5F5F5"/>
<path d="M91.082 31.082H91.6754C91.8644 31.082 91.9589 31.082 92.0445 31.0768C93.1371 31.0107 94.0938 30.3211 94.5021 29.3055C94.534 29.226 94.5639 29.1363 94.6237 28.957C94.6835 28.7777 94.7134 28.6881 94.7453 28.6085C95.1536 27.593 96.1103 26.9034 97.2029 26.8372C97.2885 26.832 97.383 26.832 97.572 26.832H104.425C104.614 26.832 104.709 26.832 104.794 26.8372C105.887 26.9034 106.844 27.593 107.252 28.6085C107.284 28.6881 107.314 28.7777 107.374 28.957C107.433 29.1363 107.463 29.226 107.495 29.3055C107.904 30.3211 108.86 31.0107 109.953 31.0768C110.038 31.082 110.139 31.082 110.341 31.082C110.864 31.082 111.125 31.082 111.334 31.1027C113.35 31.3025 114.945 32.8972 115.145 34.913C115.165 35.122 115.165 35.3701 115.165 35.8664V49.4987C115.165 51.0357 114.35 52.3821 113.127 53.1285M105.339 45.3499C106.167 44.3649 106.665 43.0942 106.665 41.707C106.665 38.5774 104.128 36.0404 100.999 36.0404C99.6126 36.0404 98.3427 36.538 97.358 37.3644M115.165 55.1654L86.832 26.832M86.832 34.6237V46.9487C86.832 49.3289 86.832 50.519 87.2953 51.4282C87.7027 52.2278 88.3529 52.878 89.1526 53.2855C90.0617 53.7487 91.2518 53.7487 93.632 53.7487H105.957M100.999 47.3737C97.8691 47.3737 95.332 44.8366 95.332 41.707" stroke="#CFCFCF" stroke-width="2.83333" stroke-linecap="round" stroke-linejoin="round"/>
<path d="M61.8496 71.3047C61.8594 69.4688 62.377 67.9355 63.2949 66.627H64.252C63.5781 67.5938 62.9336 69.5664 62.9336 71.3047C62.9336 73.0527 63.5781 75.0156 64.252 75.9922H63.2949C62.377 74.6836 61.8594 73.1504 61.8496 71.3047ZM72.1426 66.0801V74.8496H71.2148V66.0801H72.1426ZM67.4648 66.7344C68.7637 66.7344 69.7207 67.9258 69.7207 69.8008C69.7207 71.6855 68.7637 72.877 67.4648 72.877C66.1465 72.877 65.1992 71.6855 65.1992 69.8008C65.1992 67.9258 66.1465 66.7344 67.4648 66.7344ZM67.4648 67.5645C66.6543 67.5645 66.0977 68.4238 66.0977 69.8008C66.0977 71.1875 66.6543 72.0469 67.4648 72.0469C68.2656 72.0469 68.8223 71.1875 68.8223 69.8008C68.8223 68.4238 68.2656 67.5645 67.4648 67.5645ZM78.1289 66.9199V72.6719H74.0273V66.9199H78.1289ZM74.9453 67.6523V71.9199H77.2305V67.6523H74.9453ZM80.7852 66.0801V74.8496H79.8574V66.0801H80.7852ZM85.4043 68.6582C85.4043 70.123 86.3613 71.6367 87.709 72.2129L87.2012 72.9355C86.1709 72.4814 85.3506 71.5195 84.9453 70.3477C84.54 71.5977 83.7148 72.6621 82.6992 73.1602L82.1621 72.4277C83.4805 71.8125 84.457 70.1621 84.4668 68.6582V67.7305H82.4648V66.959H87.3965V67.7305H85.4043V68.6582ZM89.4277 66.0801V74.8301H88.5V66.0801H89.4277ZM97.6406 66.0801V69.5664H98.998V70.3379H97.6406V74.8203H96.7129V66.0801H97.6406ZM95.3555 66.998C95.3457 69.5273 94.2324 71.7832 91.3516 73.209L90.834 72.4863C93.0264 71.3926 94.2178 69.8105 94.4082 67.7695H91.2734V66.998H95.3555ZM103.773 71.207V72.2227H105.141V71.207H106V74.7227H102.904V71.207H103.773ZM103.773 74H105.141V72.9258H103.773V74ZM108.539 71.8613C108.539 72.7793 109.047 73.707 110.131 74.0879L109.652 74.791C108.861 74.4883 108.349 73.917 108.08 73.2188C107.787 73.9023 107.27 74.4785 106.518 74.791L106.049 74.0879C107.104 73.6582 107.621 72.7305 107.621 71.8613V71.1484H108.539V71.8613ZM104.33 66.4512C105.482 66.4512 106.371 67.1055 106.566 68.082H108.275V66.0801H109.203V70.7188H108.275V68.8438H106.576C106.386 69.8496 105.492 70.5039 104.33 70.5039C102.992 70.5039 102.035 69.6836 102.035 68.4727C102.035 67.2812 102.992 66.4512 104.33 66.4512ZM104.33 67.2227C103.5 67.2227 102.924 67.7305 102.924 68.4727C102.924 69.2246 103.5 69.7422 104.33 69.752C105.141 69.7422 105.717 69.2246 105.717 68.4727C105.717 67.7305 105.141 67.2227 104.33 67.2227ZM112.455 71.3242V72.252H116.566V71.3242H117.494V74.7227H111.537V71.3242H112.455ZM112.455 73.9805H116.566V72.9746H112.455V73.9805ZM118.529 70.0059V70.7773H110.551V70.0059H118.529ZM115.014 66.5488C115.014 67.5547 116.41 68.5312 118.09 68.7363L117.758 69.4688C116.337 69.2686 115.102 68.5996 114.545 67.6719C113.974 68.6045 112.733 69.2686 111.332 69.4688L110.98 68.7363C112.68 68.5215 114.066 67.584 114.066 66.5488V66.1777H115.014V66.5488ZM126.459 66.0801V74.8301H125.531V66.0801H126.459ZM120.648 66.9297V71.8027C121.923 71.793 123.266 71.6904 124.672 71.4023L124.799 72.1836C123.246 72.4961 121.84 72.6035 120.463 72.6035H119.73V66.9297H120.648ZM134.652 66.0801V69.4688H136.059V70.2305H134.652V74.8496H133.725V66.0801H134.652ZM132.299 66.9199V67.6719H129.135V71.9004C130.604 71.8955 131.708 71.832 132.953 71.6074L133.07 72.3887C131.703 72.6328 130.541 72.6816 128.91 72.6719H128.207V66.9199H132.299ZM138.881 71.3047C138.871 73.1504 138.354 74.6836 137.436 75.9922H136.479C137.152 75.0156 137.797 73.0527 137.797 71.3047C137.797 69.5664 137.152 67.5938 136.479 66.627H137.436C138.354 67.9355 138.871 69.4688 138.881 71.3047Z" fill="#CFCFCF"/>
</svg>
