<svg width="222" height="122" viewBox="0 0 222 122" fill="none" xmlns="http://www.w3.org/2000/svg">
<g filter="url(#filter0_d_5235_24394)">
<rect x="11" y="11" width="200" height="100" rx="8.58434" fill="#F5F5F5"/>
<path d="M101.082 42.082H101.675C101.864 42.082 101.959 42.082 102.044 42.0768C103.137 42.0107 104.094 41.3211 104.502 40.3055C104.534 40.226 104.564 40.1363 104.624 39.957C104.683 39.7777 104.713 39.6881 104.745 39.6085C105.154 38.593 106.11 37.9034 107.203 37.8372C107.288 37.832 107.383 37.832 107.572 37.832H114.425C114.614 37.832 114.709 37.832 114.794 37.8372C115.887 37.9034 116.844 38.593 117.252 39.6085C117.284 39.6881 117.314 39.7777 117.374 39.957C117.433 40.1363 117.463 40.226 117.495 40.3055C117.904 41.3211 118.86 42.0107 119.953 42.0768C120.038 42.082 120.139 42.082 120.341 42.082C120.864 42.082 121.125 42.082 121.334 42.1027C123.35 42.3025 124.945 43.8972 125.145 45.913C125.165 46.122 125.165 46.3701 125.165 46.8664V60.4987C125.165 62.0357 124.35 63.3821 123.127 64.1285M115.339 56.3499C116.167 55.3649 116.665 54.0942 116.665 52.707C116.665 49.5774 114.128 47.0404 110.999 47.0404C109.613 47.0404 108.343 47.538 107.358 48.3644M125.165 66.1654L96.832 37.832M96.832 45.6237V57.9487C96.832 60.3289 96.832 61.519 97.2953 62.4282C97.7027 63.2278 98.3529 63.878 99.1526 64.2855C100.062 64.7487 101.252 64.7487 103.632 64.7487H115.957M110.999 58.3737C107.869 58.3737 105.332 55.8366 105.332 52.707" stroke="#CFCFCF" stroke-width="2.83333" stroke-linecap="round" stroke-linejoin="round"/>
<path d="M71.8496 82.3047C71.8594 80.4688 72.377 78.9355 73.2949 77.627H74.252C73.5781 78.5938 72.9336 80.5664 72.9336 82.3047C72.9336 84.0527 73.5781 86.0156 74.252 86.9922H73.2949C72.377 85.6836 71.8594 84.1504 71.8496 82.3047ZM82.1426 77.0801V85.8496H81.2148V77.0801H82.1426ZM77.4648 77.7344C78.7637 77.7344 79.7207 78.9258 79.7207 80.8008C79.7207 82.6855 78.7637 83.877 77.4648 83.877C76.1465 83.877 75.1992 82.6855 75.1992 80.8008C75.1992 78.9258 76.1465 77.7344 77.4648 77.7344ZM77.4648 78.5645C76.6543 78.5645 76.0977 79.4238 76.0977 80.8008C76.0977 82.1875 76.6543 83.0469 77.4648 83.0469C78.2656 83.0469 78.8223 82.1875 78.8223 80.8008C78.8223 79.4238 78.2656 78.5645 77.4648 78.5645ZM88.1289 77.9199V83.6719H84.0273V77.9199H88.1289ZM84.9453 78.6523V82.9199H87.2305V78.6523H84.9453ZM90.7852 77.0801V85.8496H89.8574V77.0801H90.7852ZM95.4043 79.6582C95.4043 81.123 96.3613 82.6367 97.709 83.2129L97.2012 83.9355C96.1709 83.4814 95.3506 82.5195 94.9453 81.3477C94.54 82.5977 93.7148 83.6621 92.6992 84.1602L92.1621 83.4277C93.4805 82.8125 94.457 81.1621 94.4668 79.6582V78.7305H92.4648V77.959H97.3965V78.7305H95.4043V79.6582ZM99.4277 77.0801V85.8301H98.5V77.0801H99.4277ZM107.641 77.0801V80.5664H108.998V81.3379H107.641V85.8203H106.713V77.0801H107.641ZM105.355 77.998C105.346 80.5273 104.232 82.7832 101.352 84.209L100.834 83.4863C103.026 82.3926 104.218 80.8105 104.408 78.7695H101.273V77.998H105.355ZM113.773 82.207V83.2227H115.141V82.207H116V85.7227H112.904V82.207H113.773ZM113.773 85H115.141V83.9258H113.773V85ZM118.539 82.8613C118.539 83.7793 119.047 84.707 120.131 85.0879L119.652 85.791C118.861 85.4883 118.349 84.917 118.08 84.2188C117.787 84.9023 117.27 85.4785 116.518 85.791L116.049 85.0879C117.104 84.6582 117.621 83.7305 117.621 82.8613V82.1484H118.539V82.8613ZM114.33 77.4512C115.482 77.4512 116.371 78.1055 116.566 79.082H118.275V77.0801H119.203V81.7188H118.275V79.8438H116.576C116.386 80.8496 115.492 81.5039 114.33 81.5039C112.992 81.5039 112.035 80.6836 112.035 79.4727C112.035 78.2812 112.992 77.4512 114.33 77.4512ZM114.33 78.2227C113.5 78.2227 112.924 78.7305 112.924 79.4727C112.924 80.2246 113.5 80.7422 114.33 80.752C115.141 80.7422 115.717 80.2246 115.717 79.4727C115.717 78.7305 115.141 78.2227 114.33 78.2227ZM122.455 82.3242V83.252H126.566V82.3242H127.494V85.7227H121.537V82.3242H122.455ZM122.455 84.9805H126.566V83.9746H122.455V84.9805ZM128.529 81.0059V81.7773H120.551V81.0059H128.529ZM125.014 77.5488C125.014 78.5547 126.41 79.5312 128.09 79.7363L127.758 80.4688C126.337 80.2686 125.102 79.5996 124.545 78.6719C123.974 79.6045 122.733 80.2686 121.332 80.4688L120.98 79.7363C122.68 79.5215 124.066 78.584 124.066 77.5488V77.1777H125.014V77.5488ZM136.459 77.0801V85.8301H135.531V77.0801H136.459ZM130.648 77.9297V82.8027C131.923 82.793 133.266 82.6904 134.672 82.4023L134.799 83.1836C133.246 83.4961 131.84 83.6035 130.463 83.6035H129.73V77.9297H130.648ZM144.652 77.0801V80.4688H146.059V81.2305H144.652V85.8496H143.725V77.0801H144.652ZM142.299 77.9199V78.6719H139.135V82.9004C140.604 82.8955 141.708 82.832 142.953 82.6074L143.07 83.3887C141.703 83.6328 140.541 83.6816 138.91 83.6719H138.207V77.9199H142.299ZM148.881 82.3047C148.871 84.1504 148.354 85.6836 147.436 86.9922H146.479C147.152 86.0156 147.797 84.0527 147.797 82.3047C147.797 80.5664 147.152 78.5938 146.479 77.627H147.436C148.354 78.9355 148.871 80.4688 148.881 82.3047Z" fill="#CFCFCF"/>
</g>
<defs>
<filter id="filter0_d_5235_24394" x="0.269579" y="0.269579" width="221.461" height="121.461" filterUnits="userSpaceOnUse" color-interpolation-filters="sRGB">
<feFlood flood-opacity="0" result="BackgroundImageFix"/>
<feColorMatrix in="SourceAlpha" type="matrix" values="0 0 0 0 0 0 0 0 0 0 0 0 0 0 0 0 0 0 127 0" result="hardAlpha"/>
<feOffset/>
<feGaussianBlur stdDeviation="5.36521"/>
<feComposite in2="hardAlpha" operator="out"/>
<feColorMatrix type="matrix" values="0 0 0 0 0 0 0 0 0 0 0 0 0 0 0 0 0 0 0.08 0"/>
<feBlend mode="normal" in2="BackgroundImageFix" result="effect1_dropShadow_5235_24394"/>
<feBlend mode="normal" in="SourceGraphic" in2="effect1_dropShadow_5235_24394" result="shape"/>
</filter>
</defs>
</svg>
