<svg width="159" height="100" viewBox="0 0 159 100" fill="none" xmlns="http://www.w3.org/2000/svg">
<path d="M0.5 8C0.5 3.58172 4.08172 0 8.5 0H150.5C154.918 0 158.5 3.58172 158.5 8V92C158.5 96.4183 154.918 100 150.5 100H8.5C4.08172 100 0.5 96.4183 0.5 92V8Z" fill="#F5F5F5"/>
<path d="M70.082 31.082H70.6754C70.8644 31.082 70.9589 31.082 71.0445 31.0768C72.1371 31.0107 73.0938 30.3211 73.5021 29.3055C73.534 29.226 73.5639 29.1363 73.6237 28.957C73.6835 28.7777 73.7134 28.6881 73.7453 28.6085C74.1536 27.593 75.1103 26.9034 76.2029 26.8372C76.2885 26.832 76.383 26.832 76.572 26.832H83.4254C83.6144 26.832 83.7089 26.832 83.7945 26.8372C84.8871 26.9034 85.8438 27.593 86.2521 28.6085C86.284 28.6881 86.3139 28.7777 86.3737 28.957C86.4335 29.1363 86.4634 29.226 86.4953 29.3055C86.9036 30.3211 87.8603 31.0107 88.9529 31.0768C89.0385 31.082 89.1392 31.082 89.3408 31.082C89.8639 31.082 90.1254 31.082 90.3344 31.1027C92.3502 31.3025 93.9449 32.8972 94.1447 34.913C94.1654 35.122 94.1654 35.3701 94.1654 35.8664V49.4987C94.1654 51.0357 93.3495 52.3821 92.1272 53.1285M84.3395 45.3499C85.167 44.3649 85.6654 43.0942 85.6654 41.707C85.6654 38.5774 83.1283 36.0404 79.9987 36.0404C78.6126 36.0404 77.3427 36.538 76.358 37.3644M94.1654 55.1654L65.832 26.832M65.832 34.6237V46.9487C65.832 49.3289 65.832 50.519 66.2953 51.4282C66.7027 52.2278 67.3529 52.878 68.1526 53.2855C69.0617 53.7487 70.2518 53.7487 72.632 53.7487H84.957M79.9987 47.3737C76.8691 47.3737 74.332 44.8366 74.332 41.707" stroke="#CFCFCF" stroke-width="2.83333" stroke-linecap="round" stroke-linejoin="round"/>
<path d="M40.8496 71.3047C40.8594 69.4688 41.377 67.9355 42.2949 66.627H43.252C42.5781 67.5938 41.9336 69.5664 41.9336 71.3047C41.9336 73.0527 42.5781 75.0156 43.252 75.9922H42.2949C41.377 74.6836 40.8594 73.1504 40.8496 71.3047ZM51.1426 66.0801V74.8496H50.2148V66.0801H51.1426ZM46.4648 66.7344C47.7637 66.7344 48.7207 67.9258 48.7207 69.8008C48.7207 71.6855 47.7637 72.877 46.4648 72.877C45.1465 72.877 44.1992 71.6855 44.1992 69.8008C44.1992 67.9258 45.1465 66.7344 46.4648 66.7344ZM46.4648 67.5645C45.6543 67.5645 45.0977 68.4238 45.0977 69.8008C45.0977 71.1875 45.6543 72.0469 46.4648 72.0469C47.2656 72.0469 47.8223 71.1875 47.8223 69.8008C47.8223 68.4238 47.2656 67.5645 46.4648 67.5645ZM57.1289 66.9199V72.6719H53.0273V66.9199H57.1289ZM53.9453 67.6523V71.9199H56.2305V67.6523H53.9453ZM59.7852 66.0801V74.8496H58.8574V66.0801H59.7852ZM64.4043 68.6582C64.4043 70.123 65.3613 71.6367 66.709 72.2129L66.2012 72.9355C65.1709 72.4814 64.3506 71.5195 63.9453 70.3477C63.54 71.5977 62.7148 72.6621 61.6992 73.1602L61.1621 72.4277C62.4805 71.8125 63.457 70.1621 63.4668 68.6582V67.7305H61.4648V66.959H66.3965V67.7305H64.4043V68.6582ZM68.4277 66.0801V74.8301H67.5V66.0801H68.4277ZM76.6406 66.0801V69.5664H77.998V70.3379H76.6406V74.8203H75.7129V66.0801H76.6406ZM74.3555 66.998C74.3457 69.5273 73.2324 71.7832 70.3516 73.209L69.834 72.4863C72.0264 71.3926 73.2178 69.8105 73.4082 67.7695H70.2734V66.998H74.3555ZM82.7734 71.207V72.2227H84.1406V71.207H85V74.7227H81.9043V71.207H82.7734ZM82.7734 74H84.1406V72.9258H82.7734V74ZM87.5391 71.8613C87.5391 72.7793 88.0469 73.707 89.1309 74.0879L88.6523 74.791C87.8613 74.4883 87.3486 73.917 87.0801 73.2188C86.7871 73.9023 86.2695 74.4785 85.5176 74.791L85.0488 74.0879C86.1035 73.6582 86.6211 72.7305 86.6211 71.8613V71.1484H87.5391V71.8613ZM83.3301 66.4512C84.4824 66.4512 85.3711 67.1055 85.5664 68.082H87.2754V66.0801H88.2031V70.7188H87.2754V68.8438H85.5762C85.3857 69.8496 84.4922 70.5039 83.3301 70.5039C81.9922 70.5039 81.0352 69.6836 81.0352 68.4727C81.0352 67.2812 81.9922 66.4512 83.3301 66.4512ZM83.3301 67.2227C82.5 67.2227 81.9238 67.7305 81.9238 68.4727C81.9238 69.2246 82.5 69.7422 83.3301 69.752C84.1406 69.7422 84.7168 69.2246 84.7168 68.4727C84.7168 67.7305 84.1406 67.2227 83.3301 67.2227ZM91.4551 71.3242V72.252H95.5664V71.3242H96.4941V74.7227H90.5371V71.3242H91.4551ZM91.4551 73.9805H95.5664V72.9746H91.4551V73.9805ZM97.5293 70.0059V70.7773H89.5508V70.0059H97.5293ZM94.0137 66.5488C94.0137 67.5547 95.4102 68.5312 97.0898 68.7363L96.7578 69.4688C95.3369 69.2686 94.1016 68.5996 93.5449 67.6719C92.9736 68.6045 91.7334 69.2686 90.332 69.4688L89.9805 68.7363C91.6797 68.5215 93.0664 67.584 93.0664 66.5488V66.1777H94.0137V66.5488ZM105.459 66.0801V74.8301H104.531V66.0801H105.459ZM99.6484 66.9297V71.8027C100.923 71.793 102.266 71.6904 103.672 71.4023L103.799 72.1836C102.246 72.4961 100.84 72.6035 99.4629 72.6035H98.7305V66.9297H99.6484ZM113.652 66.0801V69.4688H115.059V70.2305H113.652V74.8496H112.725V66.0801H113.652ZM111.299 66.9199V67.6719H108.135V71.9004C109.604 71.8955 110.708 71.832 111.953 71.6074L112.07 72.3887C110.703 72.6328 109.541 72.6816 107.91 72.6719H107.207V66.9199H111.299ZM117.881 71.3047C117.871 73.1504 117.354 74.6836 116.436 75.9922H115.479C116.152 75.0156 116.797 73.0527 116.797 71.3047C116.797 69.5664 116.152 67.5938 115.479 66.627H116.436C117.354 67.9355 117.871 69.4688 117.881 71.3047Z" fill="#CFCFCF"/>
</svg>
