<svg width="194" height="254" viewBox="0 0 194 254" fill="none" xmlns="http://www.w3.org/2000/svg">
<g filter="url(#filter0_d_5232_24384)">
<rect x="11" y="11" width="171.687" height="231.777" rx="8.58434" fill="#F5F5F5"/>
<path d="M87.082 108.469H87.6754C87.8644 108.469 87.9589 108.469 88.0445 108.464C89.1371 108.397 90.0938 107.708 90.5021 106.692C90.534 106.613 90.5639 106.523 90.6237 106.344C90.6835 106.164 90.7134 106.075 90.7453 105.995C91.1536 104.98 92.1103 104.29 93.2029 104.224C93.2885 104.219 93.383 104.219 93.572 104.219H100.425C100.614 104.219 100.709 104.219 100.794 104.224C101.887 104.29 102.844 104.98 103.252 105.995C103.284 106.075 103.314 106.164 103.374 106.344C103.433 106.523 103.463 106.613 103.495 106.692C103.904 107.708 104.86 108.397 105.953 108.464C106.038 108.469 106.139 108.469 106.341 108.469C106.864 108.469 107.125 108.469 107.334 108.489C109.35 108.689 110.945 110.284 111.145 112.3C111.165 112.509 111.165 112.757 111.165 113.253V126.885C111.165 128.422 110.35 129.769 109.127 130.515M101.339 122.737C102.167 121.752 102.665 120.481 102.665 119.094C102.665 115.964 100.128 113.427 96.9987 113.427C95.6126 113.427 94.3427 113.925 93.358 114.751M111.165 132.552L82.832 104.219M82.832 112.01V124.335C82.832 126.716 82.832 127.906 83.2953 128.815C83.7027 129.615 84.3529 130.265 85.1526 130.672C86.0617 131.135 87.2518 131.135 89.632 131.135H101.957M96.9987 124.76C93.8691 124.76 91.332 122.223 91.332 119.094" stroke="#CFCFCF" stroke-width="2.83333" stroke-linecap="round" stroke-linejoin="round"/>
<path d="M57.8496 148.691C57.8594 146.855 58.377 145.322 59.2949 144.014H60.252C59.5781 144.98 58.9336 146.953 58.9336 148.691C58.9336 150.439 59.5781 152.402 60.252 153.379H59.2949C58.377 152.07 57.8594 150.537 57.8496 148.691ZM68.1426 143.467V152.236H67.2148V143.467H68.1426ZM63.4648 144.121C64.7637 144.121 65.7207 145.312 65.7207 147.188C65.7207 149.072 64.7637 150.264 63.4648 150.264C62.1465 150.264 61.1992 149.072 61.1992 147.188C61.1992 145.312 62.1465 144.121 63.4648 144.121ZM63.4648 144.951C62.6543 144.951 62.0977 145.811 62.0977 147.188C62.0977 148.574 62.6543 149.434 63.4648 149.434C64.2656 149.434 64.8223 148.574 64.8223 147.188C64.8223 145.811 64.2656 144.951 63.4648 144.951ZM74.1289 144.307V150.059H70.0273V144.307H74.1289ZM70.9453 145.039V149.307H73.2305V145.039H70.9453ZM76.7852 143.467V152.236H75.8574V143.467H76.7852ZM81.4043 146.045C81.4043 147.51 82.3613 149.023 83.709 149.6L83.2012 150.322C82.1709 149.868 81.3506 148.906 80.9453 147.734C80.54 148.984 79.7148 150.049 78.6992 150.547L78.1621 149.814C79.4805 149.199 80.457 147.549 80.4668 146.045V145.117H78.4648V144.346H83.3965V145.117H81.4043V146.045ZM85.4277 143.467V152.217H84.5V143.467H85.4277ZM93.6406 143.467V146.953H94.998V147.725H93.6406V152.207H92.7129V143.467H93.6406ZM91.3555 144.385C91.3457 146.914 90.2324 149.17 87.3516 150.596L86.834 149.873C89.0264 148.779 90.2178 147.197 90.4082 145.156H87.2734V144.385H91.3555ZM99.7734 148.594V149.609H101.141V148.594H102V152.109H98.9043V148.594H99.7734ZM99.7734 151.387H101.141V150.312H99.7734V151.387ZM104.539 149.248C104.539 150.166 105.047 151.094 106.131 151.475L105.652 152.178C104.861 151.875 104.349 151.304 104.08 150.605C103.787 151.289 103.27 151.865 102.518 152.178L102.049 151.475C103.104 151.045 103.621 150.117 103.621 149.248V148.535H104.539V149.248ZM100.33 143.838C101.482 143.838 102.371 144.492 102.566 145.469H104.275V143.467H105.203V148.105H104.275V146.23H102.576C102.386 147.236 101.492 147.891 100.33 147.891C98.9922 147.891 98.0352 147.07 98.0352 145.859C98.0352 144.668 98.9922 143.838 100.33 143.838ZM100.33 144.609C99.5 144.609 98.9238 145.117 98.9238 145.859C98.9238 146.611 99.5 147.129 100.33 147.139C101.141 147.129 101.717 146.611 101.717 145.859C101.717 145.117 101.141 144.609 100.33 144.609ZM108.455 148.711V149.639H112.566V148.711H113.494V152.109H107.537V148.711H108.455ZM108.455 151.367H112.566V150.361H108.455V151.367ZM114.529 147.393V148.164H106.551V147.393H114.529ZM111.014 143.936C111.014 144.941 112.41 145.918 114.09 146.123L113.758 146.855C112.337 146.655 111.102 145.986 110.545 145.059C109.974 145.991 108.733 146.655 107.332 146.855L106.98 146.123C108.68 145.908 110.066 144.971 110.066 143.936V143.564H111.014V143.936ZM122.459 143.467V152.217H121.531V143.467H122.459ZM116.648 144.316V149.189C117.923 149.18 119.266 149.077 120.672 148.789L120.799 149.57C119.246 149.883 117.84 149.99 116.463 149.99H115.73V144.316H116.648ZM130.652 143.467V146.855H132.059V147.617H130.652V152.236H129.725V143.467H130.652ZM128.299 144.307V145.059H125.135V149.287C126.604 149.282 127.708 149.219 128.953 148.994L129.07 149.775C127.703 150.02 126.541 150.068 124.91 150.059H124.207V144.307H128.299ZM134.881 148.691C134.871 150.537 134.354 152.07 133.436 153.379H132.479C133.152 152.402 133.797 150.439 133.797 148.691C133.797 146.953 133.152 144.98 132.479 144.014H133.436C134.354 145.322 134.871 146.855 134.881 148.691Z" fill="#CFCFCF"/>
</g>
<defs>
<filter id="filter0_d_5232_24384" x="0.269579" y="0.269579" width="193.148" height="253.238" filterUnits="userSpaceOnUse" color-interpolation-filters="sRGB">
<feFlood flood-opacity="0" result="BackgroundImageFix"/>
<feColorMatrix in="SourceAlpha" type="matrix" values="0 0 0 0 0 0 0 0 0 0 0 0 0 0 0 0 0 0 127 0" result="hardAlpha"/>
<feOffset/>
<feGaussianBlur stdDeviation="5.36521"/>
<feComposite in2="hardAlpha" operator="out"/>
<feColorMatrix type="matrix" values="0 0 0 0 0 0 0 0 0 0 0 0 0 0 0 0 0 0 0.08 0"/>
<feBlend mode="normal" in2="BackgroundImageFix" result="effect1_dropShadow_5232_24384"/>
<feBlend mode="normal" in="SourceGraphic" in2="effect1_dropShadow_5232_24384" result="shape"/>
</filter>
</defs>
</svg>
