<svg width="140" height="25" viewBox="0 0 140 25" fill="none" xmlns="http://www.w3.org/2000/svg">
<path d="M8.3125 6.33984V7.12109C8.29688 8.05859 8.29688 9.44922 7.95312 11.2617L6.48438 11.1211C6.78906 9.56641 6.83594 8.44141 6.85938 7.55859H1.25V6.33984H8.3125ZM4.73438 9.48047V12.3711C6.23438 12.3242 7.78125 12.2148 9.1875 12.0117L9.28125 13.0898C6.35938 13.6055 3.01562 13.6523 0.546875 13.668L0.40625 12.4648C1.26562 12.457 2.24219 12.4492 3.26562 12.418V9.48047H4.73438ZM11.5938 5.27734V9.73047H13.5156V10.9805H11.5938V15.793H10.0781V5.27734H11.5938ZM12.0469 17.7773V18.9805H2.53125V14.8398H4.01562V17.7773H12.0469ZM25.9531 5.29297V13.2148H24.4688V5.29297H25.9531ZM25.9531 13.9648V19.1055H16.75V13.9648H25.9531ZM18.2188 15.1523V17.9023H24.5V15.1523H18.2188ZM19.4375 7.18359C19.4219 9.07422 20.7812 10.7773 22.9062 11.4961L22.1719 12.6367C20.5469 12.0977 19.3281 10.9883 18.6875 9.54297C18.0625 11.082 16.8203 12.3086 15.1406 12.9023L14.4062 11.7305C16.5938 10.9961 17.9219 9.13672 17.9219 7.18359V5.82422H19.4375V7.18359ZM39.625 6.69922C39.625 10.8242 38.25 14.543 33.1094 17.043L32.3125 15.8867C34.8203 14.668 36.3828 13.1602 37.2656 11.3711L32.5938 11.8086L32.3906 10.5117L37.7344 10.168C37.9531 9.45703 38.0938 8.69922 38.1562 7.90234H33.0938V6.69922H39.625ZM43.7188 5.27734V19.2773H42.2188V5.27734H43.7188ZM57.6094 5.29297V19.2773H56.1094V15.9336H53.0156V14.8086H56.1094V5.29297H57.6094ZM45.8438 12.5742C48.5 12.5586 52.0312 12.543 55.0938 12.1211L55.1719 13.2148C53.8438 13.4492 52.4609 13.5898 51.1094 13.668V18.8398H49.625V13.7461C48.3438 13.8008 47.125 13.8086 46.0469 13.8086L45.8438 12.5742ZM50.4531 5.93359C52.5156 5.93359 54 7.07422 54 8.73047C54 10.418 52.5156 11.5117 50.4531 11.5117C48.3438 11.5117 46.875 10.418 46.875 8.73047C46.875 7.07422 48.3438 5.93359 50.4531 5.93359ZM50.4531 7.07422C49.1562 7.07422 48.2656 7.74609 48.2812 8.73047C48.2656 9.73047 49.1562 10.3711 50.4531 10.3711C51.7031 10.3711 52.5938 9.73047 52.5938 8.73047C52.5938 7.74609 51.7031 7.07422 50.4531 7.07422ZM71.0781 11.918V13.1367H61.3281V6.52734H70.9531V7.74609H62.7969V11.918H71.0781ZM72.5469 16.1992V17.4336H59.7344V16.1992H72.5469ZM89.1406 5.27734V12.4805H87.6562V8.88672H84.7031V7.68359H87.6562V5.27734H89.1406ZM89.1406 13.1367V16.6211H81.4688V17.918H89.625V19.1055H80.0156V15.4961H87.6719V14.3086H79.9844V13.1367H89.1406ZM82.3906 6.94922C82.3906 8.73047 83.6719 10.3867 85.7812 11.0586L85 12.2148C83.4609 11.6836 82.2969 10.6289 81.6875 9.29297C81.0703 10.793 79.8672 11.9727 78.2188 12.543L77.4219 11.3555C79.6094 10.6523 80.9062 8.91797 80.9219 6.94922V5.73047H82.3906V6.94922ZM102.969 5.27734V13.6055H101.484V10.0586H98.875V8.83984H101.484V5.27734H102.969ZM98.2812 13.9961C101.219 13.9961 103.016 14.9648 103.016 16.6367C103.016 18.3086 101.219 19.2617 98.2812 19.2773C95.3438 19.2617 93.5312 18.3086 93.5469 16.6367C93.5312 14.9648 95.3438 13.9961 98.2812 13.9961ZM98.2812 15.1523C96.2344 15.1523 95.0156 15.6836 95.0156 16.6367C95.0156 17.5742 96.2344 18.1211 98.2812 18.1055C100.328 18.1211 101.547 17.5742 101.547 16.6367C101.547 15.6836 100.328 15.1523 98.2812 15.1523ZM96.3125 7.74609C96.3125 9.52734 97.5781 11.2461 99.6875 11.9648L98.9219 13.1367C97.3516 12.5898 96.1953 11.4727 95.5938 10.0898C94.9766 11.6602 93.75 12.918 92.0781 13.5273L91.2969 12.3398C93.4688 11.5898 94.7969 9.69922 94.7969 7.76172V7.44922H91.7656V6.24609H99.3125V7.44922H96.3125V7.74609Z" fill="#9D9D9D"/>
<path d="M125.195 19.4252C125.445 19.3752 125.696 19.2482 125.849 19.0182L131.833 13.0182C132.056 12.6832 132.056 12.2292 131.833 11.8942L125.849 5.89419C125.544 5.43419 124.905 5.30621 124.447 5.61221C123.989 5.91921 123.861 6.55922 124.166 7.01822L129.776 12.4562L124.166 17.8942C123.861 18.3532 123.989 18.9932 124.447 19.3002C124.676 19.4532 124.944 19.4752 125.195 19.4252Z" fill="#9D9D9D"/>
</svg>
