<svg width="25" height="24" viewBox="0 0 25 24" fill="none" xmlns="http://www.w3.org/2000/svg">
<g id="icon_comment">
<path id="Vector" d="M12.377 1.99805C6.85395 1.99805 2.37695 6.47505 2.37695 11.998C2.37695 13.27 2.63895 14.559 3.09595 15.717L3.87695 17.31C4.37195 18.339 4.19796 19.309 3.53296 20.498C3.16596 21.156 3.62395 21.949 4.37695 21.967C5.39395 21.99 7.08395 21.666 8.37695 21.1861C9.57095 21.7371 11.045 21.998 12.377 21.998C17.9 21.998 22.377 17.521 22.377 11.998C22.377 6.47505 17.9 1.99805 12.377 1.99805ZM12.377 3.99805C16.795 3.99805 20.377 7.58005 20.377 11.998C20.377 16.416 16.795 19.998 12.377 19.998C11.227 19.998 9.78195 19.702 8.87695 19.217C8.60895 19.073 8.28095 19.0351 8.00195 19.1541C7.36395 19.4271 6.71995 19.6321 5.97095 19.7791C6.27095 18.7281 6.18196 17.5251 5.65796 16.4361L4.90796 14.9041C4.57496 14.0521 4.37695 13.018 4.37695 11.998C4.37695 7.58005 7.95895 3.99805 12.377 3.99805Z" fill="#CFCFCF"/>
</g>
</svg>
