<svg width="40" height="52" viewBox="0 0 40 52" fill="none" xmlns="http://www.w3.org/2000/svg">
<path d="M0.890234 38.6289V37.5156H7.46445V38.6289H4.82773V46H3.53867V38.6289H0.890234ZM9.70602 37.5156V46H8.41695V37.5156H9.70602ZM16.8109 40.2812C16.5999 39.1914 15.6976 38.582 14.6195 38.582C13.1546 38.582 12.0648 39.707 12.0648 41.7578C12.0648 43.8203 13.1663 44.9336 14.6195 44.9336C15.6859 44.9336 16.5882 44.3359 16.8109 43.2578L18.1116 43.2695C17.8421 44.9453 16.471 46.1172 14.6077 46.1172C12.3929 46.1172 10.7874 44.4648 10.7874 41.7578C10.7874 39.0391 12.4046 37.3984 14.6077 37.3984C16.4007 37.3984 17.8187 38.4531 18.1116 40.2812H16.8109ZM19.1462 46V37.5156H20.4352V41.5586H20.5407L24.0915 37.5156H25.7087L22.2868 41.3359L25.7204 46H24.1618L21.4313 42.2148L20.4352 43.3633V46H19.1462ZM26.4151 46V37.5156H31.7354V38.6289H27.7041V41.1953H31.4541V42.2969H27.7041V44.8867H31.7823V46H26.4151ZM32.5355 38.6289V37.5156H39.1098V38.6289H36.473V46H35.184V38.6289H32.5355Z" fill="#CFCFCF"/>
<path d="M17.3337 10.6663V9.33301M17.3337 16.6663V15.333M17.3337 22.6663V21.333M10.9337 5.33301H29.067C30.5605 5.33301 31.3072 5.33301 31.8776 5.62366C32.3794 5.87932 32.7873 6.28727 33.043 6.78903C33.3337 7.35946 33.3337 8.1062 33.3337 9.59967V11.333C30.7563 11.333 28.667 13.4223 28.667 15.9997C28.667 18.577 30.7563 20.6663 33.3337 20.6663V22.3997C33.3337 23.8931 33.3337 24.6399 33.043 25.2103C32.7873 25.7121 32.3794 26.12 31.8776 26.3757C31.3072 26.6663 30.5605 26.6663 29.067 26.6663H10.9337C9.44019 26.6663 8.69345 26.6663 8.12302 26.3757C7.62125 26.12 7.2133 25.7121 6.95764 25.2103C6.66699 24.6399 6.66699 23.8931 6.66699 22.3997V20.6663C9.24432 20.6663 11.3337 18.577 11.3337 15.9997C11.3337 13.4223 9.24432 11.333 6.66699 11.333V9.59967C6.66699 8.1062 6.66699 7.35946 6.95764 6.78903C7.2133 6.28727 7.62125 5.87932 8.12302 5.62366C8.69345 5.33301 9.44019 5.33301 10.9337 5.33301Z" stroke="#CFCFCF" stroke-width="2" stroke-linecap="round" stroke-linejoin="round"/>
</svg>
