<svg width="138" height="44" viewBox="0 0 138 44" fill="none" xmlns="http://www.w3.org/2000/svg">
<path d="M93.8268 14.4653C94.0617 14.6301 94.379 14.6411 94.6283 14.7622C94.8777 14.8832 95.0885 15.1726 95.3634 15.2331C95.6024 15.2892 95.8763 15.1311 96.1207 15.1424C96.3651 15.1536 96.6109 15.2288 96.8517 15.1941C97.0926 15.1594 97.3173 15.0318 97.5524 14.9691C97.7875 14.9064 98.0158 14.8247 98.2452 14.7341C98.4746 14.6434 98.6803 14.5226 98.9028 14.4129C99.1254 14.3032 99.4362 14.368 99.6508 14.2482C99.8655 14.1285 100.019 13.9104 100.226 13.7806C100.433 13.6508 100.656 13.5321 100.854 13.4012C101.061 13.2714 101.283 13.1707 101.48 13.0398C101.678 12.909 101.909 12.8093 102.115 12.6795C102.322 12.5497 102.513 12.3998 102.72 12.27C102.927 12.1402 103.087 11.9411 103.294 11.8113C103.501 11.6815 103.715 11.5708 103.92 11.4499C104.126 11.3291 104.319 11.1613 104.525 11.0404C104.731 10.9196 105.036 10.9564 105.25 10.8367C105.465 10.7169 105.626 10.5178 105.84 10.3981C106.055 10.2783 106.313 10.2548 106.527 10.1351C106.742 10.0153 106.94 9.88443 107.162 9.77474C107.385 9.66505 107.516 9.4078 107.739 9.29811C107.961 9.18842 108.226 9.18391 108.447 9.08319C108.669 8.98247 108.825 8.74641 109.047 8.63672C109.27 8.52703 109.519 8.49344 109.74 8.40169C109.96 8.30994 110.238 8.34347 110.469 8.24383C110.699 8.1442 110.868 7.95516 111.097 7.86449C111.327 7.77383 111.597 7.79731 111.816 7.71454C112.035 7.63176 112.266 7.53212 112.494 7.45042C112.722 7.36873 112.863 7.03074 113.091 6.95802C113.318 6.8853 113.615 6.98487 113.844 6.90318C114.072 6.82148 114.274 6.65472 114.509 6.59205C114.744 6.52938 115.018 6.5988 115.253 6.53613C115.488 6.47346 115.686 6.26972 115.921 6.20705C116.156 6.14438 116.408 6.1657 116.642 6.11201C116.876 6.05831 117.094 5.91164 117.328 5.85795C117.562 5.80425 117.811 5.77963 118.044 5.7349C118.277 5.69018 118.53 5.70252 118.771 5.66784C119.012 5.63317 119.252 5.60747 119.492 5.5728C119.733 5.53812 119.981 5.59533 120.221 5.56962C120.461 5.54392 120.699 5.45434 120.939 5.42863C121.179 5.40293 121.416 5.32232 121.662 5.31564C121.909 5.30896 122.142 5.19138 122.388 5.1847C122.635 5.17803 122.88 5.335 123.117 5.32724C123.355 5.31948 123.601 5.3128 123.846 5.32407C124.09 5.33533 124.336 5.2558 124.581 5.26706C124.825 5.27833 125.069 5.29856 125.311 5.32777C125.544 5.3559 125.764 5.49168 125.998 5.51981C126.231 5.54794 126.455 5.64783 126.688 5.68493C126.92 5.72203 127.16 5.69632 127.391 5.74239C127.622 5.78846 127.89 5.67521 128.12 5.73025C128.35 5.78529 128.527 6.0524 128.747 6.11533C128.967 6.17826 129.236 6.13786 129.455 6.20976C129.674 6.28166 129.849 6.49386 130.065 6.58371C130.282 6.67355 130.499 6.7634 130.714 6.86222C130.93 6.96103 131.242 6.86215 131.448 6.96886C131.653 7.07557 131.74 7.41369 131.934 7.53726C132.129 7.66082 132.323 7.78439 132.517 7.91693C132.71 8.04946 133.023 8.02345 133.205 8.17285C133.387 8.32225 133.485 8.57065 133.656 8.73691C133.827 8.90317 134.082 8.9794 134.243 9.15355C134.404 9.3277 134.423 9.62128 134.565 9.80224C134.707 9.9832 135.026 10.058 135.147 10.2548C135.269 10.4515 135.203 10.7712 135.315 10.9759C135.427 11.1805 135.52 11.3919 135.613 11.6034C135.706 11.8148 136.036 11.9456 136.11 12.1639C136.183 12.3821 136.264 12.6194 136.318 12.8534C136.371 13.0874 136.35 13.3397 136.386 13.5716C136.422 13.8034 136.346 14.0492 136.354 14.2868C136.362 14.5244 136.453 14.7538 136.442 14.9892C136.432 15.2246 136.421 15.469 136.384 15.7012C136.346 15.9423 136.184 16.1504 136.12 16.3793C136.056 16.6082 136.01 16.8393 135.919 17.065C135.828 17.2907 135.747 17.5085 135.64 17.7231C135.532 17.9376 135.459 18.1655 135.334 18.3689C135.209 18.5723 135.16 18.8303 135.019 19.0226C134.877 19.2149 134.569 19.2778 134.42 19.4601C134.27 19.6423 134.121 19.8245 133.955 19.9956C133.788 20.1667 133.655 20.369 133.49 20.5312C133.324 20.6933 133.165 20.8834 132.983 21.0344C132.801 21.1854 132.594 21.3152 132.412 21.4662C132.221 21.6161 132.102 21.8475 131.911 21.9974C131.72 22.1473 131.444 22.1687 131.246 22.3085C131.047 22.4484 130.887 22.6385 130.689 22.7694C130.492 22.9002 130.293 23.0401 130.087 23.1609C129.881 23.2817 129.69 23.4316 129.476 23.5514C129.261 23.6711 129.092 23.8602 128.879 23.9709C128.665 24.0817 128.444 24.1824 128.221 24.2921C127.999 24.4018 127.735 24.3974 127.515 24.4891C127.294 24.5809 127.044 24.6234 126.823 24.7152C126.603 24.8069 126.43 25.0318 126.211 25.1146C125.991 25.1974 125.685 25.0967 125.466 25.1795C125.246 25.2623 125.092 25.5622 124.865 25.635C124.637 25.7077 124.414 25.8263 124.186 25.8991C123.959 25.9718 123.664 25.8543 123.437 25.927C123.21 25.9997 122.982 26.0724 122.746 26.1441C122.51 26.2157 122.278 26.2515 122.043 26.3141C121.808 26.3768 121.632 26.6286 121.397 26.6913C121.162 26.754 120.903 26.7136 120.667 26.7763C120.432 26.839 120.211 26.9397 119.977 26.9934C119.743 27.0471 119.515 27.1288 119.28 27.1825C119.046 27.2362 118.8 27.2429 118.566 27.2966C118.332 27.3503 118.102 27.4409 117.87 27.4857C117.637 27.5304 117.367 27.4251 117.124 27.4777C116.881 27.5303 116.664 27.668 116.431 27.7127C116.198 27.7575 115.936 27.6712 115.695 27.7059C115.454 27.7405 115.23 27.8592 114.998 27.9039C114.765 27.9486 114.54 28.0763 114.298 28.1199C114.056 28.1636 113.818 28.1713 113.578 28.206C113.337 28.2407 113.118 28.3963 112.878 28.422C112.638 28.4477 112.381 28.3166 112.141 28.3423C111.902 28.368 111.665 28.4396 111.426 28.4653C111.186 28.491 110.935 28.3789 110.687 28.4035C110.438 28.4282 110.215 28.5378 109.976 28.5635C109.736 28.5892 109.504 28.6979 109.266 28.7146C109.027 28.7313 108.78 28.738 108.543 28.7458C108.305 28.7535 108.056 28.6324 107.809 28.6391C107.563 28.6458 107.342 28.8922 107.094 28.9079C106.847 28.9235 106.611 28.9133 106.365 28.92C106.118 28.9267 105.876 28.8246 105.638 28.8324C105.4 28.8401 105.152 28.7829 104.915 28.7907C104.677 28.7985 104.435 28.7693 104.19 28.767C103.944 28.7647 103.71 28.8184 103.465 28.8161C103.228 28.8149 102.985 28.9403 102.741 28.9291C102.497 28.9178 102.262 28.8258 102.028 28.8066C101.793 28.7875 101.557 28.7134 101.313 28.6932C101.07 28.6729 100.825 28.7435 100.59 28.7244C100.356 28.7052 100.133 28.5145 99.8911 28.4853C99.6488 28.4561 99.395 28.5984 99.1618 28.5703C98.9285 28.5422 98.6928 28.4591 98.4606 28.422C98.2284 28.3849 98.0135 28.2043 97.7814 28.1672C97.5492 28.1301 97.262 28.323 97.032 28.268C96.802 28.2129 96.563 28.1568 96.334 28.0928C96.1051 28.0288 95.9258 27.7796 95.689 27.7055C95.4522 27.6315 95.2024 27.6651 94.9745 27.5921C94.7467 27.5191 94.5443 27.3855 94.3176 27.3035C94.0908 27.2216 93.8895 27.079 93.6728 26.9891C93.4561 26.8993 93.1916 26.9038 92.976 26.805C92.7603 26.7062 92.5691 26.5557 92.3557 26.4389C92.1422 26.3222 91.9244 26.2413 91.7109 26.1245C91.5064 26.0089 91.3364 25.8336 91.1341 25.7C90.9318 25.5664 90.6281 25.5935 90.4348 25.461C90.2414 25.3284 90.0736 25.1352 89.8913 24.9858C89.7091 24.8364 89.4755 24.7355 89.2933 24.5861C89.1111 24.4367 89.0983 24.0893 88.9172 23.9309C88.7361 23.7725 88.4914 23.6884 88.3303 23.5142C88.1693 23.3401 88.0897 23.0939 87.9287 22.9197C87.7677 22.7456 87.5251 22.6435 87.3652 22.4604C87.2052 22.2772 87.1547 22.0163 87.0038 21.8343C86.8528 21.6522 86.4928 21.6179 86.3519 21.428C86.211 21.2381 86.1113 21.0076 85.9804 20.8098C85.8496 20.612 85.8964 20.2991 85.7666 20.0923C85.6368 19.8855 85.3092 19.8096 85.1884 19.6039C85.0675 19.3981 85.0541 19.1326 84.9433 18.919C84.8325 18.7054 84.7788 18.4713 84.668 18.2577C84.5573 18.0441 84.272 17.9187 84.1702 17.7062C84.0684 17.4937 84.2082 17.1647 84.1075 16.9432C84.0068 16.7217 83.6846 16.6009 83.5928 16.3805C83.5011 16.1601 83.5626 15.8763 83.4798 15.6569C83.397 15.4376 83.3634 15.1878 83.2807 14.9685C83.1979 14.7492 82.945 14.5821 82.8723 14.3549C82.7995 14.1277 82.963 13.8289 82.8903 13.6016C82.8175 13.3744 82.5097 13.2099 82.446 12.9838C82.3822 12.7576 82.3576 12.5089 82.3028 12.2838C82.248 12.0588 82.3645 11.7725 82.3197 11.5395C82.2524 11.2675 82.0731 11.0183 82.0248 10.7394C81.9765 10.4605 81.8734 10.1841 81.862 9.9006C81.8507 9.61708 81.8405 9.32459 81.8841 9.03858C81.9122 8.80532 82.048 8.58504 82.1199 8.36616C82.1918 8.14729 82.2838 7.91263 82.4152 7.72824C82.5478 7.53488 82.8098 7.47545 82.9986 7.34349C83.1875 7.21153 83.3404 7.07524 83.5824 7.0316C83.7963 6.99368 84.008 6.9737 84.2582 7.01296C84.4993 7.05114 84.7117 7.17687 84.9463 7.26888C85.181 7.36089 85.4854 7.25196 85.7179 7.36191C85.9504 7.47187 86.1283 7.65715 86.3407 7.78288C86.5531 7.90861 86.6986 8.13551 86.9089 8.27918C87.1191 8.42286 87.288 8.60706 87.4792 8.75754C87.6704 8.90802 87.9119 9.01906 88.102 9.17851C88.3011 9.33905 88.4366 9.57383 88.6188 9.72323C88.8168 9.89274 89.1219 9.92952 89.3109 10.0979C89.4999 10.2664 89.6455 10.4933 89.8335 10.6707C90.0214 10.8481 90.2428 10.9749 90.4307 11.1523C90.6187 11.3297 90.849 11.4576 91.028 11.6339C91.207 11.8102 91.4061 11.9707 91.593 12.1571C91.7798 12.3435 91.8974 12.5761 92.0764 12.7524C92.2554 12.9287 92.3485 13.213 92.5365 13.3904C92.7413 13.5789 93.0409 13.6606 93.2558 13.8412C93.4706 14.0218 93.632 14.2688 93.858 14.4326L93.8268 14.4653Z" fill="#6096FF"/>
<mask id="mask0_4901_26870" style="mask-type:luminance" maskUnits="userSpaceOnUse" x="81" y="5" width="56" height="24">
<path d="M93.8268 14.4643C94.0617 14.6291 94.379 14.6401 94.6283 14.7612C94.8777 14.8823 95.0885 15.1716 95.3634 15.2321C95.6024 15.2882 95.8763 15.1301 96.1207 15.1414C96.3651 15.1526 96.6109 15.2278 96.8517 15.1931C97.0926 15.1584 97.3173 15.0308 97.5524 14.9681C97.7875 14.9055 98.0158 14.8238 98.2452 14.7331C98.4746 14.6424 98.6803 14.5216 98.9028 14.4119C99.1254 14.3022 99.4362 14.367 99.6508 14.2473C99.8655 14.1275 100.019 13.9094 100.226 13.7796C100.433 13.6498 100.656 13.5311 100.854 13.4003C101.061 13.2705 101.283 13.1697 101.48 13.0389C101.678 12.908 101.909 12.8084 102.115 12.6786C102.322 12.5488 102.513 12.3989 102.72 12.2691C102.927 12.1393 103.087 11.9402 103.294 11.8104C103.501 11.6806 103.715 11.5698 103.92 11.449C104.126 11.3281 104.319 11.1603 104.525 11.0395C104.731 10.9186 105.036 10.9554 105.25 10.8357C105.465 10.7159 105.626 10.5169 105.84 10.3971C106.055 10.2774 106.313 10.2538 106.527 10.1341C106.742 10.0143 106.94 9.88345 107.162 9.77376C107.385 9.66407 107.516 9.40683 107.739 9.29714C107.961 9.18745 108.226 9.18293 108.447 9.08221C108.669 8.98149 108.825 8.74543 109.047 8.63574C109.27 8.52605 109.519 8.49246 109.74 8.40071C109.96 8.30896 110.238 8.34249 110.469 8.24286C110.699 8.14322 110.868 7.95418 111.097 7.86352C111.327 7.77285 111.597 7.79634 111.816 7.71356C112.035 7.63078 112.266 7.53114 112.494 7.44945C112.722 7.36775 112.863 7.02977 113.091 6.95704C113.318 6.88432 113.615 6.9839 113.844 6.9022C114.072 6.82051 114.274 6.65374 114.509 6.59107C114.744 6.5284 115.018 6.59783 115.253 6.53516C115.488 6.47248 115.686 6.26875 115.921 6.20608C116.156 6.14341 116.408 6.16473 116.642 6.11103C116.876 6.05733 117.094 5.91067 117.328 5.85697C117.562 5.80327 117.811 5.77865 118.044 5.73393C118.277 5.6892 118.53 5.70154 118.771 5.66687C119.012 5.63219 119.252 5.60649 119.492 5.57182C119.733 5.53714 119.981 5.59435 120.221 5.56865C120.461 5.54295 120.699 5.45336 120.939 5.42766C121.179 5.40195 121.416 5.32134 121.662 5.31466C121.909 5.30798 122.142 5.1904 122.388 5.18373C122.635 5.17705 122.88 5.33402 123.117 5.32626C123.355 5.3185 123.601 5.31182 123.846 5.32309C124.09 5.33435 124.336 5.25482 124.581 5.26608C124.825 5.27735 125.069 5.29759 125.311 5.32679C125.544 5.35492 125.764 5.49071 125.998 5.51883C126.231 5.54696 126.455 5.64685 126.688 5.68395C126.92 5.72105 127.16 5.69535 127.391 5.74142C127.622 5.78749 127.89 5.67423 128.12 5.72927C128.35 5.78431 128.527 6.05143 128.747 6.11436C128.967 6.17729 129.236 6.13688 129.455 6.20878C129.674 6.28069 129.849 6.49289 130.065 6.58273C130.282 6.67258 130.499 6.76242 130.714 6.86124C130.93 6.96006 131.242 6.86118 131.448 6.96788C131.653 7.07459 131.74 7.41271 131.934 7.53628C132.129 7.65985 132.323 7.78341 132.517 7.91595C132.71 8.04849 133.023 8.02247 133.205 8.17187C133.387 8.32127 133.485 8.56967 133.656 8.73593C133.827 8.90219 134.082 8.97842 134.243 9.15257C134.404 9.32672 134.423 9.6203 134.565 9.80126C134.707 9.98222 135.026 10.057 135.147 10.2538C135.269 10.4505 135.203 10.7702 135.315 10.9749C135.427 11.1795 135.52 11.3909 135.613 11.6024C135.706 11.8138 136.036 11.9446 136.11 12.1629C136.183 12.3811 136.264 12.6184 136.318 12.8524C136.371 13.0864 136.35 13.3387 136.386 13.5706C136.422 13.8024 136.346 14.0482 136.354 14.2858C136.362 14.5234 136.453 14.7528 136.442 14.9882C136.432 15.2236 136.421 15.468 136.384 15.7002C136.346 15.9413 136.184 16.1494 136.12 16.3783C136.056 16.6073 136.01 16.8384 135.919 17.064C135.828 17.2897 135.747 17.5075 135.64 17.7221C135.532 17.9366 135.459 18.1645 135.334 18.3679C135.209 18.5713 135.16 18.8293 135.019 19.0216C134.877 19.2139 134.569 19.2769 134.42 19.4591C134.27 19.6413 134.121 19.8236 133.955 19.9946C133.788 20.1657 133.655 20.3681 133.49 20.5302C133.324 20.6923 133.165 20.8824 132.983 21.0334C132.801 21.1844 132.594 21.3142 132.412 21.4652C132.221 21.6151 132.102 21.8465 131.911 21.9964C131.72 22.1463 131.444 22.1677 131.246 22.3075C131.047 22.4474 130.887 22.6375 130.689 22.7684C130.492 22.8993 130.293 23.0391 130.087 23.1599C129.881 23.2808 129.69 23.4307 129.476 23.5504C129.261 23.6702 129.092 23.8592 128.879 23.97C128.665 24.0807 128.444 24.1815 128.221 24.2911C127.999 24.4008 127.735 24.3964 127.515 24.4881C127.294 24.5799 127.044 24.6224 126.823 24.7142C126.603 24.8059 126.43 25.0309 126.211 25.1136C125.991 25.1964 125.685 25.0958 125.466 25.1785C125.246 25.2613 125.092 25.5613 124.865 25.634C124.637 25.7067 124.414 25.8254 124.186 25.8981C123.959 25.9708 123.664 25.8533 123.437 25.926C123.21 25.9987 122.982 26.0715 122.746 26.1431C122.51 26.2147 122.278 26.2505 122.043 26.3132C121.808 26.3758 121.632 26.6277 121.397 26.6903C121.162 26.753 120.903 26.7127 120.667 26.7753C120.432 26.838 120.211 26.9387 119.977 26.9924C119.743 27.0461 119.515 27.1278 119.28 27.1815C119.046 27.2352 118.8 27.2419 118.566 27.2956C118.332 27.3493 118.102 27.44 117.87 27.4847C117.637 27.5294 117.367 27.4241 117.124 27.4767C116.881 27.5293 116.664 27.667 116.431 27.7118C116.198 27.7565 115.936 27.6702 115.695 27.7049C115.454 27.7395 115.23 27.8582 114.998 27.9029C114.765 27.9477 114.54 28.0753 114.298 28.1189C114.056 28.1626 113.818 28.1704 113.578 28.205C113.337 28.2397 113.118 28.3953 112.878 28.421C112.638 28.4467 112.381 28.3156 112.141 28.3413C111.902 28.367 111.665 28.4386 111.426 28.4643C111.186 28.4901 110.935 28.3779 110.687 28.4026C110.438 28.4272 110.215 28.5369 109.976 28.5626C109.736 28.5883 109.504 28.6969 109.266 28.7136C109.027 28.7303 108.78 28.737 108.543 28.7448C108.305 28.7525 108.056 28.6315 107.809 28.6381C107.563 28.6448 107.342 28.8912 107.094 28.9069C106.847 28.9225 106.611 28.9124 106.365 28.919C106.118 28.9257 105.876 28.8236 105.638 28.8314C105.4 28.8392 105.152 28.782 104.915 28.7897C104.677 28.7975 104.435 28.7683 104.19 28.766C103.944 28.7637 103.71 28.8174 103.465 28.8151C103.228 28.8139 102.985 28.9394 102.741 28.9281C102.497 28.9168 102.262 28.8248 102.028 28.8057C101.793 28.7865 101.557 28.7124 101.313 28.6922C101.07 28.672 100.825 28.7425 100.59 28.7234C100.356 28.7042 100.133 28.5135 99.8911 28.4843C99.6488 28.4551 99.395 28.5974 99.1618 28.5693C98.9285 28.5412 98.6928 28.4581 98.4606 28.4211C98.2284 28.384 98.0135 28.2033 97.7814 28.1662C97.5492 28.1291 97.262 28.322 97.032 28.267C96.802 28.2119 96.563 28.1558 96.334 28.0918C96.1051 28.0278 95.9258 27.7786 95.689 27.7046C95.4522 27.6305 95.2024 27.6641 94.9745 27.5911C94.7467 27.5181 94.5443 27.3845 94.3176 27.3026C94.0908 27.2206 93.8895 27.078 93.6728 26.9882C93.4561 26.8983 93.1916 26.9028 92.976 26.804C92.7603 26.7052 92.5691 26.5547 92.3557 26.438C92.1422 26.3212 91.9244 26.2403 91.7109 26.1236C91.5064 26.0079 91.3364 25.8327 91.1341 25.699C90.9318 25.5654 90.6281 25.5925 90.4348 25.46C90.2414 25.3274 90.0736 25.1343 89.8913 24.9849C89.7091 24.8355 89.4755 24.7345 89.2933 24.5851C89.1111 24.4357 89.0983 24.0883 88.9172 23.9299C88.7361 23.7715 88.4914 23.6874 88.3303 23.5133C88.1693 23.3391 88.0897 23.0929 87.9287 22.9187C87.7677 22.7446 87.5251 22.6425 87.3652 22.4594C87.2052 22.2763 87.1547 22.0153 87.0038 21.8333C86.8528 21.6513 86.4928 21.617 86.3519 21.427C86.211 21.2371 86.1113 21.0066 85.9804 20.8088C85.8496 20.611 85.8964 20.2981 85.7666 20.0913C85.6368 19.8845 85.3092 19.8086 85.1884 19.6029C85.0675 19.3972 85.0541 19.1316 84.9433 18.918C84.8325 18.7044 84.7788 18.4704 84.668 18.2568C84.5573 18.0432 84.272 17.9178 84.1702 17.7052C84.0684 17.4927 84.2082 17.1637 84.1075 16.9422C84.0068 16.7207 83.6846 16.5999 83.5928 16.3795C83.5011 16.1591 83.5626 15.8753 83.4798 15.656C83.397 15.4366 83.3634 15.1868 83.2807 14.9675C83.1979 14.7482 82.945 14.5812 82.8723 14.354C82.7995 14.1267 82.963 13.8279 82.8903 13.6007C82.8175 13.3735 82.5097 13.2089 82.446 12.9828C82.3822 12.7566 82.3576 12.5079 82.3028 12.2829C82.248 12.0578 82.3645 11.7715 82.3197 11.5386C82.2524 11.2665 82.0731 11.0173 82.0248 10.7384C81.9765 10.4596 81.8734 10.1832 81.862 9.89963C81.8507 9.6161 81.8405 9.32361 81.8841 9.03761C81.9122 8.80435 82.048 8.58407 82.1199 8.36519C82.1918 8.14631 82.2838 7.91166 82.4152 7.72726C82.5478 7.5339 82.8098 7.47448 82.9986 7.34251C83.1875 7.21055 83.3404 7.07427 83.5824 7.03062C83.7963 6.9927 84.008 6.97272 84.2582 7.01199C84.4993 7.05017 84.7117 7.1759 84.9463 7.26791C85.181 7.35991 85.4854 7.25099 85.7179 7.36094C85.9504 7.47089 86.1283 7.65617 86.3407 7.7819C86.5531 7.90763 86.6986 8.13453 86.9089 8.27821C87.1191 8.42188 87.288 8.60608 87.4792 8.75656C87.6704 8.90705 87.9119 9.01808 88.102 9.17753C88.3011 9.33807 88.4366 9.57286 88.6188 9.72226C88.8168 9.89176 89.1219 9.92854 89.3109 10.097C89.4999 10.2654 89.6455 10.4923 89.8335 10.6697C90.0214 10.8471 90.2428 10.9739 90.4307 11.1513C90.6187 11.3287 90.849 11.4566 91.028 11.6329C91.207 11.8092 91.4061 11.9697 91.593 12.1561C91.7798 12.3425 91.8974 12.5751 92.0764 12.7514C92.2554 12.9277 92.3485 13.212 92.5365 13.3894C92.7413 13.5779 93.0409 13.6596 93.2558 13.8402C93.4706 14.0209 93.632 14.2679 93.858 14.4316L93.8268 14.4643Z" fill="white"/>
</mask>
<g mask="url(#mask0_4901_26870)">
<path d="M124.782 10.2435C124.782 10.2435 124.7 10.2517 124.67 10.2664C124.402 10.3797 124.129 10.456 123.955 10.6899C123.836 10.8484 123.672 11.0016 123.648 11.1989C123.624 11.3963 123.672 11.6023 123.703 11.7972C123.73 12.028 123.85 12.2427 123.895 12.4667C123.941 12.6906 123.826 12.968 123.891 13.1851C123.956 13.4023 124.065 13.6249 124.149 13.8352C124.233 14.0456 124.487 14.2036 124.571 14.414C124.655 14.6243 124.737 14.8437 124.84 15.0472C125.024 15.4152 125.194 15.5904 125.604 15.5853C125.85 15.5786 126.088 15.4161 126.336 15.4005C126.584 15.3848 126.832 15.442 127.08 15.4174C127.329 15.3928 127.57 15.3581 127.812 15.3145C128.054 15.2708 128.291 15.1902 128.534 15.1376C128.777 15.085 129.011 15.0313 129.255 14.9697C129.499 14.9081 129.79 15.0615 130.035 14.991C130.28 14.9204 130.454 14.6865 130.692 14.6059C130.929 14.5253 131.157 14.4436 131.386 14.3529C131.616 14.2623 131.838 14.1526 132.06 14.0518C132.281 13.9511 132.49 13.8034 132.713 13.6937C132.935 13.584 133.18 13.5224 133.394 13.4027C133.609 13.2829 133.894 13.2626 134.1 13.1328C134.307 13.003 134.407 12.7056 134.615 12.5668C134.822 12.428 135.162 12.4781 135.362 12.3293C135.562 12.1805 135.7 11.9423 135.883 11.7823C136.066 11.6223 136.13 11.3206 136.314 11.1516C136.499 10.9827 136.689 10.9146 136.856 10.7346C136.688 10.5414 136.683 10.2858 136.506 10.0916C136.329 9.89733 136.159 9.7221 135.982 9.52784C135.805 9.33358 135.636 9.14938 135.468 8.96518C135.299 8.78098 135.091 8.61936 134.913 8.43407C134.735 8.24879 134.546 8.08036 134.368 7.89508C134.19 7.70979 133.981 7.55715 133.813 7.36397C133.645 7.1708 133.477 6.97762 133.309 6.78445C133.142 6.59127 132.994 6.38231 132.825 6.19811C132.72 6.08536 132.568 5.98515 132.394 6.00048C132.219 6.01581 132.128 6.16864 132.013 6.29131C131.865 6.4556 131.701 6.60875 131.546 6.76298C131.391 6.91721 131.123 6.94864 130.952 7.08277C130.782 7.21689 130.72 7.50073 130.532 7.62372C130.344 7.74671 130.06 7.69416 129.873 7.80817C129.686 7.92219 129.515 8.05632 129.321 8.16028C129.126 8.26425 128.982 8.47447 128.789 8.56946C128.567 8.67018 128.327 8.70485 128.096 8.80449C127.866 8.90413 127.704 9.11219 127.475 9.20286C127.245 9.29353 126.95 9.176 126.721 9.26667C126.491 9.35733 126.354 9.66841 126.134 9.75118C125.915 9.83396 125.603 9.7053 125.373 9.79597C125.144 9.88664 125.009 10.1798 124.787 10.2805L124.782 10.2435Z" fill="#B3D2FF"/>
</g>
<path d="M106.716 22.4541C107.037 22.2834 106.924 22.3153 107.372 22.1508C107.562 22.0827 107.758 21.897 108.031 21.8207C108.239 21.7548 108.508 21.7872 108.762 21.7177C108.978 21.6619 109.207 21.5802 109.46 21.5197C109.684 21.4739 109.941 21.5321 110.192 21.4806C110.425 21.4359 110.663 21.4281 110.914 21.3856C111.146 21.3498 111.372 21.2132 111.621 21.1796C111.852 21.1528 112.088 21.0083 112.337 20.9837C112.576 20.958 112.827 21.143 113.084 21.1284C113.34 21.1138 113.566 21.1319 113.812 21.1252C114.059 21.1185 114.292 21.001 114.537 21.0033C114.783 21.0056 115.021 20.9888 115.267 20.9911C115.512 20.9934 115.753 20.9587 115.997 20.97C116.242 20.9813 116.482 21.0284 116.724 21.0576C116.966 21.0868 117.217 20.9714 117.46 20.9916C117.703 21.0119 117.941 21.077 118.184 21.1062C118.426 21.1354 118.653 21.2902 118.894 21.3284C119.135 21.3666 119.368 21.3947 119.619 21.4339C119.869 21.4732 120.124 21.3948 120.365 21.4329C120.606 21.4711 120.839 21.5811 121.078 21.6372C121.353 21.6976 121.603 21.7369 121.8 21.8336C122.05 21.9546 122.325 22.0879 122.449 22.2667C122.598 22.4667 122.451 22.7767 122.457 23.0322C122.467 23.2519 122.67 23.5312 122.583 23.7939C122.513 24.0038 122.213 24.1497 122.085 24.38C121.978 24.5856 121.887 24.8113 121.743 25.0305C121.61 25.2238 121.51 25.4484 121.348 25.6565C121.199 25.8387 121.032 26.0188 120.863 26.2078C120.705 26.389 120.514 26.5389 120.337 26.7268C120.17 26.8979 119.979 27.0478 119.794 27.2257C119.609 27.4036 119.428 27.5456 119.244 27.7146C119.059 27.8835 119.023 28.1885 118.838 28.3575C118.654 28.5264 118.504 28.7176 118.312 28.8765C118.119 29.0353 117.834 29.0646 117.642 29.2235C117.45 29.3823 117.299 29.5735 117.107 29.7324C116.915 29.8913 116.772 30.0925 116.58 30.2514C116.388 30.4103 116.198 30.5512 115.998 30.7001C115.798 30.8489 115.568 30.9485 115.368 31.0973C115.168 31.2462 114.954 31.3569 114.745 31.5047C114.536 31.6524 114.339 31.7833 114.14 31.9231C113.941 32.063 113.733 32.2018 113.535 32.3326C113.337 32.4635 113.198 32.7107 112.999 32.8506C112.8 32.9904 112.546 33.0599 112.339 33.1897C112.133 33.3195 111.947 33.4974 111.741 33.6272C111.534 33.757 111.318 33.8857 111.111 34.0155C110.904 34.1453 110.689 34.274 110.474 34.3938C110.259 34.5135 110.051 34.6523 109.836 34.781C109.62 34.9097 109.413 35.0395 109.198 35.1592C108.984 35.279 108.798 35.4569 108.584 35.5766C108.369 35.6964 108.027 35.5914 107.813 35.7022C107.6 35.8129 107.428 36.0289 107.205 36.1386C106.983 36.2483 106.819 36.4743 106.596 36.584C106.374 36.6937 106.085 36.677 105.863 36.7777C105.642 36.8784 105.49 37.1514 105.269 37.2522C105.047 37.3529 104.781 37.3753 104.559 37.4761C104.338 37.5768 104.127 37.7425 103.906 37.8342C103.686 37.926 103.397 37.9093 103.177 37.9921C102.958 38.0748 102.737 38.2484 102.51 38.3211C102.272 38.4017 101.99 38.3312 101.763 38.395C101.518 38.4656 101.334 38.7073 101.1 38.761C100.856 38.8226 100.594 38.8092 100.361 38.8539C100.109 38.9055 99.8589 38.8662 99.6191 38.8919C99.3604 38.9244 99.1281 39.1148 98.8905 39.1226C98.626 39.1271 98.3964 38.9174 98.1642 38.8803C97.9051 38.84 97.6963 38.7602 97.4886 38.6714C97.2561 38.5615 96.9657 38.5538 96.8148 38.3717C96.6638 38.1897 96.6033 37.9366 96.5248 37.6814C96.46 37.4643 96.4612 37.2277 96.4578 36.9543C96.4601 36.7088 96.4265 36.459 96.4467 36.2157C96.4669 35.9724 96.6139 35.7352 96.6431 35.493C96.6723 35.2508 96.577 34.9844 96.6241 34.7444C96.6713 34.5043 96.7992 34.274 96.8553 34.035C96.9114 33.796 97.0551 33.5858 97.1291 33.349C97.2032 33.1121 97.0247 32.7811 97.1156 32.5555C97.2065 32.3298 97.3344 32.0994 97.4433 31.8759C97.5522 31.6524 97.7902 31.49 97.908 31.2675C98.0259 31.0451 98.0483 30.7838 98.1751 30.5625C98.3019 30.3411 98.3849 30.1054 98.5107 29.893C98.6364 29.6806 98.788 29.4804 98.9316 29.2702C99.0753 29.06 99.201 28.8476 99.3526 28.6474C99.5042 28.4472 99.6726 28.2582 99.832 28.0681C99.9915 27.878 100.226 27.7425 100.385 27.5613C100.543 27.3802 100.72 27.1922 100.888 27.0121C101.055 26.8321 101.158 26.5806 101.333 26.4106C101.509 26.2405 101.856 26.2278 102.031 26.0578C102.207 25.8878 102.24 25.5368 102.414 25.3758C102.588 25.2147 102.919 25.1909 103.11 25.041C103.303 24.8731 103.416 24.6137 103.598 24.4627C103.799 24.305 103.937 24.0667 104.118 23.9247C104.328 23.768 104.552 23.6493 104.742 23.5084C104.961 23.3528 105.154 23.1849 105.343 23.053C105.581 22.8905 105.827 22.811 105.996 22.6948C106.39 22.442 106.354 22.5924 106.684 22.4228L106.716 22.4541Z" fill="#1D60CC"/>
<path d="M82.7174 12.7718C83.0573 12.5944 82.9206 12.5961 83.3908 12.4707C83.5979 12.4138 83.8177 12.1763 84.1055 12.1291C84.3374 12.0934 84.5983 12.0429 84.874 12.0215C85.1126 12.0048 85.3771 12.0003 85.6506 11.9969C85.8961 11.9992 86.153 12.0574 86.4143 12.0798C86.6576 12.1001 86.8918 12.3468 87.1509 12.3871C87.3931 12.4163 87.6925 12.1976 87.9584 12.2569C88.2871 12.3239 88.4553 12.5899 88.5033 12.7959C88.5444 12.9829 88.3839 13.182 88.2337 13.4461C88.1303 13.6247 87.9404 13.7657 87.7608 13.9716C87.6136 14.1359 87.6184 14.4732 87.4331 14.6511C87.2679 14.8132 87.0048 14.8816 86.8127 15.0405C86.6397 15.1926 86.3934 15.2721 86.2024 15.422C86.0114 15.5719 85.8304 15.7139 85.6315 15.8538C85.4326 15.9936 85.2822 16.1848 85.0833 16.3247C84.8844 16.4645 84.6639 16.5563 84.4572 16.6861C84.2504 16.8159 84.1282 17.0742 83.9225 17.195C83.7168 17.3159 83.4784 17.4054 83.2738 17.5173C83.0692 17.6291 82.8376 17.7378 82.624 17.8485C82.4015 17.9582 82.2388 18.1753 82.0173 18.276C81.7868 18.3756 81.4736 18.2559 81.2632 18.3398C81.0249 18.4294 80.8238 18.5872 80.6077 18.643C80.3446 18.7114 80.1049 18.7371 79.8942 18.7481C79.6006 18.7673 79.3684 18.7302 79.1988 18.6279C79.0133 18.5054 79.0091 18.3137 79.0089 18.0133C79.0033 17.7578 79.0135 17.5224 79.0527 17.2723C79.092 17.0222 79.0954 16.7677 79.1784 16.532C79.2615 16.2962 79.3029 16.0282 79.4207 15.8057C79.5386 15.5833 79.8003 15.451 79.9439 15.2408C80.0876 15.0306 80.1064 14.7234 80.2749 14.5343C80.4444 14.3363 80.5981 14.1182 80.7733 13.9482C80.9687 13.7624 81.2587 13.6973 81.4407 13.5463C81.663 13.3637 81.9024 13.2652 82.0722 13.14C82.4499 12.8761 82.3853 12.9593 82.7152 12.7898L82.7174 12.7718Z" fill="#1D60CC"/>
<path d="M107.153 20.1947C106.852 20.2767 106.832 20.2107 106.531 20.2927C106.23 20.3747 106.272 20.5527 105.971 20.6347C105.67 20.7168 105.67 20.7168 105.36 20.7977C105.097 20.8661 104.819 20.7507 104.573 20.6846C104.326 20.6184 104.126 20.4668 103.948 20.2815C103.77 20.0962 103.723 19.8812 103.653 19.6271C103.565 19.3069 103.547 19.3048 103.458 18.9846C103.369 18.6644 103.134 18.7271 103.046 18.3979C102.958 18.0688 102.967 18.0699 102.879 17.7497C102.81 17.4866 102.795 17.1571 102.86 16.9192C102.925 16.6813 103.13 16.4148 103.308 16.2268C103.485 16.0389 103.807 16.0868 104.061 16.0173C104.362 15.9353 104.364 15.9263 104.665 15.8443C104.966 15.7623 104.909 15.5552 105.219 15.4743C105.529 15.3934 105.583 15.6274 105.894 15.5375C106.157 15.4691 106.362 15.4301 106.6 15.4952C106.838 15.5603 107.137 15.5691 107.324 15.7554C107.511 15.9418 107.514 16.2153 107.583 16.4784C107.672 16.7985 107.643 16.8132 107.722 17.1323C107.802 17.4514 107.886 17.4342 107.974 17.7634C108.062 18.0925 108.025 18.0972 108.112 18.4263C108.181 18.6894 108.314 18.9422 108.249 19.1801C108.184 19.418 108.091 19.7344 107.906 19.9123C107.721 20.0902 107.416 20.1263 107.153 20.1947Z" fill="#B3D2FF"/>
<path d="M113.558 18.5461C113.257 18.6281 113.244 18.59 112.942 18.6721C112.641 18.7541 112.601 18.6309 112.301 18.704C112.001 18.777 111.986 18.7569 111.684 18.8389C111.421 18.9073 111.21 19.0002 110.963 18.934C110.716 18.8678 110.556 18.6847 110.378 18.4994C110.2 18.3141 109.895 18.2045 109.817 17.9493C109.728 17.6291 109.916 17.579 109.828 17.2498C109.74 16.9207 109.57 16.973 109.482 16.6438C109.395 16.3147 109.554 16.2792 109.466 15.9501C109.398 15.687 109.21 15.4278 109.277 15.1809C109.343 14.934 109.536 14.6933 109.722 14.5065C109.908 14.3196 110.165 14.2322 110.419 14.1627C110.72 14.0807 110.701 14.0146 111.012 13.9247C111.323 13.8348 111.301 13.7867 111.603 13.7047C111.904 13.6227 111.974 13.8678 112.275 13.7858C112.539 13.7174 112.797 13.4574 113.044 13.5236C113.291 13.5897 113.528 13.8185 113.706 14.0038C113.883 14.1891 113.896 14.4636 113.964 14.7267C114.053 15.0469 114.203 15.0104 114.292 15.3305C114.381 15.6507 114.249 15.6894 114.336 16.0185C114.424 16.3477 114.359 16.3581 114.447 16.6872C114.515 16.9503 114.617 17.1628 114.551 17.4097C114.485 17.6566 114.448 17.9616 114.263 18.1395C114.077 18.3174 113.822 18.4687 113.559 18.5371L113.558 18.5461Z" fill="#B3D2FF"/>
<path d="M119.962 16.8515C119.661 16.9336 119.621 16.8104 119.32 16.8924C119.019 16.9745 119.018 16.9834 118.708 17.0644C118.398 17.1453 118.413 17.1654 118.103 17.2463C117.84 17.3147 117.559 17.381 117.312 17.3148C117.065 17.2486 116.802 17.0895 116.615 16.9031C116.429 16.7167 116.483 16.4139 116.414 16.1597C116.325 15.8396 116.288 15.8442 116.199 15.524C116.11 15.2039 116.026 15.221 115.938 14.9009C115.849 14.5807 115.896 14.5682 115.808 14.239C115.74 13.9759 115.591 13.7031 115.656 13.4652C115.721 13.2273 115.988 13.0501 116.165 12.8622C116.343 12.6742 116.529 12.4873 116.783 12.4179C117.084 12.3359 117.091 12.3549 117.392 12.2729C117.693 12.1909 117.687 12.1718 117.998 12.0819C118.309 11.992 118.319 12.057 118.621 11.975C118.884 11.9066 119.15 11.8113 119.397 11.8775C119.644 11.9436 119.919 12.0769 120.106 12.2633C120.293 12.4497 120.303 12.7422 120.371 13.0053C120.46 13.3254 120.648 13.2753 120.736 13.6044C120.824 13.9336 120.815 13.9325 120.902 14.2617C120.99 14.5908 120.859 14.6205 120.957 14.9418C121.025 15.2049 120.968 15.4528 120.903 15.6907C120.838 15.9286 120.68 16.1098 120.502 16.2977C120.325 16.4857 120.213 16.809 119.95 16.8774L119.962 16.8515Z" fill="#B3D2FF"/>
<path d="M71.501 28.1189C71.3766 29.1506 70.7316 30.5746 70.102 31.418C69.5158 32.2029 68.5409 33.2686 67.6074 33.8387C66.7724 34.3478 65.4326 34.514 64.396 34.8076C63.4433 35.0842 62.1604 33.6461 61.0859 33.7259C60.0942 33.7974 59.2124 33.864 58.1538 33.7364C57.0952 33.6087 55.7083 35.0708 54.7621 34.7655C53.7362 34.4416 53.571 32.2645 52.7103 31.7784C51.7743 31.2378 50.9292 30.9994 50.2391 30.3063C49.468 29.5307 47.9999 29.3264 47.6171 28.4246C47.206 27.4558 48.1663 26.361 48.2907 25.3293C48.4151 24.2976 48.8862 23.8629 49.5158 23.0195C50.102 22.2346 50.2569 21.2521 51.1813 20.6809C52.0164 20.1718 52.9768 20.1328 54.0145 19.8302C54.9671 19.5536 55.7574 18.2837 56.8308 18.2129C57.8225 18.1413 59.0049 17.6194 60.0636 17.7471C61.1222 17.8747 61.6668 20.1521 62.614 20.4484C63.6399 20.7723 64.6535 20.5942 65.5142 21.0803C66.4502 21.6209 68.2133 21.1145 68.9034 21.8075C69.6746 22.5831 70.6096 23.6607 70.9924 24.5624C71.4034 25.5313 71.6154 27.0951 71.491 28.1268L71.501 28.1189Z" fill="#C7F8FF"/>
<path d="M40.6468 32.0342C40.5646 32.7161 40.2221 33.5941 39.8794 34.1717C39.5367 34.7493 39.0019 35.4858 38.459 35.9118C37.9463 36.3142 37.0831 36.5287 36.442 36.7881C35.831 37.0239 34.9454 36.2163 34.2531 36.2966C33.6067 36.3734 33.0443 36.433 32.3534 36.3497C31.6626 36.2664 30.7484 37.1301 30.1298 36.9008C29.4765 36.6582 29.4302 35.3055 28.8928 34.9313C28.3217 34.5347 27.8029 34.3083 27.4005 33.7956C26.9745 33.2527 26.0778 32.9899 25.8811 32.3563C25.6844 31.7228 26.3158 31.0162 26.398 30.3343C26.4802 29.6525 26.789 29.2801 27.1318 28.7025C27.4745 28.1249 27.5243 27.4847 28.0683 27.0497C28.581 26.6473 29.1948 26.5393 29.8438 26.2899C30.4547 26.0541 30.9264 25.2372 31.6187 25.1568C32.2651 25.08 33.0438 24.737 33.7346 24.8203C34.4254 24.9036 34.7644 26.3189 35.3841 26.5392C36.0375 26.7819 36.6817 26.723 37.2191 27.0973C37.7902 27.4938 38.9283 27.3398 39.3307 27.8525C39.7567 28.3954 40.2666 29.1486 40.4633 29.7821C40.66 30.4157 40.7359 31.3714 40.6537 32.0533L40.6468 32.0342Z" fill="#C7F8FF"/>
<path d="M12.6345 34.0459C12.5598 34.6649 12.3265 35.3922 12.071 35.9258C11.8155 36.4593 11.4397 37.1603 11.0314 37.6026C10.6231 38.0448 9.90268 38.3585 9.37603 38.6499C8.84938 38.9414 8.0153 38.3857 7.4184 38.5049C6.82151 38.6241 6.36785 38.6877 5.74882 38.613C5.12978 38.5384 4.30542 39.1854 3.77082 38.9389C3.23623 38.6924 3.24585 37.5558 2.81255 37.1486C2.37925 36.7413 1.94875 36.4619 1.65728 35.9352C1.36581 35.4086 0.653626 35.0497 0.534459 34.4528C0.415292 33.8559 0.967587 33.2762 1.04223 32.6572C1.11687 32.0382 1.37622 31.6234 1.62272 31.0888C1.86922 30.5543 1.88895 29.9377 2.29617 29.5044C2.7034 29.0711 3.2282 28.8704 3.75485 28.579C4.2815 28.2875 4.63254 27.5653 5.2384 27.4472C5.84426 27.3291 6.5177 27.028 7.13673 27.1026C7.75577 27.1773 8.03323 28.3485 8.56782 28.595C9.10242 28.8415 9.67087 28.8827 10.1131 29.291C10.5554 29.6993 11.5229 29.7523 11.8144 30.2789C12.1059 30.8056 12.4418 31.4923 12.5609 32.0892C12.6801 32.6861 12.689 33.4426 12.6154 34.0527L12.6345 34.0459Z" fill="#C7F8FF"/>
</svg>
