<svg width="42" height="42" viewBox="0 0 42 42" fill="none" xmlns="http://www.w3.org/2000/svg">
<g clip-path="url(#clip0_721_10814)">
<path fill-rule="evenodd" clip-rule="evenodd" d="M35.3319 1.7832C33.9953 1.7832 32.7134 2.31414 31.7684 3.25922L31.7654 3.26224L24.6295 10.4817L9.57985 3.52475C8.96157 3.22757 8.28908 3.05981 7.60362 3.03177C6.91611 3.00365 6.23009 3.11669 5.58795 3.36392C4.9458 3.61114 4.36111 3.98732 3.86996 4.46925C3.38742 4.94268 3.0052 5.50833 2.74597 6.13241C2.17133 7.24102 2.03407 8.52564 2.36233 9.73133C2.69376 10.9487 3.47504 11.9948 4.54822 12.6582L15.6502 19.4945L12.1856 22.9591H5.75318C5.73291 22.9591 5.71264 22.9599 5.69244 22.9616C4.44785 23.0652 3.28767 23.6328 2.442 24.5518C1.59634 25.4708 1.12695 26.6741 1.12695 27.923C1.12695 29.1719 1.59634 30.3752 2.442 31.2942C3.28767 32.2132 4.44785 32.7807 5.69244 32.8844C5.71264 32.8862 5.73291 32.887 5.75318 32.887H9.26746V36.4013C9.26746 36.4215 9.26831 36.4417 9.26998 36.462C9.37362 37.7066 9.94121 38.8666 10.8602 39.7124C11.7792 40.5581 12.9825 41.0273 14.2314 41.0273C15.4803 41.0273 16.6836 40.5581 17.6026 39.7124C18.5216 38.8666 19.0892 37.7066 19.1928 36.462C19.1945 36.4417 19.1953 36.4215 19.1953 36.4013V29.9688L22.6599 26.5042L29.4955 37.605C30.1587 38.6783 31.2058 39.4605 32.4229 39.792C33.6295 40.1206 34.9151 39.983 36.0245 39.4072C36.6316 39.1501 37.1818 38.7755 37.6443 38.3052C38.1143 37.8267 38.4833 37.2588 38.7296 36.635C38.9759 36.011 39.0945 35.3441 39.0781 34.6735C39.062 34.0031 38.9109 33.3427 38.6344 32.7315L38.6332 32.7286L31.6714 17.5262L38.8921 10.3891L38.8951 10.386C39.8401 9.44097 40.3711 8.15919 40.3711 6.82265C40.3711 5.48611 39.8401 4.2043 38.8951 3.25922C37.95 2.31414 36.6682 1.7832 35.3319 1.7832Z" fill="#55FBAF"/>
</g>
<defs>
<clipPath id="clip0_721_10814">
<rect width="41" height="41" fill="white" transform="translate(0.25 0.90625)"/>
</clipPath>
</defs>
</svg>
