<svg width="32" height="24" viewBox="0 0 32 24" fill="none" xmlns="http://www.w3.org/2000/svg">
<g id="bicycle-bike">
<path id="Union" fill-rule="evenodd" clip-rule="evenodd" d="M18.3481 1.19011C18.6145 0.802153 19.055 0.570312 19.5257 0.570312H25.24C26.029 0.570312 26.6685 1.2099 26.6685 1.99888C26.6685 2.78787 26.029 3.42746 25.24 3.42746H21.6057L24.2706 10.3564C24.5897 10.3089 24.9136 10.2846 25.24 10.2846C26.9828 10.2846 28.6544 10.9769 29.8866 12.2093C31.119 13.4417 31.8114 15.1132 31.8114 16.856C31.8114 18.5989 31.119 20.2704 29.8866 21.5027C28.6544 22.7351 26.9828 23.4275 25.24 23.4275C23.4971 23.4275 21.8256 22.7351 20.5933 21.5027C19.3609 20.2704 18.6685 18.5989 18.6685 16.856C18.6685 15.9212 18.8677 15.0069 19.2426 14.1699L17.2199 16.5971C17.1154 16.7299 16.9855 16.8462 16.8321 16.9381C16.645 17.0503 16.4425 17.1148 16.2389 17.1351L13.4962 17.478C13.3523 18.9925 12.6859 20.4179 11.6009 21.5027C10.3685 22.7351 8.6971 23.4275 6.95424 23.4275C5.21138 23.4275 3.53991 22.7351 2.30754 21.5027C1.07516 20.2704 0.382812 18.5989 0.382812 16.856C0.382812 15.1132 1.07516 13.4417 2.30754 12.2093C3.53991 10.9769 5.21138 10.2846 6.95424 10.2846C7.49381 10.2846 8.02656 10.351 8.54153 10.4792L9.79022 7.97836L8.43111 5.71317H6.95424C6.16526 5.71317 5.52567 5.07358 5.52567 4.2846C5.52567 3.49562 6.16526 2.85603 6.95424 2.85603H9.21378C9.23033 2.85573 9.2469 2.85573 9.26343 2.85603H12.6685C13.4575 2.85603 14.0971 3.49562 14.0971 4.2846C14.0971 5.07358 13.4575 5.71317 12.6685 5.71317H11.7631L12.6337 7.16421L12.6518 7.19433L16.2872 13.2534L20.4175 8.29719L18.1923 2.51171C18.0234 2.07242 18.0816 1.57808 18.3481 1.19011ZM23.9065 17.3689L22.6758 14.1688C22.6548 14.1888 22.6341 14.2091 22.6136 14.2296C21.917 14.9262 21.5257 15.8709 21.5257 16.856C21.5257 17.8412 21.917 18.7859 22.6136 19.4823C23.3101 20.179 24.2548 20.5703 25.24 20.5703C26.2251 20.5703 27.1698 20.179 27.8662 19.4823C28.5629 18.7859 28.9542 17.8412 28.9542 16.856C28.9542 15.8709 28.5629 14.9262 27.8662 14.2296C27.194 13.5573 26.2905 13.1693 25.3426 13.1432L26.5732 16.3431C26.8564 17.0796 26.4891 17.9061 25.7529 18.1893C25.0164 18.4727 24.1899 18.1052 23.9065 17.3689ZM21.592 11.3508L21.604 11.3821C21.5747 11.4015 21.5456 11.4212 21.5167 11.4411L21.592 11.3508ZM11.5332 10.8834L10.5298 12.893L9.42402 15.1077L11.8794 14.8007L13.7437 14.5676L11.5332 10.8834ZM10.5335 17.8483L7.13145 18.2736C6.6088 18.339 6.09262 18.1113 5.78828 17.6814C5.48393 17.2515 5.44085 16.6892 5.67614 16.2179L7.20775 13.1504C7.12363 13.1446 7.03909 13.1417 6.95424 13.1417C5.96914 13.1417 5.02441 13.5331 4.32784 14.2296C3.63127 14.9262 3.23996 15.8709 3.23996 16.856C3.23996 17.8412 3.63127 18.7859 4.32784 19.4823C5.02441 20.179 5.96914 20.5703 6.95424 20.5703C7.93931 20.5703 8.88407 20.179 9.58064 19.4823C10.038 19.0252 10.3637 18.4608 10.5335 17.8483Z" fill="#CFCFCF"/>
</g>
</svg>
