<svg width="28" height="32" viewBox="0 0 28 32" fill="none" xmlns="http://www.w3.org/2000/svg">
<g id="bus--transportation-travel-bus-transit-transport-motorcoach-public">
<path id="Union" fill-rule="evenodd" clip-rule="evenodd" d="M3.80357 3.99151C3.80357 3.73237 4.01362 3.52232 4.27275 3.52232H23.924C24.1832 3.52232 24.3932 3.73237 24.3932 3.99151V13.7149H3.80357V3.99151ZM27.8218 24.7345C27.8218 26.5672 26.5569 28.1043 24.8526 28.5208V29.6947C24.8526 30.9569 23.8293 31.9804 22.5669 31.9804C21.3045 31.9804 20.2813 30.9569 20.2813 29.6947V28.6323H7.91545V29.6947C7.91545 30.9569 6.89211 31.9804 5.62974 31.9804C4.36738 31.9804 3.34402 30.9569 3.34402 29.6947V28.5208C1.63975 28.1043 0.375 26.5672 0.375 24.7345V3.99151C0.375 1.83883 2.12009 0.09375 4.27275 0.09375H23.924C26.0766 0.09375 27.8218 1.83883 27.8218 3.99151V24.7345ZM7.24121 22.8577C8.50356 22.8577 9.52692 21.8343 9.52692 20.572C9.52692 19.3096 8.50356 18.2863 7.24121 18.2863C5.97886 18.2863 4.9555 19.3096 4.9555 20.572C4.9555 21.8343 5.97886 22.8577 7.24121 22.8577ZM20.9555 22.8577C22.2179 22.8577 23.2412 21.8343 23.2412 20.572C23.2412 19.3096 22.2179 18.2863 20.9555 18.2863C19.6931 18.2863 18.6698 19.3096 18.6698 20.572C18.6698 21.8343 19.6931 22.8577 20.9555 22.8577Z" fill="#CFCFCF"/>
</g>
</svg>
