<svg width="71" height="15" viewBox="0 0 71 15" fill="none" xmlns="http://www.w3.org/2000/svg">
<path fill-rule="evenodd" clip-rule="evenodd" d="M30.6745 1.872C30.6745 1.75053 30.773 1.65206 30.8945 1.65206H40.106C40.2275 1.65206 40.3259 1.75053 40.3259 1.872V6.42982H30.6745V1.872ZM41.9331 11.5953C41.9331 12.4543 41.3401 13.1749 40.5413 13.3701V13.9204C40.5413 14.512 40.0616 14.9918 39.4698 14.9918C38.8781 14.9918 38.3984 14.512 38.3984 13.9204V13.4224H32.602V13.9204C32.602 14.512 32.1223 14.9918 31.5305 14.9918C30.9388 14.9918 30.4591 14.512 30.4591 13.9204V13.3701C29.6602 13.1749 29.0674 12.4543 29.0674 11.5953V1.872C29.0674 0.86293 29.8854 0.0449219 30.8945 0.0449219H40.106C41.115 0.0449219 41.9331 0.86293 41.9331 1.872V11.5953ZM32.2859 10.7155C32.8776 10.7155 33.3573 10.2358 33.3573 9.6441C33.3573 9.05237 32.8776 8.57267 32.2859 8.57267C31.6942 8.57267 31.2145 9.05237 31.2145 9.6441C31.2145 10.2358 31.6942 10.7155 32.2859 10.7155ZM38.7145 10.7155C39.3062 10.7155 39.7859 10.2358 39.7859 9.6441C39.7859 9.05237 39.3062 8.57267 38.7145 8.57267C38.1228 8.57267 37.6431 9.05237 37.6431 9.6441C37.6431 10.2358 38.1228 10.7155 38.7145 10.7155Z" fill="#4FDBFF"/>
<path opacity="0.2" d="M14.16 7.01503C14.5333 7.23057 14.5333 7.76943 14.16 7.98497L10.59 10.0461C10.2167 10.2617 9.75 9.99223 9.75 9.56114L9.75 5.43886C9.75 5.00777 10.2167 4.73834 10.59 4.95389L14.16 7.01503Z" fill="#4FDBFF"/>
<path opacity="0.1" d="M6.16 7.01503C6.53333 7.23057 6.53333 7.76943 6.16 7.98497L2.59 10.0461C2.21667 10.2617 1.75 9.99223 1.75 9.56114L1.75 5.43886C1.75 5.00777 2.21667 4.73834 2.59 4.95389L6.16 7.01503Z" fill="#4FDBFF"/>
<path opacity="0.4" d="M22.16 7.01503C22.5333 7.23057 22.5333 7.76943 22.16 7.98497L18.59 10.0461C18.2167 10.2617 17.75 9.99223 17.75 9.56114L17.75 5.43886C17.75 5.00777 18.2167 4.73834 18.59 4.95389L22.16 7.01503Z" fill="#4FDBFF"/>
<path opacity="0.7" d="M54.16 7.01503C54.5333 7.23057 54.5333 7.76943 54.16 7.98497L50.59 10.0461C50.2167 10.2617 49.75 9.99223 49.75 9.56114L49.75 5.43886C49.75 5.00777 50.2167 4.73834 50.59 4.95389L54.16 7.01503Z" fill="#4FDBFF"/>
<path d="M62.16 7.01503C62.5333 7.23057 62.5333 7.76943 62.16 7.98497L58.59 10.0461C58.2167 10.2617 57.75 9.99223 57.75 9.56114L57.75 5.43886C57.75 5.00777 58.2167 4.73834 58.59 4.95389L62.16 7.01503Z" fill="#4FDBFF"/>
<path d="M70.16 7.01503C70.5333 7.23057 70.5333 7.76943 70.16 7.98497L66.59 10.0461C66.2167 10.2617 65.75 9.99223 65.75 9.56114L65.75 5.43886C65.75 5.00777 66.2167 4.73834 66.59 4.95389L70.16 7.01503Z" fill="#4FDBFF"/>
</svg>
