<svg width="33" height="29" viewBox="0 0 33 29" fill="none" xmlns="http://www.w3.org/2000/svg">
<g id="car-taxi-1--transportation-travel-taxi-transport-cab-car">
<path id="Vector" d="M24.0949 28.2916C22.2002 28.2916 20.6641 26.7554 20.6641 24.8605C20.6641 22.9657 22.2002 21.4297 24.0949 21.4297C25.99 21.4297 27.526 22.9657 27.526 24.8605C27.526 26.7554 25.99 28.2916 24.0949 28.2916Z" fill="#CFCFCF"/>
<path id="Vector_2" d="M8.09506 28.2916C6.20018 28.2916 4.66406 26.7554 4.66406 24.8605C4.66406 22.9657 6.20018 21.4297 8.09506 21.4297C9.98994 21.4297 11.5261 22.9657 11.5261 24.8605C11.5261 26.7554 9.98994 28.2916 8.09506 28.2916Z" fill="#CFCFCF"/>
<path id="Subtract" fill-rule="evenodd" clip-rule="evenodd" d="M16.0977 0.857422C15.1509 0.857422 14.3834 1.62494 14.3834 2.57171V6.00032H11.0273C10.2908 5.96894 9.56351 6.17578 8.95345 6.59061C8.33434 7.01159 7.87007 7.62366 7.63151 8.33331L7.63011 8.33747L6.12995 12.8575H3.52623C2.6169 12.8575 1.74484 13.2187 1.10186 13.8617C0.458879 14.5046 0.0976562 15.3767 0.0976562 16.286V20.8574C0.0976562 21.7667 0.458879 22.6389 1.10186 23.2819C1.47823 23.6581 1.93308 23.9381 2.42794 24.1054C2.79756 21.3052 5.194 19.144 8.09519 19.144C11.0585 19.144 13.4952 21.3987 13.7834 24.286H18.407C18.6952 21.3987 21.1319 19.144 24.0951 19.144C26.9969 19.144 29.3937 21.3059 29.7626 24.107C30.2593 23.9397 30.7159 23.6595 31.0935 23.2819C31.7365 22.6389 32.0977 21.7667 32.0977 20.8574V16.286C32.0977 15.3767 31.7365 14.5046 31.0935 13.8617C30.4506 13.2187 29.5783 12.8575 28.6691 12.8575H24.9397L23.5434 8.35872L23.5356 8.33319C23.2972 7.62352 22.8324 7.01159 22.2133 6.59061C21.6032 6.17578 20.8759 5.96894 20.1394 6.00032H17.8119V2.57171C17.8119 1.62494 17.0444 0.857422 16.0977 0.857422Z" fill="#CFCFCF"/>
</g>
</svg>
