<svg xmlns="http://www.w3.org/2000/svg" width="24" height="25" viewBox="0 0 24 25" fill="none">
<path d="M12.0156 2.18945C6.49263 2.18945 2.01562 6.66645 2.01562 12.1895C2.01562 13.4615 2.27762 14.7504 2.73462 15.9084L3.51562 17.5014C4.01063 18.5304 3.83663 19.5005 3.17163 20.6895C2.80463 21.3475 3.26262 22.1404 4.01562 22.1584C5.03262 22.1814 6.72262 21.8575 8.01562 21.3775C9.20963 21.9285 10.6836 22.1895 12.0156 22.1895C17.5386 22.1895 22.0156 17.7125 22.0156 12.1895C22.0156 6.66645 17.5386 2.18945 12.0156 2.18945ZM12.0156 4.18945C16.4336 4.18945 20.0156 7.77145 20.0156 12.1895C20.0156 16.6075 16.4336 20.1895 12.0156 20.1895C10.8656 20.1895 9.42062 19.8934 8.51562 19.4084C8.24762 19.2644 7.91962 19.2265 7.64062 19.3455C7.00262 19.6185 6.35862 19.8235 5.60962 19.9705C5.90962 18.9195 5.82063 17.7165 5.29663 16.6275L4.54663 15.0955C4.21363 14.2435 4.01562 13.2095 4.01562 12.1895C4.01562 7.77145 7.59762 4.18945 12.0156 4.18945Z" fill="#FB3463"/>
</svg>