<svg xmlns="http://www.w3.org/2000/svg" width="19" height="19" viewBox="0 0 19 19" fill="none">
<path d="M6.53107 1.95898C6.11707 1.95898 5.78107 2.29498 5.78107 2.70898C4.12282 2.70898 2.75781 4.05373 2.75781 5.70898V7.20898L2.78107 13.209C2.78107 14.8635 4.12432 16.209 5.78107 16.209H13.2811C14.9378 16.209 16.2811 14.8657 16.2811 13.209L16.2578 7.20898V5.70898C16.2578 4.05073 14.9363 2.70898 13.2811 2.70898C13.2811 2.29498 12.9458 1.95898 12.5311 1.95898C12.1171 1.95898 11.7811 2.29498 11.7811 2.70898H7.28107C7.28107 2.29498 6.94582 1.95898 6.53107 1.95898ZM5.78107 4.20898C5.78107 4.62298 6.11707 4.95898 6.53107 4.95898C6.94582 4.95898 7.28107 4.62298 7.28107 4.20898H11.7811C11.7811 4.62298 12.1171 4.95898 12.5311 4.95898C12.9458 4.95898 13.2811 4.62298 13.2811 4.20898C14.1038 4.20898 14.7578 4.87498 14.7578 5.70898V6.45898C13.3148 6.45898 5.70081 6.45898 4.25781 6.45898V5.70898C4.25781 4.88623 4.94707 4.20898 5.78107 4.20898ZM4.25781 7.95898C5.70081 7.95898 13.3148 7.95898 14.7578 7.95898L14.7811 13.209C14.7811 14.0347 14.1098 14.709 13.2811 14.709H5.78107C4.95307 14.709 4.28107 14.0377 4.28107 13.209L4.25781 7.95898Z" fill="#FB3463"/>
</svg>