<svg xmlns="http://www.w3.org/2000/svg" width="25" height="25" viewBox="0 0 25 25" fill="none">
<path d="M8.37695 3.93945C5.33935 3.93945 2.87695 6.40146 2.87695 9.43947C2.87695 12.6235 4.69045 15.6275 7.68945 18.3775C8.71305 19.3155 9.81516 20.1385 10.9082 20.8775C11.2913 21.1355 11.6496 21.3695 11.9708 21.5645C12.1666 21.6835 12.2957 21.7695 12.377 21.8145C12.679 21.9825 13.075 21.9825 13.377 21.8145C13.4583 21.7695 13.5874 21.6835 13.7832 21.5645C14.1044 21.3695 14.4627 21.1355 14.8458 20.8775C15.9388 20.1385 17.0409 19.3155 18.0645 18.3775C21.0635 15.6275 22.877 12.6235 22.877 9.43947C22.877 6.40146 20.4146 3.93945 17.377 3.93945C15.6518 3.93945 13.9674 4.87947 12.9082 6.25147C11.8754 4.85547 10.1969 3.93945 8.37695 3.93945ZM8.37695 5.93946C9.59085 5.93946 10.7245 6.55547 11.377 7.50147C11.4404 7.59347 11.9403 8.32847 12.0332 8.47047C12.4201 9.06347 13.2833 9.08148 13.6895 8.50147C13.7883 8.36047 14.3086 7.62846 14.377 7.53345C15.0581 6.58145 16.2502 5.93946 17.377 5.93946C19.31 5.93946 20.877 7.50646 20.877 9.43947C20.877 11.9425 19.3155 14.4695 16.6895 16.8775C15.7443 17.7435 14.7371 18.5335 13.7208 19.2205C13.4135 19.4285 13.1394 19.5905 12.877 19.7515C12.6146 19.5905 12.3405 19.4285 12.0332 19.2205C11.0169 18.5335 10.0097 17.7435 9.06445 16.8775C6.43845 14.4695 4.87695 11.9425 4.87695 9.43947C4.87695 7.50646 6.44395 5.93946 8.37695 5.93946Z" fill="#CFCFCF"/>
</svg>