<svg xmlns="http://www.w3.org/2000/svg" width="25" height="25" viewBox="0 0 25 25" fill="none">
<path d="M7.53125 3.93945C4.49365 3.93945 2.03125 6.40146 2.03125 9.43947C2.03125 12.6235 3.84475 15.6275 6.84375 18.3775C7.86735 19.3155 8.96945 20.1385 10.0625 20.8775C10.4456 21.1355 10.8039 21.3695 11.1251 21.5645C11.3209 21.6835 11.45 21.7695 11.5313 21.8145C11.8333 21.9825 12.2293 21.9825 12.5313 21.8145C12.6126 21.7695 12.7417 21.6835 12.9375 21.5645C13.2587 21.3695 13.617 21.1355 14.0001 20.8775C15.0931 20.1385 16.1952 19.3155 17.2188 18.3775C20.2178 15.6275 22.0313 12.6235 22.0313 9.43947C22.0313 6.40146 19.5689 3.93945 16.5313 3.93945C14.8061 3.93945 13.1217 4.87947 12.0625 6.25147C11.0297 4.85547 9.35115 3.93945 7.53125 3.93945Z" fill="#FB3463"/>
</svg>