<svg xmlns="http://www.w3.org/2000/svg" width="39" height="40" viewBox="0 0 39 40" fill="none">
<path d="M20.001 29.5293C20.8834 29.5293 21.5996 28.8013 21.5996 27.9043C21.5996 27.0073 20.8834 26.2793 20.001 26.2793C19.1185 26.2793 18.4023 27.0073 18.4023 27.9043C18.4023 28.8013 19.1185 29.5293 20.001 29.5293ZM20.001 21.4043C20.8834 21.4043 21.5996 20.6763 21.5996 19.7793C21.5996 18.8823 20.8834 18.1543 20.001 18.1543C19.1185 18.1543 18.4023 18.8823 18.4023 19.7793C18.4023 20.6763 19.1185 21.4043 20.001 21.4043ZM20.001 13.2793C20.8834 13.2793 21.5996 12.5513 21.5996 11.6543C21.5996 10.7573 20.8834 10.0293 20.001 10.0293C19.1185 10.0293 18.4023 10.7573 18.4023 11.6543C18.4023 12.5513 19.1185 13.2793 20.001 13.2793Z" fill="#6B6B6B"/>
</svg>