<svg xmlns="http://www.w3.org/2000/svg" width="25" height="25" viewBox="0 0 25 25" fill="none">
<path d="M12.0469 2.94727C6.52388 2.94727 2.04688 7.42427 2.04688 12.9473C2.04688 14.2193 2.30887 15.5083 2.76587 16.6663L3.54688 18.2593C4.04188 19.2883 3.86788 20.2583 3.20288 21.4473C2.83588 22.1053 3.29387 22.8983 4.04688 22.9163C5.06387 22.9393 6.75387 22.6153 8.04688 22.1353C9.24088 22.6863 10.7149 22.9473 12.0469 22.9473C17.5699 22.9473 22.0469 18.4703 22.0469 12.9473C22.0469 7.42427 17.5699 2.94727 12.0469 2.94727ZM12.0469 4.94727C16.4649 4.94727 20.0469 8.52927 20.0469 12.9473C20.0469 17.3653 16.4649 20.9473 12.0469 20.9473C10.8969 20.9473 9.45187 20.6513 8.54688 20.1663C8.27887 20.0223 7.95087 19.9843 7.67188 20.1033C7.03387 20.3763 6.38987 20.5813 5.64087 20.7283C5.94087 19.6773 5.85188 18.4743 5.32788 17.3853L4.57788 15.8533C4.24488 15.0013 4.04688 13.9673 4.04688 12.9473C4.04688 8.52927 7.62887 4.94727 12.0469 4.94727Z" fill="#6B6B6B"/>
</svg>