<svg width="404" height="256" viewBox="0 0 404 256" fill="none" xmlns="http://www.w3.org/2000/svg">
<g clip-path="url(#clip0_940_12303)">
<path d="M113.392 69.7746C113.503 70.741 114.578 72.1216 114.744 73.9992C114.854 75.2417 114.578 76.7327 114.689 78.3618C114.799 79.6872 115.461 81.0954 115.571 82.6416C115.681 83.9946 113.723 85.5961 113.806 87.1147C113.889 88.4953 115.212 89.8483 115.295 91.3669C115.378 92.7475 116.012 94.1833 116.095 95.6744C116.178 97.0826 114.992 98.5736 115.047 100.065C115.102 101.556 116.702 102.853 116.757 104.344C116.812 105.836 115.516 107.244 115.571 108.735C115.626 110.226 116.674 111.579 116.702 113.042C116.729 114.506 116.012 115.941 116.04 117.405C116.067 118.868 115.819 120.276 115.819 121.74C115.819 123.203 115.543 124.612 115.543 126.075C115.543 127.538 116.122 128.947 116.095 130.41C116.067 131.873 116.784 133.309 116.757 134.773C116.729 136.236 116.398 137.644 116.371 139.108C116.343 140.571 114.826 141.952 114.799 143.388C114.771 144.823 114.302 146.232 114.247 147.695C114.192 149.158 114.606 150.594 114.523 152.03C114.44 153.466 115.378 154.984 115.268 156.42C115.157 157.856 116.095 159.375 115.985 160.838C115.874 162.302 114.192 163.599 114.054 165.035C113.916 166.471 114.826 168.017 114.661 169.453C114.495 170.889 112.51 172.131 112.345 173.567C112.179 175.003 113.089 176.577 112.896 178.013C112.703 179.448 113.834 181.078 113.641 182.513C113.448 183.949 113.117 185.385 112.896 186.821C112.675 188.257 110.331 189.333 110.111 190.769C109.89 192.205 111.71 194 111.435 195.436C111.159 196.871 109.504 198.031 109.201 199.439C108.897 200.848 108.815 202.339 108.484 203.747C108.153 205.155 106.498 206.259 106.14 207.64C105.781 209.021 106.912 210.843 106.526 212.224C106.14 213.604 106.609 215.289 106.195 216.669C105.781 218.05 104.016 219.044 103.575 220.397C103.134 221.75 103.465 223.434 102.969 224.787C102.472 226.14 101.672 227.438 101.149 228.763C100.625 230.088 99.8524 231.386 99.2733 232.684C98.6942 233.982 96.6536 234.644 96.0193 235.915C95.3851 237.185 95.9918 239.145 95.3023 240.388C94.6129 241.63 93.5099 242.679 92.7377 243.894C91.6347 245.661 92.4344 248.947 94.3923 249.693C95.5505 250.135 96.8742 250.991 98.5012 251.543C99.7973 251.957 101.59 251.267 103.134 251.708C104.485 252.095 105.699 253.42 107.215 253.779C108.594 254.111 110.194 253.89 111.71 254.166C113.117 254.442 114.551 255.16 116.04 255.353C117.529 255.546 119.156 253.973 120.673 254.111C122.189 254.249 123.513 255.712 125.03 255.767C126.546 255.823 127.98 254.58 129.497 254.58C131.014 254.58 132.393 254.47 133.909 254.359C135.426 254.249 136.722 253.641 138.211 253.448C139.7 253.255 141.327 254.442 142.789 254.166C144.25 253.89 145.657 253.393 147.091 253.034C148.525 252.675 149.959 252.344 151.393 251.874C152.827 251.405 154.481 251.57 155.86 251.018C157.239 250.466 157.928 248.423 159.28 247.76C160.41 247.18 162.147 246.656 162.12 245.385C162.092 244.309 160.631 242.873 160.548 241.023C160.493 239.725 160.741 238.234 160.658 236.605C160.603 235.252 161.568 233.706 161.486 232.132C161.403 230.751 159.776 229.371 159.666 227.824C159.583 226.416 161.348 224.815 161.237 223.296C161.127 221.888 160.962 220.397 160.851 218.878C160.741 217.442 159.142 216.089 159.004 214.598C158.866 213.107 158.149 211.754 158.039 210.263C157.928 208.772 158.397 207.309 158.259 205.818C158.121 204.327 157.404 202.974 157.266 201.483C157.129 199.992 158.094 198.473 157.928 196.982C157.763 195.491 156.605 194.193 156.439 192.702C156.274 191.211 158.121 189.554 157.956 188.063C157.79 186.572 156.687 185.275 156.494 183.784C156.301 182.292 156.108 180.884 155.915 179.393C155.722 177.902 156.163 176.411 155.97 174.948C155.777 173.484 155.832 171.993 155.612 170.53C155.391 169.066 154.95 167.658 154.702 166.195C154.454 164.731 153.02 163.489 152.771 162.025C152.523 160.562 152.937 159.016 152.689 157.552C152.441 156.089 151.172 154.846 150.896 153.383C150.621 151.92 150.676 150.429 150.4 148.993C150.124 147.557 151.696 145.707 151.393 144.271C151.089 142.835 148.277 141.924 147.973 140.461C147.67 138.997 148.111 137.423 147.78 135.988C147.449 134.552 148.828 132.702 148.47 131.266C148.111 129.83 147.256 128.505 146.898 127.069C146.539 125.633 146.015 124.225 145.629 122.817C145.243 121.409 143.671 120.304 143.258 118.896C142.844 117.488 143.313 115.803 142.872 114.395C142.43 112.987 141.824 111.606 141.382 110.226C140.941 108.845 139.976 107.575 139.507 106.194C139.038 104.814 139.314 103.102 138.79 101.749C138.266 100.396 138.046 98.8497 137.494 97.4692C136.943 96.0886 136.143 94.7908 135.564 93.4654C134.985 92.1401 133.275 91.2289 132.668 89.9311C132.062 88.6334 131.179 87.3632 130.517 86.0655C129.856 84.7677 128.697 83.7185 128.008 82.4484C127.318 81.1782 127.098 79.5767 126.353 78.3342C125.609 77.0917 125.802 75.1312 124.975 73.9439C124.147 72.7566 123.099 71.5969 122.189 70.4648C121.279 69.3328 120.59 67.8693 119.625 66.7925C118.301 65.3014 115.13 65.5776 113.806 67.0686L114.771 67.9246C114.165 68.6149 113.337 68.891 113.448 69.8022L113.392 69.7746Z" fill="#C49841"/>
<mask id="mask0_940_12303" style="mask-type:luminance" maskUnits="userSpaceOnUse" x="92" y="65" width="71" height="191">
<path d="M113.397 69.7706C113.508 70.7371 114.583 72.1176 114.749 73.9952C114.859 75.2378 114.583 76.7288 114.693 78.3579C114.804 79.6833 115.466 81.0915 115.576 82.6377C115.686 83.9907 113.728 85.5922 113.811 87.1108C113.894 88.4914 115.217 89.8444 115.3 91.363C115.383 92.7436 116.017 94.1794 116.1 95.6705C116.183 97.0787 114.997 98.5697 115.052 100.061C115.107 101.552 116.706 102.85 116.762 104.341C116.817 105.832 115.521 107.24 115.576 108.731C115.631 110.222 116.679 111.575 116.706 113.038C116.734 114.502 116.017 115.938 116.045 117.401C116.072 118.864 115.824 120.273 115.824 121.736C115.824 123.199 115.548 124.608 115.548 126.071C115.548 127.534 116.127 128.943 116.1 130.406C116.072 131.869 116.789 133.305 116.762 134.769C116.734 136.232 116.403 137.64 116.376 139.104C116.348 140.567 114.831 141.948 114.804 143.384C114.776 144.819 114.307 146.228 114.252 147.691C114.197 149.154 114.611 150.59 114.528 152.026C114.445 153.462 115.383 154.981 115.273 156.416C115.162 157.852 116.1 159.371 115.99 160.834C115.879 162.298 114.197 163.595 114.059 165.031C113.921 166.467 114.831 168.013 114.666 169.449C114.5 170.885 112.515 172.127 112.349 173.563C112.184 174.999 113.094 176.573 112.901 178.009C112.708 179.445 113.839 181.074 113.646 182.509C113.452 183.945 113.122 185.381 112.901 186.817C112.68 188.253 110.336 189.33 110.116 190.765C109.895 192.201 111.715 193.996 111.439 195.432C111.164 196.868 109.509 198.027 109.206 199.435C108.902 200.844 108.82 202.335 108.489 203.743C108.158 205.151 106.503 206.256 106.145 207.636C105.786 209.017 106.917 210.839 106.531 212.22C106.145 213.6 106.614 215.285 106.2 216.665C105.786 218.046 104.021 219.04 103.58 220.393C103.139 221.746 103.47 223.43 102.973 224.783C102.477 226.136 101.677 227.434 101.153 228.759C100.629 230.085 99.8573 231.382 99.2782 232.68C98.6991 233.978 96.6585 234.64 96.0242 235.911C95.39 237.181 95.9966 239.141 95.3072 240.384C94.6178 241.626 93.5148 242.676 92.7426 243.89C91.6396 245.658 92.4393 248.943 94.3972 249.689C95.5554 250.131 96.8791 250.987 98.5061 251.539C99.8022 251.953 101.595 251.263 103.139 251.705C104.49 252.091 105.704 253.416 107.22 253.775C108.599 254.107 110.198 253.886 111.715 254.162C113.122 254.438 114.556 255.156 116.045 255.349C117.534 255.543 119.161 253.969 120.677 254.107C122.194 254.245 123.518 255.708 125.035 255.763C126.551 255.819 127.985 254.576 129.502 254.576C131.019 254.576 132.397 254.466 133.914 254.355C135.431 254.245 136.727 253.637 138.216 253.444C139.705 253.251 141.332 254.438 142.794 254.162C144.255 253.886 145.662 253.389 147.096 253.03C148.53 252.671 149.964 252.34 151.398 251.87C152.832 251.401 154.486 251.566 155.865 251.014C157.244 250.462 157.933 248.419 159.284 247.756C160.415 247.176 162.152 246.652 162.125 245.381C162.097 244.305 160.636 242.869 160.553 241.019C160.498 239.721 160.746 238.23 160.663 236.601C160.608 235.248 161.573 233.702 161.491 232.128C161.408 230.747 159.781 229.367 159.67 227.82C159.588 226.412 161.353 224.811 161.242 223.292C161.132 221.884 160.967 220.393 160.856 218.874C160.746 217.438 159.147 216.085 159.009 214.594C158.871 213.103 158.154 211.75 158.043 210.259C157.933 208.768 158.402 207.305 158.264 205.814C158.126 204.323 157.409 202.97 157.271 201.479C157.133 199.988 158.099 198.469 157.933 196.978C157.768 195.487 156.609 194.189 156.444 192.698C156.279 191.207 158.126 189.55 157.961 188.059C157.795 186.568 156.692 185.271 156.499 183.78C156.306 182.289 156.113 180.88 155.92 179.389C155.727 177.898 156.168 176.407 155.975 174.944C155.782 173.48 155.837 171.989 155.617 170.526C155.396 169.063 154.955 167.654 154.707 166.191C154.459 164.727 153.025 163.485 152.776 162.022C152.528 160.558 152.942 159.012 152.694 157.548C152.445 156.085 151.177 154.842 150.901 153.379C150.625 151.916 150.681 150.425 150.405 148.989C150.129 147.553 151.701 145.703 151.398 144.267C151.094 142.831 148.281 141.92 147.978 140.457C147.675 138.993 148.116 137.419 147.785 135.984C147.454 134.548 148.833 132.698 148.474 131.262C148.116 129.826 147.261 128.501 146.903 127.065C146.544 125.629 146.02 124.221 145.634 122.813C145.248 121.405 143.676 120.3 143.263 118.892C142.849 117.484 143.318 115.799 142.876 114.391C142.435 112.983 141.829 111.602 141.387 110.222C140.946 108.841 139.981 107.571 139.512 106.191C139.043 104.81 139.319 103.098 138.795 101.745C138.271 100.392 138.051 98.8458 137.499 97.4652C136.948 96.0847 136.148 94.7869 135.569 93.4615C134.99 92.1362 133.28 91.225 132.673 89.9272C132.067 88.6295 131.184 87.3593 130.522 86.0616C129.86 84.7638 128.702 83.7146 128.013 82.4444C127.323 81.1743 127.103 79.5728 126.358 78.3303C125.614 77.0878 125.807 75.1273 124.979 73.94C124.152 72.7527 123.104 71.593 122.194 70.4609C121.284 69.3289 120.595 67.8654 119.63 66.7886C118.306 65.2975 115.135 65.5737 113.811 67.0647L114.776 67.9207C114.169 68.611 113.342 68.8871 113.452 69.7983L113.397 69.7706Z" fill="white"/>
</mask>
<g mask="url(#mask0_940_12303)">
<path d="M144.34 96.1759C142.768 97.6669 141.665 95.099 139.514 95.099C137.363 95.099 137.363 95.955 135.185 95.955C133.006 95.955 133.034 96.9214 130.883 96.9214C128.732 96.9214 128.732 96.3692 126.553 96.3692C124.375 96.3692 124.402 96.811 122.224 96.811C120.045 96.811 120.073 94.3259 117.894 94.3259C115.716 94.3259 115.716 95.3199 113.565 95.3199C111.414 95.3199 111.386 96.811 109.235 96.811C107.084 96.811 107.195 96.3416 105.623 94.8505C104.134 93.4699 104.134 93.5804 104.134 91.5647C104.134 89.5491 104.74 89.5491 104.74 87.5334C104.74 85.5177 103.803 85.5177 103.803 83.4745C103.803 81.4312 104.989 81.4312 104.989 79.4155C104.989 77.3999 103.417 76.7648 104.906 75.3842C106.478 73.8932 107.029 76.682 109.18 76.682C111.331 76.682 111.331 74.0312 113.51 74.0312C115.688 74.0312 115.661 74.6663 117.812 74.6663C119.962 74.6663 119.962 75.9365 122.141 75.9365C124.32 75.9365 124.292 74.0865 126.471 74.0865C128.649 74.0865 128.621 75.1081 130.8 75.1081C132.979 75.1081 132.979 74.5007 135.129 74.5007C137.28 74.5007 137.308 76.6544 139.459 76.6544C141.61 76.6544 141.886 74.2245 143.458 75.688C144.947 77.0685 144.064 77.3723 144.064 79.3879C144.064 81.4036 142.934 81.4036 142.934 83.4193C142.934 85.4349 142.575 85.4349 142.575 87.4782C142.575 89.5214 144.257 89.3006 144.781 91.261C145.443 93.6632 145.774 94.7401 144.312 96.1483L144.34 96.1759Z" fill="#876425"/>
<path d="M151.427 134.582C149.883 136.046 149.552 135.77 147.429 135.77C145.305 135.77 145.305 134.72 143.182 134.72C141.058 134.72 141.058 133.947 138.935 133.947C136.812 133.947 136.812 135.245 134.688 135.245C132.565 135.245 132.565 134.389 130.442 134.389C128.318 134.389 128.318 136.073 126.195 136.073C124.071 136.073 124.071 133.616 121.948 133.616C119.825 133.616 119.825 134.5 117.701 134.5C115.578 134.5 115.578 134.472 113.454 134.472C111.331 134.472 111.331 136.239 109.18 136.239C107.029 136.239 107.002 135.77 105.457 134.279C103.996 132.898 104.713 132.815 104.713 130.8C104.713 128.784 106.147 128.784 106.147 126.768C106.147 124.753 103.803 124.753 103.803 122.709C103.803 120.666 105.016 120.666 105.016 118.65C105.016 116.635 103.582 116.165 105.044 114.757C106.505 113.349 107.002 113.211 109.125 113.211C111.248 113.211 111.248 113.846 113.372 113.846C115.495 113.846 115.495 115.116 117.618 115.116C119.742 115.116 119.742 114.26 121.865 114.26C123.989 114.26 123.989 113.294 126.112 113.294C128.235 113.294 128.235 113.846 130.359 113.846C132.482 113.846 132.482 113.404 134.606 113.404C136.729 113.404 136.729 115.889 138.852 115.889C140.976 115.889 140.976 114.895 143.099 114.895C145.222 114.895 145.222 113.404 147.373 113.404C149.524 113.404 149.386 113.874 150.931 115.365C152.392 116.745 152.42 116.635 152.42 118.65C152.42 120.666 151.813 120.666 151.813 122.682C151.813 124.697 152.751 124.697 152.751 126.741C152.751 128.784 151.179 128.812 151.565 130.827C151.951 132.843 152.889 133.202 151.4 134.61L151.427 134.582Z" fill="#876425"/>
<path d="M159.312 176.241C157.767 177.705 158.126 178.45 155.975 178.45C153.824 178.45 153.852 177.677 151.728 177.677C149.605 177.677 149.605 175.91 147.481 175.91C145.358 175.91 145.358 176.435 143.235 176.435C141.111 176.435 141.111 176.573 138.988 176.573C136.865 176.573 136.865 177.788 134.741 177.788C132.618 177.788 132.618 176.849 130.494 176.849C128.371 176.849 128.371 177.015 126.248 177.015C124.124 177.015 124.124 177.512 122.001 177.512C119.878 177.512 119.878 176.656 117.754 176.656C115.631 176.656 115.631 176.324 113.48 176.324C111.329 176.324 111.356 176.545 109.205 176.545C107.054 176.545 106.144 179.058 104.573 177.594C103.111 176.214 104.187 175.192 104.187 173.177C104.187 171.161 103.663 171.161 103.663 169.145C103.663 167.13 104.297 167.13 104.297 165.086C104.297 163.043 105.538 163.043 105.538 161.027C105.538 159.012 103.745 158.68 105.207 157.272C106.668 155.864 107.027 157.769 109.15 157.769C111.274 157.769 111.274 157.327 113.397 157.327C115.52 157.327 115.52 156.057 117.644 156.057C119.767 156.057 119.767 157.107 121.891 157.107C124.014 157.107 124.014 157.88 126.137 157.88C128.261 157.88 128.261 156.582 130.384 156.582C132.507 156.582 132.507 157.438 134.631 157.438C136.754 157.438 136.754 155.754 138.878 155.754C141.001 155.754 141.001 158.211 143.124 158.211C145.248 158.211 145.248 157.327 147.371 157.327C149.495 157.327 149.495 157.355 151.645 157.355C153.796 157.355 153.769 155.588 155.92 155.588C158.071 155.588 158.098 156.057 159.643 157.548C161.104 158.929 160.387 159.012 160.387 161.027C160.387 163.043 158.953 163.043 158.953 165.059C158.953 167.074 161.297 167.074 161.297 169.118C161.297 171.161 159.891 171.161 160.084 173.177C160.249 174.861 160.746 174.861 159.284 176.241H159.312Z" fill="#876425"/>
<path d="M159.782 219.966C158.238 221.429 158.1 221.346 155.976 221.346C153.853 221.346 153.853 219.469 151.73 219.469C149.606 219.469 149.606 219.551 147.483 219.551C145.36 219.551 145.36 221.042 143.236 221.042C141.113 221.042 141.113 221.65 138.989 221.65C136.866 221.65 136.866 221.015 134.743 221.015C132.619 221.015 132.619 221.595 130.496 221.595C128.373 221.595 128.373 220.49 126.249 220.49C124.126 220.49 124.126 221.512 122.002 221.512C119.879 221.512 119.879 219.469 117.756 219.469C115.632 219.469 115.632 220.407 113.481 220.407C111.33 220.407 111.358 220.407 109.207 220.407C107.056 220.407 106.946 221.401 105.374 219.938C103.912 218.557 105.87 218.392 105.87 216.376C105.87 214.36 105.65 214.36 105.65 212.345C105.65 210.329 104.409 210.329 104.409 208.286C104.409 206.242 105.07 206.242 105.07 204.227C105.07 202.211 102.864 200.941 104.326 199.533C105.787 198.125 107.056 199.616 109.179 199.616C111.303 199.616 111.303 201.521 113.426 201.521C115.55 201.521 115.55 198.953 117.673 198.953C119.796 198.953 119.796 199.726 121.92 199.726C124.043 199.726 124.043 201.493 126.166 201.493C128.29 201.493 128.29 200.969 130.413 200.969C132.537 200.969 132.537 200.831 134.66 200.831C136.783 200.831 136.783 199.616 138.907 199.616C141.03 199.616 141.03 200.554 143.153 200.554C145.277 200.554 145.277 200.389 147.4 200.389C149.524 200.389 149.524 199.892 151.675 199.892C153.826 199.892 153.798 200.748 155.949 200.748C158.1 200.748 158.045 199.367 159.589 200.831C161.051 202.211 159.534 202.184 159.534 204.227C159.534 206.27 160.72 206.242 160.72 208.258C160.72 210.274 160.94 210.274 160.94 212.317C160.94 214.36 161.106 214.167 161.437 216.183C161.768 218.198 161.216 218.585 159.754 219.966H159.782Z" fill="#876425"/>
</g>
<path d="M126.845 63.6886C125.632 63.0812 124.336 62.3357 122.93 61.7006C121.661 61.1208 120.503 60.1267 119.069 59.5193C117.773 58.967 116.091 59.1879 114.684 58.6357C113.361 58.1111 111.844 58.0282 110.437 57.5036C109.031 56.979 108.121 55.4051 106.715 54.9357C105.308 54.4663 103.405 55.7641 101.999 55.3223C100.593 54.8805 99.8757 52.285 98.4417 51.8984C97.0078 51.5119 95.105 53.141 93.671 52.782C92.237 52.423 91.2167 50.5178 89.7827 50.1865C88.3488 49.8552 86.7218 50.5454 85.2878 50.2693C83.8538 49.9932 82.6405 48.1984 81.2065 47.9775C79.7725 47.7567 78.1455 48.6678 76.684 48.5298C75.2224 48.3917 73.7609 48.2813 72.2993 48.1708C70.8378 48.0604 69.3762 47.0111 67.9147 46.9835C66.4531 46.9559 64.9364 47.4529 63.4749 47.5082C62.0133 47.5634 60.6345 49.0268 59.173 49.1649C57.7114 49.3029 56.2223 48.9716 54.7883 49.1649C53.3544 49.3581 51.8928 49.5514 50.4589 49.8552C49.0249 50.1589 47.8667 51.429 46.4603 51.8156C45.0539 52.2022 42.9305 50.2417 41.5241 50.7111C40.1177 51.1805 38.7941 51.9536 37.4428 52.5335C36.0916 53.1133 35.6779 55.6812 34.3818 56.3439C33.0857 57.0066 31.1554 56.4544 29.8869 57.2275C28.6184 58.0006 27.9565 59.5745 26.7432 60.4305C25.5298 61.2864 24.9231 62.6946 23.7649 63.661C22.6067 64.6274 19.9042 63.661 18.8288 64.6827C17.7533 65.7043 17.9739 67.9409 16.9536 69.0453C15.9332 70.1498 14.0581 70.3707 13.1205 71.5304C12.1829 72.6901 12.4035 74.6505 11.5486 75.8378C10.6937 77.0251 8.90128 77.5221 8.10156 78.7923C7.30185 80.0624 6.39183 81.1945 5.67484 82.4922C4.95786 83.79 4.54421 85.1982 3.88238 86.5512C3.22055 87.9042 3.79965 89.7265 3.19297 91.0795C2.58629 92.4325 1.97961 93.675 1.42808 95.0832C0.876556 96.4914 -0.254074 97.7063 0.214724 98.9765C0.711098 100.302 1.37293 102.428 2.64144 103.118C3.82723 103.753 6.17122 104.112 7.66034 103.726C9.56311 103.229 9.48038 102.897 11.3556 102.4C13.2308 101.903 12.7344 99.9429 14.6372 99.4459C16.5399 98.9489 16.8708 100.219 18.7736 99.7496C19.2976 99.6115 20.7591 99.3078 20.9246 98.7832C21.2831 97.5407 20.9246 95.6907 21.5037 93.9235C22 92.4601 21.0625 90.3064 21.6967 88.7877C22.331 87.2691 23.7925 85.9437 24.5095 84.646C25.5022 82.8236 26.688 80.8355 27.6808 80.4214C29.0596 79.8415 29.1423 82.3818 29.032 85.0325C28.9769 86.4407 30.2454 88.2631 30.0523 90.0027C29.8593 91.6317 28.2047 93.1504 28.0668 94.6966C27.9841 95.7735 29.749 97.2369 30.8245 96.9608C32.9754 96.4086 32.5066 94.6138 34.6576 94.0616C36.8086 93.5093 37.0016 94.1996 39.1525 93.6474C41.3035 93.0952 41.7447 94.7519 43.8957 94.1996C46.0466 93.6474 45.826 92.7362 47.977 92.184C48.5285 92.0459 48.0046 91.1623 48.17 90.6101C48.5009 89.3676 49.0249 88.0698 49.4109 86.634C49.7694 85.3363 50.7622 84.149 51.1483 82.796C51.5343 81.443 51.0655 79.8415 51.4516 78.5162C51.8377 77.1908 52.7201 75.9207 53.1338 74.6505C53.6026 73.2147 53.6026 71.6408 54.0162 70.5088C54.7056 68.7416 57.1048 68.355 57.6011 67.7476C58.4008 66.7259 58.0424 67.8856 57.546 70.7849C57.3529 72.0274 57.6011 73.6289 57.2978 75.258C57.022 76.6386 55.4777 77.8535 55.1744 79.3445C54.8711 80.8355 56.0569 82.5751 55.7811 84.0109C55.4777 85.5295 53.8783 86.7445 53.6026 88.0974C53.3819 89.2295 54.3195 89.34 55.4502 89.0639C58.0699 88.3736 58.2354 89.0915 60.8551 88.4288C61.3791 88.2907 61.9306 88.0974 62.0961 87.6004C62.5925 86.0266 63.4197 84.4803 63.9988 82.9064C64.6331 81.2221 64.7434 79.3997 65.3777 77.9915C66.3428 75.9483 66.9771 73.6841 67.832 73.1595C68.8523 72.4968 70.2035 74.5953 70.0932 76.8042C70.0381 77.8811 68.4386 79.0408 68.2456 80.449C68.0801 81.6639 67.501 82.8788 67.308 84.1766C67.1425 85.3087 69.5417 87.1034 70.6448 86.8273C72.7681 86.2751 72.5199 85.281 74.6709 84.7288C76.8219 84.1766 76.5461 83.1825 78.6695 82.6303C80.7929 82.0781 81.2065 83.5967 83.3299 83.0445C85.4533 82.4923 85.2051 81.4982 87.3284 80.946C89.4518 80.3938 89.9206 82.1885 92.044 81.6363C94.1674 81.084 93.9192 80.0348 96.0426 79.4826C98.166 78.9303 97.835 77.6602 99.986 77.108C102.137 76.5557 102.137 76.6662 104.288 76.0863C106.439 75.5065 106.963 77.605 109.086 77.0251C111.21 76.4453 110.686 74.402 112.837 73.8498C114.988 73.2975 115.318 74.6505 117.469 74.0983C119.62 73.546 119.565 73.3251 121.716 72.7729C123.867 72.2207 124.198 73.546 126.349 72.9938C128.224 72.4968 128.721 69.6804 128.914 68.0789C129.107 66.4774 128.665 64.5998 126.928 63.7715L126.845 63.6886Z" fill="#00AA89"/>
<path d="M123.815 66.016C122.464 66.2093 121.085 67.01 119.541 67.2862C118.162 67.5347 116.7 67.7556 115.211 68.0317C113.832 68.3078 112.316 68.3078 110.854 68.6391C109.475 68.9429 108.152 69.7988 106.69 70.1578C105.229 70.5167 104.098 71.6764 102.664 72.063C101.23 72.4496 99.8236 72.6152 98.3896 73.057C96.9557 73.4988 95.0529 72.2287 93.6465 72.6981C92.2401 73.1675 91.3301 74.9346 89.9512 75.4592C88.5724 75.9839 86.9454 75.763 85.5666 76.3152C84.1878 76.8674 83.5811 79.104 82.2299 79.6838C80.8786 80.2637 78.9759 79.601 77.6522 80.2361C76.3285 80.8711 75.6667 82.7211 74.3706 83.439C73.0745 84.1569 71.1717 83.6875 69.9032 84.4331C68.6347 85.1786 67.0077 85.3719 65.7668 86.1726C64.5258 86.9733 63.4504 88.0778 62.2646 88.9338C61.0788 89.7897 60.3342 91.2532 59.176 92.192C58.0178 93.1308 57.8799 95.1188 56.7769 96.1128C55.6738 97.1069 52.9162 96.3061 51.8683 97.3554C50.8204 98.4046 50.324 100.006 49.3864 101.111C48.4488 102.215 47.1252 103.099 46.2427 104.258C45.3603 105.418 45.9394 107.627 45.1397 108.842C44.3399 110.057 44.009 111.493 43.3196 112.79C42.6302 114.088 39.7623 114.254 39.1556 115.607C38.5489 116.96 39.0177 118.754 38.5213 120.163C38.025 121.571 37.9422 123.034 37.5286 124.442C37.1149 125.851 35.2122 126.872 34.8812 128.336C34.5503 129.799 36.4807 131.594 36.2601 133.085C36.0395 134.576 33.9437 135.736 33.8058 137.227C33.6679 138.718 34.3021 140.209 34.2746 141.7C34.247 143.191 33.7506 144.627 33.8058 146.118C33.8609 147.609 35.4328 148.934 35.5431 150.425C35.6534 151.916 36.0119 153.242 36.2049 154.733C36.398 156.224 36.3428 157.632 36.591 159.095C36.8392 160.559 36.591 162.05 36.8943 163.513C37.1977 164.977 37.8043 166.385 38.9074 167.158C40.0656 167.986 41.665 168.621 43.0714 168.483C44.4227 168.345 45.8566 167.434 46.8494 166.274C48.1455 164.811 48.1179 164.783 49.3864 163.292C50.6549 161.801 50.7652 161.884 52.0613 160.421C53.3574 158.957 53.0816 158.709 54.3777 157.218C54.7362 156.803 54.7638 156.334 54.5984 155.809C54.2123 154.595 54.4053 152.772 53.9089 151.005C53.4953 149.514 52.6129 148.051 52.2544 146.449C51.8959 144.848 52.668 143.053 52.5026 141.589C52.3095 139.519 50.6549 137.475 51.234 136.564C52.0613 135.294 53.3023 137.337 54.7087 139.574C55.4532 140.789 56.5287 142.086 57.356 143.633C58.1281 145.096 59.0657 146.477 59.8379 147.857C60.3618 148.824 62.7885 149.707 63.5055 148.879C64.9671 147.195 63.1746 145.621 64.6362 143.936C66.0977 142.252 67.2835 143.301 68.745 141.617C70.2066 139.933 70.2066 139.933 71.6957 138.248C73.1848 136.564 72.7436 136.177 74.2051 134.521C74.5912 134.107 75.1152 133.527 74.9221 133.002C74.5085 131.787 74.6739 130.269 74.2051 128.86C73.7915 127.59 72.6333 126.486 72.2197 125.133C71.806 123.78 71.5027 122.427 71.1166 121.101C70.7305 119.776 70.7305 118.257 70.372 116.987C69.9584 115.524 68.7726 114.392 68.4968 113.177C68.0556 111.327 67.3386 109.808 67.3938 109.035C67.4765 107.765 68.3038 109.422 69.5447 112.1C70.0687 113.26 72.3575 113.895 72.9918 115.413C73.5433 116.711 71.999 118.975 72.5781 120.384C73.1572 121.792 75.6115 122.344 76.1906 123.697C76.7973 125.133 75.8597 127.148 76.4113 128.419C76.8801 129.495 78.6449 129.219 79.4171 128.363C81.2095 126.32 82.3953 127.397 84.1878 125.354C84.5463 124.94 83.8845 123.504 83.7466 122.979C83.2778 121.405 82.809 119.748 82.3953 118.092C81.9541 116.352 82.5884 114.502 82.3678 112.984C82.0093 110.747 81.375 109.394 81.7886 108.455C82.285 107.323 83.1399 107.599 84.2705 109.505C84.822 110.443 85.0151 111.852 85.6493 113.149C86.2009 114.254 86.6972 115.441 87.2763 116.628C87.7727 117.65 88.1036 117.153 88.8482 116.297C90.3097 114.64 92.1849 116.297 93.6189 114.613C95.0529 112.928 94.8874 112.79 96.3214 111.134C97.7554 109.477 96.1559 108.041 97.5899 106.384C99.0239 104.728 100.099 105.667 101.561 104.01C103.022 102.353 102.278 101.718 103.739 100.061C105.201 98.4046 104.622 97.9076 106.083 96.2509C107.545 94.5942 109.393 96.2509 110.854 94.5666C112.316 92.8823 111.02 91.7502 112.481 90.0935C113.943 88.4368 114.88 89.2651 116.342 87.6084C117.803 85.9517 116.783 85.0405 118.217 83.3838C119.651 81.7271 120.589 82.5279 122.05 80.8435C123.512 79.1592 123.65 79.2973 125.111 77.613C126.573 75.9286 126.324 75.7354 127.786 74.051C129.055 72.5876 127.979 71.0137 127.207 69.5779C126.435 68.1421 125.635 65.7399 123.705 66.016H123.815Z" fill="#00DBB1"/>
<path d="M122.96 67.8788C124.311 68.0721 125.91 67.2161 127.455 67.4646C128.833 67.7131 130.46 66.9952 131.977 67.299C133.356 67.5751 134.818 67.796 136.307 68.1273C137.685 68.431 138.651 70.7504 140.112 71.1094C141.574 71.4683 143.311 70.3363 144.745 70.7504C146.179 71.1646 147.558 71.5512 148.964 71.993C150.371 72.4347 151.446 73.8153 152.852 74.2847C154.259 74.7541 155.445 75.6101 156.851 76.1347C158.257 76.6593 159.361 77.6258 160.739 78.178C162.118 78.7302 163.938 78.0675 165.289 78.6474C166.641 79.2272 168.323 79.0892 169.646 79.7243C170.97 80.3593 171.439 82.6235 172.735 83.3138C174.031 84.0041 175.217 84.7772 176.485 85.5227C177.754 86.2682 179.712 85.8541 180.925 86.6824C182.139 87.5108 183.407 88.2563 184.593 89.1399C185.779 90.0234 187.378 90.3824 188.536 91.2936C189.695 92.2048 190.274 93.8615 191.349 94.8279C192.425 95.7943 192.811 97.5062 193.831 98.5555C194.851 99.6047 197.278 99.3838 198.243 100.516C199.208 101.648 199.87 103.056 200.753 104.216C201.635 105.376 201.084 107.557 201.883 108.799C202.683 110.042 204.255 110.76 204.972 112.058C205.689 113.355 205.137 115.205 205.772 116.558C206.406 117.911 207.785 118.823 208.309 120.203C208.833 121.584 209.991 122.716 210.404 124.152C210.818 125.587 209.908 127.272 210.239 128.735C210.57 130.199 211.728 131.413 211.949 132.877C212.169 134.34 210.928 135.887 211.066 137.378C211.204 138.869 212.721 140.166 212.748 141.657C212.776 143.148 212.969 144.584 212.941 146.075C212.914 147.566 212.224 148.947 212.087 150.438C211.949 151.929 211.949 153.337 211.756 154.828C211.563 156.319 211.066 157.672 210.818 159.136C210.57 160.599 209.439 161.814 209.136 163.277C208.832 164.741 209.136 166.26 208.033 167.033C206.875 167.861 205.523 167.06 204.117 166.922C202.766 166.784 202.021 166.674 201.001 165.514C199.705 164.051 199.153 164.52 197.857 163.057C196.561 161.593 197.416 160.82 196.12 159.357C194.824 157.893 193.748 158.832 192.452 157.341C192.094 156.927 192.094 156.292 192.259 155.739C192.645 154.525 192.094 152.619 192.59 150.825C193.004 149.334 194.962 148.119 195.293 146.517C195.623 144.916 194.162 142.983 194.3 141.519C194.493 139.448 195.541 137.902 194.934 136.991C194.107 135.721 193.279 137.074 191.901 139.31C191.156 140.525 190.218 141.934 189.419 143.48C188.647 144.943 188.729 146.904 187.985 148.257C187.461 149.223 184.097 149.692 183.38 148.892C181.918 147.207 182.69 146.517 181.229 144.86C179.767 143.204 180.346 142.651 178.885 140.995C177.423 139.338 176.678 139.946 175.217 138.261C173.755 136.577 174.969 135.5 173.48 133.816C173.094 133.402 172.873 133.816 173.038 133.291C173.452 132.076 172.707 130.364 173.176 128.956C173.59 127.686 175.382 126.802 175.824 125.449C176.265 124.096 176.127 122.605 176.513 121.28C176.899 119.955 177.368 118.574 177.726 117.276C178.14 115.813 178.802 114.487 179.078 113.3C179.519 111.45 179.243 109.821 179.188 109.048C179.105 107.778 178.664 109.435 177.423 112.085C176.899 113.245 176.099 114.515 175.438 116.006C174.886 117.304 172.68 117.994 172.101 119.402C171.522 120.811 172.239 122.688 171.687 124.041C171.08 125.477 169.812 126.554 169.26 127.824C168.792 128.901 167.302 130.088 166.53 129.232C164.738 127.189 165.813 126.25 164.048 124.234C163.69 123.82 162.366 123.268 162.504 122.743C162.973 121.17 164.683 119.844 165.096 118.215C165.538 116.476 166.613 114.846 166.834 113.355C167.192 111.119 166.944 108.827 166.53 107.888C166.034 106.756 164.379 107.943 163.249 109.849C162.697 110.787 163.359 112.582 162.725 113.852C162.173 114.957 159.388 115.04 158.809 116.227C158.313 117.249 158.313 117.663 157.54 116.807C156.079 115.15 156.437 114.846 154.976 113.162C153.514 111.478 152.218 112.637 150.784 111.008C149.35 109.379 148.992 109.655 147.53 107.999C146.069 106.342 147.916 104.713 146.482 103.056C145.048 101.399 144.166 102.173 142.704 100.516C141.243 98.8592 140.939 99.1353 139.478 97.451C138.016 95.7667 139.23 94.7451 137.768 93.0883C136.307 91.4316 134.625 92.8951 133.191 91.2384C131.757 89.5816 133.191 88.2839 131.729 86.6272C130.267 84.9705 129.743 85.4399 128.282 83.7832C126.82 82.1265 127.179 81.7951 125.717 80.1384C124.256 78.4817 123.125 79.4481 121.664 77.7914C120.202 76.1347 120.064 76.2452 118.603 74.5885C117.334 73.125 117.389 70.281 118.161 68.8452C118.934 67.4094 121.002 67.6855 122.905 67.9616L122.96 67.8788Z" fill="#00AA89"/>
<path d="M124.481 60.5545C123.957 59.3119 124.867 57.2963 124.205 55.8605C123.626 54.6179 120.896 54.2866 120.234 52.906C119.6 51.6359 120.979 49.2889 120.234 47.9635C119.572 46.721 118.111 45.8098 117.366 44.512C116.622 43.2143 115.381 42.3031 114.581 41.0606C113.781 39.818 113.836 38.0509 112.982 36.836C112.127 35.621 111.548 34.2405 110.638 33.0531C109.728 31.8658 107.687 31.6449 106.749 30.5129C105.812 29.3808 105.757 27.4756 104.764 26.3987C103.771 25.3219 102.834 24.1069 101.758 23.0853C100.683 22.0637 98.8349 21.898 97.7043 20.9592C96.5737 20.0204 95.1949 19.4405 94.0091 18.5846C92.8233 17.7286 91.279 17.5077 90.0381 16.7346C88.7971 15.9615 87.5838 15.354 86.2601 14.6913C84.9364 14.0286 84.4401 11.7093 83.0612 11.157C81.6824 10.6048 80.1657 10.522 78.7318 10.1078C77.2978 9.6936 76.0569 8.45107 74.5953 8.17495C73.1338 7.89883 71.3965 10.2458 69.9073 10.1078C68.4182 9.96972 67.1221 8.81002 65.633 8.81002C64.1439 8.81002 62.765 9.0033 61.2759 9.16897C59.7868 9.33465 58.6286 10.5772 57.167 10.8533C55.7055 11.1294 53.9682 9.63837 52.5066 10.0526C51.0451 10.4667 49.4181 10.0526 47.9841 10.5496C46.5501 11.0466 45.2816 11.7645 43.8752 12.3719C42.4688 12.9794 41.9725 15.1883 40.6212 15.851C39.0769 16.6242 38.0015 17.5353 38.0015 19.0264C38.0015 20.5174 38.9666 21.7047 40.5109 22.4778C42.4413 23.4719 42.5791 23.1681 44.5095 24.1622C46.4398 25.1562 46.302 25.4047 48.2323 26.3987C48.5908 26.592 49.5284 28.1106 49.8593 27.8897C50.8796 27.2547 51.3209 24.7144 52.9203 23.8584C54.2991 23.1129 55.5676 21.6495 56.9189 21.0696C58.8216 20.2689 60.7795 21.7323 61.7171 22.0361C63.0684 22.5055 61.1656 22.7816 59.0698 24.742C57.8289 25.9017 57.2773 28.1383 56.0364 29.3256C55.4573 29.8778 55.4297 30.43 56.1467 30.8166C58.0771 31.8106 57.4428 33.0808 59.3732 34.1024C61.3035 35.124 61.8826 34.0196 63.8129 35.0136C65.7433 36.0076 65.1918 37.1121 67.1497 38.1061C67.5082 38.2994 68.5285 37.1397 68.8594 36.9188C69.9901 36.1733 71.8377 36.1457 73.1889 35.2621C74.4574 34.4613 75.202 32.6942 76.4705 31.9211C77.8493 31.0927 78.7318 29.4084 79.9451 28.7457C81.7927 27.7241 83.6404 26.7853 84.4125 26.6748C85.4604 26.4815 84.0264 28.1935 81.9582 29.8226C81.0482 30.5405 80.8551 32.6114 79.6694 33.4673C78.6215 34.2405 77.4908 35.0688 76.4153 35.8695C75.3399 36.6703 73.575 36.7531 72.5822 37.4986C71.9204 38.0233 71.8652 39.9285 72.6374 40.315C74.4023 41.2262 74.1817 41.668 75.9465 42.5792C76.305 42.7725 77.2151 41.5852 77.546 41.3643C78.5939 40.7568 79.2833 39.3486 80.3588 38.7688C81.517 38.1613 83.4473 39.2106 84.4676 38.7688C85.9843 38.1061 86.7841 37.8576 87.5286 37.9957C88.6317 38.1889 88.0802 38.9068 86.2601 40.5359C85.3225 41.3643 84.247 42.3859 83.0888 43.3247C82.4546 43.8493 82.7855 43.3523 83.5301 43.7389C85.4052 44.7053 84.9916 45.4784 86.8668 46.4449C88.742 47.4113 88.3008 48.2672 90.1484 49.2336C91.996 50.2001 92.906 48.4881 94.7812 49.4545C96.6564 50.4209 96.4909 50.7523 98.3661 51.7187C100.241 52.6851 99.4692 54.1761 101.344 55.1702C103.22 56.1642 103.661 55.2806 105.564 56.247C107.466 57.2134 106.832 58.4007 108.707 59.3672C110.582 60.3336 111.024 59.5052 112.899 60.4716C114.774 61.438 115.133 60.7754 117.008 61.7694C118.883 62.7634 118.276 63.9231 120.179 64.8895C121.448 65.5522 122.964 64.4477 123.847 63.647C124.729 62.8462 124.95 61.8522 124.398 60.5268L124.481 60.5545Z" fill="#00DBB1"/>
<path d="M127.564 64.366C128.805 63.7861 130.018 63.013 131.452 62.3779C132.721 61.7981 133.521 59.9757 134.927 59.3959C136.223 58.8436 137.822 58.8712 139.229 58.319C140.553 57.7944 141.959 57.4078 143.365 56.9108C144.772 56.4138 145.571 54.3981 146.978 53.9287C148.384 53.4593 149.791 53.1556 151.225 52.7138C152.659 52.272 154.616 54.0116 156.05 53.625C157.484 53.2384 158.477 51.4713 159.911 51.1123C161.345 50.7534 162.641 49.925 164.103 49.6213C165.564 49.3176 166.971 48.9034 168.405 48.6549C169.839 48.4064 171.438 49.0691 172.9 48.8758C174.361 48.6825 175.768 48.1579 177.229 48.0198C178.691 47.8818 180.235 49.2623 181.696 49.1795C183.158 49.0967 184.564 48.7377 186.026 48.7101C187.487 48.6825 188.977 47.3571 190.438 47.4124C191.9 47.4676 193.416 47.1086 194.878 47.2467C196.34 47.3847 197.829 47.578 199.29 47.7989C200.752 48.0198 202.103 48.8758 203.537 49.1795C204.971 49.4832 206.239 50.4496 207.673 50.8362C209.107 51.2228 210.128 52.631 211.507 53.1004C212.885 53.5698 214.54 53.2108 215.891 53.7907C217.242 54.3705 219.007 54.0392 220.303 54.7295C221.599 55.4198 221.986 57.6563 223.226 58.4294C224.467 59.2026 225.46 60.169 226.646 61.025C227.832 61.8809 229.266 62.2675 230.396 63.2339C231.527 64.2003 233.705 63.8966 234.781 64.9182C235.856 65.9398 235.746 68.0383 236.766 69.1428C237.787 70.2473 238.476 71.4346 239.414 72.5943C240.351 73.754 241.234 74.8032 242.089 76.0181C242.944 77.2331 245.177 77.4539 245.977 78.7241C246.777 79.9942 247.218 81.4024 247.935 82.7278C248.652 84.0532 249.203 85.3509 249.865 86.7039C250.527 88.0569 249.534 90.0449 250.113 91.4255C250.693 92.8061 251.63 93.9106 252.182 95.2911C252.733 96.6717 252.761 97.5001 252.292 98.7702C251.768 100.096 251.961 102.194 250.693 102.857C249.507 103.492 247.852 102.47 246.363 102.056C244.46 101.559 244.074 103.05 242.171 102.525C240.269 102.001 240.241 102.111 238.366 101.587C236.491 101.062 236.546 100.758 234.671 100.261C234.147 100.123 233.926 99.0187 233.761 98.4941C233.402 97.2516 233.43 95.4568 232.851 93.7173C232.354 92.2538 230.865 91.0113 230.286 89.5203C229.707 88.0292 229.845 86.0136 229.155 84.7158C228.163 82.8658 226.453 82.2584 225.46 81.8166C224.081 81.2091 225.24 82.3688 225.35 85.0196C225.405 86.4278 223.695 88.2501 223.888 89.9897C224.054 91.6188 226.039 93.1374 226.177 94.6837C226.26 95.7881 224.136 96.3956 223.061 96.1195C220.91 95.5396 220.965 95.4016 218.814 94.8217C216.663 94.2419 216.608 94.4076 214.457 93.8277C212.306 93.2479 212.03 94.2695 209.88 93.6897C207.729 93.1098 207.866 92.5852 205.715 92.0053C205.164 91.8673 203.592 91.6188 203.454 91.0942C203.123 89.8516 203.537 88.3054 203.151 86.8696C202.792 85.5718 202.461 84.2188 202.075 82.8658C201.689 81.5129 202.875 79.7181 202.461 78.3927C202.048 77.0674 199.4 76.3771 199.014 75.1069C198.546 73.6711 200.255 71.5726 199.814 70.4129C199.152 68.6182 197.691 67.4585 197.222 66.851C196.422 65.8294 196.312 67.6794 196.781 70.5786C196.974 71.8211 196.257 73.5055 196.588 75.1069C196.863 76.4875 196.836 78.0338 197.139 79.5248C197.443 81.0159 199.152 82.1479 199.428 83.5838C199.731 85.1024 198.821 86.7867 199.07 88.1673C199.263 89.2994 199.4 89.0509 198.297 88.7472C195.678 88.0569 195.402 89.1613 192.782 88.4434C192.258 88.3054 191.403 88.0292 191.265 87.5046C190.769 85.9308 189.583 84.5502 189.004 82.9487C188.398 81.2644 187.708 79.7733 187.074 78.3651C186.136 76.2942 186.66 73.6711 185.805 73.1189C184.785 72.4562 183.93 74.2786 184.04 76.4875C184.096 77.5644 183.323 79.0002 183.517 80.436C183.682 81.6509 186.384 82.5897 186.577 83.8875C186.743 85.0196 184.289 86.3725 183.186 86.0964C181.062 85.5166 181.035 85.627 178.884 85.0472C176.733 84.4673 176.485 85.5166 174.334 84.9367C172.183 84.3569 172.679 82.5897 170.556 82.0099C168.432 81.43 168.653 80.6017 166.529 80.0218C164.406 79.442 164.351 79.6353 162.228 79.083C160.104 78.5308 159.635 80.2427 157.484 79.6905C155.333 79.1383 155.527 78.4756 153.403 77.8957C151.28 77.3159 151.169 77.7025 149.046 77.1226C146.923 76.5428 146.812 76.8741 144.689 76.3219C142.566 75.7696 142.621 75.4935 140.497 74.9137C138.374 74.3338 138.815 72.6219 136.692 72.042C134.568 71.4622 134.045 73.3398 131.921 72.7876C129.798 72.2353 129.577 72.9256 127.454 72.3734C125.579 71.8764 125.551 68.9771 125.386 67.3757C125.22 65.7742 125.827 65.2495 127.564 64.4212V64.366Z" fill="#00DBB1"/>
<path d="M118.994 64.6606C119.436 63.3628 119.27 61.7337 119.822 60.2427C120.318 58.9449 120.897 57.5643 121.504 56.1285C122.055 54.8032 122.745 53.5054 123.379 52.0972C123.958 50.7995 123.572 48.9219 124.234 47.5689C124.896 46.2159 127.819 46.1055 128.508 44.7525C129.198 43.3995 129.005 41.6876 129.749 40.3898C130.494 39.0921 130.742 37.5458 131.514 36.2757C132.286 35.0055 133.968 34.3705 134.823 33.1279C135.678 31.8854 135.706 30.1459 136.588 28.9309C137.471 27.716 137.636 25.9765 138.574 24.8168C139.511 23.6571 141.304 23.2153 142.296 22.1108C143.289 21.0064 143.786 19.4049 144.834 18.3556C145.881 17.3064 147.894 17.2788 148.998 16.2848C150.101 15.2907 151.176 14.2967 152.334 13.3855C153.492 12.4743 154.458 11.287 155.699 10.4587C156.94 9.63032 157.684 7.97362 158.98 7.25571C160.276 6.53781 161.655 5.84751 163.006 5.21244C164.358 4.57737 166.453 5.8199 167.86 5.29528C169.266 4.77066 170.121 2.755 171.555 2.34082C172.989 1.92664 174.561 2.17515 176.05 1.89903C177.539 1.62291 178.89 0.877397 180.379 0.739339C181.869 0.60128 183.358 0.490833 184.847 0.463221C186.336 0.435609 187.715 2.14754 189.231 2.23037C190.748 2.31321 192.265 0.822174 193.782 1.01546C195.298 1.20874 196.456 2.755 197.946 3.05873C199.435 3.36246 200.758 3.63857 202.248 4.02514C203.737 4.4117 204.95 5.01916 206.384 5.48856C207.818 5.95796 209.335 5.84751 210.741 6.39975C212.147 6.95198 213.581 7.17288 214.96 7.80795C216.174 8.33257 217.387 8.94003 217.883 9.98928C218.407 11.1214 217.166 12.1982 216.808 13.3579C216.449 14.5176 216.201 14.7385 215.015 15.4012C212.809 16.6713 214.078 18.9079 211.899 20.1504C209.721 21.3929 209.279 20.675 207.073 21.9452C206.66 22.1937 205.584 22.3041 205.171 22.0556C204.178 21.5034 202.909 20.8407 201.475 20.0952C200.262 19.4877 199.462 17.831 198.166 17.2512C196.87 16.6713 195.298 16.478 194.057 16.0915C192.32 15.5669 190.693 15.2631 189.838 15.5945C188.625 16.0639 189.645 17.4168 191.355 18.9907C192.265 19.8191 194.195 19.7915 195.381 20.7579C196.484 21.6414 197.036 23.3258 198.083 24.2093C198.8 24.8168 197.863 25.2034 197.036 25.6728C195.381 26.6116 195.602 27.0257 193.919 27.9645C192.237 28.9033 193.313 30.7533 191.631 31.7197C189.948 32.6861 189.507 31.8578 187.825 32.8242C186.143 33.7906 185.812 33.1832 184.157 34.1496C183.744 34.3981 183.992 33.5421 183.551 33.2936C182.393 32.6309 181.041 32.0235 179.69 31.2779C178.449 30.5876 176.491 31.057 175.223 30.3391C173.954 29.6212 172.906 28.3787 171.665 27.716C170.259 26.9981 168.99 26.1974 167.805 25.6451C165.985 24.7892 164.165 25.7832 163.42 25.6451C162.179 25.4795 164.358 24.7616 166.922 26.5839C168.08 27.3847 168.191 30.1459 169.652 31.1123C170.948 31.9958 173.154 31.6645 174.478 32.5757C175.802 33.4869 177.567 34.0115 178.78 34.8399C179.607 35.4197 179.552 38.0704 178.697 38.5674C176.684 39.7271 176.215 38.9264 174.202 40.0861C173.789 40.307 173.154 40.6383 172.741 40.4174C171.472 39.7547 170.755 37.7391 169.432 37.104C168.025 36.4413 166.426 36.0824 165.185 35.613C163.337 34.9227 161.6 35.8063 160.745 35.9995C159.449 36.2757 161.297 36.4137 163.558 38.2637C164.716 39.2025 166.067 40.2241 167.501 41.2734C168.301 41.8532 167.832 44.145 167.005 44.6144C165.047 45.7189 164.744 45.1667 162.786 46.2987C160.828 47.4308 160.331 46.5196 158.374 47.6241C156.416 48.7286 156.884 49.5293 154.926 50.6614C152.969 51.7935 153.492 52.6771 151.535 53.8091C149.577 54.9412 148.694 53.3673 146.736 54.4718C144.778 55.5763 144.64 55.3554 142.683 56.4599C140.725 57.5643 141 58.0613 139.042 59.1658C137.085 60.2703 137.912 61.7337 135.954 62.8382C133.996 63.9426 133.251 62.6173 131.294 63.7494C129.336 64.8814 129.225 64.6606 127.267 65.7926C125.309 66.9247 125.337 66.9799 123.379 68.112C121.945 68.9404 120.208 70.0725 119.105 69.1889C118.002 68.3053 118.415 66.262 118.967 64.6882L118.994 64.6606Z" fill="#00AA89"/>
</g>
<g clip-path="url(#clip1_940_12303)">
<path d="M319.924 144.148C319.991 144.728 320.636 145.557 320.736 146.684C320.802 147.43 320.636 148.325 320.703 149.303C320.769 150.098 321.166 150.944 321.232 151.872C321.298 152.684 320.123 153.645 320.173 154.557C320.222 155.386 321.017 156.198 321.067 157.109C321.116 157.938 321.497 158.8 321.547 159.695C321.596 160.54 320.885 161.435 320.918 162.33C320.951 163.225 321.911 164.004 321.944 164.899C321.977 165.795 321.199 166.64 321.232 167.535C321.265 168.43 321.894 169.242 321.911 170.121C321.927 170.999 321.497 171.861 321.514 172.739C321.53 173.618 321.381 174.463 321.381 175.342C321.381 176.22 321.216 177.065 321.216 177.944C321.216 178.822 321.563 179.668 321.547 180.546C321.53 181.425 321.961 182.286 321.944 183.165C321.927 184.043 321.729 184.889 321.712 185.767C321.696 186.646 320.785 187.474 320.769 188.336C320.752 189.198 320.471 190.043 320.438 190.922C320.405 191.8 320.653 192.662 320.603 193.524C320.554 194.386 321.116 195.298 321.05 196.16C320.984 197.021 321.547 197.933 321.481 198.812C321.414 199.69 320.405 200.469 320.322 201.331C320.239 202.193 320.785 203.121 320.686 203.983C320.587 204.845 319.395 205.591 319.295 206.452C319.196 207.314 319.742 208.259 319.627 209.121C319.511 209.983 320.189 210.961 320.073 211.823C319.958 212.685 319.759 213.546 319.627 214.408C319.494 215.27 318.087 215.917 317.955 216.779C317.822 217.64 318.915 218.718 318.749 219.58C318.584 220.442 317.59 221.138 317.408 221.983C317.226 222.828 317.177 223.723 316.978 224.569C316.779 225.414 315.786 226.077 315.571 226.906C315.356 227.734 316.034 228.828 315.803 229.657C315.571 230.486 315.852 231.497 315.604 232.326C315.356 233.154 314.296 233.751 314.031 234.563C313.767 235.375 313.965 236.387 313.667 237.199C313.369 238.011 312.889 238.79 312.575 239.585C312.26 240.381 311.797 241.16 311.449 241.939C311.101 242.718 309.876 243.116 309.496 243.878C309.115 244.641 309.479 245.818 309.065 246.563C308.652 247.309 307.989 247.939 307.526 248.668C306.864 249.729 307.344 251.702 308.519 252.149C309.214 252.414 310.009 252.928 310.986 253.26C311.764 253.508 312.84 253.094 313.767 253.359C314.578 253.591 315.306 254.387 316.216 254.602C317.044 254.801 318.004 254.669 318.915 254.834C319.759 255 320.62 255.431 321.514 255.547C322.408 255.663 323.384 254.718 324.295 254.801C325.205 254.884 326 255.762 326.91 255.796C327.821 255.829 328.681 255.083 329.592 255.083C330.502 255.083 331.33 255.017 332.24 254.95C333.151 254.884 333.929 254.519 334.823 254.403C335.717 254.287 336.693 255 337.571 254.834C338.448 254.669 339.292 254.37 340.153 254.155C341.014 253.939 341.874 253.74 342.735 253.459C343.596 253.177 344.589 253.276 345.417 252.945C346.245 252.613 346.658 251.387 347.47 250.989C348.148 250.641 349.191 250.326 349.175 249.563C349.158 248.917 348.281 248.055 348.231 246.945C348.198 246.166 348.347 245.271 348.297 244.293C348.264 243.481 348.844 242.552 348.794 241.608C348.744 240.779 347.768 239.95 347.701 239.022C347.652 238.177 348.711 237.215 348.645 236.304C348.579 235.458 348.479 234.563 348.413 233.652C348.347 232.79 347.387 231.978 347.304 231.083C347.221 230.188 346.791 229.375 346.725 228.48C346.658 227.585 346.94 226.707 346.857 225.812C346.774 224.917 346.344 224.105 346.261 223.21C346.178 222.315 346.758 221.403 346.658 220.508C346.559 219.613 345.864 218.834 345.765 217.939C345.665 217.044 346.774 216.049 346.675 215.154C346.576 214.259 345.914 213.48 345.798 212.585C345.682 211.69 345.566 210.845 345.45 209.95C345.334 209.055 345.599 208.16 345.483 207.281C345.367 206.403 345.4 205.508 345.268 204.629C345.136 203.751 344.871 202.905 344.722 202.027C344.573 201.149 343.712 200.403 343.563 199.524C343.414 198.646 343.662 197.718 343.513 196.839C343.364 195.961 342.603 195.215 342.437 194.336C342.272 193.458 342.305 192.563 342.139 191.701C341.974 190.839 342.917 189.729 342.735 188.867C342.553 188.005 340.865 187.458 340.683 186.579C340.501 185.701 340.765 184.756 340.567 183.894C340.368 183.032 341.196 181.922 340.981 181.06C340.765 180.198 340.252 179.402 340.037 178.541C339.822 177.679 339.507 176.833 339.276 175.988C339.044 175.143 338.1 174.48 337.852 173.634C337.604 172.789 337.885 171.778 337.62 170.933C337.355 170.087 336.991 169.259 336.726 168.43C336.461 167.601 335.882 166.839 335.601 166.01C335.319 165.181 335.485 164.154 335.17 163.341C334.856 162.529 334.723 161.601 334.392 160.772C334.061 159.944 333.581 159.165 333.234 158.369C332.886 157.573 331.86 157.026 331.495 156.247C331.131 155.468 330.602 154.706 330.204 153.927C329.807 153.148 329.112 152.518 328.698 151.756C328.284 150.993 328.152 150.032 327.705 149.286C327.258 148.54 327.374 147.363 326.877 146.651C326.38 145.938 325.751 145.242 325.205 144.562C324.659 143.883 324.245 143.004 323.666 142.358C322.871 141.463 320.967 141.629 320.173 142.524L320.752 143.037C320.388 143.452 319.891 143.617 319.958 144.164L319.924 144.148Z" fill="#C49841"/>
<mask id="mask1_940_12303" style="mask-type:luminance" maskUnits="userSpaceOnUse" x="307" y="141" width="43" height="115">
<path d="M319.929 144.144C319.995 144.724 320.641 145.553 320.74 146.68C320.806 147.426 320.641 148.321 320.707 149.299C320.773 150.094 321.17 150.94 321.237 151.868C321.303 152.68 320.128 153.641 320.177 154.553C320.227 155.382 321.021 156.194 321.071 157.105C321.121 157.934 321.501 158.796 321.551 159.691C321.601 160.536 320.889 161.431 320.922 162.327C320.955 163.222 321.915 164.001 321.948 164.896C321.982 165.791 321.204 166.636 321.237 167.531C321.27 168.426 321.899 169.238 321.915 170.117C321.932 170.995 321.501 171.857 321.518 172.735C321.535 173.614 321.386 174.459 321.386 175.338C321.386 176.216 321.22 177.061 321.22 177.94C321.22 178.818 321.568 179.664 321.551 180.542C321.535 181.421 321.965 182.283 321.948 183.161C321.932 184.039 321.733 184.885 321.717 185.763C321.7 186.642 320.79 187.47 320.773 188.332C320.757 189.194 320.475 190.04 320.442 190.918C320.409 191.796 320.657 192.658 320.608 193.52C320.558 194.382 321.121 195.294 321.055 196.156C320.988 197.018 321.551 197.929 321.485 198.808C321.419 199.686 320.409 200.465 320.326 201.327C320.243 202.189 320.79 203.117 320.69 203.979C320.591 204.841 319.399 205.587 319.3 206.449C319.201 207.31 319.747 208.255 319.631 209.117C319.515 209.979 320.194 210.957 320.078 211.819C319.962 212.681 319.763 213.543 319.631 214.404C319.498 215.266 318.091 215.913 317.959 216.775C317.827 217.637 318.919 218.714 318.754 219.576C318.588 220.438 317.595 221.134 317.413 221.979C317.231 222.824 317.181 223.719 316.982 224.565C316.784 225.41 315.791 226.073 315.575 226.902C315.36 227.731 316.039 228.825 315.807 229.653C315.575 230.482 315.857 231.493 315.608 232.322C315.36 233.151 314.301 233.747 314.036 234.559C313.771 235.372 313.97 236.383 313.672 237.195C313.374 238.007 312.894 238.786 312.579 239.582C312.265 240.377 311.801 241.156 311.453 241.935C311.106 242.714 309.881 243.112 309.5 243.874C309.119 244.637 309.484 245.814 309.07 246.56C308.656 247.305 307.994 247.935 307.53 248.665C306.868 249.725 307.348 251.698 308.523 252.145C309.219 252.41 310.013 252.924 310.99 253.256C311.768 253.504 312.844 253.09 313.771 253.355C314.582 253.587 315.31 254.383 316.221 254.598C317.049 254.797 318.009 254.665 318.919 254.83C319.763 254.996 320.624 255.427 321.518 255.543C322.412 255.659 323.389 254.714 324.299 254.797C325.209 254.88 326.004 255.759 326.914 255.792C327.825 255.825 328.686 255.079 329.596 255.079C330.507 255.079 331.334 255.013 332.245 254.946C333.155 254.88 333.933 254.515 334.827 254.399C335.721 254.283 336.698 254.996 337.575 254.83C338.452 254.665 339.297 254.366 340.157 254.151C341.018 253.935 341.879 253.736 342.74 253.455C343.6 253.173 344.594 253.272 345.421 252.941C346.249 252.609 346.663 251.383 347.474 250.985C348.153 250.637 349.196 250.322 349.179 249.56C349.162 248.913 348.285 248.051 348.235 246.941C348.202 246.162 348.351 245.267 348.302 244.289C348.269 243.477 348.848 242.548 348.798 241.604C348.749 240.775 347.772 239.946 347.706 239.018C347.656 238.173 348.715 237.211 348.649 236.3C348.583 235.454 348.484 234.559 348.418 233.648C348.351 232.786 347.391 231.974 347.308 231.079C347.226 230.184 346.795 229.371 346.729 228.476C346.663 227.581 346.944 226.703 346.861 225.808C346.779 224.913 346.348 224.101 346.266 223.206C346.183 222.311 346.762 221.399 346.663 220.504C346.564 219.609 345.868 218.83 345.769 217.935C345.67 217.04 346.779 216.045 346.679 215.15C346.58 214.255 345.918 213.476 345.802 212.581C345.686 211.686 345.57 210.841 345.454 209.946C345.339 209.051 345.603 208.156 345.488 207.277C345.372 206.399 345.405 205.504 345.272 204.625C345.14 203.747 344.875 202.902 344.726 202.023C344.577 201.145 343.716 200.399 343.567 199.52C343.418 198.642 343.667 197.714 343.518 196.835C343.369 195.957 342.607 195.211 342.442 194.332C342.276 193.454 342.309 192.559 342.144 191.697C341.978 190.835 342.922 189.725 342.74 188.863C342.558 188.001 340.869 187.454 340.687 186.575C340.505 185.697 340.77 184.752 340.571 183.89C340.373 183.028 341.2 181.918 340.985 181.056C340.77 180.194 340.257 179.399 340.041 178.537C339.826 177.675 339.512 176.829 339.28 175.984C339.048 175.139 338.105 174.476 337.856 173.631C337.608 172.785 337.889 171.774 337.625 170.929C337.36 170.083 336.996 169.255 336.731 168.426C336.466 167.597 335.886 166.835 335.605 166.006C335.324 165.177 335.489 164.15 335.175 163.338C334.86 162.525 334.728 161.597 334.397 160.768C334.066 159.94 333.586 159.161 333.238 158.365C332.89 157.57 331.864 157.023 331.5 156.244C331.136 155.465 330.606 154.702 330.209 153.923C329.811 153.144 329.116 152.514 328.702 151.752C328.288 150.989 328.156 150.028 327.709 149.282C327.262 148.536 327.378 147.359 326.881 146.647C326.385 145.934 325.756 145.238 325.209 144.558C324.663 143.879 324.249 143 323.67 142.354C322.875 141.459 320.972 141.625 320.177 142.52L320.757 143.033C320.392 143.448 319.896 143.614 319.962 144.161L319.929 144.144Z" fill="white"/>
</mask>
<g mask="url(#mask1_940_12303)">
<path d="M338.502 159.992C337.558 160.887 336.896 159.346 335.605 159.346C334.314 159.346 334.314 159.86 333.006 159.86C331.698 159.86 331.715 160.44 330.424 160.44C329.132 160.44 329.132 160.108 327.825 160.108C326.517 160.108 326.533 160.373 325.226 160.373C323.918 160.373 323.935 158.882 322.627 158.882C321.319 158.882 321.319 159.478 320.028 159.478C318.737 159.478 318.72 160.373 317.429 160.373C316.138 160.373 316.204 160.092 315.261 159.197C314.367 158.368 314.367 158.434 314.367 157.224C314.367 156.014 314.731 156.014 314.731 154.804C314.731 153.594 314.168 153.594 314.168 152.368C314.168 151.141 314.88 151.141 314.88 149.931C314.88 148.721 313.936 148.34 314.83 147.511C315.774 146.616 316.105 148.29 317.396 148.29C318.687 148.29 318.687 146.699 319.995 146.699C321.303 146.699 321.286 147.08 322.577 147.08C323.868 147.08 323.868 147.843 325.176 147.843C326.484 147.843 326.467 146.732 327.775 146.732C329.083 146.732 329.066 147.346 330.374 147.346C331.682 147.346 331.682 146.981 332.973 146.981C334.264 146.981 334.281 148.274 335.572 148.274C336.863 148.274 337.028 146.815 337.972 147.694C338.866 148.522 338.336 148.705 338.336 149.915C338.336 151.125 337.657 151.125 337.657 152.335C337.657 153.545 337.442 153.545 337.442 154.771C337.442 155.998 338.452 155.865 338.767 157.042C339.164 158.484 339.362 159.13 338.485 159.976L338.502 159.992Z" fill="#876425"/>
<path d="M342.756 183.05C341.829 183.928 341.63 183.762 340.356 183.762C339.081 183.762 339.081 183.132 337.806 183.132C336.532 183.132 336.532 182.668 335.257 182.668C333.983 182.668 333.983 183.447 332.708 183.447C331.433 183.447 331.433 182.934 330.159 182.934C328.884 182.934 328.884 183.945 327.609 183.945C326.335 183.945 326.335 182.469 325.06 182.469C323.786 182.469 323.786 183 322.511 183C321.236 183 321.236 182.983 319.962 182.983C318.687 182.983 318.687 184.044 317.396 184.044C316.105 184.044 316.088 183.762 315.161 182.867C314.284 182.039 314.714 181.989 314.714 180.779C314.714 179.569 315.575 179.569 315.575 178.359C315.575 177.149 314.168 177.149 314.168 175.922C314.168 174.696 314.896 174.696 314.896 173.486C314.896 172.276 314.036 171.994 314.913 171.149C315.79 170.304 316.088 170.221 317.363 170.221C318.637 170.221 318.637 170.602 319.912 170.602C321.187 170.602 321.187 171.364 322.461 171.364C323.736 171.364 323.736 170.851 325.011 170.851C326.285 170.851 326.285 170.27 327.56 170.27C328.834 170.27 328.834 170.602 330.109 170.602C331.384 170.602 331.384 170.337 332.658 170.337C333.933 170.337 333.933 171.828 335.208 171.828C336.482 171.828 336.482 171.232 337.757 171.232C339.031 171.232 339.031 170.337 340.323 170.337C341.614 170.337 341.531 170.618 342.458 171.514C343.335 172.342 343.352 172.276 343.352 173.486C343.352 174.696 342.988 174.696 342.988 175.906C342.988 177.116 343.55 177.116 343.55 178.342C343.55 179.569 342.607 179.585 342.839 180.795C343.07 182.005 343.633 182.221 342.739 183.066L342.756 183.05Z" fill="#876425"/>
<path d="M347.49 208.052C346.563 208.931 346.778 209.378 345.487 209.378C344.195 209.378 344.212 208.914 342.937 208.914C341.663 208.914 341.663 207.853 340.388 207.853C339.113 207.853 339.113 208.168 337.839 208.168C336.564 208.168 336.564 208.251 335.29 208.251C334.015 208.251 334.015 208.98 332.74 208.98C331.466 208.98 331.466 208.417 330.191 208.417C328.916 208.417 328.916 208.516 327.642 208.516C326.367 208.516 326.367 208.815 325.093 208.815C323.818 208.815 323.818 208.301 322.543 208.301C321.269 208.301 321.269 208.102 319.978 208.102C318.686 208.102 318.703 208.235 317.412 208.235C316.121 208.235 315.574 209.743 314.631 208.864C313.753 208.036 314.399 207.422 314.399 206.212C314.399 205.002 314.084 205.002 314.084 203.793C314.084 202.583 314.465 202.583 314.465 201.356C314.465 200.129 315.21 200.129 315.21 198.92C315.21 197.71 314.134 197.511 315.011 196.665C315.889 195.82 316.104 196.964 317.379 196.964C318.653 196.964 318.653 196.699 319.928 196.699C321.202 196.699 321.202 195.936 322.477 195.936C323.752 195.936 323.752 196.566 325.026 196.566C326.301 196.566 326.301 197.03 327.576 197.03C328.85 197.03 328.85 196.251 330.125 196.251C331.399 196.251 331.399 196.765 332.674 196.765C333.949 196.765 333.949 195.754 335.223 195.754C336.498 195.754 336.498 197.229 337.773 197.229C339.047 197.229 339.047 196.699 340.322 196.699C341.596 196.699 341.596 196.715 342.888 196.715C344.179 196.715 344.162 195.654 345.453 195.654C346.745 195.654 346.761 195.936 347.688 196.831C348.565 197.66 348.135 197.71 348.135 198.92C348.135 200.129 347.274 200.129 347.274 201.339C347.274 202.549 348.681 202.549 348.681 203.776C348.681 205.002 347.837 205.002 347.953 206.212C348.052 207.223 348.35 207.223 347.473 208.052H347.49Z" fill="#876425"/>
<path d="M347.772 234.298C346.845 235.177 346.762 235.127 345.488 235.127C344.213 235.127 344.213 234 342.938 234C341.664 234 341.664 234.05 340.389 234.05C339.115 234.05 339.115 234.945 337.84 234.945C336.565 234.945 336.565 235.31 335.291 235.31C334.016 235.31 334.016 234.928 332.741 234.928C331.467 234.928 331.467 235.276 330.192 235.276C328.918 235.276 328.918 234.613 327.643 234.613C326.368 234.613 326.368 235.227 325.094 235.227C323.819 235.227 323.819 234 322.544 234C321.27 234 321.27 234.564 319.979 234.564C318.688 234.564 318.704 234.564 317.413 234.564C316.122 234.564 316.055 235.16 315.112 234.282C314.235 233.453 315.41 233.354 315.41 232.144C315.41 230.934 315.277 230.934 315.277 229.724C315.277 228.514 314.533 228.514 314.533 227.287C314.533 226.061 314.93 226.061 314.93 224.851C314.93 223.641 313.606 222.878 314.483 222.033C315.36 221.188 316.122 222.083 317.396 222.083C318.671 222.083 318.671 223.227 319.946 223.227C321.22 223.227 321.22 221.685 322.495 221.685C323.769 221.685 323.769 222.149 325.044 222.149C326.319 222.149 326.319 223.21 327.593 223.21C328.868 223.21 328.868 222.895 330.143 222.895C331.417 222.895 331.417 222.812 332.692 222.812C333.966 222.812 333.966 222.083 335.241 222.083C336.516 222.083 336.516 222.646 337.79 222.646C339.065 222.646 339.065 222.547 340.34 222.547C341.614 222.547 341.614 222.249 342.905 222.249C344.197 222.249 344.18 222.762 345.471 222.762C346.762 222.762 346.729 221.934 347.656 222.812C348.534 223.641 347.623 223.624 347.623 224.851C347.623 226.077 348.335 226.061 348.335 227.271C348.335 228.481 348.467 228.481 348.467 229.707C348.467 230.934 348.567 230.818 348.765 232.028C348.964 233.238 348.633 233.47 347.756 234.298H347.772Z" fill="#876425"/>
</g>
<path d="M328.001 140.499C327.273 140.134 326.495 139.687 325.651 139.306C324.889 138.958 324.194 138.361 323.333 137.996C322.555 137.665 321.546 137.797 320.701 137.466C319.907 137.151 318.996 137.101 318.152 136.786C317.308 136.471 316.762 135.527 315.917 135.245C315.073 134.963 313.931 135.742 313.087 135.477C312.243 135.212 311.812 133.654 310.951 133.422C310.091 133.19 308.948 134.168 308.088 133.952C307.227 133.737 306.614 132.593 305.754 132.394C304.893 132.195 303.916 132.61 303.055 132.444C302.195 132.278 301.466 131.201 300.605 131.068C299.745 130.935 298.768 131.482 297.891 131.4C297.013 131.317 296.136 131.25 295.259 131.184C294.381 131.118 293.504 130.488 292.627 130.471C291.749 130.455 290.839 130.753 289.961 130.786C289.084 130.819 288.256 131.698 287.379 131.781C286.502 131.864 285.608 131.665 284.747 131.781C283.886 131.897 283.009 132.013 282.148 132.195C281.287 132.377 280.592 133.14 279.748 133.372C278.904 133.604 277.629 132.427 276.785 132.709C275.941 132.991 275.146 133.455 274.335 133.803C273.524 134.151 273.275 135.692 272.497 136.09C271.719 136.488 270.561 136.157 269.799 136.621C269.038 137.085 268.641 138.029 267.912 138.543C267.184 139.057 266.82 139.902 266.124 140.483C265.429 141.063 263.807 140.483 263.161 141.096C262.516 141.709 262.648 143.052 262.036 143.715C261.423 144.378 260.298 144.51 259.735 145.206C259.172 145.902 259.304 147.079 258.791 147.792C258.278 148.505 257.202 148.803 256.722 149.566C256.242 150.328 255.696 151.008 255.265 151.787C254.835 152.566 254.587 153.411 254.189 154.223C253.792 155.035 254.14 156.129 253.775 156.941C253.411 157.753 253.047 158.499 252.716 159.345C252.385 160.19 251.706 160.919 251.988 161.682C252.286 162.477 252.683 163.754 253.444 164.168C254.156 164.549 255.563 164.765 256.457 164.533C257.599 164.234 257.55 164.035 258.675 163.737C259.801 163.439 259.503 162.262 260.645 161.963C261.787 161.665 261.986 162.428 263.128 162.146C263.443 162.063 264.32 161.881 264.419 161.566C264.635 160.82 264.419 159.709 264.767 158.648C265.065 157.77 264.502 156.477 264.883 155.566C265.264 154.654 266.141 153.858 266.571 153.079C267.167 151.985 267.879 150.792 268.475 150.543C269.303 150.195 269.352 151.72 269.286 153.311C269.253 154.157 270.014 155.251 269.899 156.295C269.783 157.273 268.789 158.184 268.707 159.113C268.657 159.759 269.716 160.637 270.362 160.472C271.653 160.14 271.372 159.063 272.663 158.731C273.954 158.4 274.07 158.814 275.361 158.483C276.652 158.151 276.917 159.146 278.208 158.814C279.5 158.483 279.367 157.936 280.658 157.604C280.989 157.521 280.675 156.991 280.774 156.66C280.973 155.914 281.287 155.135 281.519 154.273C281.734 153.494 282.33 152.781 282.562 151.969C282.794 151.157 282.512 150.195 282.744 149.4C282.976 148.604 283.506 147.842 283.754 147.079C284.035 146.217 284.035 145.273 284.284 144.593C284.697 143.532 286.138 143.3 286.436 142.936C286.916 142.322 286.7 143.018 286.402 144.759C286.287 145.505 286.436 146.466 286.253 147.444C286.088 148.273 285.161 149.002 284.979 149.897C284.797 150.792 285.509 151.836 285.343 152.698C285.161 153.61 284.201 154.339 284.035 155.151C283.903 155.831 284.466 155.897 285.144 155.731C286.717 155.317 286.816 155.748 288.389 155.35C288.703 155.267 289.034 155.151 289.134 154.853C289.432 153.908 289.928 152.98 290.276 152.035C290.657 151.024 290.723 149.93 291.104 149.085C291.683 147.858 292.064 146.499 292.577 146.184C293.189 145.786 294.001 147.046 293.934 148.372C293.901 149.019 292.941 149.715 292.825 150.56C292.726 151.289 292.378 152.019 292.262 152.798C292.163 153.477 293.603 154.555 294.265 154.389C295.54 154.057 295.391 153.461 296.682 153.129C297.973 152.798 297.808 152.201 299.082 151.869C300.357 151.538 300.605 152.45 301.88 152.118C303.155 151.787 303.006 151.19 304.28 150.858C305.555 150.527 305.836 151.604 307.111 151.273C308.386 150.941 308.237 150.311 309.511 149.98C310.786 149.648 310.587 148.886 311.878 148.554C313.17 148.223 313.17 148.289 314.461 147.941C315.752 147.593 316.066 148.853 317.341 148.505C318.616 148.157 318.301 146.93 319.592 146.599C320.883 146.267 321.082 147.079 322.373 146.748C323.664 146.416 323.631 146.284 324.923 145.952C326.214 145.621 326.412 146.416 327.704 146.085C328.829 145.786 329.127 144.096 329.243 143.135C329.359 142.173 329.094 141.046 328.051 140.549L328.001 140.499Z" fill="#00AA89"/>
<path d="M326.182 141.896C325.371 142.012 324.543 142.493 323.616 142.658C322.789 142.808 321.911 142.94 321.017 143.106C320.19 143.272 319.279 143.272 318.402 143.471C317.574 143.653 316.78 144.167 315.902 144.382C315.025 144.598 314.346 145.294 313.486 145.526C312.625 145.758 311.781 145.857 310.92 146.123C310.059 146.388 308.917 145.625 308.073 145.907C307.228 146.189 306.682 147.25 305.854 147.565C305.027 147.879 304.05 147.747 303.222 148.078C302.395 148.41 302.031 149.752 301.219 150.1C300.408 150.449 299.266 150.051 298.472 150.432C297.677 150.813 297.28 151.924 296.502 152.355C295.724 152.786 294.581 152.504 293.82 152.951C293.059 153.399 292.082 153.515 291.337 153.996C290.592 154.476 289.946 155.139 289.235 155.653C288.523 156.167 288.076 157.045 287.381 157.609C286.685 158.172 286.603 159.366 285.941 159.962C285.278 160.559 283.623 160.078 282.994 160.708C282.365 161.338 282.067 162.299 281.504 162.962C280.941 163.625 280.147 164.156 279.617 164.852C279.087 165.548 279.435 166.874 278.955 167.603C278.475 168.333 278.276 169.195 277.862 169.974C277.449 170.753 275.727 170.852 275.363 171.664C274.999 172.476 275.28 173.554 274.982 174.399C274.684 175.244 274.634 176.123 274.386 176.968C274.138 177.813 272.996 178.427 272.797 179.305C272.598 180.184 273.757 181.261 273.625 182.156C273.492 183.051 272.234 183.747 272.151 184.642C272.069 185.537 272.449 186.432 272.433 187.327C272.416 188.222 272.118 189.084 272.151 189.979C272.185 190.874 273.128 191.67 273.194 192.565C273.261 193.46 273.476 194.256 273.592 195.151C273.707 196.046 273.674 196.891 273.823 197.77C273.972 198.648 273.823 199.543 274.005 200.421C274.188 201.3 274.552 202.145 275.214 202.609C275.909 203.107 276.869 203.488 277.713 203.405C278.525 203.322 279.385 202.775 279.981 202.079C280.759 201.2 280.743 201.184 281.504 200.289C282.266 199.394 282.332 199.444 283.11 198.565C283.888 197.687 283.722 197.537 284.5 196.642C284.716 196.394 284.732 196.112 284.633 195.797C284.401 195.068 284.517 193.974 284.219 192.913C283.971 192.018 283.441 191.14 283.226 190.178C283.011 189.217 283.474 188.14 283.375 187.261C283.259 186.018 282.266 184.791 282.613 184.245C283.11 183.482 283.855 184.709 284.699 186.051C285.146 186.78 285.792 187.559 286.288 188.488C286.752 189.366 287.314 190.195 287.778 191.024C288.092 191.604 289.549 192.134 289.98 191.637C290.857 190.626 289.781 189.681 290.658 188.67C291.536 187.659 292.247 188.289 293.125 187.278C294.002 186.267 294.002 186.267 294.896 185.256C295.79 184.245 295.525 184.012 296.402 183.018C296.634 182.769 296.949 182.421 296.833 182.106C296.584 181.377 296.684 180.465 296.402 179.62C296.154 178.858 295.459 178.195 295.211 177.383C294.962 176.57 294.78 175.758 294.548 174.963C294.317 174.167 294.317 173.255 294.101 172.493C293.853 171.615 293.141 170.935 292.976 170.206C292.711 169.095 292.281 168.184 292.314 167.719C292.363 166.957 292.86 167.951 293.605 169.559C293.919 170.255 295.293 170.637 295.674 171.548C296.005 172.327 295.078 173.686 295.426 174.532C295.773 175.377 297.247 175.708 297.594 176.521C297.958 177.383 297.396 178.593 297.727 179.355C298.008 180.001 299.067 179.836 299.531 179.322C300.607 178.095 301.319 178.742 302.395 177.515C302.61 177.267 302.213 176.405 302.13 176.09C301.848 175.145 301.567 174.15 301.319 173.156C301.054 172.112 301.435 171.001 301.302 170.09C301.087 168.747 300.706 167.935 300.955 167.371C301.253 166.692 301.766 166.858 302.444 168.001C302.775 168.565 302.891 169.41 303.272 170.189C303.603 170.852 303.901 171.565 304.249 172.278C304.547 172.891 304.745 172.592 305.192 172.079C306.07 171.084 307.195 172.079 308.056 171.068C308.917 170.056 308.818 169.974 309.678 168.979C310.539 167.985 309.579 167.123 310.44 166.128C311.301 165.134 311.946 165.697 312.823 164.703C313.701 163.708 313.254 163.327 314.131 162.333C315.009 161.338 314.661 161.04 315.538 160.045C316.416 159.051 317.525 160.045 318.402 159.034C319.279 158.023 318.501 157.344 319.379 156.349C320.256 155.355 320.819 155.852 321.696 154.857C322.574 153.863 321.961 153.316 322.822 152.321C323.683 151.327 324.245 151.808 325.123 150.797C326 149.786 326.083 149.868 326.96 148.857C327.838 147.846 327.689 147.73 328.566 146.719C329.327 145.841 328.682 144.896 328.218 144.034C327.755 143.172 327.275 141.73 326.116 141.896H326.182Z" fill="#00DBB1"/>
<path d="M325.668 143.013C326.48 143.129 327.44 142.615 328.367 142.764C329.194 142.914 330.171 142.483 331.081 142.665C331.909 142.831 332.786 142.963 333.68 143.162C334.508 143.345 335.087 144.737 335.965 144.952C336.842 145.168 337.885 144.488 338.746 144.737C339.607 144.985 340.434 145.217 341.278 145.483C342.123 145.748 342.768 146.577 343.612 146.858C344.457 147.14 345.168 147.654 346.013 147.969C346.857 148.284 347.519 148.864 348.347 149.195C349.174 149.527 350.267 149.129 351.078 149.477C351.889 149.825 352.899 149.742 353.694 150.124C354.488 150.505 354.77 151.864 355.548 152.278C356.326 152.693 357.037 153.157 357.799 153.604C358.56 154.052 359.736 153.803 360.464 154.3C361.192 154.798 361.954 155.245 362.666 155.776C363.377 156.306 364.337 156.521 365.033 157.068C365.728 157.615 366.076 158.61 366.721 159.19C367.367 159.77 367.599 160.798 368.211 161.428C368.823 162.057 370.28 161.925 370.86 162.604C371.439 163.284 371.836 164.129 372.366 164.825C372.896 165.522 372.565 166.831 373.045 167.577C373.525 168.323 374.468 168.754 374.899 169.533C375.329 170.312 374.998 171.422 375.379 172.234C375.759 173.047 376.587 173.593 376.902 174.422C377.216 175.251 377.911 175.931 378.16 176.792C378.408 177.654 377.862 178.665 378.06 179.544C378.259 180.422 378.954 181.152 379.087 182.03C379.219 182.909 378.474 183.837 378.557 184.732C378.64 185.627 379.55 186.406 379.567 187.301C379.583 188.196 379.699 189.058 379.683 189.953C379.666 190.848 379.252 191.677 379.169 192.572C379.087 193.467 379.087 194.312 378.971 195.207C378.855 196.102 378.557 196.914 378.408 197.793C378.259 198.671 377.58 199.4 377.398 200.279C377.216 201.157 377.398 202.069 376.736 202.533C376.041 203.03 375.23 202.55 374.385 202.467C373.574 202.384 373.127 202.318 372.515 201.621C371.737 200.743 371.406 201.025 370.628 200.146C369.85 199.268 370.363 198.804 369.585 197.925C368.807 197.047 368.161 197.61 367.383 196.715C367.168 196.467 367.168 196.085 367.267 195.754C367.499 195.025 367.168 193.881 367.466 192.804C367.714 191.909 368.89 191.179 369.088 190.218C369.287 189.257 368.41 188.096 368.492 187.218C368.608 185.975 369.237 185.047 368.873 184.5C368.377 183.737 367.88 184.549 367.052 185.892C366.605 186.621 366.043 187.467 365.562 188.395C365.099 189.273 365.149 190.45 364.702 191.262C364.387 191.842 362.368 192.124 361.937 191.643C361.06 190.632 361.523 190.218 360.646 189.224C359.769 188.229 360.116 187.898 359.239 186.903C358.362 185.909 357.915 186.273 357.037 185.262C356.16 184.251 356.888 183.605 355.995 182.594C355.763 182.345 355.63 182.594 355.73 182.279C355.978 181.549 355.531 180.522 355.812 179.676C356.061 178.914 357.137 178.384 357.402 177.571C357.666 176.759 357.584 175.864 357.815 175.069C358.047 174.273 358.329 173.444 358.544 172.665C358.792 171.787 359.189 170.991 359.355 170.279C359.62 169.168 359.454 168.19 359.421 167.726C359.371 166.964 359.107 167.958 358.362 169.549C358.047 170.245 357.567 171.008 357.17 171.903C356.839 172.682 355.514 173.096 355.167 173.942C354.819 174.787 355.25 175.914 354.919 176.726C354.554 177.588 353.793 178.234 353.462 178.997C353.18 179.643 352.287 180.356 351.823 179.842C350.747 178.616 351.393 178.052 350.333 176.842C350.118 176.594 349.323 176.262 349.406 175.947C349.688 175.002 350.714 174.207 350.962 173.229C351.227 172.185 351.873 171.207 352.005 170.312C352.22 168.969 352.071 167.593 351.823 167.03C351.525 166.35 350.532 167.063 349.853 168.207C349.522 168.77 349.919 169.848 349.539 170.61C349.208 171.273 347.536 171.323 347.188 172.035C346.89 172.649 346.89 172.897 346.427 172.384C345.549 171.389 345.764 171.207 344.887 170.196C344.01 169.185 343.232 169.881 342.371 168.903C341.51 167.925 341.295 168.091 340.418 167.096C339.54 166.102 340.649 165.124 339.789 164.129C338.928 163.135 338.398 163.599 337.521 162.604C336.643 161.61 336.461 161.776 335.584 160.765C334.707 159.754 335.435 159.14 334.558 158.146C333.68 157.151 332.671 158.03 331.81 157.035C330.949 156.041 331.81 155.262 330.932 154.267C330.055 153.273 329.741 153.555 328.863 152.56C327.986 151.566 328.201 151.367 327.324 150.372C326.446 149.378 325.768 149.958 324.89 148.963C324.013 147.969 323.93 148.035 323.053 147.041C322.292 146.162 322.325 144.455 322.788 143.593C323.252 142.731 324.493 142.897 325.635 143.063L325.668 143.013Z" fill="#00AA89"/>
<path d="M326.582 138.62C326.267 137.874 326.814 136.664 326.416 135.802C326.069 135.056 324.43 134.858 324.033 134.029C323.652 133.266 324.48 131.857 324.033 131.062C323.635 130.316 322.758 129.769 322.311 128.99C321.864 128.211 321.119 127.664 320.639 126.918C320.159 126.172 320.192 125.112 319.679 124.382C319.166 123.653 318.818 122.824 318.272 122.112C317.726 121.399 316.501 121.266 315.938 120.587C315.375 119.907 315.342 118.763 314.746 118.117C314.15 117.471 313.587 116.741 312.942 116.128C312.296 115.515 311.187 115.415 310.508 114.852C309.83 114.288 309.002 113.94 308.29 113.426C307.578 112.913 306.651 112.78 305.906 112.316C305.162 111.852 304.433 111.487 303.639 111.089C302.844 110.691 302.546 109.299 301.718 108.968C300.891 108.636 299.98 108.586 299.119 108.338C298.259 108.089 297.514 107.343 296.636 107.178C295.759 107.012 294.716 108.421 293.822 108.338C292.928 108.255 292.15 107.559 291.257 107.559C290.363 107.559 289.535 107.675 288.641 107.774C287.747 107.874 287.052 108.62 286.175 108.785C285.297 108.951 284.254 108.056 283.377 108.305C282.5 108.553 281.523 108.305 280.662 108.603C279.802 108.901 279.04 109.332 278.196 109.697C277.352 110.062 277.054 111.388 276.243 111.785C275.316 112.25 274.67 112.796 274.67 113.692C274.67 114.587 275.249 115.299 276.176 115.763C277.335 116.36 277.418 116.178 278.577 116.774C279.735 117.371 279.653 117.52 280.811 118.117C281.026 118.233 281.589 119.145 281.788 119.012C282.4 118.631 282.665 117.106 283.625 116.592C284.453 116.145 285.215 115.266 286.026 114.918C287.168 114.437 288.343 115.316 288.906 115.498C289.717 115.78 288.575 115.946 287.317 117.123C286.572 117.819 286.241 119.161 285.496 119.874C285.148 120.205 285.132 120.537 285.562 120.769C286.721 121.366 286.34 122.128 287.499 122.741C288.658 123.355 289.005 122.692 290.164 123.288C291.323 123.885 290.992 124.548 292.167 125.145C292.382 125.261 292.995 124.565 293.193 124.432C293.872 123.984 294.981 123.968 295.792 123.437C296.554 122.957 297.001 121.896 297.762 121.432C298.59 120.935 299.119 119.924 299.848 119.526C300.957 118.913 302.066 118.349 302.53 118.283C303.159 118.167 302.298 119.194 301.056 120.172C300.51 120.603 300.394 121.846 299.682 122.36C299.053 122.824 298.375 123.321 297.729 123.802C297.083 124.283 296.024 124.333 295.428 124.78C295.031 125.095 294.998 126.239 295.461 126.471C296.521 127.018 296.388 127.283 297.448 127.83C297.663 127.946 298.209 127.233 298.408 127.101C299.037 126.736 299.451 125.891 300.096 125.542C300.791 125.178 301.95 125.808 302.563 125.542C303.473 125.145 303.953 124.996 304.4 125.078C305.062 125.194 304.731 125.625 303.639 126.603C303.076 127.101 302.43 127.714 301.735 128.277C301.354 128.592 301.553 128.294 302 128.526C303.125 129.106 302.877 129.57 304.003 130.15C305.128 130.73 304.864 131.244 305.973 131.824C307.082 132.404 307.628 131.377 308.754 131.957C309.879 132.537 309.78 132.736 310.906 133.316C312.031 133.896 311.568 134.791 312.693 135.388C313.819 135.985 314.084 135.454 315.226 136.034C316.368 136.614 315.988 137.327 317.113 137.907C318.239 138.487 318.504 137.99 319.629 138.57C320.755 139.15 320.97 138.753 322.096 139.349C323.221 139.946 322.857 140.642 323.999 141.222C324.761 141.62 325.671 140.957 326.201 140.476C326.731 139.996 326.863 139.399 326.532 138.603L326.582 138.62Z" fill="#00DBB1"/>
<path d="M328.432 140.905C329.177 140.557 329.906 140.093 330.766 139.711C331.528 139.363 332.008 138.269 332.852 137.921C333.63 137.59 334.59 137.606 335.434 137.275C336.229 136.96 337.073 136.728 337.917 136.43C338.762 136.131 339.242 134.921 340.086 134.64C340.93 134.358 341.774 134.175 342.635 133.91C343.496 133.645 344.671 134.689 345.532 134.457C346.393 134.225 346.989 133.164 347.85 132.949C348.71 132.733 349.488 132.236 350.366 132.054C351.243 131.872 352.087 131.623 352.948 131.474C353.809 131.325 354.769 131.722 355.646 131.606C356.524 131.49 357.368 131.175 358.245 131.093C359.123 131.01 360.05 131.838 360.927 131.789C361.804 131.739 362.648 131.524 363.526 131.507C364.403 131.49 365.297 130.695 366.174 130.728C367.052 130.761 367.962 130.546 368.839 130.628C369.717 130.711 370.611 130.827 371.488 130.96C372.365 131.093 373.177 131.606 374.037 131.789C374.898 131.971 375.66 132.551 376.52 132.783C377.381 133.015 377.994 133.861 378.821 134.142C379.649 134.424 380.642 134.209 381.453 134.557C382.264 134.905 383.324 134.706 384.102 135.12C384.88 135.535 385.112 136.877 385.857 137.341C386.601 137.805 387.197 138.385 387.909 138.899C388.621 139.413 389.482 139.645 390.16 140.225C390.839 140.805 392.147 140.623 392.792 141.236C393.438 141.85 393.372 143.109 393.984 143.772C394.597 144.435 395.011 145.148 395.573 145.844C396.136 146.54 396.666 147.17 397.179 147.899C397.692 148.629 399.033 148.761 399.513 149.524C399.993 150.286 400.258 151.131 400.688 151.927C401.119 152.723 401.45 153.502 401.847 154.314C402.245 155.126 401.649 156.319 401.996 157.148C402.344 157.977 402.907 158.64 403.238 159.469C403.569 160.297 403.585 160.795 403.304 161.557C402.989 162.353 403.105 163.612 402.344 164.01C401.632 164.391 400.639 163.778 399.745 163.529C398.603 163.231 398.371 164.126 397.229 163.811C396.087 163.496 396.07 163.563 394.944 163.248C393.819 162.933 393.852 162.75 392.726 162.452C392.412 162.369 392.279 161.706 392.18 161.391C391.965 160.645 391.981 159.568 391.634 158.524C391.336 157.645 390.442 156.9 390.094 156.004C389.747 155.109 389.829 153.899 389.416 153.12C388.82 152.01 387.793 151.645 387.197 151.38C386.37 151.015 387.065 151.712 387.131 153.303C387.164 154.148 386.138 155.242 386.254 156.286C386.353 157.264 387.545 158.176 387.628 159.104C387.677 159.767 386.403 160.132 385.757 159.966C384.466 159.618 384.499 159.535 383.208 159.187C381.917 158.839 381.884 158.938 380.592 158.59C379.301 158.242 379.136 158.855 377.845 158.507C376.553 158.159 376.636 157.844 375.345 157.496C375.014 157.413 374.07 157.264 373.988 156.949C373.789 156.203 374.037 155.275 373.806 154.413C373.59 153.634 373.392 152.822 373.16 152.01C372.928 151.198 373.64 150.12 373.392 149.325C373.143 148.529 371.554 148.115 371.323 147.352C371.041 146.491 372.067 145.231 371.803 144.535C371.405 143.457 370.528 142.761 370.247 142.397C369.766 141.783 369.7 142.894 369.982 144.634C370.098 145.38 369.667 146.391 369.866 147.352C370.031 148.181 370.015 149.109 370.197 150.004C370.379 150.899 371.405 151.579 371.571 152.441C371.753 153.353 371.207 154.364 371.356 155.192C371.472 155.872 371.554 155.723 370.892 155.54C369.32 155.126 369.154 155.789 367.581 155.358C367.267 155.275 366.754 155.109 366.671 154.795C366.373 153.85 365.661 153.021 365.314 152.06C364.949 151.049 364.536 150.154 364.155 149.308C363.592 148.065 363.907 146.491 363.393 146.159C362.781 145.761 362.268 146.855 362.334 148.181C362.367 148.828 361.904 149.689 362.019 150.551C362.119 151.281 363.741 151.844 363.857 152.623C363.956 153.303 362.483 154.115 361.821 153.949C360.546 153.601 360.53 153.667 359.238 153.319C357.947 152.971 357.798 153.601 356.507 153.253C355.216 152.905 355.514 151.844 354.239 151.496C352.965 151.148 353.097 150.651 351.822 150.303C350.548 149.955 350.515 150.071 349.24 149.739C347.965 149.408 347.684 150.435 346.393 150.104C345.102 149.772 345.218 149.375 343.943 149.026C342.668 148.678 342.602 148.91 341.328 148.562C340.053 148.214 339.987 148.413 338.712 148.082C337.437 147.75 337.471 147.584 336.196 147.236C334.921 146.888 335.186 145.861 333.912 145.513C332.637 145.165 332.322 146.292 331.048 145.96C329.773 145.629 329.641 146.043 328.366 145.712C327.24 145.413 327.224 143.673 327.125 142.712C327.025 141.75 327.389 141.435 328.432 140.938V140.905Z" fill="#00DBB1"/>
<path d="M323.288 141.081C323.553 140.302 323.454 139.325 323.785 138.43C324.083 137.651 324.43 136.822 324.795 135.96C325.126 135.164 325.539 134.385 325.92 133.54C326.268 132.761 326.036 131.634 326.433 130.822C326.831 130.01 328.585 129.943 328.999 129.131C329.413 128.319 329.297 127.291 329.744 126.512C330.191 125.733 330.34 124.805 330.803 124.043C331.267 123.28 332.277 122.899 332.79 122.153C333.303 121.407 333.32 120.363 333.849 119.634C334.379 118.904 334.478 117.86 335.041 117.164C335.604 116.468 336.68 116.203 337.276 115.54C337.872 114.877 338.17 113.915 338.799 113.286C339.428 112.656 340.636 112.639 341.298 112.042C341.961 111.446 342.606 110.849 343.301 110.302C343.997 109.755 344.576 109.042 345.321 108.545C346.066 108.048 346.513 107.053 347.291 106.623C348.069 106.192 348.896 105.777 349.708 105.396C350.519 105.015 351.777 105.761 352.621 105.446C353.465 105.131 353.978 103.921 354.839 103.672C355.7 103.424 356.644 103.573 357.537 103.407C358.431 103.241 359.242 102.794 360.136 102.711C361.03 102.628 361.924 102.562 362.818 102.545C363.712 102.529 364.54 103.556 365.45 103.606C366.36 103.656 367.271 102.761 368.181 102.877C369.092 102.993 369.787 103.921 370.681 104.103C371.575 104.285 372.369 104.451 373.263 104.683C374.157 104.915 374.886 105.28 375.746 105.562C376.607 105.844 377.518 105.777 378.362 106.109C379.206 106.44 380.067 106.573 380.894 106.954C381.623 107.269 382.351 107.634 382.649 108.263C382.964 108.943 382.219 109.589 382.004 110.286C381.788 110.982 381.639 111.114 380.928 111.512C379.603 112.275 380.365 113.617 379.057 114.363C377.749 115.109 377.484 114.678 376.16 115.44C375.912 115.589 375.266 115.656 375.018 115.507C374.422 115.175 373.661 114.777 372.8 114.33C372.071 113.965 371.591 112.971 370.813 112.623C370.035 112.275 369.092 112.158 368.347 111.926C367.304 111.612 366.327 111.429 365.814 111.628C365.086 111.91 365.698 112.722 366.725 113.667C367.271 114.164 368.43 114.147 369.141 114.728C369.804 115.258 370.135 116.269 370.764 116.799C371.194 117.164 370.631 117.396 370.135 117.678C369.141 118.241 369.274 118.49 368.264 119.054C367.254 119.617 367.9 120.728 366.89 121.308C365.88 121.888 365.616 121.391 364.606 121.971C363.596 122.551 363.397 122.186 362.404 122.766C362.156 122.916 362.305 122.402 362.04 122.253C361.345 121.855 360.534 121.49 359.722 121.043C358.978 120.628 357.802 120.91 357.041 120.479C356.279 120.048 355.65 119.302 354.905 118.904C354.061 118.473 353.3 117.993 352.588 117.661C351.495 117.147 350.403 117.744 349.956 117.661C349.211 117.562 350.519 117.131 352.058 118.225C352.753 118.706 352.82 120.363 353.697 120.943C354.475 121.474 355.799 121.275 356.594 121.822C357.388 122.369 358.448 122.683 359.176 123.181C359.673 123.529 359.64 125.12 359.127 125.418C357.918 126.114 357.637 125.634 356.428 126.33C356.18 126.463 355.799 126.661 355.551 126.529C354.79 126.131 354.359 124.921 353.565 124.54C352.72 124.142 351.76 123.927 351.015 123.645C349.906 123.23 348.863 123.761 348.35 123.877C347.572 124.043 348.681 124.125 350.039 125.236C350.734 125.8 351.545 126.413 352.406 127.043C352.886 127.391 352.604 128.766 352.108 129.048C350.933 129.711 350.75 129.38 349.575 130.059C348.4 130.739 348.102 130.192 346.927 130.855C345.751 131.518 346.033 131.999 344.857 132.678C343.682 133.358 343.997 133.888 342.821 134.568C341.646 135.247 341.116 134.302 339.941 134.965C338.766 135.628 338.683 135.496 337.508 136.159C336.332 136.822 336.498 137.12 335.323 137.783C334.147 138.446 334.644 139.325 333.469 139.988C332.293 140.651 331.846 139.855 330.671 140.535C329.496 141.214 329.43 141.081 328.254 141.761C327.079 142.441 327.095 142.474 325.92 143.153C325.059 143.651 324.016 144.33 323.354 143.8C322.692 143.269 322.941 142.043 323.272 141.098L323.288 141.081Z" fill="#00AA89"/>
</g>
<defs>
<clipPath id="clip0_940_12303">
<rect width="252.655" height="255.381" fill="white" transform="translate(0 0.462891)"/>
</clipPath>
<clipPath id="clip1_940_12303">
<rect width="151.663" height="153.3" fill="white" transform="translate(251.859 102.545)"/>
</clipPath>
</defs>
</svg>
