<svg xmlns="http://www.w3.org/2000/svg" width="25" height="25" viewBox="0 0 25 25" fill="none">
  <path d="M8.1211 8.96875H8.1311M2.12109 6.16875L2.12109 10.6433C2.12109 11.1324 2.12109 11.377 2.17635 11.6072C2.22535 11.8113 2.30616 12.0064 2.41581 12.1853C2.5395 12.3872 2.71245 12.5601 3.05835 12.906L10.727 20.5746C11.915 21.7627 12.5091 22.3567 13.194 22.5793C13.7966 22.775 14.4456 22.775 15.0481 22.5793C15.7331 22.3567 16.3272 21.7627 17.5152 20.5746L19.727 18.3629C20.915 17.1748 21.5091 16.5808 21.7316 15.8958C21.9274 15.2933 21.9274 14.6442 21.7316 14.0417C21.5091 13.3567 20.915 12.7627 19.727 11.5746L12.0583 3.90601C11.7124 3.5601 11.5395 3.38715 11.3377 3.26347C11.1587 3.15381 10.9636 3.073 10.7596 3.02401C10.5294 2.96875 10.2848 2.96875 9.79561 2.96875L5.32109 2.96875C4.20099 2.96875 3.64094 2.96875 3.21311 3.18674C2.83679 3.37848 2.53083 3.68444 2.33908 4.06077C2.12109 4.48859 2.12109 5.04864 2.12109 6.16875ZM8.6211 8.96875C8.6211 9.24489 8.39724 9.46875 8.1211 9.46875C7.84495 9.46875 7.6211 9.24489 7.6211 8.96875C7.6211 8.69261 7.84495 8.46875 8.1211 8.46875C8.39724 8.46875 8.6211 8.69261 8.6211 8.96875Z" stroke="#FB3463" stroke-width="2" stroke-linecap="round" stroke-linejoin="round"/>
</svg>