<svg xmlns="http://www.w3.org/2000/svg" width="25" height="25" viewBox="0 0 25 25" fill="none">
  <path d="M10.1211 8.96875V7.96875M10.1211 13.4688V12.4688M10.1211 17.9688V16.9688M5.32109 4.96875H18.9211C20.0412 4.96875 20.6013 4.96875 21.0291 5.18674C21.4054 5.37848 21.7114 5.68444 21.9031 6.06077C22.1211 6.48859 22.1211 7.04865 22.1211 8.16875V9.46875C20.1881 9.46875 18.6211 11.0358 18.6211 12.9688C18.6211 14.9017 20.1881 16.4688 22.1211 16.4688V17.7688C22.1211 18.8889 22.1211 19.4489 21.9031 19.8767C21.7114 20.2531 21.4054 20.559 21.0291 20.7508C20.6013 20.9688 20.0412 20.9688 18.9211 20.9688H5.32109C4.20099 20.9688 3.64094 20.9688 3.21311 20.7508C2.83679 20.559 2.53083 20.2531 2.33908 19.8767C2.12109 19.4489 2.12109 18.8889 2.12109 17.7688V16.4688C4.05409 16.4688 5.62109 14.9017 5.62109 12.9688C5.62109 11.0358 4.05409 9.46875 2.12109 9.46875V8.16875C2.12109 7.04865 2.12109 6.48859 2.33908 6.06077C2.53083 5.68444 2.83679 5.37848 3.21311 5.18674C3.64094 4.96875 4.20099 4.96875 5.32109 4.96875Z" stroke="#FB3463" stroke-width="2" stroke-linecap="round" stroke-linejoin="round"/>
</svg>