<svg xmlns="http://www.w3.org/2000/svg" width="25" height="24" viewBox="0 0 25 24" fill="none">
<path d="M10.8301 1.95312C6.41178 1.95312 2.83018 5.53513 2.83008 9.95313C2.83008 14.3711 6.41178 17.9531 10.8301 17.9531C12.6668 17.9531 14.3905 17.3041 15.7409 16.2631L20.1113 20.6721C20.5019 21.0621 21.1583 21.0621 21.5489 20.6721C21.9394 20.2811 21.9394 19.6251 21.5489 19.2341L17.1429 14.8581C18.1837 13.5081 18.8301 11.7901 18.8301 9.95313C18.8301 5.53513 15.2484 1.95312 10.8301 1.95312ZM10.8301 3.95313C14.1438 3.95313 16.83 6.63913 16.8301 9.95313C16.8301 13.2671 14.1438 15.9531 10.8301 15.9531C7.51638 15.9531 4.83018 13.2671 4.83008 9.95313C4.83008 6.63913 7.51638 3.95313 10.8301 3.95313Z" fill="#CFCFCF"/>
</svg>