<svg xmlns="http://www.w3.org/2000/svg" width="60" height="61" viewBox="0 0 60 61" fill="none">
  <g clip-path="url(#clip0_986_11154)">
    <path d="M30 52.5762C30 53.9587 28.88 55.0762 27.5 55.0762H12.5C5.6075 55.0762 0 49.4687 0 42.5762V12.5762C0 5.68367 5.6075 0.0761719 12.5 0.0761719H42.5C49.3925 0.0761719 55 5.68367 55 12.5762V27.5762C55 28.9587 53.88 30.0762 52.5 30.0762C51.12 30.0762 50 28.9587 50 27.5762V12.5762C50 8.44117 46.635 5.07617 42.5 5.07617H12.5C8.365 5.07617 5 8.44117 5 12.5762V29.9737L12.02 22.9537C15.85 19.1212 22.0825 19.1212 25.915 22.9537L39.2675 36.3062C40.245 37.2837 40.245 38.8637 39.2675 39.8412C38.78 40.3287 38.14 40.5737 37.5 40.5737C36.86 40.5737 36.22 40.3287 35.7325 39.8412L22.38 26.4887C20.5 24.6112 17.44 24.6087 15.555 26.4887L5 37.0437V42.5762C5 46.7112 8.365 50.0762 12.5 50.0762H27.5C28.88 50.0762 30 51.1937 30 52.5762ZM37.5 8.82617C41.635 8.82617 45 12.1912 45 16.3262C45 20.4612 41.635 23.8262 37.5 23.8262C33.365 23.8262 30 20.4612 30 16.3262C30 12.1912 33.365 8.82617 37.5 8.82617ZM37.5 13.8262C36.1225 13.8262 35 14.9462 35 16.3262C35 17.7062 36.1225 18.8262 37.5 18.8262C38.8775 18.8262 40 17.7062 40 16.3262C40 14.9462 38.8775 13.8262 37.5 13.8262ZM57.5 45.0762H50V37.5762C50 36.1937 48.88 35.0762 47.5 35.0762C46.12 35.0762 45 36.1937 45 37.5762V45.0762H37.5C36.12 45.0762 35 46.1937 35 47.5762C35 48.9587 36.12 50.0762 37.5 50.0762H45V57.5762C45 58.9587 46.12 60.0762 47.5 60.0762C48.88 60.0762 50 58.9587 50 57.5762V50.0762H57.5C58.88 50.0762 60 48.9587 60 47.5762C60 46.1937 58.88 45.0762 57.5 45.0762Z" fill="white"/>
  </g>
  <defs>
    <clipPath id="clip0_986_11154">
      <rect width="60" height="60" fill="white" transform="translate(0 0.0761719)"/>
    </clipPath>
  </defs>
</svg>